<?xml version="1.0" encoding="UTF-8" standalone="no"?>
<svg
   xmlns:osb="http://www.openswatchbook.org/uri/2009/osb"
   xmlns:dc="http://purl.org/dc/elements/1.1/"
   xmlns:cc="http://creativecommons.org/ns#"
   xmlns:rdf="http://www.w3.org/1999/02/22-rdf-syntax-ns#"
   xmlns:svg="http://www.w3.org/2000/svg"
   xmlns="http://www.w3.org/2000/svg"
   xmlns:sodipodi="http://sodipodi.sourceforge.net/DTD/sodipodi-0.dtd"
   xmlns:inkscape="http://www.inkscape.org/namespaces/inkscape"
   width="30px"
   height="30px"
   viewBox="0 0 30 30"
   version="1.1"
   id="svg2"
   inkscape:version="0.91 r13725"
   sodipodi:docname="SideBarActionDeleteAll.svg">
  <metadata
     id="metadata19">
    <rdf:RDF>
      <cc:Work
         rdf:about="">
        <dc:format>image/svg+xml</dc:format>
        <dc:type
           rdf:resource="http://purl.org/dc/dcmitype/StillImage" />
        <dc:title>Icon - Tools</dc:title>
      </cc:Work>
    </rdf:RDF>
  </metadata>
  <sodipodi:namedview
     pagecolor="#ffffff"
     bordercolor="#666666"
     borderopacity="1"
     objecttolerance="10"
     gridtolerance="10"
     guidetolerance="10"
     inkscape:pageopacity="0"
     inkscape:pageshadow="2"
     inkscape:window-width="1920"
     inkscape:window-height="1018"
     id="namedview17"
     showgrid="false"
     inkscape:zoom="11.125147"
     inkscape:cx="36.605967"
     inkscape:cy="30.335346"
     inkscape:window-x="-8"
     inkscape:window-y="-8"
     inkscape:window-maximized="1"
     inkscape:current-layer="Proposition" />
  <!-- Generator: Sketch 40.3 (33839) - http://www.bohemiancoding.com/sketch -->
  <title
     id="title4">Icon - Tools</title>
  <desc
     id="desc6">Created with Sketch.</desc>
  <defs
     id="defs8">
    <linearGradient
       osb:paint="solid"
       id="linearGradient3965">
      <stop
         id="stop3967"
         offset="0"
         style="stop-color:#239def;stop-opacity:1;" />
    </linearGradient>
  </defs>
  <g
     id="Proposition"
     stroke="none"
     stroke-width="1"
     fill="none"
     fill-rule="evenodd">
    <g
       id="Widget---Updated-Today"
       transform="matrix(0.8220339,0,0,0.8779661,-1511.9661,-634.22882)"
       style="fill:#239de8">
      <g
         id="Style-02-/-Board-03"
         transform="translate(34,34)">
        <g
           id="Style03-/-Menu-Copy"
           transform="translate(1790,552)">
          <g
             id="Icon---Tools"
             transform="translate(17,139)">
            <path
               d="M 23.656078,27.289138 C 23.646593,27.681895 23.338283,28 22.94613,28 L 3.3660262,28 C 2.9737941,28 2.6560785,27.682325 2.6560785,27.290052 l 0,-19.5801043 C 2.6560785,7.3146297 2.9687678,7 3.359147,7 l 4.9598615,0 c 0.5522848,0 1,-0.4477153 1,-1 0,-0.5522848 -0.4477152,-1 -1,-1 L 3.359147,5 C 1.8614192,5 0.65607846,6.2128204 0.65607846,7.7099477 l 0,19.5801043 C 0.65607846,28.786952 1.8692822,30 3.3660262,30 L 22.94613,30 c 1.49702,0 2.603707,-1.217041 2.709948,-2.710862 l 0.328039,-4.612445 c -1,2.040541 -0.557061,0.183143 -1.109346,0.183143 -0.552285,0 -0.109347,1.942212 -1.109347,-0.09833 z"
               id="Rectangle-2"
               inkscape:connector-curvature="0"
               sodipodi:nodetypes="ssssssssssssssscscs" />
          </g>
        </g>
      </g>
    </g>
    <g
       id="Widget---Updated-Today-1"
       transform="matrix(0.8220339,0,0,0.8779661,-1505.5427,-639.53113)"
       style="fill:#239de8">
      <g
         id="Style-02-/-Board-03-0"
         transform="translate(34,34)">
        <g
           id="Style03-/-Menu-Copy-9"
           transform="translate(1790,552)">
          <g
             id="Icon---Tools-3"
             transform="translate(17,139)">
            <path
               d="M 23,27.289138 C 23,27.681995 22.682205,28 22.290052,28 L 2.7099477,28 C 2.3177156,28 2,27.682325 2,27.290052 L 2,7.7099477 C 2,7.3146297 2.3126893,7 2.7030685,7 L 7.66293,7 c 0.5522848,0 1,-0.4477153 1,-1 0,-0.5522848 -0.4477152,-1 -1,-1 L 2.7030685,5 C 1.2053407,5 0,6.2128204 0,7.7099477 L 0,27.290052 C 0,28.786952 1.2132037,30 2.7099477,30 L 22.290052,30 C 23.787072,30 25,28.786267 25,27.289138 l 0,-5.343659 c 0,-0.552284 -0.447715,-1 -1,-1 -0.552285,0 -1,0.447716 -1,1 l 0,5.343659 z"
               id="Rectangle-2-4"
               inkscape:connector-curvature="0" />
          </g>
        </g>
      </g>
    </g>
    <g
       id="Widget---Updated-Today-1-6"
       transform="matrix(-0.8220339,0,0,-0.8779661,1541.737,664.24854)"
       style="fill:#239de8">
      <g
         id="Style-02-/-Board-03-0-4"
         transform="translate(34,34)">
        <g
           id="Style03-/-Menu-Copy-9-4"
           transform="translate(1790,552)">
          <g
             id="Icon---Tools-3-4"
             transform="translate(17,139)">
            <path
               d="M 23,27.289138 C 23,27.681995 22.682205,28 22.290052,28 L 2.7099477,28 C 2.3177156,28 2,27.682325 2,27.290052 L 2,7.7099477 C 2,7.3146297 2.3126893,7 2.7030685,7 L 7.66293,7 c 0.5522848,0 1,-0.4477153 1,-1 0,-0.5522848 -0.4477152,-1 -1,-1 L 2.7030685,5 C 1.2053407,5 0,6.2128204 0,7.7099477 L 0,27.290052 C 0,28.786952 1.2132037,30 2.7099477,30 L 22.290052,30 C 23.787072,30 25,28.786267 25,27.289138 l 0,-5.343659 c 0,-0.552284 -0.447715,-1 -1,-1 -0.552285,0 -1,0.447716 -1,1 l 0,5.343659 z"
               id="Rectangle-2-4-3"
               inkscape:connector-curvature="0" />
          </g>
        </g>
      </g>
    </g>
    <path
       inkscape:connector-curvature="0"
       id="path2995"
       d="m 13.561668,10.627361 4.179595,4.389872 6.090266,-7.2404388"
       style="fill:none;stroke:#627a8f;stroke-width:1.2851311;stroke-linecap:round;stroke-linejoin:round;stroke-miterlimit:4;stroke-dasharray:none;stroke-dashoffset:0;stroke-opacity:0.94117647;marker-start:none" />
    <path
       style="opacity:1;fill:#239de8;fill-opacity:1;stroke:#269de6;stroke-width:0;stroke-miterlimit:4;stroke-dasharray:none;stroke-opacity:1"
       d="m 15.696518,13.797707 c -0.979709,-1.025829 -2.002697,-2.095599 -2.273307,-2.377265 -0.375869,-0.391228 -0.492017,-0.57662 -0.492017,-0.785347 0,-0.37122 0.25736,-0.635091 0.619419,-0.635091 0.263213,0 0.480289,0.196767 2.206396,1.999974 1.052953,1.099985 1.921015,2.011305 1.929025,2.025156 0.008,0.01385 1.178954,-1.361412 2.602097,-3.056139 1.423143,-1.694728 2.751676,-3.2532306 2.952295,-3.4633402 0.421815,-0.441769 0.730269,-0.4938325 1.030756,-0.1739796 0.311258,0.3313205 0.248603,0.6172689 -0.273446,1.2479506 -1.908482,2.3056162 -5.699149,6.7976342 -5.844559,6.9259232 -0.423279,0.37344 -0.559175,0.278967 -2.456659,-1.707842 z"
       id="path4379"
       inkscape:connector-curvature="0" />
  </g>
</svg>
