<?xml version="1.0" encoding="UTF-8" standalone="no"?>
<!-- Generator: Adobe Illustrator 19.0.0, SVG Export Plug-In . SVG Version: 6.00 Build 0)  -->

<svg
   xmlns:dc="http://purl.org/dc/elements/1.1/"
   xmlns:cc="http://creativecommons.org/ns#"
   xmlns:rdf="http://www.w3.org/1999/02/22-rdf-syntax-ns#"
   xmlns:svg="http://www.w3.org/2000/svg"
   xmlns="http://www.w3.org/2000/svg"
   xmlns:sodipodi="http://sodipodi.sourceforge.net/DTD/sodipodi-0.dtd"
   xmlns:inkscape="http://www.inkscape.org/namespaces/inkscape"
   version="1.1"
   id="Capa_1"
   x="0px"
   y="0px"
   viewBox="0 0 768 768"
   xml:space="preserve"
   inkscape:version="0.48.4 r9939"
   width="100%"
   height="100%"
   sodipodi:docname="SideBarActionOnMeetingInPreparation2.svg"><metadata
   id="metadata49"><rdf:RDF><cc:Work
       rdf:about=""><dc:format>image/svg+xml</dc:format><dc:type
         rdf:resource="http://purl.org/dc/dcmitype/StillImage" /></cc:Work></rdf:RDF></metadata><defs
   id="defs47" /><sodipodi:namedview
   pagecolor="#ffffff"
   bordercolor="#666666"
   borderopacity="1"
   objecttolerance="10"
   gridtolerance="10"
   guidetolerance="10"
   inkscape:pageopacity="0"
   inkscape:pageshadow="2"
   inkscape:window-width="1920"
   inkscape:window-height="1017"
   id="namedview45"
   showgrid="false"
   inkscape:zoom="0.92187498"
   inkscape:cx="-65.376335"
   inkscape:cy="411.59966"
   inkscape:window-x="-8"
   inkscape:window-y="-8"
   inkscape:window-maximized="1"
   inkscape:current-layer="layer1" />


<g
   id="g15"
   transform="translate(0,256)">
</g>
<g
   id="g17"
   transform="translate(0,256)">
</g>
<g
   id="g19"
   transform="translate(0,256)">
</g>
<g
   id="g21"
   transform="translate(0,256)">
</g>
<g
   id="g23"
   transform="translate(0,256)">
</g>
<g
   id="g25"
   transform="translate(0,256)">
</g>
<g
   id="g27"
   transform="translate(0,256)">
</g>
<g
   id="g29"
   transform="translate(0,256)">
</g>
<g
   id="g31"
   transform="translate(0,256)">
</g>
<g
   id="g33"
   transform="translate(0,256)">
</g>
<g
   id="g35"
   transform="translate(0,256)">
</g>
<g
   id="g37"
   transform="translate(0,256)">
</g>
<g
   id="g39"
   transform="translate(0,256)">
</g>
<g
   inkscape:groupmode="layer"
   id="layer1"
   inkscape:label="Layer"
   transform="translate(0,256)"><path
     sodipodi:type="arc"
     style="fill:#239de8;fill-opacity:1;stroke:none;stroke-opacity:1"
     id="path3003"
     sodipodi:cx="118.77966"
     sodipodi:cy="113.8983"
     sodipodi:rx="67.796608"
     sodipodi:ry="70.508476"
     d="m 186.57627,113.8983 c 0,38.94076 -30.35357,70.50848 -67.79661,70.50848 -37.44303,0 -67.796605,-31.56772 -67.796605,-70.50848 0,-38.940756 30.353575,-70.508476 67.796605,-70.508476 37.44304,0 67.79661,31.56772 67.79661,70.508476 z"
     transform="matrix(5.6640002,0,0,5.4461537,-288.32736,-492.30765)" /></g><g
   id="g41"
   transform="translate(0,256)">
</g>
<g
   id="g43"
   transform="translate(0,256)">
</g>
<g
   id="g3"
   style="fill:#ffffff;fill-opacity:1;stroke:none"
   transform="translate(128.44068,92.00001)">
	<g
   id="g5"
   style="fill:#ffffff;fill-opacity:1;stroke:none">
		<path
   d="M 457.21,364.789 C 463.391,355.357 467,344.095 467,332 467,309.244 454.265,289.406 435.548,279.238 432.374,254.471 423.907,230.102 410.797,208.256 397.71,186.449 380.254,167.528 360.052,153.136 355.418,124.105 334.066,100.596 306.21,92.788 312.391,83.357 316,72.095 316,60 316,26.916 289.084,0 256,0 c -33.084,0 -60,26.916 -60,60 0,12.095 3.609,23.357 9.79,32.789 -27.856,7.807 -49.208,31.317 -53.842,60.348 -20.202,14.391 -37.658,33.313 -50.745,55.12 -13.11,21.846 -21.577,46.214 -24.751,70.982 C 57.735,289.406 45,309.244 45,332 c 0,12.095 3.609,23.357 9.79,32.789 C 23.224,373.636 0,402.647 0,437 v 60 c 0,8.284 6.716,15 15,15 h 180 c 8.284,0 15,-6.716 15,-15 v -20.98 c 14.082,3.303 29.47,4.98 46,4.98 16.529,0 31.918,-1.677 46,-4.98 V 497 c 0,8.284 6.716,15 15,15 h 180 c 8.284,0 15,-6.716 15,-15 v -60 c 0,-34.353 -23.224,-63.364 -54.79,-72.211 z M 437,332 c 0,16.542 -13.458,30 -30,30 -16.542,0 -30,-13.458 -30,-30 0,-16.542 13.458,-30 30,-30 16.542,0 30,13.458 30,30 z M 256,30 c 16.542,0 30,13.458 30,30 0,16.542 -13.458,30 -30,30 -16.542,0 -30,-13.458 -30,-30 0,-16.542 13.458,-30 30,-30 z m -75,135 c 0,-24.813 20.187,-45 45,-45 h 60 c 24.813,0 45,20.187 45,45 v 45 H 181 v -45 z m -76,137 c 16.542,0 30,13.458 30,30 0,16.542 -13.458,30 -30,30 -16.542,0 -30,-13.458 -30,-30 0,-16.542 13.458,-30 30,-30 z m 75,180 H 30 v -45 c 0,-24.813 20.187,-45 45,-45 h 60 c 24.813,0 45,20.187 45,45 v 45 z m 122,-45 v 8.003 c -13.531,3.935 -29.22,5.997 -46,5.997 -16.781,0 -32.469,-2.062 -46,-5.997 V 437 C 210,402.647 186.776,373.636 155.21,364.789 161.391,355.357 165,344.095 165,332 165,299.938 139.721,273.67 108.048,272.077 114.192,242.375 129.453,214.43 151,193.049 V 225 c 0,8.284 6.716,15 15,15 h 180 c 8.284,0 15,-6.716 15,-15 v -31.951 c 21.547,21.381 36.808,49.326 42.952,79.028 C 372.279,273.67 347,299.938 347,332 c 0,12.095 3.609,23.357 9.79,32.789 C 325.224,373.636 302,402.647 302,437 z m 180,45 H 332 v -45 c 0,-24.813 20.187,-45 45,-45 h 60 c 24.813,0 45,20.187 45,45 v 45 z"
   id="path7"
   style="fill:#ffffff;fill-opacity:1;stroke:none"
   inkscape:connector-curvature="0" />
	</g>
</g><g
   id="g9"
   style="fill:#ffffff;fill-opacity:1;stroke:none"
   transform="translate(128.44068,92.00001)">
	<g
   id="g11"
   style="fill:#ffffff;fill-opacity:1;stroke:none">
		
	</g>
</g></svg>