<?xml version="1.0" encoding="UTF-8" standalone="no"?>
<svg
   xmlns:dc="http://purl.org/dc/elements/1.1/"
   xmlns:cc="http://creativecommons.org/ns#"
   xmlns:rdf="http://www.w3.org/1999/02/22-rdf-syntax-ns#"
   xmlns:svg="http://www.w3.org/2000/svg"
   xmlns="http://www.w3.org/2000/svg"
   xmlns:sodipodi="http://sodipodi.sourceforge.net/DTD/sodipodi-0.dtd"
   xmlns:inkscape="http://www.inkscape.org/namespaces/inkscape"
   width="31px"
   height="30px"
   viewBox="0 0 31 30"
   version="1.1"
   id="svg2"
   inkscape:version="0.48.4 r9939"
   sodipodi:docname="SideBarActionDeleteSelected.open.svg">
  <metadata
     id="metadata16">
    <rdf:RDF>
      <cc:Work
         rdf:about="">
        <dc:format>image/svg+xml</dc:format>
        <dc:type
           rdf:resource="http://purl.org/dc/dcmitype/StillImage" />
        <dc:title>Icon - Delete</dc:title>
      </cc:Work>
    </rdf:RDF>
  </metadata>
  <sodipodi:namedview
     pagecolor="#ffffff"
     bordercolor="#666666"
     borderopacity="1"
     objecttolerance="10"
     gridtolerance="10"
     guidetolerance="10"
     inkscape:pageopacity="0"
     inkscape:pageshadow="2"
     inkscape:window-width="1920"
     inkscape:window-height="1017"
     id="namedview14"
     showgrid="false"
     inkscape:zoom="22.250293"
     inkscape:cx="5.2662724"
     inkscape:cy="16.244397"
     inkscape:window-x="1912"
     inkscape:window-y="-8"
     inkscape:window-maximized="1"
     inkscape:current-layer="Proposition" />
  <!-- Generator: Sketch 40.3 (33839) - http://www.bohemiancoding.com/sketch -->
  <title
     id="title4">Icon - Delete</title>
  <desc
     id="desc6">Created with Sketch.</desc>
  <defs
     id="defs8" />
  <g
     id="Proposition"
     stroke="none"
     stroke-width="1"
     fill="none"
     fill-rule="evenodd">
    <path
       style="opacity:1;fill:#239de8;fill-opacity:1;stroke:#ffffff;stroke-width:0;stroke-miterlimit:4;stroke-dasharray:none;stroke-opacity:1"
       d="M 3.96875 9.25 L 4.03125 9.84375 C 4.5286485 13.284699 6.7010531 27.316059 6.8125 27.8125 C 6.9042008 28.220983 7.1223553 28.58243 7.5 28.96875 C 8.1266339 29.60978 8.7855119 29.925674 9.59375 30 C 9.8734111 30.02574 12.666313 30.04095 15.8125 30.03125 C 21.935428 30.012385 22.009949 30.005923 22.625 29.6875 C 23.057225 29.463731 23.621347 28.965959 23.8125 28.625 C 24.249082 27.846275 24.289708 27.49057 25.78125 17.5625 C 26.646746 11.801551 27.009142 9.5166696 27.0625 9.25 L 24.875 9.25 C 24.876772 9.3455274 24.852873 9.5145625 24.8125 9.8125 C 24.557663 11.693089 22.958922 22.148231 22.40625 25.53125 C 22.090604 27.463386 22.077886 27.540475 21.65625 27.75 C 21.427964 27.863446 21.129022 27.85756 15.40625 27.875 L 9.40625 27.90625 L 9.09375 27.59375 L 8.78125 27.28125 L 8.09375 22.59375 C 7.260833 17.017169 6.2166571 9.9661447 6.15625 9.5 C 6.1394241 9.370159 6.1190802 9.3013724 6.125 9.25 L 3.96875 9.25 z "
       id="path4165" />
    <path
       sodipodi:type="star"
       style="fill:#239de8;fill-opacity:1;stroke:none"
       id="path2993"
       sodipodi:sides="3"
       sodipodi:cx="16.269449"
       sodipodi:cy="11.258674"
       sodipodi:r1="3.7787075"
       sodipodi:r2="1.8893538"
       sodipodi:arg1="2.039763"
       sodipodi:arg2="3.0869606"
       inkscape:flatsided="true"
       inkscape:rounded="0"
       inkscape:randomized="0"
       d="M 14.561607,14.629416 14.204222,8.0942674 20.042519,11.052338 z"
       inkscape:transform-center-x="-0.54911524"
       inkscape:transform-center-y="0.42835052"
       transform="matrix(0.98488723,-0.1731968,0.1731968,0.98488723,-3.5018191,3.0329095)" />
    <path
       style="fill:none;stroke:#239de8;stroke-width:1.79999995;stroke-linecap:butt;stroke-linejoin:miter;stroke-miterlimit:4;stroke-opacity:1;stroke-dasharray:none"
       d="M 14.696436,10.269922 C 15.510011,6.3910151 18.38591,3.0666175 22.381728,1.8205957"
       id="path2995"
       inkscape:connector-curvature="0"
       sodipodi:nodetypes="cc" />
  </g>
</svg>
