<?xml version="1.0" encoding="UTF-8" standalone="no"?>
<!-- Generator: Adobe Illustrator 19.0.0, SVG Export Plug-In . SVG Version: 6.00 Build 0)  -->

<svg
   xmlns:dc="http://purl.org/dc/elements/1.1/"
   xmlns:cc="http://creativecommons.org/ns#"
   xmlns:rdf="http://www.w3.org/1999/02/22-rdf-syntax-ns#"
   xmlns:svg="http://www.w3.org/2000/svg"
   xmlns="http://www.w3.org/2000/svg"
   xmlns:sodipodi="http://sodipodi.sourceforge.net/DTD/sodipodi-0.dtd"
   xmlns:inkscape="http://www.inkscape.org/namespaces/inkscape"
   version="1.1"
   id="Capa_1"
   x="0px"
   y="0px"
   viewBox="0 0 512 512"
   style="enable-background:new 0 0 512 512;"
   xml:space="preserve"
   inkscape:version="0.48.4 r9939"
   width="100%"
   height="100%"
   sodipodi:docname="SideBarActionMeeting.svg"><metadata
   id="metadata49"><rdf:RDF><cc:Work
       rdf:about=""><dc:format>image/svg+xml</dc:format><dc:type
         rdf:resource="http://purl.org/dc/dcmitype/StillImage" /></cc:Work></rdf:RDF></metadata><defs
   id="defs47" /><sodipodi:namedview
   pagecolor="#ffffff"
   bordercolor="#666666"
   borderopacity="1"
   objecttolerance="10"
   gridtolerance="10"
   guidetolerance="10"
   inkscape:pageopacity="0"
   inkscape:pageshadow="2"
   inkscape:window-width="1920"
   inkscape:window-height="1017"
   id="namedview45"
   showgrid="false"
   inkscape:zoom="1.3037281"
   inkscape:cx="226.20017"
   inkscape:cy="308.44752"
   inkscape:window-x="-8"
   inkscape:window-y="-8"
   inkscape:window-maximized="1"
   inkscape:current-layer="Capa_1" />
<g
   id="g3"
   style="stroke-width:0;stroke-miterlimit:4;stroke-dasharray:none;stroke:none;fill:#239de8;fill-opacity:1">
	<g
   id="g5"
   style="stroke-width:0;stroke-miterlimit:4;stroke-dasharray:none;stroke:none;fill:#239de8;fill-opacity:1">
		<path
   d="M457.21,364.789c6.181-9.432,9.79-20.694,9.79-32.789c0-22.756-12.735-42.594-31.452-52.762    c-3.174-24.767-11.641-49.136-24.751-70.982c-13.087-21.807-30.543-40.728-50.745-55.12c-4.634-29.031-25.986-52.54-53.842-60.348    C312.391,83.357,316,72.095,316,60c0-33.084-26.916-60-60-60s-60,26.916-60,60c0,12.095,3.609,23.357,9.79,32.789    c-27.856,7.807-49.208,31.317-53.842,60.348c-20.202,14.391-37.658,33.313-50.745,55.12    c-13.11,21.846-21.577,46.214-24.751,70.982C57.735,289.406,45,309.244,45,332c0,12.095,3.609,23.357,9.79,32.789    C23.224,373.636,0,402.647,0,437v60c0,8.284,6.716,15,15,15h180c8.284,0,15-6.716,15-15v-20.98c14.082,3.303,29.47,4.98,46,4.98    c16.529,0,31.918-1.677,46-4.98V497c0,8.284,6.716,15,15,15h180c8.284,0,15-6.716,15-15v-60    C512,402.647,488.776,373.636,457.21,364.789z M437,332c0,16.542-13.458,30-30,30s-30-13.458-30-30s13.458-30,30-30    S437,315.458,437,332z M256,30c16.542,0,30,13.458,30,30s-13.458,30-30,30s-30-13.458-30-30S239.458,30,256,30z M181,165    c0-24.813,20.187-45,45-45h60c24.813,0,45,20.187,45,45v45H181V165z M105,302c16.542,0,30,13.458,30,30s-13.458,30-30,30    s-30-13.458-30-30S88.458,302,105,302z M180,482H30v-45c0-24.813,20.187-45,45-45h60c24.813,0,45,20.187,45,45V482z M302,437    v8.003c-13.531,3.935-29.22,5.997-46,5.997c-16.781,0-32.469-2.062-46-5.997V437c0-34.353-23.224-63.364-54.79-72.211    c6.181-9.432,9.79-20.694,9.79-32.789c0-32.062-25.279-58.33-56.952-59.923c6.144-29.702,21.405-57.647,42.952-79.028V225    c0,8.284,6.716,15,15,15h180c8.284,0,15-6.716,15-15v-31.951c21.547,21.381,36.808,49.326,42.952,79.028    C372.279,273.67,347,299.938,347,332c0,12.095,3.609,23.357,9.79,32.789C325.224,373.636,302,402.647,302,437z M482,482H332v-45    c0-24.813,20.187-45,45-45h60c24.813,0,45,20.187,45,45V482z"
   id="path7"
   style="stroke-width:0;stroke-miterlimit:4;stroke-dasharray:none;stroke:none;fill:#239de8;fill-opacity:1" />
	</g>
</g>

<g
   id="g15">
</g>
<g
   id="g17">
</g>
<g
   id="g19">
</g>
<g
   id="g21">
</g>
<g
   id="g23">
</g>
<g
   id="g25">
</g>
<g
   id="g27">
</g>
<g
   id="g29">
</g>
<g
   id="g31">
</g>
<g
   id="g33">
</g>
<g
   id="g35">
</g>
<g
   id="g37">
</g>
<g
   id="g39">
</g>
<g
   id="g41">
</g>
<g
   id="g43">
</g>
</svg>