<?xml version="1.0" encoding="UTF-8" standalone="no"?>
<svg
   xmlns:dc="http://purl.org/dc/elements/1.1/"
   xmlns:cc="http://creativecommons.org/ns#"
   xmlns:rdf="http://www.w3.org/1999/02/22-rdf-syntax-ns#"
   xmlns:svg="http://www.w3.org/2000/svg"
   xmlns="http://www.w3.org/2000/svg"
   xmlns:sodipodi="http://sodipodi.sourceforge.net/DTD/sodipodi-0.dtd"
   xmlns:inkscape="http://www.inkscape.org/namespaces/inkscape"
   width="36px"
   height="36px"
   viewBox="0 0 36 36"
   version="1.1"
   id="svg2"
   inkscape:version="0.91 r13725"
   sodipodi:docname="action_locked.svg">
  <metadata
     id="metadata17">
    <rdf:RDF>
      <cc:Work
         rdf:about="">
        <dc:format>image/svg+xml</dc:format>
        <dc:type
           rdf:resource="http://purl.org/dc/dcmitype/StillImage" />
      </cc:Work>
    </rdf:RDF>
  </metadata>
  <sodipodi:namedview
     pagecolor="#ffffff"
     bordercolor="#666666"
     borderopacity="1"
     objecttolerance="10"
     gridtolerance="10"
     guidetolerance="10"
     inkscape:pageopacity="0"
     inkscape:pageshadow="2"
     inkscape:window-width="1920"
     inkscape:window-height="1058"
     id="namedview15"
     showgrid="false"
     inkscape:zoom="22.627418"
     inkscape:cx="16.626592"
     inkscape:cy="16.468919"
     inkscape:window-x="3832"
     inkscape:window-y="-8"
     inkscape:window-maximized="1"
     inkscape:current-layer="svg2" />
  <!-- Generator: Sketch 40.3 (33839) - http://www.bohemiancoding.com/sketch -->
  <title
     id="title4">Icon - AddKPI</title>
  <desc
     id="desc6">Created with Sketch.</desc>
  <defs
     id="defs8" />
  <path
     style="opacity:1;fill:#627a8f;fill-opacity:1;stroke:#269de6;stroke-width:0;stroke-miterlimit:4;stroke-dasharray:none;stroke-opacity:1"
     d="M 16.657003,36.007539 C 15.075699,35.889956 13.356845,35.531935 11.889696,35.014554 7.7372904,33.550237 3.8285034,30.031332 1.8073314,25.937857 c -0.952301,-1.928692 -1.490298,-3.857811 -1.707009,-6.120893 -0.09894,-1.033212 -0.06218,-3.273267 0.06963,-4.24264 0.418219,-3.075843 1.471538,-5.6925735 3.258631,-8.0953225 2.004568,-2.695144 4.687825,-4.849839 7.5766986,-6.084201 3.440575,-1.470094 7.689828,-1.782622 11.507948,-0.846397 3.428172,0.840608 6.58908,2.806921 9.093408,5.656756 2.547821,2.899329 3.929751,6.0318065 4.347785,9.8552995 0.10408,0.951958 0.104179,2.994516 1.77e-4,3.933282 -0.2782,2.51147 -0.940404,4.650709 -2.058891,6.651223 -0.817702,1.462531 -1.704455,2.637723 -2.963435,3.92737 -3.054282,3.128691 -6.440586,4.824408 -10.695539,5.355877 -0.535041,0.06683 -3.01017,0.121679 -3.579728,0.07933 z m -2.462772,-8.443717 c 0.370736,-0.175609 0.724258,-0.519652 0.886352,-0.862585 0.195327,-0.413239 0.21674,-0.755807 0.194766,-3.115858 -0.02262,-2.429659 -0.03286,-2.517018 -0.382503,-3.263134 -0.319921,-0.682694 -0.756445,-1.192549 -1.375615,-1.606705 -2.153974,-1.44077 -5.058505,-0.437912 -5.9005686,2.03731 -0.188027,0.552698 -0.202809,0.809128 -0.188076,3.26256 0.01391,2.316508 0.0141,2.320603 0.117653,2.577273 0.128747,0.31911 0.534158,0.76436 0.8311616,0.91284 0.424749,0.212344 0.498583,0.217329 3.086787,0.208445 l 2.43068,-0.0083 0.299363,-0.141802 z m 13.04904,0.09574 c 0.548709,-0.141994 0.931022,-0.465735 1.196685,-1.013348 l 0.149474,-0.308112 0,-2.41699 c 0,-2.608446 -0.01199,-2.776207 -0.239178,-3.347214 -0.483634,-1.215536 -1.431486,-2.059888 -2.699735,-2.404937 -0.290831,-0.07913 -0.467238,-0.09564 -0.994369,-0.0931 -0.565403,0.0027 -0.687623,0.01725 -1.038563,0.123464 -1.343185,0.406506 -2.339774,1.410345 -2.726598,2.74643 -0.101096,0.349187 -0.101829,0.370167 -0.101829,2.914981 l 0,2.563262 0.14961,0.275879 c 0.275038,0.507166 0.752742,0.883174 1.244509,0.979573 0.108279,0.02123 1.231809,0.04077 2.496732,0.04343 1.940322,0.0041 2.341038,-0.0058 2.563262,-0.06332 z m -9.636093,-6.209205 c 0.113083,-0.05382 0.673536,-0.582183 1.555497,-1.466432 1.495367,-1.499246 1.557808,-1.580287 1.55879,-2.023112 0.001,-0.453256 -0.0738,-0.549643 -1.617932,-2.084732 -1.371066,-1.363038 -1.414739,-1.401665 -1.666354,-1.473834 -0.554154,-0.158944 -1.12093,0.106233 -1.338132,0.626068 -0.08731,0.208972 -0.07571,0.663929 0.02238,0.877469 0.07046,0.153382 0.600516,0.73757 1.624255,1.790123 l 0.279651,0.287521 -0.904191,0.909829 c -0.621859,0.625738 -0.931781,0.970644 -0.992555,1.104596 -0.105689,0.232952 -0.11942,0.666725 -0.02803,0.885427 0.246416,0.589674 0.923598,0.84456 1.506616,0.567077 z m -5.303301,-4.769534 c 0.497638,-0.125078 1.171298,-0.471923 1.565805,-0.80618 1.379684,-1.168976 1.781099,-3.121681 0.97477,-4.74183 -0.396661,-0.797012 -0.945943,-1.3467935 -1.74508,-1.7466695 -0.636589,-0.318539 -1.014324,-0.407652 -1.745669,-0.411826 -0.488073,-0.0028 -0.66443,0.01479 -0.969319,0.09662 -0.710507,0.190697 -1.218573,0.475389 -1.742502,0.9763985 -0.5269016,0.503852 -0.8558166,1.04199 -1.0741226,1.75737 -0.106893,0.350282 -0.118634,0.456556 -0.118634,1.073768 0,0.617212 0.01174,0.723486 0.118634,1.073768 0.544248,1.783478 2.1140806,2.913306 3.9406226,2.836113 0.243068,-0.01027 0.601041,-0.05867 0.795495,-0.107541 z m 13.34664,1.33e-4 c 0.716229,-0.18091 1.52396,-0.675385 1.98524,-1.21532 0.3232,-0.378309 0.628464,-0.917753 0.786916,-1.390589 0.138166,-0.412299 0.141805,-0.44307 0.141519,-1.196579 -2.65e-4,-0.730422 -0.0072,-0.794273 -0.125262,-1.149049 C 28.237291,11.123302 28.027513,10.75307 27.608558,10.263917 27.158747,9.7387385 26.389983,9.2707775 25.650517,9.0720225 25.152166,8.9380735 24.20828,8.9366865 23.7193,9.0692225 c -1.531545,0.414995 -2.673921,1.6689765 -2.912301,3.1968205 -0.06344,0.406589 -0.02715,1.200914 0.0724,1.584732 0.04098,0.157994 0.149277,0.448724 0.240664,0.646067 0.568481,1.227596 1.665681,2.059665 2.99307,2.269814 0.373961,0.0592 1.130796,0.01703 1.537379,-0.08566 l 0,-2e-6 z"
     id="path4310"
     inkscape:connector-curvature="0" />
  <path
     style="opacity:1;fill:#ffffff;fill-opacity:1;stroke:#269de6;stroke-width:0;stroke-miterlimit:4;stroke-dasharray:none;stroke-opacity:1"
     d="M 8.7848722,27.657368 C 8.3422151,27.570648 7.8255497,27.135293 7.5832318,26.644836 L 7.4449282,26.364908 7.4250074,24.236254 c -0.021965,-2.347076 0.010504,-2.947682 0.1874832,-3.468021 0.5574521,-1.638977 2.0298005,-2.704399 3.7373164,-2.704399 1.021868,0 1.90712,0.351866 2.661889,1.058035 0.390791,0.365627 0.598642,0.648476 0.862792,1.174105 0.261789,0.520932 0.319112,0.760444 0.364833,1.524365 0.05389,0.90036 0.05278,3.864144 -0.0016,4.286835 -0.08154,0.633754 -0.458225,1.154894 -1.051104,1.454179 l -0.271022,0.136811 -2.487182,-0.0051 c -1.367951,-0.0028 -2.5575417,-0.01887 -2.6435358,-0.03571 z"
     id="path4312"
     inkscape:connector-curvature="0" />
  <path
     style="opacity:1;fill:#ffffff;fill-opacity:1;stroke:#269de6;stroke-width:0;stroke-miterlimit:4;stroke-dasharray:none;stroke-opacity:1"
     d="M 10.554312,16.715848 C 9.3719111,16.476908 8.4107258,15.736682 7.8572418,14.638786 7.5160355,13.961966 7.4607204,13.713207 7.4607204,12.855582 c 0,-0.684475 0.00698,-0.743659 0.1315489,-1.115473 0.2269251,-0.677327 0.45439,-1.063854 0.9044803,-1.536968 0.6401963,-0.6729445 1.380385,-1.0685547 2.2564364,-1.2060019 0.374975,-0.058831 1.177508,-0.020604 1.54691,0.073684 0.346388,0.088414 1.030036,0.4181157 1.367439,0.6594724 0.672083,0.4807655 1.184655,1.2198165 1.443738,2.0816515 0.144886,0.481959 0.166147,1.423808 0.04372,1.936605 -0.194014,0.812627 -0.522404,1.385291 -1.120569,1.954113 -0.549125,0.522188 -1.231924,0.884662 -1.911306,1.01465 -0.410491,0.07854 -1.17643,0.07782 -1.568803,-0.0015 z"
     id="path4314"
     inkscape:connector-curvature="0" />
  <path
     style="opacity:1;fill:#ffffff;fill-opacity:1;stroke:#269de6;stroke-width:0;stroke-miterlimit:4;stroke-dasharray:none;stroke-opacity:1"
     d="m 16.674224,21.472483 c -0.204241,-0.09278 -0.431742,-0.306196 -0.54107,-0.507572 -0.10859,-0.200015 -0.104477,-0.792325 0.0069,-0.998394 0.0453,-0.08379 0.486775,-0.562052 0.981055,-1.062804 l 0.898692,-0.910456 -0.69065,-0.727061 c -1.211521,-1.275393 -1.2943,-1.392556 -1.2943,-1.831915 0,-0.410192 0.218801,-0.765486 0.593113,-0.963111 0.268706,-0.141868 0.735504,-0.135711 0.98092,0.01294 0.417898,0.253119 2.847713,2.708418 3.025838,3.057572 0.113385,0.222253 0.111886,0.604025 -0.0033,0.829726 -0.04811,0.09431 -0.293275,0.396797 -0.544808,0.6722 -0.709948,0.777322 -2.324855,2.325034 -2.52919,2.423951 -0.233686,0.113125 -0.640102,0.115393 -0.883274,0.0049 l -1e-6,0 z"
     id="path4316"
     inkscape:connector-curvature="0" />
  <path
     style="opacity:1;fill:#ffffff;fill-opacity:1;stroke:#269de6;stroke-width:0;stroke-miterlimit:4;stroke-dasharray:none;stroke-opacity:1"
     d="m 23.746273,16.69215 c -0.789055,-0.199476 -1.599411,-0.72086 -2.100561,-1.351505 -0.310611,-0.390872 -0.673908,-1.107506 -0.770284,-1.519451 -0.112995,-0.482979 -0.134238,-1.200816 -0.04889,-1.652051 0.233124,-1.23253 1.018886,-2.251557 2.168435,-2.8121668 0.637156,-0.3107272 0.892981,-0.3678792 1.657281,-0.3702421 0.882886,-0.00273 1.306319,0.1090493 2.054066,0.5422357 0.379438,0.2198172 0.971051,0.7667292 1.20769,1.1164412 0.208798,0.308566 0.429855,0.771954 0.545189,1.142851 0.09145,0.294079 0.103053,0.418671 0.102914,1.104854 -1.33e-4,0.697475 -0.01046,0.803768 -0.105091,1.082758 -0.11986,0.353368 -0.378674,0.880164 -0.574636,1.169626 -0.339933,0.502129 -0.962232,1.006919 -1.610635,1.3065 -0.518084,0.239369 -0.774252,0.292313 -1.509011,0.311878 -0.559357,0.01489 -0.718143,0.0037 -1.016466,-0.07173 z"
     id="path4318"
     inkscape:connector-curvature="0" />
  <path
     style="opacity:1;fill:#ffffff;fill-opacity:1;stroke:#269de6;stroke-width:0;stroke-miterlimit:4;stroke-dasharray:none;stroke-opacity:1"
     d="m 23.061263,27.700481 c -0.981111,-0.02409 -0.997793,-0.0261 -1.251197,-0.150525 -0.335744,-0.164862 -0.680176,-0.506768 -0.89086,-0.884327 l -0.169263,-0.303332 0.04309,-2.657678 c 0.04156,-2.563885 0.04648,-2.666901 0.139298,-2.919016 0.474706,-1.289434 1.402311,-2.184805 2.681362,-2.588186 0.440994,-0.139078 1.324,-0.172981 1.835701,-0.07048 0.40503,0.08113 0.920829,0.285323 1.310811,0.518913 0.328431,0.196722 0.856762,0.693323 1.099451,1.033422 0.229722,0.321926 0.560647,1.006386 0.639879,1.323476 0.03983,0.159386 0.06031,0.93829 0.07348,2.794756 l 0.01827,2.573785 -0.145672,0.273309 c -0.212241,0.398204 -0.522401,0.716625 -0.859846,0.882749 -0.259071,0.12754 -0.34023,0.143924 -0.869374,0.175499 -0.629652,0.03757 -2.066364,0.03665 -3.655123,-0.0024 z"
     id="path4320"
     inkscape:connector-curvature="0" />
</svg>
