<?xml version="1.0" encoding="UTF-8" standalone="no"?>
<svg
   xmlns:dc="http://purl.org/dc/elements/1.1/"
   xmlns:cc="http://creativecommons.org/ns#"
   xmlns:rdf="http://www.w3.org/1999/02/22-rdf-syntax-ns#"
   xmlns:svg="http://www.w3.org/2000/svg"
   xmlns="http://www.w3.org/2000/svg"
   xmlns:sodipodi="http://sodipodi.sourceforge.net/DTD/sodipodi-0.dtd"
   xmlns:inkscape="http://www.inkscape.org/namespaces/inkscape"
   width="511.99951"
   height="511.99976"
   viewBox="0 0 511.99951 511.99976"
   version="1.1"
   id="svg2"
   inkscape:version="0.48.4 r9939"
   sodipodi:docname="FloatableElementSizeL.svg">
  <metadata
     id="metadata19">
    <rdf:RDF>
      <cc:Work
         rdf:about="">
        <dc:format>image/svg+xml</dc:format>
        <dc:type
           rdf:resource="http://purl.org/dc/dcmitype/StillImage" />
      </cc:Work>
    </rdf:RDF>
  </metadata>
  <sodipodi:namedview
     pagecolor="#ffffff"
     bordercolor="#666666"
     borderopacity="1"
     objecttolerance="10"
     gridtolerance="10"
     guidetolerance="10"
     inkscape:pageopacity="0"
     inkscape:pageshadow="2"
     inkscape:window-width="1920"
     inkscape:window-height="1017"
     id="namedview17"
     showgrid="false"
     inkscape:zoom="0.86915209"
     inkscape:cx="295.76335"
     inkscape:cy="216.25374"
     inkscape:window-x="1912"
     inkscape:window-y="-8"
     inkscape:window-maximized="1"
     inkscape:current-layer="g5"
     fit-margin-top="0"
     fit-margin-left="0"
     fit-margin-right="0"
     fit-margin-bottom="0" />
  <!-- Generator: Sketch 40.3 (33839) - http://www.bohemiancoding.com/sketch -->
  <title
     id="title4">Icon - Size S</title>
  <desc
     id="desc6">Created with Sketch.</desc>
  <defs
     id="defs8" />
  <g
     id="g3">
    <g
       id="g5">
      <path
         inkscape:connector-curvature="0"
         d="M 497.913,429.906 413.05,345.058 C 435.415,310.155 448.768,268.912 448.768,224.382 448.768,100.453 348.314,0 224.383,0 100.468,0 0,100.453 0,224.384 c 0,123.931 100.468,224.384 224.383,224.384 44.529,0 85.771,-13.352 120.66,-35.718 l 84.862,84.864 c 18.782,18.781 49.226,18.781 68.008,0 18.782,-18.783 18.782,-49.225 0,-68.008 z m -273.53,-45.248 c -88.511,0 -160.274,-71.748 -160.274,-160.274 0,-88.511 71.764,-160.274 160.274,-160.274 88.526,0 160.273,71.763 160.273,160.274 0,88.526 -71.747,160.274 -160.273,160.274 z M 128.219,256.438 H 320.548 V 192.329 H 128.219 v 64.109 z"
         id="path7"
         style="fill:#fbfbfb;fill-opacity:1;stroke:none" />
    </g>
  </g>
</svg>
