<?xml version="1.0" encoding="UTF-8" standalone="no"?>
<svg
   xmlns:dc="http://purl.org/dc/elements/1.1/"
   xmlns:cc="http://creativecommons.org/ns#"
   xmlns:rdf="http://www.w3.org/1999/02/22-rdf-syntax-ns#"
   xmlns:svg="http://www.w3.org/2000/svg"
   xmlns="http://www.w3.org/2000/svg"
   xmlns:sodipodi="http://sodipodi.sourceforge.net/DTD/sodipodi-0.dtd"
   xmlns:inkscape="http://www.inkscape.org/namespaces/inkscape"
   width="511.99014"
   height="512.01672"
   viewBox="0 0 511.99014 512.01672"
   version="1.1"
   id="svg2"
   inkscape:version="0.48.4 r9939"
   sodipodi:docname="FloatableElementSizeS.svg">
  <metadata
     id="metadata19">
    <rdf:RDF>
      <cc:Work
         rdf:about="">
        <dc:format>image/svg+xml</dc:format>
        <dc:type
           rdf:resource="http://purl.org/dc/dcmitype/StillImage" />
      </cc:Work>
    </rdf:RDF>
  </metadata>
  <sodipodi:namedview
     pagecolor="#ffffff"
     bordercolor="#666666"
     borderopacity="1"
     objecttolerance="10"
     gridtolerance="10"
     guidetolerance="10"
     inkscape:pageopacity="0"
     inkscape:pageshadow="2"
     inkscape:window-width="1920"
     inkscape:window-height="1017"
     id="namedview17"
     showgrid="false"
     fit-margin-top="0"
     fit-margin-left="0"
     fit-margin-right="0"
     fit-margin-bottom="0"
     inkscape:zoom="0.94816591"
     inkscape:cx="106.03245"
     inkscape:cy="252.08766"
     inkscape:window-x="1912"
     inkscape:window-y="-8"
     inkscape:window-maximized="1"
     inkscape:current-layer="Proposition" />
  <!-- Generator: Sketch 40.3 (33839) - http://www.bohemiancoding.com/sketch -->
  <title
     id="title4">Icon - Size M</title>
  <desc
     id="desc6">Created with Sketch.</desc>
  <defs
     id="defs8" />
  <g
     id="Proposition"
     style="fill:none;stroke:none"
     transform="translate(259.6205,252.39913)">
    <g
       id="g3768"
       transform="translate(-259.6205,-252.39913)">
      <path
         id="path3770"
         d="m 497.90551,497.90551 c -18.77953,18.81496 -49.21653,18.81496 -67.99606,0 l -84.86221,-84.8622 c -34.90157,22.3937 -76.14567,35.71653 -120.6496,35.71653 C 100.45276,448.75984 0,348.30709 0,224.39764 0,100.45276 100.45276,0 224.39764,0 c 123.90945,0 224.3622,100.45276 224.3622,224.39764 0,44.53937 -13.35827,85.74803 -35.71653,120.68504 l 84.8622,84.82677 c 18.77953,18.77953 18.77953,49.21653 0,67.99606 z M 224.39764,64.133858 c -88.51181,0 -160.299215,71.751972 -160.299215,160.263782 0,88.51181 71.787405,160.26378 160.299215,160.26378 88.51181,0 160.26378,-71.75197 160.26378,-160.26378 0,-88.51181 -71.75197,-160.263782 -160.26378,-160.263782 z m 32.03149,256.429132 -64.09842,0 0,-64.09842 -64.09843,0 0,-64.13386 64.09843,0 0,-64.09843 64.09842,0 0,64.09843 64.13386,0 0,64.13386 -64.13386,0 0,64.09842 z"
         style="fill:#fbfbfb;fill-opacity:1;fill-rule:nonzero;stroke:none"
         inkscape:connector-curvature="0" />
    </g>
  </g>
</svg>
