<?xml version="1.0" encoding="UTF-8" standalone="no"?>
<svg
   xmlns:dc="http://purl.org/dc/elements/1.1/"
   xmlns:cc="http://creativecommons.org/ns#"
   xmlns:rdf="http://www.w3.org/1999/02/22-rdf-syntax-ns#"
   xmlns:svg="http://www.w3.org/2000/svg"
   xmlns="http://www.w3.org/2000/svg"
   xmlns:sodipodi="http://sodipodi.sourceforge.net/DTD/sodipodi-0.dtd"
   xmlns:inkscape="http://www.inkscape.org/namespaces/inkscape"
   width="65px"
   height="65px"
   viewBox="0 0 65 65"
   version="1.1"
   id="svg2"
   inkscape:version="0.91 r13725"
   sodipodi:docname="Icon - ValidateSent.svg">
  <metadata
     id="metadata17">
    <rdf:RDF>
      <cc:Work
         rdf:about="">
        <dc:format>image/svg+xml</dc:format>
        <dc:type
           rdf:resource="http://purl.org/dc/dcmitype/StillImage" />
      </cc:Work>
    </rdf:RDF>
  </metadata>
  <sodipodi:namedview
     pagecolor="#ffffff"
     bordercolor="#666666"
     borderopacity="1"
     objecttolerance="10"
     gridtolerance="10"
     guidetolerance="10"
     inkscape:pageopacity="0"
     inkscape:pageshadow="2"
     inkscape:window-width="1920"
     inkscape:window-height="1018"
     id="namedview15"
     showgrid="false"
     inkscape:zoom="10.269366"
     inkscape:cx="19.767531"
     inkscape:cy="22.332256"
     inkscape:window-x="1912"
     inkscape:window-y="-8"
     inkscape:window-maximized="1"
     inkscape:current-layer="svg2" />
  <!-- Generator: Sketch 40.3 (33839) - http://www.bohemiancoding.com/sketch -->
  <title
     id="title4">Icon - ValidateSent</title>
  <desc
     id="desc6">Created with Sketch.</desc>
  <defs
     id="defs8" />
  <g
     id="Proposition"
     stroke="none"
     stroke-width="1"
     fill="none"
     fill-rule="evenodd">
    <g
       id="Tools---05"
       transform="translate(-136.000000, -347.000000)">
      <g
         id="Icon---ValidateSent"
         transform="translate(136.000000, 347.000000)">
        <path
           d="M0,32.5 C0,14.5507456 14.5507456,0 32.5,0 C50.4492544,0 65,14.5507456 65,32.5 C65,50.4492544 50.4492544,65 32.5,65 C14.5507456,65 0,50.4492544 0,32.5 Z"
           id="Oval-3"
           fill="#20E985" />
        <path
           d="m 29.871213,44.412628 c 0.842967,0.645069 2.043033,0.519245 2.733871,-0.28664 L 46.599022,27.801596 c 0.718891,-0.838611 0.62184,-2.101216 -0.216771,-2.820108 -0.838611,-0.718892 -2.101217,-0.62184 -2.820108,0.216771 l -12.679349,14.936769 -0.01703,0.0055 -8.490494,-6.500859 c -0.877018,-0.671501 -2.132476,-0.504322 -2.803741,0.372877 -0.671264,0.877199 -0.504321,2.132477 0.372878,2.803741 z"
           id="Path-2"
           inkscape:connector-curvature="0"
           style="fill:#ffffff"
           sodipodi:nodetypes="sssssccssss" />
      </g>
    </g>
  </g>
</svg>
