<?xml version="1.0" standalone="no"?>
<svg viewBox="0 0 1024 768" version="1.1" xmlns="http://www.w3.org/2000/svg" xmlns:xlink="http://www.w3.org/1999/xlink" stroke-linecap="round" stroke-linejoin="round" fill-rule="evenodd" xml:space="preserve" >
<defs >
<clipPath id="clipId0" >
<path d="M0,768 1024,768 1024,0 0,0 z" />
</clipPath>
</defs>
<g clip-path="url(#clipId0)" fill="none" stroke="rgb(0,0,0)" stroke-width="0.1" />
<g clip-path="url(#clipId0)" fill="none" stroke="rgb(0,0,0)" stroke-width="0.25" >
<polyline points="60.2353,45.1765 60.2353,722.824 " />
<polyline points="512,45.1765 512,11.2941 " />
<polyline points="60.2353,384 26.3529,384 " />
<polyline points="512,722.824 512,756.706 " />
<polyline points="60.2353,45.1765 963.765,45.1765 " />
<polyline points="963.765,45.1765 963.765,722.824 " />
<polyline points="963.765,722.824 60.2353,722.824 " />
<polyline points="963.765,384 997.647,384 " />
</g>
<g clip-path="url(#clipId0)" fill="none" stroke="rgb(0,0,0)" stroke-width="0.18" >
<polyline points="561.668,579.221 714.506,579.221 " />
<polyline points="714.506,657.782 963.765,657.782 " />
<polyline points="963.765,722.824 110.282,722.824 " />
<polyline points="750.245,657.782 750.245,703.589 " />
<polyline points="348.379,545.339 348.379,705.09 " />
<polyline points="258.208,705.09 561.668,705.09 " />
<polyline points="258.208,722.824 258.208,545.339 " />
<polyline points="258.208,567.927 436.85,567.927 " />
<polyline points="714.506,545.339 714.506,722.824 " />
<polyline points="258.208,545.339 963.765,545.339 " />
<polyline points="714.506,630.045 561.668,630.045 " />
<polyline points="258.208,590.515 436.85,590.515 " />
<polyline points="912.089,657.782 912.089,703.589 " />
<polyline points="714.506,578.512 963.765,578.512 " />
<polyline points="963.765,545.339 963.765,722.824 " />
<polyline points="876.694,703.589 876.694,722.824 " />
<polyline points="258.208,680.868 436.85,680.868 " />
<polyline points="258.208,635.692 436.85,635.692 " />
<polyline points="628.89,545.339 628.89,646.986 " />
<polyline points="258.208,613.104 436.85,613.104 " />
<polyline points="561.668,545.339 561.668,722.824 " />
<polyline points="561.668,596.162 714.506,596.162 " />
<polyline points="788.879,703.589 788.879,722.824 " />
<polyline points="714.506,646.986 561.668,646.986 " />
<polyline points="436.85,632.134 561.668,632.134 " />
<polyline points="436.85,722.824 436.85,545.339 " />
<polyline points="671.223,545.339 671.223,646.986 " />
<polyline points="258.208,640.21 110.282,640.21 " />
<polyline points="110.282,722.824 110.282,640.21 " />
<polyline points="714.506,703.589 963.765,703.589 " />
<polyline points="561.668,559.284 436.85,559.284 " />
<polyline points="436.85,680.925 561.668,680.925 " />
<polyline points="258.208,658.28 436.85,658.28 " />
<polyline points="561.668,562.28 714.506,562.28 " />
<polyline points="714.506,613.104 561.668,613.104 " />
<polyline points="436.85,656.529 561.668,656.529 " />
</g>
<g clip-path="url(#clipId0)" fill="none" stroke="rgb(0,0,0)" stroke-width="0.1" >
<polyline points="275.628,319.847 275.628,252.083 292.569,252.083 299.829,255.31 304.67,261.763 307.09,268.217 309.51,277.898 309.51,294.032 307.09,303.713 304.67,310.167 299.829,316.62 292.569,319.847 275.628,319.847 " />
<polyline points="326.451,319.847 326.451,252.083 348.233,252.083 355.493,255.31 357.913,258.536 360.334,264.99 360.334,271.444 357.913,277.898 355.493,281.125 348.233,284.352 326.451,284.352 " />
<polyline points="343.392,284.352 360.334,319.847 " />
<polyline points="370.014,319.847 389.376,252.083 408.737,319.847 " />
<polyline points="377.275,297.259 401.476,297.259 " />
<polyline points="415.997,252.083 428.098,319.847 440.199,252.083 452.3,319.847 464.401,252.083 " />
<polyline points="478.922,252.083 478.922,319.847 " />
<polyline points="498.283,319.847 498.283,252.083 532.166,319.847 532.166,252.083 " />
<polyline points="585.409,268.217 582.989,261.763 578.149,255.31 573.308,252.083 563.628,252.083 558.787,255.31 553.947,261.763 551.527,268.217 549.107,277.898 549.107,294.032 551.527,303.713 553.947,310.167 558.787,316.62 563.628,319.847 573.308,319.847 578.149,316.62 582.989,310.167 585.409,303.713 585.409,294.032 573.308,294.032 " />
<polyline points="275.628,345.993 309.51,345.993 " />
<polyline points="292.569,345.993 292.569,413.757 " />
<polyline points="353.073,413.757 321.611,413.757 321.611,345.993 353.073,345.993 " />
<polyline points="321.611,378.262 340.972,378.262 " />
<polyline points="367.594,413.757 367.594,345.993 386.955,413.757 406.317,345.993 406.317,413.757 " />
<polyline points="425.678,413.757 425.678,345.993 447.46,345.993 454.72,349.22 457.14,352.447 459.561,358.9 459.561,368.581 457.14,375.035 454.72,378.262 447.46,381.489 425.678,381.489 " />
<polyline points="476.502,345.993 476.502,413.757 505.544,413.757 " />
<polyline points="510.384,413.757 529.745,345.993 549.107,413.757 " />
<polyline points="517.645,391.169 541.846,391.169 " />
<polyline points="553.947,345.993 587.829,345.993 " />
<polyline points="570.888,345.993 570.888,413.757 " />
<polyline points="631.392,413.757 599.93,413.757 599.93,345.993 631.392,345.993 " />
<polyline points="599.93,378.262 619.292,378.262 " />
<polyline points="441.062,549.235 441.062,553.753 441.288,554.657 441.74,555.259 442.417,555.56 442.869,555.56 443.547,555.259 443.999,554.657 444.225,553.753 444.225,549.235 " />
<polyline points="446.032,555.56 446.032,549.235 449.194,555.56 449.194,549.235 " />
<polyline points="451.001,549.235 451.001,555.56 453.712,555.56 " />
<polyline points="457.777,555.56 454.841,555.56 454.841,549.235 457.777,549.235 " />
<polyline points="454.841,552.247 456.648,552.247 " />
<polyline points="458.907,554.657 459.359,555.259 460.036,555.56 460.94,555.56 461.617,555.259 462.069,554.657 462.069,553.753 461.843,553.151 461.617,552.85 461.166,552.548 459.81,551.946 459.359,551.645 459.133,551.344 458.907,550.741 458.907,550.139 459.359,549.537 460.036,549.235 460.94,549.235 461.617,549.537 462.069,550.139 " />
<polyline points="463.425,554.657 463.876,555.259 464.554,555.56 465.457,555.56 466.135,555.259 466.587,554.657 466.587,553.753 466.361,553.151 466.135,552.85 465.683,552.548 464.328,551.946 463.876,551.645 463.65,551.344 463.425,550.741 463.425,550.139 463.876,549.537 464.554,549.235 465.457,549.235 466.135,549.537 466.587,550.139 " />
<polyline points="474.041,555.56 473.589,555.259 473.137,554.657 472.912,554.054 472.686,553.151 472.686,551.645 472.912,550.741 473.137,550.139 473.589,549.537 474.041,549.235 474.945,549.235 475.396,549.537 475.848,550.139 476.074,550.741 476.3,551.645 476.3,553.151 476.074,554.054 475.848,554.657 475.396,555.259 474.945,555.56 474.041,555.56 " />
<polyline points="477.203,549.235 480.366,549.235 " />
<polyline points="478.785,549.235 478.785,555.56 " />
<polyline points="481.495,549.235 481.495,555.56 " />
<polyline points="481.495,552.247 484.657,552.247 " />
<polyline points="484.657,549.235 484.657,555.56 " />
<polyline points="489.401,555.56 486.465,555.56 486.465,549.235 489.401,549.235 " />
<polyline points="486.465,552.247 488.272,552.247 " />
<polyline points="490.756,555.56 490.756,549.235 492.789,549.235 493.467,549.537 493.693,549.838 493.919,550.44 493.919,551.043 493.693,551.645 493.467,551.946 492.789,552.247 490.756,552.247 " />
<polyline points="492.337,552.247 493.919,555.56 " />
<polyline points="495.048,549.235 496.177,555.56 497.307,549.235 498.436,555.56 499.566,549.235 " />
<polyline points="500.921,549.235 500.921,555.56 " />
<polyline points="502.502,554.657 502.954,555.259 503.632,555.56 504.535,555.56 505.213,555.259 505.665,554.657 505.665,553.753 505.439,553.151 505.213,552.85 504.761,552.548 503.406,551.946 502.954,551.645 502.728,551.344 502.502,550.741 502.502,550.139 502.954,549.537 503.632,549.235 504.535,549.235 505.213,549.537 505.665,550.139 " />
<polyline points="510.182,555.56 507.246,555.56 507.246,549.235 510.182,549.235 " />
<polyline points="507.246,552.247 509.053,552.247 " />
<polyline points="516.055,554.657 516.507,555.259 517.185,555.56 518.088,555.56 518.766,555.259 519.217,554.657 519.217,553.753 518.992,553.151 518.766,552.85 518.314,552.548 516.959,551.946 516.507,551.645 516.281,551.344 516.055,550.741 516.055,550.139 516.507,549.537 517.185,549.235 518.088,549.235 518.766,549.537 519.217,550.139 " />
<polyline points="520.799,555.56 520.799,549.235 522.832,549.235 523.509,549.537 523.735,549.838 523.961,550.44 523.961,551.344 523.735,551.946 523.509,552.247 522.832,552.548 520.799,552.548 " />
<polyline points="528.479,555.56 525.542,555.56 525.542,549.235 528.479,549.235 " />
<polyline points="525.542,552.247 527.349,552.247 " />
<polyline points="532.996,554.054 532.77,554.657 532.319,555.259 531.867,555.56 530.963,555.56 530.512,555.259 530.06,554.657 529.834,554.054 529.608,553.151 529.608,551.645 529.834,550.741 530.06,550.139 530.512,549.537 530.963,549.235 531.867,549.235 532.319,549.537 532.77,550.139 532.996,550.741 " />
<polyline points="534.577,549.235 534.577,555.56 " />
<polyline points="536.385,555.56 536.385,549.235 539.321,549.235 " />
<polyline points="536.385,552.247 538.192,552.247 " />
<polyline points="540.45,549.235 540.45,555.56 " />
<polyline points="545.194,555.56 542.257,555.56 542.257,549.235 545.194,549.235 " />
<polyline points="542.257,552.247 544.065,552.247 " />
<polyline points="546.549,555.56 546.549,549.235 548.13,549.235 548.808,549.537 549.26,550.139 549.486,550.741 549.712,551.645 549.712,553.151 549.486,554.054 549.26,554.657 548.808,555.259 548.13,555.56 546.549,555.56 " />
<polyline points="551.519,555.56 551.745,555.259 551.519,554.958 551.293,555.259 551.519,555.56 " />
<polyline points="551.519,551.946 551.745,551.645 551.519,551.344 551.293,551.645 551.519,551.946 " />
<polyline points="569.04,590.215 568.83,590.774 568.411,591.334 567.992,591.613 567.153,591.613 566.733,591.334 566.314,590.774 566.104,590.215 565.894,589.376 565.894,587.978 566.104,587.139 566.314,586.579 566.733,586.02 567.153,585.74 567.992,585.74 568.411,586.02 568.83,586.579 569.04,587.139 " />
<polyline points="570.508,585.74 570.508,591.613 " />
<polyline points="570.508,588.537 573.445,588.537 " />
<polyline points="573.445,585.74 573.445,591.613 " />
<polyline points="577.85,591.613 575.123,591.613 575.123,585.74 577.85,585.74 " />
<polyline points="575.123,588.537 576.801,588.537 " />
<polyline points="582.045,590.215 581.835,590.774 581.415,591.334 580.996,591.613 580.157,591.613 579.737,591.334 579.318,590.774 579.108,590.215 578.898,589.376 578.898,587.978 579.108,587.139 579.318,586.579 579.737,586.02 580.157,585.74 580.996,585.74 581.415,586.02 581.835,586.579 582.045,587.139 " />
<polyline points="583.513,585.74 583.513,591.613 " />
<polyline points="586.449,585.74 583.513,589.656 " />
<polyline points="584.562,588.257 586.449,591.613 " />
<polyline points="590.644,591.613 587.918,591.613 587.918,585.74 590.644,585.74 " />
<polyline points="587.918,588.537 589.596,588.537 " />
<polyline points="591.903,591.613 591.903,585.74 593.371,585.74 594,586.02 594.42,586.579 594.629,587.139 594.839,587.978 594.839,589.376 594.629,590.215 594.42,590.774 594,591.334 593.371,591.613 591.903,591.613 " />
<polyline points="721.802,667.755 722.448,668.615 723.416,669.046 724.707,669.046 725.675,668.615 726.32,667.755 726.32,666.464 725.997,665.604 725.675,665.173 725.029,664.743 723.093,663.883 722.448,663.452 722.125,663.022 721.802,662.162 721.802,661.301 722.448,660.441 723.416,660.01 724.707,660.01 725.675,660.441 726.32,661.301 " />
<polyline points="728.579,660.01 728.579,669.046 " />
<polyline points="730.838,660.01 735.355,660.01 730.838,669.046 735.355,669.046 " />
<polyline points="741.809,669.046 737.614,669.046 737.614,660.01 741.809,660.01 " />
<polyline points="737.614,664.313 740.196,664.313 " />
<polyline points="324.356,716.911 325.97,711.264 327.583,716.911 " />
<polyline points="324.961,715.029 326.978,715.029 " />
<polyline points="328.591,716.911 328.591,711.264 330.407,711.264 331.012,711.533 331.213,711.802 331.415,712.34 331.415,713.146 331.213,713.684 331.012,713.953 330.407,714.222 328.591,714.222 " />
<polyline points="332.827,716.911 332.827,711.264 334.642,711.264 335.247,711.533 335.449,711.802 335.65,712.34 335.65,713.146 335.449,713.684 335.247,713.953 334.642,714.222 332.827,714.222 " />
<polyline points="337.062,711.264 337.062,716.911 339.482,716.911 " />
<polyline points="340.491,711.264 340.491,716.911 " />
<polyline points="344.928,715.567 344.726,716.104 344.323,716.642 343.919,716.911 343.112,716.911 342.709,716.642 342.306,716.104 342.104,715.567 341.902,714.76 341.902,713.415 342.104,712.609 342.306,712.071 342.709,711.533 343.112,711.264 343.919,711.264 344.323,711.533 344.726,712.071 344.928,712.609 " />
<polyline points="345.734,716.911 347.348,711.264 348.961,716.911 " />
<polyline points="346.339,715.029 348.356,715.029 " />
<polyline points="349.365,711.264 352.188,711.264 " />
<polyline points="350.776,711.264 350.776,716.911 " />
<polyline points="353.197,711.264 353.197,716.911 " />
<polyline points="355.818,716.911 355.415,716.642 355.012,716.104 354.81,715.567 354.608,714.76 354.608,713.415 354.81,712.609 355.012,712.071 355.415,711.533 355.818,711.264 356.625,711.264 357.028,711.533 357.432,712.071 357.633,712.609 357.835,713.415 357.835,714.76 357.633,715.567 357.432,716.104 357.028,716.642 356.625,716.911 355.818,716.911 " />
<polyline points="359.247,716.911 359.247,711.264 362.07,716.911 362.07,711.264 " />
<polyline points="718.65,581.628 723.168,581.628 " />
<polyline points="720.909,581.628 720.909,590.663 " />
<polyline points="724.781,581.628 724.781,590.663 " />
<polyline points="726.395,581.628 730.912,581.628 " />
<polyline points="728.653,581.628 728.653,590.663 " />
<polyline points="732.526,581.628 732.526,590.663 736.398,590.663 " />
<polyline points="742.206,590.663 738.011,590.663 738.011,581.628 742.206,581.628 " />
<polyline points="738.011,585.93 740.593,585.93 " />
<polyline points="744.465,590.663 744.788,590.233 744.465,589.802 744.143,590.233 744.465,590.663 " />
<polyline points="744.465,585.5 744.788,585.07 744.465,584.639 744.143,585.07 744.465,585.5 " />
<polyline points="127.216,650.759 127.216,645.337 128.958,645.337 129.539,645.596 129.733,645.854 129.927,646.37 129.927,647.144 129.733,647.661 129.539,647.919 128.958,648.177 127.216,648.177 " />
<polyline points="131.282,650.759 131.282,645.337 133.024,645.337 133.605,645.596 133.799,645.854 133.992,646.37 133.992,646.886 133.799,647.403 133.605,647.661 133.024,647.919 131.282,647.919 " />
<polyline points="132.637,647.919 133.992,650.759 " />
<polyline points="136.316,650.759 135.929,650.5 135.541,649.984 135.348,649.468 135.154,648.693 135.154,647.403 135.348,646.628 135.541,646.112 135.929,645.596 136.316,645.337 137.09,645.337 137.477,645.596 137.865,646.112 138.058,646.628 138.252,647.403 138.252,648.693 138.058,649.468 137.865,649.984 137.477,650.5 137.09,650.759 136.316,650.759 " />
<polyline points="139.607,650.759 139.607,645.337 141.35,645.337 141.931,645.596 142.124,645.854 142.318,646.37 142.318,647.144 142.124,647.661 141.931,647.919 141.35,648.177 139.607,648.177 " />
<polyline points="143.673,650.759 143.673,645.337 145.416,645.337 145.996,645.596 146.19,645.854 146.384,646.37 146.384,646.886 146.19,647.403 145.996,647.661 145.416,647.919 143.673,647.919 " />
<polyline points="145.028,647.919 146.384,650.759 " />
<polyline points="147.739,645.337 147.739,650.759 " />
<polyline points="151.805,650.759 149.288,650.759 149.288,645.337 151.805,645.337 " />
<polyline points="149.288,647.919 150.837,647.919 " />
<polyline points="152.386,645.337 155.096,645.337 " />
<polyline points="153.741,645.337 153.741,650.759 " />
<polyline points="155.483,650.759 157.032,645.337 158.581,650.759 " />
<polyline points="156.064,648.951 158,648.951 " />
<polyline points="159.549,650.759 159.549,645.337 161.292,645.337 161.873,645.596 162.066,645.854 162.26,646.37 162.26,646.886 162.066,647.403 161.873,647.661 161.292,647.919 159.549,647.919 " />
<polyline points="160.905,647.919 162.26,650.759 " />
<polyline points="163.034,645.337 164.583,647.919 166.132,645.337 " />
<polyline points="164.583,647.919 164.583,650.759 " />
<polyline points="170.585,650.759 172.134,645.337 173.683,650.759 " />
<polyline points="171.166,648.951 173.102,648.951 " />
<polyline points="174.651,650.759 174.651,645.337 177.362,650.759 177.362,645.337 " />
<polyline points="178.911,650.759 178.911,645.337 180.266,645.337 180.847,645.596 181.234,646.112 181.428,646.628 181.621,647.403 181.621,648.693 181.428,649.468 181.234,649.984 180.847,650.5 180.266,650.759 178.911,650.759 " />
<polyline points="189.753,649.468 189.559,649.984 189.172,650.5 188.785,650.759 188.011,650.759 187.623,650.5 187.236,649.984 187.042,649.468 186.849,648.693 186.849,647.403 187.042,646.628 187.236,646.112 187.623,645.596 188.011,645.337 188.785,645.337 189.172,645.596 189.559,646.112 189.753,646.628 " />
<polyline points="192.076,650.759 191.689,650.5 191.302,649.984 191.108,649.468 190.915,648.693 190.915,647.403 191.108,646.628 191.302,646.112 191.689,645.596 192.076,645.337 192.851,645.337 193.238,645.596 193.625,646.112 193.819,646.628 194.013,647.403 194.013,648.693 193.819,649.468 193.625,649.984 193.238,650.5 192.851,650.759 192.076,650.759 " />
<polyline points="195.368,650.759 195.368,645.337 198.078,650.759 198.078,645.337 " />
<polyline points="199.627,650.759 199.627,645.337 202.144,645.337 " />
<polyline points="199.627,647.919 201.176,647.919 " />
<polyline points="203.112,645.337 203.112,650.759 " />
<polyline points="204.661,650.759 204.661,645.337 206.017,645.337 206.597,645.596 206.985,646.112 207.178,646.628 207.372,647.403 207.372,648.693 207.178,649.468 206.985,649.984 206.597,650.5 206.017,650.759 204.661,650.759 " />
<polyline points="211.244,650.759 208.727,650.759 208.727,645.337 211.244,645.337 " />
<polyline points="208.727,647.919 210.276,647.919 " />
<polyline points="212.406,650.759 212.406,645.337 215.116,650.759 215.116,645.337 " />
<polyline points="216.084,645.337 218.795,645.337 " />
<polyline points="217.44,645.337 217.44,650.759 " />
<polyline points="219.763,645.337 219.763,650.759 " />
<polyline points="220.731,650.759 222.28,645.337 223.829,650.759 " />
<polyline points="221.312,648.951 223.248,648.951 " />
<polyline points="224.797,645.337 224.797,650.759 227.12,650.759 " />
<polyline points="439.109,636.995 439.109,642.416 " />
<polyline points="440.658,642.416 440.658,636.995 443.369,642.416 443.369,636.995 " />
<polyline points="444.337,636.995 447.047,636.995 " />
<polyline points="445.692,636.995 445.692,642.416 " />
<polyline points="450.532,642.416 448.015,642.416 448.015,636.995 450.532,636.995 " />
<polyline points="448.015,639.577 449.564,639.577 " />
<polyline points="451.694,642.416 451.694,636.995 453.437,636.995 454.017,637.253 454.211,637.511 454.405,638.028 454.405,638.544 454.211,639.06 454.017,639.318 453.437,639.577 451.694,639.577 " />
<polyline points="453.049,639.577 454.405,642.416 " />
<polyline points="455.76,642.416 455.76,636.995 457.502,636.995 458.083,637.253 458.277,637.511 458.471,638.028 458.471,638.802 458.277,639.318 458.083,639.577 457.502,639.835 455.76,639.835 " />
<polyline points="459.826,642.416 459.826,636.995 461.568,636.995 462.149,637.253 462.343,637.511 462.536,638.028 462.536,638.544 462.343,639.06 462.149,639.318 461.568,639.577 459.826,639.577 " />
<polyline points="461.181,639.577 462.536,642.416 " />
<polyline points="466.409,642.416 463.892,642.416 463.892,636.995 466.409,636.995 " />
<polyline points="463.892,639.577 465.441,639.577 " />
<polyline points="466.99,636.995 469.7,636.995 " />
<polyline points="468.345,636.995 468.345,642.416 " />
<polyline points="477.445,638.286 477.251,637.769 476.864,637.253 476.477,636.995 475.702,636.995 475.315,637.253 474.928,637.769 474.734,638.286 474.54,639.06 474.54,640.351 474.734,641.125 474.928,641.642 475.315,642.158 475.702,642.416 476.477,642.416 476.864,642.158 477.251,641.642 477.445,641.125 477.445,640.351 476.477,640.351 " />
<polyline points="481.317,642.416 478.8,642.416 478.8,636.995 481.317,636.995 " />
<polyline points="478.8,639.577 480.349,639.577 " />
<polyline points="483.447,642.416 483.059,642.158 482.672,641.642 482.479,641.125 482.285,640.351 482.285,639.06 482.479,638.286 482.672,637.769 483.059,637.253 483.447,636.995 484.221,636.995 484.608,637.253 484.996,637.769 485.189,638.286 485.383,639.06 485.383,640.351 485.189,641.125 484.996,641.642 484.608,642.158 484.221,642.416 483.447,642.416 " />
<polyline points="486.738,642.416 486.738,636.995 488.287,642.416 489.836,636.995 489.836,642.416 " />
<polyline points="493.902,642.416 491.385,642.416 491.385,636.995 493.902,636.995 " />
<polyline points="491.385,639.577 492.934,639.577 " />
<polyline points="494.483,636.995 497.193,636.995 " />
<polyline points="495.838,636.995 495.838,642.416 " />
<polyline points="498.161,642.416 498.161,636.995 499.904,636.995 500.485,637.253 500.678,637.511 500.872,638.028 500.872,638.544 500.678,639.06 500.485,639.318 499.904,639.577 498.161,639.577 " />
<polyline points="499.517,639.577 500.872,642.416 " />
<polyline points="502.227,636.995 502.227,642.416 " />
<polyline points="506.487,641.125 506.293,641.642 505.906,642.158 505.519,642.416 504.744,642.416 504.357,642.158 503.97,641.642 503.776,641.125 503.582,640.351 503.582,639.06 503.776,638.286 503.97,637.769 504.357,637.253 504.744,636.995 505.519,636.995 505.906,637.253 506.293,637.769 506.487,638.286 " />
<polyline points="439.109,645.973 441.82,645.973 " />
<polyline points="440.464,645.973 440.464,651.395 " />
<polyline points="443.756,651.395 443.369,651.136 442.981,650.62 442.788,650.104 442.594,649.329 442.594,648.039 442.788,647.264 442.981,646.748 443.369,646.232 443.756,645.973 444.53,645.973 444.918,646.232 445.305,646.748 445.498,647.264 445.692,648.039 445.692,649.329 445.498,650.104 445.305,650.62 444.918,651.136 444.53,651.395 443.756,651.395 " />
<polyline points="447.047,645.973 447.047,651.395 449.371,651.395 " />
<polyline points="452.856,651.395 450.339,651.395 450.339,645.973 452.856,645.973 " />
<polyline points="450.339,648.555 451.888,648.555 " />
<polyline points="454.017,651.395 454.017,645.973 455.76,645.973 456.341,646.232 456.534,646.49 456.728,647.006 456.728,647.522 456.534,648.039 456.341,648.297 455.76,648.555 454.017,648.555 " />
<polyline points="455.373,648.555 456.728,651.395 " />
<polyline points="457.502,651.395 459.051,645.973 460.6,651.395 " />
<polyline points="458.083,649.587 460.019,649.587 " />
<polyline points="461.568,651.395 461.568,645.973 464.279,651.395 464.279,645.973 " />
<polyline points="468.538,650.104 468.345,650.62 467.958,651.136 467.57,651.395 466.796,651.395 466.409,651.136 466.021,650.62 465.828,650.104 465.634,649.329 465.634,648.039 465.828,647.264 466.021,646.748 466.409,646.232 466.796,645.973 467.57,645.973 467.958,646.232 468.345,646.748 468.538,647.264 " />
<polyline points="469.894,645.973 469.894,651.395 " />
<polyline points="471.443,651.395 471.443,645.973 474.153,651.395 474.153,645.973 " />
<polyline points="478.413,647.264 478.219,646.748 477.832,646.232 477.445,645.973 476.67,645.973 476.283,646.232 475.896,646.748 475.702,647.264 475.509,648.039 475.509,649.329 475.702,650.104 475.896,650.62 476.283,651.136 476.67,651.395 477.445,651.395 477.832,651.136 478.219,650.62 478.413,650.104 478.413,649.329 477.445,649.329 " />
<polyline points="483.834,651.395 483.834,645.973 485.576,645.973 486.157,646.232 486.351,646.49 486.544,647.006 486.544,647.78 486.351,648.297 486.157,648.555 485.576,648.813 483.834,648.813 " />
<polyline points="490.417,651.395 487.9,651.395 487.9,645.973 490.417,645.973 " />
<polyline points="487.9,648.555 489.449,648.555 " />
<polyline points="491.578,651.395 491.578,645.973 493.321,645.973 493.902,646.232 494.095,646.49 494.289,647.006 494.289,647.522 494.095,648.039 493.902,648.297 493.321,648.555 491.578,648.555 " />
<polyline points="492.934,648.555 494.289,651.395 " />
<polyline points="495.838,651.395 496.032,651.136 495.838,650.878 495.644,651.136 495.838,651.395 " />
<polyline points="495.838,648.297 496.032,648.039 495.838,647.78 495.644,648.039 495.838,648.297 " />
<polyline points="567.191,641.819 566.772,641.539 566.352,640.98 566.143,640.42 565.933,639.581 565.933,638.183 566.143,637.344 566.352,636.785 566.772,636.225 567.191,635.946 568.03,635.946 568.45,636.225 568.869,636.785 569.079,637.344 569.289,638.183 569.289,639.581 569.079,640.42 568.869,640.98 568.45,641.539 568.03,641.819 567.191,641.819 " />
<polyline points="567.821,640.7 569.079,642.378 " />
<polyline points="570.967,641.819 571.177,641.539 570.967,641.259 570.757,641.539 570.967,641.819 " />
<polyline points="572.225,641.819 573.903,635.946 575.581,641.819 " />
<polyline points="572.855,639.861 574.952,639.861 " />
<polyline points="576.84,641.819 577.05,641.539 576.84,641.259 576.63,641.539 576.84,641.819 " />
<polyline points="438.898,688.268 438.898,682.847 441.415,682.847 " />
<polyline points="438.898,685.428 440.447,685.428 " />
<polyline points="442.383,682.847 442.383,688.268 " />
<polyline points="443.932,688.268 443.932,682.847 446.643,688.268 446.643,682.847 " />
<polyline points="448.192,682.847 448.192,688.268 " />
<polyline points="449.547,687.494 449.934,688.01 450.515,688.268 451.29,688.268 451.871,688.01 452.258,687.494 452.258,686.719 452.064,686.203 451.871,685.945 451.483,685.687 450.322,685.17 449.934,684.912 449.741,684.654 449.547,684.138 449.547,683.621 449.934,683.105 450.515,682.847 451.29,682.847 451.871,683.105 452.258,683.621 " />
<polyline points="453.613,682.847 453.613,688.268 " />
<polyline points="453.613,685.428 456.324,685.428 " />
<polyline points="456.324,682.847 456.324,688.268 " />
<polyline points="753.11,669.172 753.11,660.137 755.201,660.137 756.097,660.567 756.695,661.427 756.994,662.288 757.293,663.579 757.293,665.73 756.994,667.021 756.695,667.881 756.097,668.742 755.201,669.172 753.11,669.172 " />
<polyline points="758.786,660.137 760.28,669.172 761.774,660.137 763.268,669.172 764.762,660.137 " />
<polyline points="770.738,662.288 770.439,661.427 769.842,660.567 769.244,660.137 768.049,660.137 767.451,660.567 766.854,661.427 766.555,662.288 766.256,663.579 766.256,665.73 766.555,667.021 766.854,667.881 767.451,668.742 768.049,669.172 769.244,669.172 769.842,668.742 770.439,667.881 770.738,667.021 770.738,665.73 769.244,665.73 " />
<polyline points="773.128,669.172 773.427,668.742 773.128,668.312 772.829,668.742 773.128,669.172 " />
<polyline points="788.366,669.172 788.366,660.137 792.549,669.172 792.549,660.137 " />
<polyline points="796.434,669.172 795.836,668.742 795.238,667.881 794.94,667.021 794.641,665.73 794.641,663.579 794.94,662.288 795.238,661.427 795.836,660.567 796.434,660.137 797.629,660.137 798.226,660.567 798.824,661.427 799.123,662.288 799.421,663.579 799.421,665.73 799.123,667.021 798.824,667.881 798.226,668.742 797.629,669.172 796.434,669.172 " />
<polyline points="801.812,669.172 802.11,668.742 801.812,668.312 801.513,668.742 801.812,669.172 " />
<polyline points="683.51,557.314 683.51,551.441 684.978,551.441 685.608,551.721 686.027,552.28 686.237,552.84 686.447,553.679 686.447,555.077 686.237,555.916 686.027,556.475 685.608,557.035 684.978,557.314 683.51,557.314 " />
<polyline points="687.286,557.314 688.964,551.441 690.642,557.314 " />
<polyline points="687.915,555.357 690.012,555.357 " />
<polyline points="691.061,551.441 693.998,551.441 " />
<polyline points="692.529,551.441 692.529,557.314 " />
<polyline points="697.773,557.314 695.046,557.314 695.046,551.441 697.773,551.441 " />
<polyline points="695.046,554.238 696.724,554.238 " />
<polyline points="373.817,690.462 373.817,694.495 374.019,695.302 374.422,695.84 375.027,696.109 375.431,696.109 376.036,695.84 376.439,695.302 376.641,694.495 376.641,690.462 " />
<polyline points="378.053,695.302 378.456,695.84 379.061,696.109 379.868,696.109 380.473,695.84 380.876,695.302 380.876,694.495 380.674,693.957 380.473,693.689 380.069,693.42 378.859,692.882 378.456,692.613 378.254,692.344 378.053,691.806 378.053,691.268 378.456,690.731 379.061,690.462 379.868,690.462 380.473,690.731 380.876,691.268 " />
<polyline points="384.91,696.109 382.288,696.109 382.288,690.462 384.91,690.462 " />
<polyline points="382.288,693.151 383.901,693.151 " />
<polyline points="386.12,696.109 386.12,690.462 387.532,690.462 388.137,690.731 388.54,691.268 388.742,691.806 388.943,692.613 388.943,693.957 388.742,694.764 388.54,695.302 388.137,695.84 387.532,696.109 386.12,696.109 " />
<polyline points="395.599,696.109 395.195,695.84 394.792,695.302 394.59,694.764 394.389,693.957 394.389,692.613 394.59,691.806 394.792,691.268 395.195,690.731 395.599,690.462 396.405,690.462 396.809,690.731 397.212,691.268 397.414,691.806 397.616,692.613 397.616,693.957 397.414,694.764 397.212,695.302 396.809,695.84 396.405,696.109 395.599,696.109 " />
<polyline points="399.027,696.109 399.027,690.462 401.851,696.109 401.851,690.462 " />
<polyline points="722.515,695.524 728.969,672.936 735.423,695.524 " />
<polyline points="724.935,687.995 733.003,687.995 " />
<polyline points="440.206,575.401 440.206,569.528 441.674,569.528 442.304,569.807 442.723,570.367 442.933,570.926 443.143,571.765 443.143,573.163 442.933,574.002 442.723,574.562 442.304,575.121 441.674,575.401 440.206,575.401 " />
<polyline points="444.611,569.528 444.611,575.401 " />
<polyline points="446.289,575.401 446.289,569.528 447.967,575.401 449.645,569.528 449.645,575.401 " />
<polyline points="454.05,575.401 451.323,575.401 451.323,569.528 454.05,569.528 " />
<polyline points="451.323,572.324 453.001,572.324 " />
<polyline points="455.308,575.401 455.308,569.528 458.244,575.401 458.244,569.528 " />
<polyline points="459.713,574.562 460.132,575.121 460.761,575.401 461.6,575.401 462.23,575.121 462.649,574.562 462.649,573.723 462.439,573.163 462.23,572.884 461.81,572.604 460.552,572.045 460.132,571.765 459.922,571.485 459.713,570.926 459.713,570.367 460.132,569.807 460.761,569.528 461.6,569.528 462.23,569.807 462.649,570.367 " />
<polyline points="464.117,569.528 464.117,575.401 " />
<polyline points="466.844,575.401 466.425,575.121 466.005,574.562 465.795,574.002 465.586,573.163 465.586,571.765 465.795,570.926 466.005,570.367 466.425,569.807 466.844,569.528 467.683,569.528 468.103,569.807 468.522,570.367 468.732,570.926 468.942,571.765 468.942,573.163 468.732,574.002 468.522,574.562 468.103,575.121 467.683,575.401 466.844,575.401 " />
<polyline points="470.41,575.401 470.41,569.528 473.346,575.401 473.346,569.528 " />
<polyline points="474.815,574.562 475.234,575.121 475.863,575.401 476.702,575.401 477.332,575.121 477.751,574.562 477.751,573.723 477.541,573.163 477.332,572.884 476.912,572.604 475.654,572.045 475.234,571.765 475.024,571.485 474.815,570.926 474.815,570.367 475.234,569.807 475.863,569.528 476.702,569.528 477.332,569.807 477.751,570.367 " />
<polyline points="482.995,575.401 484.673,569.528 486.351,575.401 " />
<polyline points="483.624,573.443 485.721,573.443 " />
<polyline points="487.399,575.401 487.399,569.528 489.287,569.528 489.916,569.807 490.126,570.087 490.336,570.646 490.336,571.206 490.126,571.765 489.916,572.045 489.287,572.324 487.399,572.324 " />
<polyline points="488.868,572.324 490.336,575.401 " />
<polyline points="494.531,575.401 491.804,575.401 491.804,569.528 494.531,569.528 " />
<polyline points="491.804,572.324 493.482,572.324 " />
<polyline points="500.194,569.528 500.194,575.401 " />
<polyline points="501.872,575.401 501.872,569.528 504.809,575.401 504.809,569.528 " />
<polyline points="510.891,569.528 510.891,575.401 " />
<polyline points="512.569,575.401 512.569,569.528 515.506,575.401 515.506,569.528 " />
<polyline points="520.12,574.002 519.91,574.562 519.491,575.121 519.071,575.401 518.232,575.401 517.813,575.121 517.393,574.562 517.184,574.002 516.974,573.163 516.974,571.765 517.184,570.926 517.393,570.367 517.813,569.807 518.232,569.528 519.071,569.528 519.491,569.807 519.91,570.367 520.12,570.926 " />
<polyline points="521.588,569.528 521.588,575.401 " />
<polyline points="521.588,572.324 524.525,572.324 " />
<polyline points="524.525,569.528 524.525,575.401 " />
<polyline points="528.93,575.401 526.203,575.401 526.203,569.528 528.93,569.528 " />
<polyline points="526.203,572.324 527.881,572.324 " />
<polyline points="529.978,574.562 530.398,575.121 531.027,575.401 531.866,575.401 532.495,575.121 532.915,574.562 532.915,573.723 532.705,573.163 532.495,572.884 532.076,572.604 530.817,572.045 530.398,571.765 530.188,571.485 529.978,570.926 529.978,570.367 530.398,569.807 531.027,569.528 531.866,569.528 532.495,569.807 532.915,570.367 " />
<polyline points="440.206,578.958 443.143,578.958 " />
<polyline points="441.674,578.958 441.674,584.831 " />
<polyline points="445.24,584.831 444.821,584.551 444.401,583.992 444.191,583.433 443.982,582.594 443.982,581.195 444.191,580.356 444.401,579.797 444.821,579.238 445.24,578.958 446.079,578.958 446.499,579.238 446.918,579.797 447.128,580.356 447.338,581.195 447.338,582.594 447.128,583.433 446.918,583.992 446.499,584.551 446.079,584.831 445.24,584.831 " />
<polyline points="448.806,578.958 448.806,584.831 451.323,584.831 " />
<polyline points="455.098,584.831 452.372,584.831 452.372,578.958 455.098,578.958 " />
<polyline points="452.372,581.755 454.05,581.755 " />
<polyline points="456.357,584.831 456.357,578.958 458.244,578.958 458.874,579.238 459.083,579.517 459.293,580.077 459.293,580.636 459.083,581.195 458.874,581.475 458.244,581.755 456.357,581.755 " />
<polyline points="457.825,581.755 459.293,584.831 " />
<polyline points="460.132,584.831 461.81,578.958 463.488,584.831 " />
<polyline points="460.761,582.873 462.859,582.873 " />
<polyline points="464.537,584.831 464.537,578.958 467.473,584.831 467.473,578.958 " />
<polyline points="472.088,583.433 471.878,583.992 471.459,584.551 471.039,584.831 470.2,584.831 469.781,584.551 469.361,583.992 469.151,583.433 468.942,582.594 468.942,581.195 469.151,580.356 469.361,579.797 469.781,579.238 470.2,578.958 471.039,578.958 471.459,579.238 471.878,579.797 472.088,580.356 " />
<polyline points="476.283,584.831 473.556,584.831 473.556,578.958 476.283,578.958 " />
<polyline points="473.556,581.755 475.234,581.755 " />
<polyline points="477.332,583.992 477.751,584.551 478.38,584.831 479.219,584.831 479.849,584.551 480.268,583.992 480.268,583.153 480.058,582.594 479.849,582.314 479.429,582.034 478.171,581.475 477.751,581.195 477.541,580.916 477.332,580.356 477.332,579.797 477.751,579.238 478.38,578.958 479.219,578.958 479.849,579.238 480.268,579.797 " />
<polyline points="481.946,584.831 482.156,584.551 481.946,584.271 481.736,584.551 481.946,584.831 " />
<polyline points="481.946,581.475 482.156,581.195 481.946,580.916 481.736,581.195 481.946,581.475 " />
<polyline points="440.206,594.261 440.206,588.388 442.933,588.388 " />
<polyline points="440.206,591.185 441.884,591.185 " />
<polyline points="443.982,594.261 443.982,588.388 445.869,588.388 446.499,588.668 446.708,588.947 446.918,589.507 446.918,590.066 446.708,590.625 446.499,590.905 445.869,591.185 443.982,591.185 " />
<polyline points="445.45,591.185 446.918,594.261 " />
<polyline points="447.757,594.261 449.435,588.388 451.113,594.261 " />
<polyline points="448.386,592.303 450.484,592.303 " />
<polyline points="455.098,592.863 454.889,593.422 454.469,593.981 454.05,594.261 453.211,594.261 452.791,593.981 452.372,593.422 452.162,592.863 451.952,592.024 451.952,590.625 452.162,589.786 452.372,589.227 452.791,588.668 453.211,588.388 454.05,588.388 454.469,588.668 454.889,589.227 455.098,589.786 " />
<polyline points="455.937,588.388 458.874,588.388 " />
<polyline points="457.406,588.388 457.406,594.261 " />
<polyline points="459.922,588.388 459.922,594.261 " />
<polyline points="462.649,594.261 462.23,593.981 461.81,593.422 461.6,592.863 461.391,592.024 461.391,590.625 461.6,589.786 461.81,589.227 462.23,588.668 462.649,588.388 463.488,588.388 463.908,588.668 464.327,589.227 464.537,589.786 464.747,590.625 464.747,592.024 464.537,592.863 464.327,593.422 463.908,593.981 463.488,594.261 462.649,594.261 " />
<polyline points="466.215,594.261 466.215,588.388 469.151,594.261 469.151,588.388 " />
<polyline points="470.2,594.261 471.878,588.388 473.556,594.261 " />
<polyline points="470.829,592.303 472.927,592.303 " />
<polyline points="474.605,588.388 474.605,594.261 477.122,594.261 " />
<polyline points="489.069,588.388 489.069,593.702 " />
<polyline points="486.972,594.261 490.957,594.261 " />
<polyline points="486.972,591.185 490.957,591.185 " />
<polyline points="440.206,603.691 441.884,597.818 443.562,603.691 " />
<polyline points="440.835,601.733 442.933,601.733 " />
<polyline points="444.611,603.691 444.611,597.818 447.547,603.691 447.547,597.818 " />
<polyline points="452.162,599.216 451.952,598.657 451.533,598.098 451.113,597.818 450.274,597.818 449.855,598.098 449.435,598.657 449.225,599.216 449.016,600.055 449.016,601.454 449.225,602.293 449.435,602.852 449.855,603.411 450.274,603.691 451.113,603.691 451.533,603.411 451.952,602.852 452.162,602.293 452.162,601.454 451.113,601.454 " />
<polyline points="453.63,597.818 453.63,602.013 453.84,602.852 454.259,603.411 454.889,603.691 455.308,603.691 455.937,603.411 456.357,602.852 456.567,602.013 456.567,597.818 " />
<polyline points="458.244,597.818 458.244,603.691 460.761,603.691 " />
<polyline points="461.181,603.691 462.859,597.818 464.537,603.691 " />
<polyline points="461.81,601.733 463.908,601.733 " />
<polyline points="465.586,603.691 465.586,597.818 467.473,597.818 468.103,598.098 468.312,598.377 468.522,598.937 468.522,599.496 468.312,600.055 468.103,600.335 467.473,600.615 465.586,600.615 " />
<polyline points="467.054,600.615 468.522,603.691 " />
<polyline points="470.2,603.691 470.41,603.411 470.2,603.132 469.99,603.411 470.2,603.691 " />
<polyline points="470.2,600.335 470.41,600.055 470.2,599.776 469.99,600.055 470.2,600.335 " />
<polyline points="476.493,603.691 476.493,597.818 478.171,603.691 479.849,597.818 479.849,603.691 " />
<polyline points="480.897,603.691 482.575,597.818 484.253,603.691 " />
<polyline points="481.527,601.733 483.624,601.733 " />
<polyline points="488.238,602.293 488.029,602.852 487.609,603.411 487.19,603.691 486.351,603.691 485.931,603.411 485.512,602.852 485.302,602.293 485.092,601.454 485.092,600.055 485.302,599.216 485.512,598.657 485.931,598.098 486.351,597.818 487.19,597.818 487.609,598.098 488.029,598.657 488.238,599.216 " />
<polyline points="489.707,597.818 489.707,603.691 " />
<polyline points="489.707,600.615 492.643,600.615 " />
<polyline points="492.643,597.818 492.643,603.691 " />
<polyline points="507.663,597.818 507.663,603.132 " />
<polyline points="505.565,603.691 509.55,603.691 " />
<polyline points="505.565,600.615 509.55,600.615 " />
<polyline points="522.171,603.691 522.171,597.818 524.059,597.818 524.688,598.098 524.898,598.377 525.107,598.937 525.107,599.496 524.898,600.055 524.688,600.335 524.059,600.615 522.171,600.615 524.059,600.615 524.688,600.894 524.898,601.174 525.107,601.733 525.107,602.572 524.898,603.132 524.688,603.411 524.059,603.691 522.171,603.691 " />
<polyline points="529.302,603.691 526.576,603.691 526.576,597.818 529.302,597.818 " />
<polyline points="526.576,600.615 528.254,600.615 " />
<polyline points="530.561,603.691 530.561,597.818 533.497,603.691 533.497,597.818 " />
<polyline points="535.175,603.691 535.175,597.818 536.643,597.818 537.273,598.098 537.692,598.657 537.902,599.216 538.112,600.055 538.112,601.454 537.902,602.293 537.692,602.852 537.273,603.411 536.643,603.691 535.175,603.691 " />
<polyline points="546.014,597.818 546.014,603.132 " />
<polyline points="543.917,603.691 547.902,603.691 " />
<polyline points="543.917,600.615 547.902,600.615 " />
<polyline points="440.206,607.248 443.143,607.248 " />
<polyline points="441.674,607.248 441.674,613.121 " />
<polyline points="443.772,607.248 444.821,613.121 445.869,607.248 446.918,613.121 447.967,607.248 " />
<polyline points="450.274,613.121 449.855,612.842 449.435,612.282 449.225,611.723 449.016,610.884 449.016,609.486 449.225,608.647 449.435,608.087 449.855,607.528 450.274,607.248 451.113,607.248 451.533,607.528 451.952,608.087 452.162,608.647 452.372,609.486 452.372,610.884 452.162,611.723 451.952,612.282 451.533,612.842 451.113,613.121 450.274,613.121 " />
<polyline points="458.244,613.121 458.244,607.248 460.132,607.248 460.761,607.528 460.971,607.808 461.181,608.367 461.181,609.206 460.971,609.765 460.761,610.045 460.132,610.325 458.244,610.325 " />
<polyline points="462.649,607.248 462.649,613.121 465.166,613.121 " />
<polyline points="465.586,613.121 467.264,607.248 468.942,613.121 " />
<polyline points="466.215,611.164 468.312,611.164 " />
<polyline points="472.927,611.723 472.717,612.282 472.298,612.842 471.878,613.121 471.039,613.121 470.62,612.842 470.2,612.282 469.99,611.723 469.781,610.884 469.781,609.486 469.99,608.647 470.2,608.087 470.62,607.528 471.039,607.248 471.878,607.248 472.298,607.528 472.717,608.087 472.927,608.647 " />
<polyline points="477.122,613.121 474.395,613.121 474.395,607.248 477.122,607.248 " />
<polyline points="474.395,610.045 476.073,610.045 " />
<polyline points="482.785,613.121 482.785,607.248 484.253,607.248 484.882,607.528 485.302,608.087 485.512,608.647 485.721,609.486 485.721,610.884 485.512,611.723 485.302,612.282 484.882,612.842 484.253,613.121 482.785,613.121 " />
<polyline points="489.916,613.121 487.19,613.121 487.19,607.248 489.916,607.248 " />
<polyline points="487.19,610.045 488.868,610.045 " />
<polyline points="494.111,611.723 493.902,612.282 493.482,612.842 493.063,613.121 492.224,613.121 491.804,612.842 491.385,612.282 491.175,611.723 490.965,610.884 490.965,609.486 491.175,608.647 491.385,608.087 491.804,607.528 492.224,607.248 493.063,607.248 493.482,607.528 493.902,608.087 494.111,608.647 " />
<polyline points="495.58,607.248 495.58,613.121 " />
<polyline points="497.258,613.121 497.258,607.248 498.936,613.121 500.614,607.248 500.614,613.121 " />
<polyline points="501.662,613.121 503.34,607.248 505.018,613.121 " />
<polyline points="502.292,611.164 504.389,611.164 " />
<polyline points="506.067,607.248 506.067,613.121 508.584,613.121 " />
<polyline points="530.798,607.248 530.798,612.562 " />
<polyline points="528.701,613.121 532.686,613.121 " />
<polyline points="528.701,610.045 532.686,610.045 " />
<polyline points="440.206,616.678 443.143,616.678 " />
<polyline points="441.674,616.678 441.674,622.551 " />
<polyline points="444.191,616.678 444.191,622.551 " />
<polyline points="444.191,619.475 447.128,619.475 " />
<polyline points="447.128,616.678 447.128,622.551 " />
<polyline points="448.806,622.551 448.806,616.678 450.694,616.678 451.323,616.958 451.533,617.238 451.742,617.797 451.742,618.356 451.533,618.916 451.323,619.195 450.694,619.475 448.806,619.475 " />
<polyline points="450.274,619.475 451.742,622.551 " />
<polyline points="455.937,622.551 453.211,622.551 453.211,616.678 455.937,616.678 " />
<polyline points="453.211,619.475 454.889,619.475 " />
<polyline points="459.922,622.551 457.196,622.551 457.196,616.678 459.922,616.678 " />
<polyline points="457.196,619.475 458.874,619.475 " />
<polyline points="465.586,622.551 465.586,616.678 467.473,616.678 468.103,616.958 468.312,617.238 468.522,617.797 468.522,618.636 468.312,619.195 468.103,619.475 467.473,619.755 465.586,619.755 " />
<polyline points="469.99,616.678 469.99,622.551 472.507,622.551 " />
<polyline points="472.927,622.551 474.605,616.678 476.283,622.551 " />
<polyline points="473.556,620.594 475.654,620.594 " />
<polyline points="480.268,621.153 480.058,621.712 479.639,622.272 479.219,622.551 478.38,622.551 477.961,622.272 477.541,621.712 477.332,621.153 477.122,620.314 477.122,618.916 477.332,618.077 477.541,617.517 477.961,616.958 478.38,616.678 479.219,616.678 479.639,616.958 480.058,617.517 480.268,618.077 " />
<polyline points="484.463,622.551 481.736,622.551 481.736,616.678 484.463,616.678 " />
<polyline points="481.736,619.475 483.414,619.475 " />
<polyline points="490.126,622.551 490.126,616.678 491.594,616.678 492.224,616.958 492.643,617.517 492.853,618.077 493.063,618.916 493.063,620.314 492.853,621.153 492.643,621.712 492.224,622.272 491.594,622.551 490.126,622.551 " />
<polyline points="497.258,622.551 494.531,622.551 494.531,616.678 497.258,616.678 " />
<polyline points="494.531,619.475 496.209,619.475 " />
<polyline points="501.453,621.153 501.243,621.712 500.823,622.272 500.404,622.551 499.565,622.551 499.145,622.272 498.726,621.712 498.516,621.153 498.306,620.314 498.306,618.916 498.516,618.077 498.726,617.517 499.145,616.958 499.565,616.678 500.404,616.678 500.823,616.958 501.243,617.517 501.453,618.077 " />
<polyline points="502.921,616.678 502.921,622.551 " />
<polyline points="504.599,622.551 504.599,616.678 506.277,622.551 507.955,616.678 507.955,622.551 " />
<polyline points="509.003,622.551 510.681,616.678 512.359,622.551 " />
<polyline points="509.633,620.594 511.73,620.594 " />
<polyline points="513.408,616.678 513.408,622.551 515.925,622.551 " />
<polyline points="530.29,616.678 530.29,621.992 " />
<polyline points="528.192,622.551 532.177,622.551 " />
<polyline points="528.192,619.475 532.177,619.475 " />
<polyline points="283.775,696.202 283.775,690.555 286.599,696.202 286.599,690.555 " />
<polyline points="290.834,696.202 288.212,696.202 288.212,690.555 290.834,690.555 " />
<polyline points="288.212,693.244 289.826,693.244 " />
<polyline points="294.666,690.555 291.842,696.202 " />
<polyline points="291.842,690.555 294.666,696.202 " />
<polyline points="295.473,690.555 298.296,690.555 " />
<polyline points="296.884,690.555 296.884,696.202 " />
<polyline points="302.935,696.202 304.548,690.555 306.162,696.202 " />
<polyline points="303.54,694.32 305.557,694.32 " />
<polyline points="306.969,695.396 307.372,695.933 307.977,696.202 308.784,696.202 309.389,695.933 309.792,695.396 309.792,694.589 309.59,694.051 309.389,693.782 308.985,693.513 307.775,692.975 307.372,692.706 307.17,692.438 306.969,691.9 306.969,691.362 307.372,690.824 307.977,690.555 308.784,690.555 309.389,690.824 309.792,691.362 " />
<polyline points="311.002,695.396 311.405,695.933 312.011,696.202 312.817,696.202 313.422,695.933 313.826,695.396 313.826,694.589 313.624,694.051 313.422,693.782 313.019,693.513 311.809,692.975 311.405,692.706 311.204,692.438 311.002,691.9 311.002,691.362 311.405,690.824 312.011,690.555 312.817,690.555 313.422,690.824 313.826,691.362 " />
<polyline points="314.632,690.555 316.246,693.244 317.859,690.555 " />
<polyline points="316.246,693.244 316.246,696.202 " />
<polyline points="438.651,664.026 438.651,658.605 440.2,664.026 441.749,658.605 441.749,664.026 " />
<polyline points="442.717,664.026 444.266,658.605 445.815,664.026 " />
<polyline points="443.298,662.219 445.234,662.219 " />
<polyline points="446.202,658.605 448.913,658.605 " />
<polyline points="447.557,658.605 447.557,664.026 " />
<polyline points="452.398,664.026 449.881,664.026 449.881,658.605 452.398,658.605 " />
<polyline points="449.881,661.187 451.43,661.187 " />
<polyline points="453.559,664.026 453.559,658.605 455.302,658.605 455.883,658.863 456.076,659.122 456.27,659.638 456.27,660.154 456.076,660.671 455.883,660.929 455.302,661.187 453.559,661.187 " />
<polyline points="454.915,661.187 456.27,664.026 " />
<polyline points="457.625,658.605 457.625,664.026 " />
<polyline points="458.593,664.026 460.142,658.605 461.691,664.026 " />
<polyline points="459.174,662.219 461.11,662.219 " />
<polyline points="462.659,658.605 462.659,664.026 464.983,664.026 " />
<polyline points="639.077,557.158 639.077,551.285 642.013,557.158 642.013,551.285 " />
<polyline points="643.062,557.158 644.74,551.285 646.418,557.158 " />
<polyline points="643.691,555.2 645.789,555.2 " />
<polyline points="647.467,557.158 647.467,551.285 649.145,557.158 650.823,551.285 650.823,557.158 " />
<polyline points="655.228,557.158 652.501,557.158 652.501,551.285 655.228,551.285 " />
<polyline points="652.501,554.081 654.179,554.081 " />
<polyline points="927.428,669.525 927.428,660.49 930.332,660.49 931.3,660.92 931.623,661.35 931.945,662.211 931.945,663.071 931.623,663.932 931.3,664.362 930.332,664.792 927.428,664.792 " />
<polyline points="929.686,664.792 931.945,669.525 " />
<polyline points="938.399,669.525 934.204,669.525 934.204,660.49 938.399,660.49 " />
<polyline points="934.204,664.792 936.786,664.792 " />
<polyline points="939.367,660.49 941.949,669.525 944.53,660.49 " />
<polyline points="459.803,717.107 459.803,711.46 461.214,711.46 461.819,711.729 462.223,712.266 462.425,712.804 462.626,713.611 462.626,714.955 462.425,715.762 462.223,716.3 461.819,716.838 461.214,717.107 459.803,717.107 " />
<polyline points="465.046,717.107 464.643,716.838 464.24,716.3 464.038,715.762 463.836,714.955 463.836,713.611 464.038,712.804 464.24,712.266 464.643,711.729 465.046,711.46 465.853,711.46 466.256,711.729 466.66,712.266 466.861,712.804 467.063,713.611 467.063,714.955 466.861,715.762 466.66,716.3 466.256,716.838 465.853,717.107 465.046,717.107 " />
<polyline points="472.71,717.107 472.71,711.46 475.534,717.107 475.534,711.46 " />
<polyline points="478.156,717.107 477.752,716.838 477.349,716.3 477.147,715.762 476.946,714.955 476.946,713.611 477.147,712.804 477.349,712.266 477.752,711.729 478.156,711.46 478.962,711.46 479.366,711.729 479.769,712.266 479.971,712.804 480.172,713.611 480.172,714.955 479.971,715.762 479.769,716.3 479.366,716.838 478.962,717.107 478.156,717.107 " />
<polyline points="480.979,711.46 483.803,711.46 " />
<polyline points="482.391,711.46 482.391,717.107 " />
<polyline points="488.845,716.3 489.248,716.838 489.853,717.107 490.66,717.107 491.265,716.838 491.668,716.3 491.668,715.493 491.467,714.955 491.265,714.687 490.861,714.418 489.651,713.88 489.248,713.611 489.046,713.342 488.845,712.804 488.845,712.266 489.248,711.729 489.853,711.46 490.66,711.46 491.265,711.729 491.668,712.266 " />
<polyline points="495.903,715.762 495.702,716.3 495.298,716.838 494.895,717.107 494.088,717.107 493.685,716.838 493.282,716.3 493.08,715.762 492.878,714.955 492.878,713.611 493.08,712.804 493.282,712.266 493.685,711.729 494.088,711.46 494.895,711.46 495.298,711.729 495.702,712.266 495.903,712.804 " />
<polyline points="496.71,717.107 498.324,711.46 499.937,717.107 " />
<polyline points="497.315,715.224 499.332,715.224 " />
<polyline points="500.946,711.46 500.946,717.107 503.366,717.107 " />
<polyline points="506.996,717.107 504.374,717.107 504.374,711.46 506.996,711.46 " />
<polyline points="504.374,714.149 505.988,714.149 " />
<polyline points="512.441,717.107 512.441,711.46 513.853,711.46 514.458,711.729 514.861,712.266 515.063,712.804 515.265,713.611 515.265,714.955 515.063,715.762 514.861,716.3 514.458,716.838 513.853,717.107 512.441,717.107 " />
<polyline points="516.677,717.107 516.677,711.46 518.492,711.46 519.097,711.729 519.298,711.997 519.5,712.535 519.5,713.073 519.298,713.611 519.097,713.88 518.492,714.149 516.677,714.149 " />
<polyline points="518.088,714.149 519.5,717.107 " />
<polyline points="520.307,717.107 521.92,711.46 523.534,717.107 " />
<polyline points="520.912,715.224 522.929,715.224 " />
<polyline points="524.139,711.46 525.147,717.107 526.156,711.46 527.164,717.107 528.172,711.46 " />
<polyline points="529.382,711.46 529.382,717.107 " />
<polyline points="530.996,717.107 530.996,711.46 533.819,717.107 533.819,711.46 " />
<polyline points="538.256,712.804 538.055,712.266 537.651,711.729 537.248,711.46 536.441,711.46 536.038,711.729 535.635,712.266 535.433,712.804 535.231,713.611 535.231,714.955 535.433,715.762 535.635,716.3 536.038,716.838 536.441,717.107 537.248,717.107 537.651,716.838 538.055,716.3 538.256,715.762 538.256,714.955 537.248,714.955 " />
<polyline points="722.404,716.109 723.049,716.97 724.017,717.4 725.308,717.4 726.276,716.97 726.921,716.109 726.921,714.819 726.599,713.958 726.276,713.528 725.631,713.098 723.694,712.237 723.049,711.807 722.726,711.377 722.404,710.516 722.404,709.656 723.049,708.795 724.017,708.365 725.308,708.365 726.276,708.795 726.921,709.656 " />
<polyline points="733.698,715.249 733.375,716.109 732.73,716.97 732.084,717.4 730.794,717.4 730.148,716.97 729.503,716.109 729.18,715.249 728.857,713.958 728.857,711.807 729.18,710.516 729.503,709.656 730.148,708.795 730.794,708.365 732.084,708.365 732.73,708.795 733.375,709.656 733.698,710.516 " />
<polyline points="734.989,717.4 737.57,708.365 740.152,717.4 " />
<polyline points="735.957,714.388 739.184,714.388 " />
<polyline points="741.765,708.365 741.765,717.4 745.637,717.4 " />
<polyline points="751.446,717.4 747.251,717.4 747.251,708.365 751.446,708.365 " />
<polyline points="747.251,712.667 749.832,712.667 " />
<polyline points="753.705,717.4 754.027,716.97 753.705,716.54 753.382,716.97 753.705,717.4 " />
<polyline points="753.705,712.237 754.027,711.807 753.705,711.377 753.382,711.807 753.705,712.237 " />
<polyline points="764.031,710.086 764.676,709.656 765.644,708.365 765.644,717.4 " />
<polyline points="770.162,717.4 770.484,716.97 770.162,716.54 769.839,716.97 770.162,717.4 " />
<polyline points="770.162,712.237 770.484,711.807 770.162,711.377 769.839,711.807 770.162,712.237 " />
<polyline points="773.711,710.086 774.357,709.656 775.325,708.365 775.325,717.4 " />
<polyline points="771.841,672.408 783.136,672.408 " />
<polyline points="777.489,672.408 777.489,694.996 " />
<polyline points="797.657,694.996 787.169,694.996 787.169,672.408 797.657,672.408 " />
<polyline points="787.169,683.164 793.623,683.164 " />
<polyline points="802.497,694.996 802.497,672.408 808.951,694.996 815.404,672.408 815.404,694.996 " />
<polyline points="821.858,694.996 821.858,672.408 829.119,672.408 831.539,673.483 832.346,674.559 833.152,676.71 833.152,679.937 832.346,682.088 831.539,683.164 829.119,684.24 821.858,684.24 " />
<polyline points="838.799,672.408 838.799,694.996 848.48,694.996 " />
<polyline points="850.094,694.996 856.547,672.408 863.001,694.996 " />
<polyline points="852.514,687.466 860.581,687.466 " />
<polyline points="864.615,672.408 875.909,672.408 " />
<polyline points="870.262,672.408 870.262,694.996 " />
<polyline points="890.43,694.996 879.942,694.996 879.942,672.408 890.43,672.408 " />
<polyline points="879.942,683.164 886.396,683.164 " />
<polyline points="568.359,608.104 565.633,608.104 565.633,602.232 568.359,602.232 " />
<polyline points="565.633,605.028 567.311,605.028 " />
<polyline points="569.618,608.104 569.618,602.232 572.554,608.104 572.554,602.232 " />
<polyline points="577.169,603.63 576.959,603.071 576.54,602.511 576.12,602.232 575.281,602.232 574.862,602.511 574.442,603.071 574.232,603.63 574.023,604.469 574.023,605.867 574.232,606.706 574.442,607.265 574.862,607.825 575.281,608.104 576.12,608.104 576.54,607.825 576.959,607.265 577.169,606.706 577.169,605.867 576.12,605.867 " />
<polyline points="582.412,608.104 584.09,602.232 585.768,608.104 " />
<polyline points="583.042,606.147 585.139,606.147 " />
<polyline points="586.817,608.104 586.817,602.232 588.705,602.232 589.334,602.511 589.544,602.791 589.754,603.35 589.754,604.189 589.544,604.749 589.334,605.028 588.705,605.308 586.817,605.308 " />
<polyline points="591.222,608.104 591.222,602.232 593.11,602.232 593.739,602.511 593.949,602.791 594.158,603.35 594.158,604.189 593.949,604.749 593.739,605.028 593.11,605.308 591.222,605.308 " />
<polyline points="595.627,608.104 595.627,602.232 597.514,602.232 598.144,602.511 598.353,602.791 598.563,603.35 598.563,603.91 598.353,604.469 598.144,604.749 597.514,605.028 595.627,605.028 " />
<polyline points="597.095,605.028 598.563,608.104 " />
<polyline points="600.241,608.104 600.451,607.825 600.241,607.545 600.031,607.825 600.241,608.104 " />
<polyline points="113.787,658.075 116.498,658.075 " />
<polyline points="115.142,658.075 115.142,663.496 " />
<polyline points="117.466,658.075 117.466,663.496 " />
<polyline points="117.466,660.656 120.176,660.656 " />
<polyline points="120.176,658.075 120.176,663.496 " />
<polyline points="124.242,663.496 121.725,663.496 121.725,658.075 124.242,658.075 " />
<polyline points="121.725,660.656 123.274,660.656 " />
<polyline points="129.47,658.075 129.47,663.496 " />
<polyline points="131.019,663.496 131.019,658.075 133.729,663.496 133.729,658.075 " />
<polyline points="135.278,663.496 135.278,658.075 137.795,658.075 " />
<polyline points="135.278,660.656 136.827,660.656 " />
<polyline points="139.731,663.496 139.344,663.238 138.957,662.722 138.763,662.205 138.569,661.431 138.569,660.14 138.763,659.366 138.957,658.849 139.344,658.333 139.731,658.075 140.506,658.075 140.893,658.333 141.28,658.849 141.474,659.366 141.667,660.14 141.667,661.431 141.474,662.205 141.28,662.722 140.893,663.238 140.506,663.496 139.731,663.496 " />
<polyline points="143.023,663.496 143.023,658.075 144.765,658.075 145.346,658.333 145.54,658.591 145.733,659.107 145.733,659.624 145.54,660.14 145.346,660.398 144.765,660.656 143.023,660.656 " />
<polyline points="144.378,660.656 145.733,663.496 " />
<polyline points="147.088,663.496 147.088,658.075 148.637,663.496 150.186,658.075 150.186,663.496 " />
<polyline points="151.154,663.496 152.703,658.075 154.252,663.496 " />
<polyline points="151.735,661.689 153.671,661.689 " />
<polyline points="154.639,658.075 157.35,658.075 " />
<polyline points="155.995,658.075 155.995,663.496 " />
<polyline points="158.318,658.075 158.318,663.496 " />
<polyline points="160.835,663.496 160.448,663.238 160.061,662.722 159.867,662.205 159.673,661.431 159.673,660.14 159.867,659.366 160.061,658.849 160.448,658.333 160.835,658.075 161.609,658.075 161.997,658.333 162.384,658.849 162.578,659.366 162.771,660.14 162.771,661.431 162.578,662.205 162.384,662.722 161.997,663.238 161.609,663.496 160.835,663.496 " />
<polyline points="164.126,663.496 164.126,658.075 166.837,663.496 166.837,658.075 " />
<polyline points="175.162,662.205 174.969,662.722 174.582,663.238 174.194,663.496 173.42,663.496 173.033,663.238 172.645,662.722 172.452,662.205 172.258,661.431 172.258,660.14 172.452,659.366 172.645,658.849 173.033,658.333 173.42,658.075 174.194,658.075 174.582,658.333 174.969,658.849 175.162,659.366 " />
<polyline points="177.486,663.496 177.099,663.238 176.711,662.722 176.518,662.205 176.324,661.431 176.324,660.14 176.518,659.366 176.711,658.849 177.099,658.333 177.486,658.075 178.26,658.075 178.647,658.333 179.035,658.849 179.228,659.366 179.422,660.14 179.422,661.431 179.228,662.205 179.035,662.722 178.647,663.238 178.26,663.496 177.486,663.496 " />
<polyline points="180.777,663.496 180.777,658.075 183.488,663.496 183.488,658.075 " />
<polyline points="184.456,658.075 187.166,658.075 " />
<polyline points="185.811,658.075 185.811,663.496 " />
<polyline points="187.554,663.496 189.103,658.075 190.651,663.496 " />
<polyline points="188.134,661.689 190.071,661.689 " />
<polyline points="191.62,658.075 191.62,663.496 " />
<polyline points="193.168,663.496 193.168,658.075 195.879,663.496 195.879,658.075 " />
<polyline points="199.945,663.496 197.428,663.496 197.428,658.075 199.945,658.075 " />
<polyline points="197.428,660.656 198.977,660.656 " />
<polyline points="201.107,663.496 201.107,658.075 202.462,658.075 203.043,658.333 203.43,658.849 203.624,659.366 203.817,660.14 203.817,661.431 203.624,662.205 203.43,662.722 203.043,663.238 202.462,663.496 201.107,663.496 " />
<polyline points="209.238,658.075 209.238,663.496 " />
<polyline points="210.787,663.496 210.787,658.075 213.498,663.496 213.498,658.075 " />
<polyline points="218.532,658.075 221.242,658.075 " />
<polyline points="219.887,658.075 219.887,663.496 " />
<polyline points="222.21,658.075 222.21,663.496 " />
<polyline points="222.21,660.656 224.921,660.656 " />
<polyline points="224.921,658.075 224.921,663.496 " />
<polyline points="226.47,658.075 226.47,663.496 " />
<polyline points="227.825,662.722 228.212,663.238 228.793,663.496 229.568,663.496 230.149,663.238 230.536,662.722 230.536,661.947 230.342,661.431 230.149,661.173 229.761,660.914 228.6,660.398 228.212,660.14 228.019,659.882 227.825,659.366 227.825,658.849 228.212,658.333 228.793,658.075 229.568,658.075 230.149,658.333 230.536,658.849 " />
<polyline points="113.787,672.474 113.787,667.053 115.142,667.053 115.723,667.311 116.11,667.828 116.304,668.344 116.498,669.118 116.498,670.409 116.304,671.184 116.11,671.7 115.723,672.216 115.142,672.474 113.787,672.474 " />
<polyline points="117.853,672.474 117.853,667.053 119.595,667.053 120.176,667.311 120.37,667.569 120.563,668.086 120.563,668.602 120.37,669.118 120.176,669.377 119.595,669.635 117.853,669.635 " />
<polyline points="119.208,669.635 120.563,672.474 " />
<polyline points="121.338,672.474 122.887,667.053 124.436,672.474 " />
<polyline points="121.919,670.667 123.855,670.667 " />
<polyline points="125.017,667.053 125.985,672.474 126.953,667.053 127.921,672.474 128.889,667.053 " />
<polyline points="130.05,667.053 130.05,672.474 " />
<polyline points="131.599,672.474 131.599,667.053 134.31,672.474 134.31,667.053 " />
<polyline points="138.569,668.344 138.376,667.828 137.989,667.311 137.601,667.053 136.827,667.053 136.44,667.311 136.052,667.828 135.859,668.344 135.665,669.118 135.665,670.409 135.859,671.184 136.052,671.7 136.44,672.216 136.827,672.474 137.601,672.474 137.989,672.216 138.376,671.7 138.569,671.184 138.569,670.409 137.601,670.409 " />
<polyline points="143.991,667.053 143.991,672.474 " />
<polyline points="145.346,671.7 145.733,672.216 146.314,672.474 147.088,672.474 147.669,672.216 148.057,671.7 148.057,670.925 147.863,670.409 147.669,670.151 147.282,669.893 146.12,669.377 145.733,669.118 145.54,668.86 145.346,668.344 145.346,667.828 145.733,667.311 146.314,667.053 147.088,667.053 147.669,667.311 148.057,667.828 " />
<polyline points="152.897,667.053 155.607,667.053 " />
<polyline points="154.252,667.053 154.252,672.474 " />
<polyline points="156.576,667.053 156.576,672.474 " />
<polyline points="156.576,669.635 159.286,669.635 " />
<polyline points="159.286,667.053 159.286,672.474 " />
<polyline points="163.352,672.474 160.835,672.474 160.835,667.053 163.352,667.053 " />
<polyline points="160.835,669.635 162.384,669.635 " />
<polyline points="168.386,671.7 168.773,672.216 169.354,672.474 170.128,672.474 170.709,672.216 171.097,671.7 171.097,670.925 170.903,670.409 170.709,670.151 170.322,669.893 169.16,669.377 168.773,669.118 168.58,668.86 168.386,668.344 168.386,667.828 168.773,667.311 169.354,667.053 170.128,667.053 170.709,667.311 171.097,667.828 " />
<polyline points="173.42,672.474 173.033,672.216 172.645,671.7 172.452,671.184 172.258,670.409 172.258,669.118 172.452,668.344 172.645,667.828 173.033,667.311 173.42,667.053 174.194,667.053 174.582,667.311 174.969,667.828 175.162,668.344 175.356,669.118 175.356,670.409 175.162,671.184 174.969,671.7 174.582,672.216 174.194,672.474 173.42,672.474 " />
<polyline points="176.711,667.053 176.711,672.474 179.035,672.474 " />
<polyline points="182.52,672.474 180.003,672.474 180.003,667.053 182.52,667.053 " />
<polyline points="180.003,669.635 181.552,669.635 " />
<polyline points="187.747,672.474 187.747,667.053 189.49,667.053 190.071,667.311 190.264,667.569 190.458,668.086 190.458,668.86 190.264,669.377 190.071,669.635 189.49,669.893 187.747,669.893 " />
<polyline points="191.813,672.474 191.813,667.053 193.556,667.053 194.137,667.311 194.33,667.569 194.524,668.086 194.524,668.602 194.33,669.118 194.137,669.377 193.556,669.635 191.813,669.635 " />
<polyline points="193.168,669.635 194.524,672.474 " />
<polyline points="196.847,672.474 196.46,672.216 196.073,671.7 195.879,671.184 195.685,670.409 195.685,669.118 195.879,668.344 196.073,667.828 196.46,667.311 196.847,667.053 197.622,667.053 198.009,667.311 198.396,667.828 198.59,668.344 198.783,669.118 198.783,670.409 198.59,671.184 198.396,671.7 198.009,672.216 197.622,672.474 196.847,672.474 " />
<polyline points="200.139,672.474 200.139,667.053 201.881,667.053 202.462,667.311 202.656,667.569 202.849,668.086 202.849,668.86 202.656,669.377 202.462,669.635 201.881,669.893 200.139,669.893 " />
<polyline points="206.721,672.474 204.204,672.474 204.204,667.053 206.721,667.053 " />
<polyline points="204.204,669.635 205.753,669.635 " />
<polyline points="207.883,672.474 207.883,667.053 209.626,667.053 210.206,667.311 210.4,667.569 210.594,668.086 210.594,668.602 210.4,669.118 210.206,669.377 209.626,669.635 207.883,669.635 " />
<polyline points="209.238,669.635 210.594,672.474 " />
<polyline points="211.368,667.053 214.079,667.053 " />
<polyline points="212.723,667.053 212.723,672.474 " />
<polyline points="214.466,667.053 216.015,669.635 217.564,667.053 " />
<polyline points="216.015,669.635 216.015,672.474 " />
<polyline points="223.566,672.474 223.179,672.216 222.791,671.7 222.598,671.184 222.404,670.409 222.404,669.118 222.598,668.344 222.791,667.828 223.179,667.311 223.566,667.053 224.34,667.053 224.727,667.311 225.115,667.828 225.308,668.344 225.502,669.118 225.502,670.409 225.308,671.184 225.115,671.7 224.727,672.216 224.34,672.474 223.566,672.474 " />
<polyline points="226.857,672.474 226.857,667.053 229.374,667.053 " />
<polyline points="226.857,669.635 228.406,669.635 " />
<polyline points="116.885,681.453 113.787,679.129 116.885,676.806 " />
<polyline points="118.434,676.032 118.434,681.453 " />
<polyline points="119.983,681.453 119.983,676.032 122.693,681.453 122.693,676.032 " />
<polyline points="124.048,680.678 124.436,681.195 125.017,681.453 125.791,681.453 126.372,681.195 126.759,680.678 126.759,679.904 126.565,679.388 126.372,679.129 125.985,678.871 124.823,678.355 124.436,678.097 124.242,677.839 124.048,677.322 124.048,676.806 124.436,676.29 125.017,676.032 125.791,676.032 126.372,676.29 126.759,676.806 " />
<polyline points="130.631,681.453 128.114,681.453 128.114,676.032 130.631,676.032 " />
<polyline points="128.114,678.613 129.663,678.613 " />
<polyline points="131.793,681.453 131.793,676.032 133.536,676.032 134.116,676.29 134.31,676.548 134.504,677.064 134.504,677.58 134.31,678.097 134.116,678.355 133.536,678.613 131.793,678.613 " />
<polyline points="133.148,678.613 134.504,681.453 " />
<polyline points="135.278,676.032 137.989,676.032 " />
<polyline points="136.633,676.032 136.633,681.453 " />
<polyline points="145.733,680.162 145.54,680.678 145.152,681.195 144.765,681.453 143.991,681.453 143.603,681.195 143.216,680.678 143.023,680.162 142.829,679.388 142.829,678.097 143.023,677.322 143.216,676.806 143.603,676.29 143.991,676.032 144.765,676.032 145.152,676.29 145.54,676.806 145.733,677.322 " />
<polyline points="148.057,681.453 147.669,681.195 147.282,680.678 147.088,680.162 146.895,679.388 146.895,678.097 147.088,677.322 147.282,676.806 147.669,676.29 148.057,676.032 148.831,676.032 149.218,676.29 149.605,676.806 149.799,677.322 149.993,678.097 149.993,679.388 149.799,680.162 149.605,680.678 149.218,681.195 148.831,681.453 148.057,681.453 " />
<polyline points="151.348,681.453 151.348,676.032 152.897,681.453 154.446,676.032 154.446,681.453 " />
<polyline points="155.995,681.453 155.995,676.032 157.737,676.032 158.318,676.29 158.512,676.548 158.705,677.064 158.705,677.839 158.512,678.355 158.318,678.613 157.737,678.871 155.995,678.871 " />
<polyline points="159.48,681.453 161.029,676.032 162.578,681.453 " />
<polyline points="160.061,679.646 161.997,679.646 " />
<polyline points="163.546,681.453 163.546,676.032 166.256,681.453 166.256,676.032 " />
<polyline points="167.224,676.032 168.773,678.613 170.322,676.032 " />
<polyline points="168.773,678.613 168.773,681.453 " />
<polyline points="175.356,681.453 175.356,676.032 178.067,681.453 178.067,676.032 " />
<polyline points="179.035,681.453 180.584,676.032 182.132,681.453 " />
<polyline points="179.616,679.646 181.552,679.646 " />
<polyline points="183.101,681.453 183.101,676.032 184.649,681.453 186.198,676.032 186.198,681.453 " />
<polyline points="190.264,681.453 187.747,681.453 187.747,676.032 190.264,676.032 " />
<polyline points="187.747,678.613 189.296,678.613 " />
<polyline points="195.492,676.032 195.492,681.453 " />
<polyline points="195.492,678.613 198.202,678.613 " />
<polyline points="198.202,676.032 198.202,681.453 " />
<polyline points="202.268,681.453 199.751,681.453 199.751,676.032 202.268,676.032 " />
<polyline points="199.751,678.613 201.3,678.613 " />
<polyline points="203.43,681.453 203.43,676.032 205.172,676.032 205.753,676.29 205.947,676.548 206.141,677.064 206.141,677.58 205.947,678.097 205.753,678.355 205.172,678.613 203.43,678.613 " />
<polyline points="204.785,678.613 206.141,681.453 " />
<polyline points="210.013,681.453 207.496,681.453 207.496,676.032 210.013,676.032 " />
<polyline points="207.496,678.613 209.045,678.613 " />
<polyline points="211.174,681.453 214.272,679.129 211.174,676.806 " />
<polyline points="216.015,681.453 216.208,681.195 216.015,680.936 215.821,681.195 216.015,681.453 " />
<polyline points="225.308,681.453 226.857,676.032 228.406,681.453 " />
<polyline points="225.889,679.646 227.825,679.646 " />
<polyline points="229.374,681.453 229.374,676.032 232.085,681.453 232.085,676.032 " />
<polyline points="233.053,676.032 234.602,678.613 236.151,676.032 " />
<polyline points="234.602,678.613 234.602,681.453 " />
<polyline points="113.787,690.431 113.787,685.01 115.529,685.01 116.11,685.268 116.304,685.526 116.498,686.043 116.498,686.559 116.304,687.075 116.11,687.333 115.529,687.591 113.787,687.591 " />
<polyline points="115.142,687.591 116.498,690.431 " />
<polyline points="120.37,690.431 117.853,690.431 117.853,685.01 120.37,685.01 " />
<polyline points="117.853,687.591 119.402,687.591 " />
<polyline points="121.531,690.431 121.531,685.01 123.274,685.01 123.855,685.268 124.048,685.526 124.242,686.043 124.242,686.817 124.048,687.333 123.855,687.591 123.274,687.85 121.531,687.85 " />
<polyline points="125.597,690.431 125.597,685.01 127.34,685.01 127.921,685.268 128.114,685.526 128.308,686.043 128.308,686.559 128.114,687.075 127.921,687.333 127.34,687.591 125.597,687.591 " />
<polyline points="126.953,687.591 128.308,690.431 " />
<polyline points="130.631,690.431 130.244,690.173 129.857,689.657 129.663,689.14 129.47,688.366 129.47,687.075 129.663,686.301 129.857,685.784 130.244,685.268 130.631,685.01 131.406,685.01 131.793,685.268 132.18,685.784 132.374,686.301 132.567,687.075 132.567,688.366 132.374,689.14 132.18,689.657 131.793,690.173 131.406,690.431 130.631,690.431 " />
<polyline points="133.923,690.431 133.923,685.01 135.278,685.01 135.859,685.268 136.246,685.784 136.44,686.301 136.633,687.075 136.633,688.366 136.44,689.14 136.246,689.657 135.859,690.173 135.278,690.431 133.923,690.431 " />
<polyline points="137.989,685.01 137.989,688.882 138.182,689.657 138.569,690.173 139.15,690.431 139.538,690.431 140.118,690.173 140.506,689.657 140.699,688.882 140.699,685.01 " />
<polyline points="144.959,689.14 144.765,689.657 144.378,690.173 143.991,690.431 143.216,690.431 142.829,690.173 142.442,689.657 142.248,689.14 142.054,688.366 142.054,687.075 142.248,686.301 142.442,685.784 142.829,685.268 143.216,685.01 143.991,685.01 144.378,685.268 144.765,685.784 144.959,686.301 " />
<polyline points="145.733,685.01 148.444,685.01 " />
<polyline points="147.088,685.01 147.088,690.431 " />
<polyline points="149.412,685.01 149.412,690.431 " />
<polyline points="151.929,690.431 151.542,690.173 151.154,689.657 150.961,689.14 150.767,688.366 150.767,687.075 150.961,686.301 151.154,685.784 151.542,685.268 151.929,685.01 152.703,685.01 153.09,685.268 153.478,685.784 153.671,686.301 153.865,687.075 153.865,688.366 153.671,689.14 153.478,689.657 153.09,690.173 152.703,690.431 151.929,690.431 " />
<polyline points="155.22,690.431 155.22,685.01 157.931,690.431 157.931,685.01 " />
<polyline points="163.546,685.01 163.546,690.431 " />
<polyline points="165.094,690.431 165.094,685.01 167.805,690.431 167.805,685.01 " />
<polyline points="173.42,690.431 173.42,685.01 175.162,685.01 175.743,685.268 175.937,685.526 176.13,686.043 176.13,686.817 175.937,687.333 175.743,687.591 175.162,687.85 173.42,687.85 " />
<polyline points="176.905,690.431 178.454,685.01 180.003,690.431 " />
<polyline points="177.486,688.624 179.422,688.624 " />
<polyline points="180.971,690.431 180.971,685.01 182.713,685.01 183.294,685.268 183.488,685.526 183.681,686.043 183.681,686.559 183.488,687.075 183.294,687.333 182.713,687.591 180.971,687.591 " />
<polyline points="182.326,687.591 183.681,690.431 " />
<polyline points="184.456,685.01 187.166,685.01 " />
<polyline points="185.811,685.01 185.811,690.431 " />
<polyline points="193.168,690.431 192.781,690.173 192.394,689.657 192.2,689.14 192.007,688.366 192.007,687.075 192.2,686.301 192.394,685.784 192.781,685.268 193.168,685.01 193.943,685.01 194.33,685.268 194.717,685.784 194.911,686.301 195.105,687.075 195.105,688.366 194.911,689.14 194.717,689.657 194.33,690.173 193.943,690.431 193.168,690.431 " />
<polyline points="196.46,690.431 196.46,685.01 198.202,685.01 198.783,685.268 198.977,685.526 199.17,686.043 199.17,686.559 198.977,687.075 198.783,687.333 198.202,687.591 196.46,687.591 " />
<polyline points="197.815,687.591 199.17,690.431 " />
<polyline points="204.011,690.431 205.56,685.01 207.109,690.431 " />
<polyline points="204.592,688.624 206.528,688.624 " />
<polyline points="207.883,689.657 208.27,690.173 208.851,690.431 209.626,690.431 210.206,690.173 210.594,689.657 210.594,688.882 210.4,688.366 210.206,688.108 209.819,687.85 208.658,687.333 208.27,687.075 208.077,686.817 207.883,686.301 207.883,685.784 208.27,685.268 208.851,685.01 209.626,685.01 210.206,685.268 210.594,685.784 " />
<polyline points="215.434,690.431 216.983,685.01 218.532,690.431 " />
<polyline points="216.015,688.624 217.951,688.624 " />
<polyline points="223.179,685.01 224.147,690.431 225.115,685.01 226.083,690.431 227.051,685.01 " />
<polyline points="228.212,685.01 228.212,690.431 " />
<polyline points="228.212,687.591 230.923,687.591 " />
<polyline points="230.923,685.01 230.923,690.431 " />
<polyline points="233.44,690.431 233.053,690.173 232.666,689.657 232.472,689.14 232.278,688.366 232.278,687.075 232.472,686.301 232.666,685.784 233.053,685.268 233.44,685.01 234.214,685.01 234.602,685.268 234.989,685.784 235.183,686.301 235.376,687.075 235.376,688.366 235.183,689.14 234.989,689.657 234.602,690.173 234.214,690.431 233.44,690.431 " />
<polyline points="236.731,685.01 236.731,690.431 239.055,690.431 " />
<polyline points="242.54,690.431 240.023,690.431 240.023,685.01 242.54,685.01 " />
<polyline points="240.023,687.591 241.572,687.591 " />
<polyline points="113.787,693.988 114.755,699.409 115.723,693.988 116.691,699.409 117.659,693.988 " />
<polyline points="118.821,693.988 118.821,699.409 " />
<polyline points="119.789,693.988 122.5,693.988 " />
<polyline points="121.144,693.988 121.144,699.409 " />
<polyline points="123.468,693.988 123.468,699.409 " />
<polyline points="123.468,696.57 126.178,696.57 " />
<polyline points="126.178,693.988 126.178,699.409 " />
<polyline points="128.695,699.409 128.308,699.151 127.921,698.635 127.727,698.119 127.533,697.344 127.533,696.054 127.727,695.279 127.921,694.763 128.308,694.246 128.695,693.988 129.47,693.988 129.857,694.246 130.244,694.763 130.438,695.279 130.631,696.054 130.631,697.344 130.438,698.119 130.244,698.635 129.857,699.151 129.47,699.409 128.695,699.409 " />
<polyline points="131.987,693.988 131.987,697.861 132.18,698.635 132.567,699.151 133.148,699.409 133.536,699.409 134.116,699.151 134.504,698.635 134.697,697.861 134.697,693.988 " />
<polyline points="135.665,693.988 138.376,693.988 " />
<polyline points="137.021,693.988 137.021,699.409 " />
<polyline points="142.829,693.988 145.54,693.988 " />
<polyline points="144.184,693.988 144.184,699.409 " />
<polyline points="146.508,693.988 146.508,699.409 " />
<polyline points="146.508,696.57 149.218,696.57 " />
<polyline points="149.218,693.988 149.218,699.409 " />
<polyline points="153.284,699.409 150.767,699.409 150.767,693.988 153.284,693.988 " />
<polyline points="150.767,696.57 152.316,696.57 " />
<polyline points="158.124,693.988 159.092,699.409 160.061,693.988 161.029,699.409 161.997,693.988 " />
<polyline points="163.158,699.409 163.158,693.988 164.901,693.988 165.482,694.246 165.675,694.505 165.869,695.021 165.869,695.537 165.675,696.054 165.482,696.312 164.901,696.57 163.158,696.57 " />
<polyline points="164.514,696.57 165.869,699.409 " />
<polyline points="167.224,693.988 167.224,699.409 " />
<polyline points="168.192,693.988 170.903,693.988 " />
<polyline points="169.548,693.988 169.548,699.409 " />
<polyline points="171.29,693.988 174.001,693.988 " />
<polyline points="172.645,693.988 172.645,699.409 " />
<polyline points="177.486,699.409 174.969,699.409 174.969,693.988 177.486,693.988 " />
<polyline points="174.969,696.57 176.518,696.57 " />
<polyline points="178.647,699.409 178.647,693.988 181.358,699.409 181.358,693.988 " />
<polyline points="186.973,699.409 186.973,693.988 188.715,693.988 189.296,694.246 189.49,694.505 189.683,695.021 189.683,695.795 189.49,696.312 189.296,696.57 188.715,696.828 186.973,696.828 " />
<polyline points="193.556,699.409 191.039,699.409 191.039,693.988 193.556,693.988 " />
<polyline points="191.039,696.57 192.588,696.57 " />
<polyline points="194.717,699.409 194.717,693.988 196.46,693.988 197.041,694.246 197.234,694.505 197.428,695.021 197.428,695.537 197.234,696.054 197.041,696.312 196.46,696.57 194.717,696.57 " />
<polyline points="196.073,696.57 197.428,699.409 " />
<polyline points="198.783,699.409 198.783,693.988 200.332,699.409 201.881,693.988 201.881,699.409 " />
<polyline points="203.43,693.988 203.43,699.409 " />
<polyline points="204.785,698.635 205.172,699.151 205.753,699.409 206.528,699.409 207.109,699.151 207.496,698.635 207.496,697.861 207.302,697.344 207.109,697.086 206.721,696.828 205.56,696.312 205.172,696.054 204.979,695.795 204.785,695.279 204.785,694.763 205.172,694.246 205.753,693.988 206.528,693.988 207.109,694.246 207.496,694.763 " />
<polyline points="208.658,698.635 209.045,699.151 209.626,699.409 210.4,699.409 210.981,699.151 211.368,698.635 211.368,697.861 211.174,697.344 210.981,697.086 210.594,696.828 209.432,696.312 209.045,696.054 208.851,695.795 208.658,695.279 208.658,694.763 209.045,694.246 209.626,693.988 210.4,693.988 210.981,694.246 211.368,694.763 " />
<polyline points="212.723,693.988 212.723,699.409 " />
<polyline points="215.24,699.409 214.853,699.151 214.466,698.635 214.272,698.119 214.079,697.344 214.079,696.054 214.272,695.279 214.466,694.763 214.853,694.246 215.24,693.988 216.015,693.988 216.402,694.246 216.789,694.763 216.983,695.279 217.177,696.054 217.177,697.344 216.983,698.119 216.789,698.635 216.402,699.151 216.015,699.409 215.24,699.409 " />
<polyline points="218.532,699.409 218.532,693.988 221.242,699.409 221.242,693.988 " />
<polyline points="227.825,699.409 227.438,699.151 227.051,698.635 226.857,698.119 226.664,697.344 226.664,696.054 226.857,695.279 227.051,694.763 227.438,694.246 227.825,693.988 228.6,693.988 228.987,694.246 229.374,694.763 229.568,695.279 229.761,696.054 229.761,697.344 229.568,698.119 229.374,698.635 228.987,699.151 228.6,699.409 227.825,699.409 " />
<polyline points="231.117,699.409 231.117,693.988 233.634,693.988 " />
<polyline points="231.117,696.57 232.666,696.57 " />
<polyline points="116.885,708.388 113.787,706.064 116.885,703.741 " />
<polyline points="118.434,702.967 118.434,708.388 " />
<polyline points="119.983,708.388 119.983,702.967 122.693,708.388 122.693,702.967 " />
<polyline points="124.048,707.613 124.436,708.13 125.017,708.388 125.791,708.388 126.372,708.13 126.759,707.613 126.759,706.839 126.565,706.323 126.372,706.064 125.985,705.806 124.823,705.29 124.436,705.032 124.242,704.774 124.048,704.257 124.048,703.741 124.436,703.225 125.017,702.967 125.791,702.967 126.372,703.225 126.759,703.741 " />
<polyline points="130.631,708.388 128.114,708.388 128.114,702.967 130.631,702.967 " />
<polyline points="128.114,705.548 129.663,705.548 " />
<polyline points="131.793,708.388 131.793,702.967 133.536,702.967 134.116,703.225 134.31,703.483 134.504,703.999 134.504,704.516 134.31,705.032 134.116,705.29 133.536,705.548 131.793,705.548 " />
<polyline points="133.148,705.548 134.504,708.388 " />
<polyline points="135.278,702.967 137.989,702.967 " />
<polyline points="136.633,702.967 136.633,708.388 " />
<polyline points="145.733,707.097 145.54,707.613 145.152,708.13 144.765,708.388 143.991,708.388 143.603,708.13 143.216,707.613 143.023,707.097 142.829,706.323 142.829,705.032 143.023,704.257 143.216,703.741 143.603,703.225 143.991,702.967 144.765,702.967 145.152,703.225 145.54,703.741 145.733,704.257 " />
<polyline points="148.057,708.388 147.669,708.13 147.282,707.613 147.088,707.097 146.895,706.323 146.895,705.032 147.088,704.257 147.282,703.741 147.669,703.225 148.057,702.967 148.831,702.967 149.218,703.225 149.605,703.741 149.799,704.257 149.993,705.032 149.993,706.323 149.799,707.097 149.605,707.613 149.218,708.13 148.831,708.388 148.057,708.388 " />
<polyline points="151.348,708.388 151.348,702.967 152.897,708.388 154.446,702.967 154.446,708.388 " />
<polyline points="155.995,708.388 155.995,702.967 157.737,702.967 158.318,703.225 158.512,703.483 158.705,703.999 158.705,704.774 158.512,705.29 158.318,705.548 157.737,705.806 155.995,705.806 " />
<polyline points="159.48,708.388 161.029,702.967 162.578,708.388 " />
<polyline points="160.061,706.581 161.997,706.581 " />
<polyline points="163.546,708.388 163.546,702.967 166.256,708.388 166.256,702.967 " />
<polyline points="167.224,702.967 168.773,705.548 170.322,702.967 " />
<polyline points="168.773,705.548 168.773,708.388 " />
<polyline points="175.356,708.388 175.356,702.967 178.067,708.388 178.067,702.967 " />
<polyline points="179.035,708.388 180.584,702.967 182.132,708.388 " />
<polyline points="179.616,706.581 181.552,706.581 " />
<polyline points="183.101,708.388 183.101,702.967 184.649,708.388 186.198,702.967 186.198,708.388 " />
<polyline points="190.264,708.388 187.747,708.388 187.747,702.967 190.264,702.967 " />
<polyline points="187.747,705.548 189.296,705.548 " />
<polyline points="195.492,702.967 195.492,708.388 " />
<polyline points="195.492,705.548 198.202,705.548 " />
<polyline points="198.202,702.967 198.202,708.388 " />
<polyline points="202.268,708.388 199.751,708.388 199.751,702.967 202.268,702.967 " />
<polyline points="199.751,705.548 201.3,705.548 " />
<polyline points="203.43,708.388 203.43,702.967 205.172,702.967 205.753,703.225 205.947,703.483 206.141,703.999 206.141,704.516 205.947,705.032 205.753,705.29 205.172,705.548 203.43,705.548 " />
<polyline points="204.785,705.548 206.141,708.388 " />
<polyline points="210.013,708.388 207.496,708.388 207.496,702.967 210.013,702.967 " />
<polyline points="207.496,705.548 209.045,705.548 " />
<polyline points="211.174,708.388 214.272,706.064 211.174,703.741 " />
<polyline points="219.887,702.967 219.887,708.388 " />
<polyline points="221.242,707.613 221.63,708.13 222.21,708.388 222.985,708.388 223.566,708.13 223.953,707.613 223.953,706.839 223.759,706.323 223.566,706.064 223.179,705.806 222.017,705.29 221.63,705.032 221.436,704.774 221.242,704.257 221.242,703.741 221.63,703.225 222.21,702.967 222.985,702.967 223.566,703.225 223.953,703.741 " />
<polyline points="113.787,717.366 113.787,711.945 115.529,711.945 116.11,712.203 116.304,712.461 116.498,712.978 116.498,713.752 116.304,714.268 116.11,714.527 115.529,714.785 113.787,714.785 " />
<polyline points="117.853,717.366 117.853,711.945 119.595,711.945 120.176,712.203 120.37,712.461 120.563,712.978 120.563,713.494 120.37,714.01 120.176,714.268 119.595,714.527 117.853,714.527 " />
<polyline points="119.208,714.527 120.563,717.366 " />
<polyline points="122.887,717.366 122.5,717.108 122.112,716.592 121.919,716.075 121.725,715.301 121.725,714.01 121.919,713.236 122.112,712.72 122.5,712.203 122.887,711.945 123.661,711.945 124.048,712.203 124.436,712.72 124.629,713.236 124.823,714.01 124.823,715.301 124.629,716.075 124.436,716.592 124.048,717.108 123.661,717.366 122.887,717.366 " />
<polyline points="126.178,711.945 126.178,717.366 " />
<polyline points="126.178,714.527 128.889,714.527 " />
<polyline points="128.889,711.945 128.889,717.366 " />
<polyline points="130.438,711.945 130.438,717.366 " />
<polyline points="131.987,717.366 131.987,711.945 133.729,711.945 134.31,712.203 134.504,712.461 134.697,712.978 134.697,713.494 134.504,714.01 134.31,714.268 133.729,714.527 131.987,714.527 133.729,714.527 134.31,714.785 134.504,715.043 134.697,715.559 134.697,716.334 134.504,716.85 134.31,717.108 133.729,717.366 131.987,717.366 " />
<polyline points="136.052,711.945 136.052,717.366 " />
<polyline points="137.021,711.945 139.731,711.945 " />
<polyline points="138.376,711.945 138.376,717.366 " />
<polyline points="143.216,717.366 140.699,717.366 140.699,711.945 143.216,711.945 " />
<polyline points="140.699,714.527 142.248,714.527 " />
<polyline points="144.378,717.366 144.378,711.945 145.733,711.945 146.314,712.203 146.701,712.72 146.895,713.236 147.088,714.01 147.088,715.301 146.895,716.075 146.701,716.592 146.314,717.108 145.733,717.366 144.378,717.366 " />
<polyline points="148.637,717.366 148.831,717.108 148.637,716.85 148.444,717.108 148.637,717.366 " />
<polyline points="569.158,655.412 568.948,655.971 568.529,656.53 568.109,656.81 567.27,656.81 566.851,656.53 566.431,655.971 566.222,655.412 566.012,654.573 566.012,653.174 566.222,652.335 566.431,651.776 566.851,651.217 567.27,650.937 568.109,650.937 568.529,651.217 568.948,651.776 569.158,652.335 " />
<polyline points="571.675,656.81 571.256,656.53 570.836,655.971 570.626,655.412 570.417,654.573 570.417,653.174 570.626,652.335 570.836,651.776 571.256,651.217 571.675,650.937 572.514,650.937 572.934,651.217 573.353,651.776 573.563,652.335 573.773,653.174 573.773,654.573 573.563,655.412 573.353,655.971 572.934,656.53 572.514,656.81 571.675,656.81 " />
<polyline points="575.241,656.81 575.241,650.937 576.919,656.81 578.597,650.937 578.597,656.81 " />
<polyline points="580.275,656.81 580.275,650.937 581.953,656.81 583.631,650.937 583.631,656.81 " />
<polyline points="588.035,656.81 585.309,656.81 585.309,650.937 588.035,650.937 " />
<polyline points="585.309,653.734 586.987,653.734 " />
<polyline points="589.294,656.81 589.294,650.937 592.23,656.81 592.23,650.937 " />
<polyline points="593.279,650.937 596.216,650.937 " />
<polyline points="594.747,650.937 594.747,656.81 " />
<polyline points="597.055,655.971 597.474,656.53 598.103,656.81 598.942,656.81 599.572,656.53 599.991,655.971 599.991,655.132 599.781,654.573 599.572,654.293 599.152,654.013 597.894,653.454 597.474,653.174 597.264,652.895 597.055,652.335 597.055,651.776 597.474,651.217 598.103,650.937 598.942,650.937 599.572,651.217 599.991,651.776 " />
<polyline points="601.669,656.81 601.879,656.53 601.669,656.251 601.459,656.53 601.669,656.81 " />
<polyline points="601.669,653.454 601.879,653.174 601.669,652.895 601.459,653.174 601.669,653.454 " />
<polyline points="565.701,574.233 565.701,568.36 567.17,568.36 567.799,568.64 568.218,569.199 568.428,569.758 568.638,570.597 568.638,571.996 568.428,572.835 568.218,573.394 567.799,573.953 567.17,574.233 565.701,574.233 " />
<polyline points="570.106,574.233 570.106,568.36 571.994,568.36 572.623,568.64 572.833,568.919 573.043,569.479 573.043,570.038 572.833,570.597 572.623,570.877 571.994,571.157 570.106,571.157 " />
<polyline points="571.574,571.157 573.043,574.233 " />
<polyline points="573.882,574.233 575.56,568.36 577.238,574.233 " />
<polyline points="574.511,572.275 576.608,572.275 " />
<polyline points="577.867,568.36 578.916,574.233 579.964,568.36 581.013,574.233 582.062,568.36 " />
<polyline points="583.32,574.233 583.32,568.36 586.257,574.233 586.257,568.36 " />
<polyline points="566.08,625.02 566.08,619.147 567.758,625.02 569.436,619.147 569.436,625.02 " />
<polyline points="571.114,625.02 571.114,619.147 573.84,619.147 " />
<polyline points="571.114,621.944 572.792,621.944 " />
<polyline points="577.826,620.545 577.616,619.986 577.196,619.427 576.777,619.147 575.938,619.147 575.518,619.427 575.099,619.986 574.889,620.545 574.679,621.384 574.679,622.783 574.889,623.622 575.099,624.181 575.518,624.74 575.938,625.02 576.777,625.02 577.196,624.74 577.616,624.181 577.826,623.622 577.826,622.783 576.777,622.783 " />
<polyline points="583.069,625.02 584.747,619.147 586.425,625.02 " />
<polyline points="583.699,623.062 585.796,623.062 " />
<polyline points="587.474,625.02 587.474,619.147 589.362,619.147 589.991,619.427 590.201,619.707 590.41,620.266 590.41,621.105 590.201,621.664 589.991,621.944 589.362,622.223 587.474,622.223 " />
<polyline points="591.879,625.02 591.879,619.147 593.766,619.147 594.396,619.427 594.605,619.707 594.815,620.266 594.815,621.105 594.605,621.664 594.396,621.944 593.766,622.223 591.879,622.223 " />
<polyline points="596.283,625.02 596.283,619.147 598.171,619.147 598.8,619.427 599.01,619.707 599.22,620.266 599.22,620.825 599.01,621.384 598.8,621.664 598.171,621.944 596.283,621.944 " />
<polyline points="597.752,621.944 599.22,625.02 " />
<polyline points="600.898,625.02 601.108,624.74 600.898,624.461 600.688,624.74 600.898,625.02 " />
<polyline points="884.905,716.08 885.496,716.94 886.384,717.371 887.567,717.371 888.454,716.94 889.046,716.08 889.046,714.789 888.75,713.929 888.454,713.498 887.863,713.068 886.088,712.208 885.496,711.777 885.201,711.347 884.905,710.487 884.905,709.626 885.496,708.766 886.384,708.335 887.567,708.335 888.454,708.766 889.046,709.626 " />
<polyline points="891.117,708.335 891.117,717.371 " />
<polyline points="891.117,712.638 895.258,712.638 " />
<polyline points="895.258,708.335 895.258,717.371 " />
<polyline points="901.469,717.371 897.624,717.371 897.624,708.335 901.469,708.335 " />
<polyline points="897.624,712.638 899.99,712.638 " />
<polyline points="907.09,717.371 903.244,717.371 903.244,708.335 907.09,708.335 " />
<polyline points="903.244,712.638 905.611,712.638 " />
<polyline points="907.977,708.335 912.118,708.335 " />
<polyline points="910.048,708.335 910.048,717.371 " />
<polyline points="920.401,710.056 920.992,709.626 921.88,708.335 921.88,717.371 " />
<polyline points="933.416,717.371 932.824,716.94 932.232,716.08 931.937,715.219 931.641,713.929 931.641,711.777 931.937,710.487 932.232,709.626 932.824,708.766 933.416,708.335 934.599,708.335 935.19,708.766 935.782,709.626 936.078,710.487 936.374,711.777 936.374,713.929 936.078,715.219 935.782,716.08 935.19,716.94 934.599,717.371 933.416,717.371 " />
<polyline points="938.444,717.371 938.444,708.335 942.29,708.335 " />
<polyline points="938.444,712.638 940.811,712.638 " />
<polyline points="950.572,710.056 951.164,709.626 952.051,708.335 952.051,717.371 " />
<polyline points="258.664,737.187 258.664,736.154 259.439,734.089 260.213,733.057 261.762,732.024 264.86,732.024 266.409,733.057 267.183,734.089 267.958,736.154 267.958,738.22 267.183,740.285 265.634,743.383 257.89,753.709 268.732,753.709 " />
<polyline points="758.316,736.154 759.865,735.122 762.188,732.024 762.188,753.709 " />
<polyline points="30.5855,584.297 36.7812,562.612 42.9768,584.297 " />
<polyline points="32.9089,577.069 40.6534,577.069 " />
<polyline points="32.0602,200.297 32.0602,178.612 39.0303,178.612 41.3537,179.645 42.1281,180.677 42.9026,182.743 42.9026,184.808 42.1281,186.873 41.3537,187.906 39.0303,188.938 32.0602,188.938 39.0303,188.938 41.3537,189.971 42.1281,191.003 42.9026,193.069 42.9026,196.167 42.1281,198.232 41.3537,199.264 39.0303,200.297 32.0602,200.297 " />
<polyline points="979.291,584.297 985.487,562.612 991.683,584.297 " />
<polyline points="981.615,577.069 989.359,577.069 " />
<polyline points="980.766,200.297 980.766,178.612 987.736,178.612 990.06,179.645 990.834,180.677 991.608,182.743 991.608,184.808 990.834,186.873 990.06,187.906 987.736,188.938 980.766,188.938 987.736,188.938 990.06,189.971 990.834,191.003 991.608,193.069 991.608,196.167 990.834,198.232 990.06,199.264 987.736,200.297 980.766,200.297 " />
<polyline points="758.316,13.3309 759.865,12.2983 762.188,9.20046 762.188,30.8852 " />
<polyline points="258.664,14.3635 258.664,13.3309 259.439,11.2657 260.213,10.2331 261.762,9.20046 264.86,9.20046 266.409,10.2331 267.183,11.2657 267.958,13.3309 267.958,15.3961 267.183,17.4613 265.634,20.5591 257.89,30.8852 268.732,30.8852 " />
<polyline points="759.026,561.458 753.11,557.021 759.026,552.584 " />
<polyline points="767.16,558.993 766.79,559.979 766.051,560.965 765.311,561.458 763.832,561.458 763.093,560.965 762.353,559.979 761.983,558.993 761.614,557.514 761.614,555.049 761.983,553.57 762.353,552.584 763.093,551.598 763.832,551.105 765.311,551.105 766.051,551.598 766.79,552.584 767.16,553.57 " />
<polyline points="771.597,561.458 770.857,560.965 770.118,559.979 769.748,558.993 769.378,557.514 769.378,555.049 769.748,553.57 770.118,552.584 770.857,551.598 771.597,551.105 773.076,551.105 773.815,551.598 774.555,552.584 774.925,553.57 775.294,555.049 775.294,557.514 774.925,558.993 774.555,559.979 773.815,560.965 773.076,561.458 771.597,561.458 " />
<polyline points="777.883,561.458 777.883,551.105 780.841,561.458 783.799,551.105 783.799,561.458 " />
<polyline points="786.757,561.458 786.757,551.105 790.084,551.105 791.194,551.598 791.563,552.091 791.933,553.077 791.933,554.556 791.563,555.542 791.194,556.035 790.084,556.528 786.757,556.528 " />
<polyline points="793.412,561.458 796.37,551.105 799.328,561.458 " />
<polyline points="794.521,558.007 798.219,558.007 " />
<polyline points="801.177,561.458 801.177,551.105 806.353,561.458 806.353,551.105 " />
<polyline points="808.202,551.105 811.16,556.035 814.118,551.105 " />
<polyline points="811.16,556.035 811.16,561.458 " />
<polyline points="823.731,561.458 823.731,551.105 828.908,561.458 828.908,551.105 " />
<polyline points="830.757,561.458 833.715,551.105 836.673,561.458 " />
<polyline points="831.866,558.007 835.563,558.007 " />
<polyline points="838.521,561.458 838.521,551.105 841.479,561.458 844.437,551.105 844.437,561.458 " />
<polyline points="852.202,561.458 847.395,561.458 847.395,551.105 852.202,551.105 " />
<polyline points="847.395,556.035 850.353,556.035 " />
<polyline points="854.42,561.458 860.336,557.021 854.42,552.584 " />
</g>
</svg>
