<?xml version="1.0" encoding="UTF-8" standalone="no"?>
<!-- Generator: Adobe Illustrator 22.1.0, SVG Export Plug-In . SVG Version: 6.00 Build 0)  -->

<svg
   xmlns:dc="http://purl.org/dc/elements/1.1/"
   xmlns:cc="http://creativecommons.org/ns#"
   xmlns:rdf="http://www.w3.org/1999/02/22-rdf-syntax-ns#"
   xmlns:svg="http://www.w3.org/2000/svg"
   xmlns="http://www.w3.org/2000/svg"
   xmlns:sodipodi="http://sodipodi.sourceforge.net/DTD/sodipodi-0.dtd"
   xmlns:inkscape="http://www.inkscape.org/namespaces/inkscape"
   version="1.1"
   id="Capa_1"
   x="0px"
   y="0px"
   viewBox="0 0 418.8 418.8"
   style="enable-background:new 0 0 418.8 418.8;"
   xml:space="preserve"
   sodipodi:docname="Eraser.svg"
   inkscape:version="0.92.3 (2405546, 2018-03-11)"><metadata
   id="metadata19"><rdf:RDF><cc:Work
       rdf:about=""><dc:format>image/svg+xml</dc:format><dc:type
         rdf:resource="http://purl.org/dc/dcmitype/StillImage" /><dc:title></dc:title></cc:Work></rdf:RDF></metadata><defs
   id="defs17">
	

		
			
		
		
	</defs><sodipodi:namedview
   pagecolor="#ffffff"
   bordercolor="#666666"
   borderopacity="1"
   objecttolerance="10"
   gridtolerance="10"
   guidetolerance="10"
   inkscape:pageopacity="0"
   inkscape:pageshadow="2"
   inkscape:window-width="1920"
   inkscape:window-height="1017"
   id="namedview15"
   showgrid="false"
   inkscape:zoom="1.1270296"
   inkscape:cx="232.46039"
   inkscape:cy="121.79594"
   inkscape:window-x="-8"
   inkscape:window-y="-8"
   inkscape:window-maximized="1"
   inkscape:current-layer="Capa_1" />
<style
   type="text/css"
   id="style2">
	.st0{fill:none;}
	.st1{display:none;fill:#73D0F4;}
</style>
<polygon
   class="st1"
   points="112.2,216.3 29,299.5 95.2,365.7 201.6,365.7 231.6,335.7 "
   id="polygon6"
   style="display:none;fill:#73d0f4" /><g
   id="g846"><g
     id="g840"><g
       id="g835"><rect
         style="fill:none;stroke-width:0.9999904"
         id="rect4"
         height="168.89838"
         width="199.69807"
         class="st0"
         transform="rotate(-45)"
         y="232.21046"
         x="-49.618015" /><path
         style="fill:#ffffff;fill-opacity:1"
         inkscape:connector-curvature="0"
         id="path8"
         d="M 406.8,365.7 H 235.6 L 415.3,186 c 4.7,-4.7 4.7,-12.3 0,-17 L 278.9,32.6 c -2.3,-2.3 -5.3,-3.5 -8.5,-3.5 -3.2,0 -6.2,1.3 -8.5,3.5 L 3.5,291 c -4.7,4.7 -4.7,12.3 0,17 l 78.2,78.2 c 2.3,2.3 5.3,3.5 8.5,3.5 h 316.6 c 6.6,0 12,-5.4 12,-12 0,-6.6 -5.4,-12 -12,-12 z M 270.4,58.1 389.8,177.5 248.6,318.7 129.2,199.3 Z M 201.6,365.7 H 95.2 L 29,299.5 112.2,216.3 231.6,335.7 Z" /></g></g></g>
</svg>