<?xml version="1.0" encoding="UTF-8" standalone="no"?>
<!-- Generator: Adobe Illustrator 18.1.1, SVG Export Plug-In . SVG Version: 6.00 Build 0)  -->

<svg
   xmlns:dc="http://purl.org/dc/elements/1.1/"
   xmlns:cc="http://creativecommons.org/ns#"
   xmlns:rdf="http://www.w3.org/1999/02/22-rdf-syntax-ns#"
   xmlns:svg="http://www.w3.org/2000/svg"
   xmlns="http://www.w3.org/2000/svg"
   xmlns:sodipodi="http://sodipodi.sourceforge.net/DTD/sodipodi-0.dtd"
   xmlns:inkscape="http://www.inkscape.org/namespaces/inkscape"
   version="1.1"
   id="Capa_1"
   x="0px"
   y="0px"
   viewBox="0 0 525.153 525.153"
   style="enable-background:new 0 0 525.153 525.153;"
   xml:space="preserve"
   sodipodi:docname="Keyboard.svg"
   inkscape:version="0.92.3 (2405546, 2018-03-11)"><metadata
   id="metadata43"><rdf:RDF><cc:Work
       rdf:about=""><dc:format>image/svg+xml</dc:format><dc:type
         rdf:resource="http://purl.org/dc/dcmitype/StillImage" /></cc:Work></rdf:RDF></metadata><defs
   id="defs41" /><sodipodi:namedview
   pagecolor="#ffffff"
   bordercolor="#666666"
   borderopacity="1"
   objecttolerance="10"
   gridtolerance="10"
   guidetolerance="10"
   inkscape:pageopacity="0"
   inkscape:pageshadow="2"
   inkscape:window-width="1920"
   inkscape:window-height="1017"
   id="namedview39"
   showgrid="false"
   inkscape:zoom="0.44939283"
   inkscape:cx="262.57651"
   inkscape:cy="262.57651"
   inkscape:window-x="-8"
   inkscape:window-y="-8"
   inkscape:window-maximized="1"
   inkscape:current-layer="Capa_1" />
<g
   id="g6"
   style="fill:#ffffff;fill-opacity:1">
	<g
   id="g4"
   style="fill:#ffffff;fill-opacity:1">
		<path
   d="M0,140.621v243.911h525.153V140.621H0z M375.922,175.062h22.975h22.954v45.907h-22.954h-22.975V175.062z M387.409,243.922    v45.907h-22.975H341.48v-45.907h22.954C364.434,243.922,387.409,243.922,387.409,243.922z M307.039,175.062h22.975h22.975v45.907    h-22.975h-22.975V175.062z M318.549,243.922v45.907h-22.975H272.62v-45.907h22.954    C295.573,243.922,318.549,243.922,318.549,243.922z M238.2,175.062h22.954h22.932v45.907h-22.932H238.2V175.062z M249.644,243.922    v45.907h-22.932h-22.975v-45.907h22.975C226.713,243.922,249.644,243.922,249.644,243.922z M169.296,175.062h22.975h22.954v45.907    h-22.954h-22.975C169.296,220.969,169.296,175.062,169.296,175.062z M180.806,243.922v45.907H157.83h-22.954v-45.907h22.954    C157.83,243.922,180.806,243.922,180.806,243.922z M100.457,175.062h22.932h22.975v45.907h-22.975h-22.932V175.062z     M31.553,220.969v-45.907h22.954h22.975v45.907H54.506H31.553z M66.016,289.829v-45.907H88.97h22.975v45.907H88.97    C88.97,289.829,66.016,289.829,66.016,289.829z M433.316,361.578h-34.419h-34.441h-34.419h-34.441h-34.419h-34.419h-34.485H157.83    h-34.441H88.948v-45.907h34.419h34.441h34.441h34.441h34.419h34.419h34.441h34.419h34.441h34.419v45.907H433.316z     M456.292,289.829h-22.975h-22.954v-45.907h22.954h22.975V289.829z M490.711,220.969h-22.954h-22.975v-45.907h22.975h22.954    V220.969z"
   id="path2"
   style="fill:#ffffff;fill-opacity:1" />
	</g>
</g>
<g
   id="g8">
</g>
<g
   id="g10">
</g>
<g
   id="g12">
</g>
<g
   id="g14">
</g>
<g
   id="g16">
</g>
<g
   id="g18">
</g>
<g
   id="g20">
</g>
<g
   id="g22">
</g>
<g
   id="g24">
</g>
<g
   id="g26">
</g>
<g
   id="g28">
</g>
<g
   id="g30">
</g>
<g
   id="g32">
</g>
<g
   id="g34">
</g>
<g
   id="g36">
</g>
</svg>