<?xml version="1.0" encoding="utf-8"?>
<!-- Generator: Adobe Illustrator 17.1.0, SVG Export Plug-In . SVG Version: 6.00 Build 0)  -->
<!DOCTYPE svg PUBLIC "-//W3C//DTD SVG 1.1//EN" "http://www.w3.org/Graphics/SVG/1.1/DTD/svg11.dtd">
<svg version="1.1" xmlns="http://www.w3.org/2000/svg" xmlns:xlink="http://www.w3.org/1999/xlink" x="0px" y="0px"
	 viewBox="0 0 60 60" enable-background="new 0 0 60 60" xml:space="preserve">
<g id="annotations">
	<g id="annotation_acknowledged">
		<circle id="circle" fill="#368EC4" cx="29.9" cy="30.3" r="30"/>
		
			<text id="font_check" transform="matrix(1 0 0 1 11.9065 43.1204)" display="none" fill="#FFFFFF" font-family="'3DSFonticon'" font-size="36"></text>
		<g id="check">
			<path fill="#FFFFFF" d="M43.8,17.2c0.8,0,1.5,0.3,2.1,0.9c0.3,0.3,0.5,0.6,0.7,1c0.1,0.4,0.2,0.7,0.2,1.1c0,0.8-0.3,1.5-0.9,2.1
				l-21,21L14,32.6c-0.6-0.6-0.9-1.3-0.9-2.1c0-0.4,0.1-0.7,0.2-1.1c0.1-0.4,0.4-0.7,0.7-1c0.6-0.6,1.3-0.9,2.1-0.9
				c0.8,0,1.5,0.3,2.1,0.9l6.6,6.6l16.9-16.9c0.3-0.3,0.6-0.5,1-0.7C43,17.3,43.4,17.2,43.8,17.2z"/>
		</g>
	</g>
	<g id="annotation_created">
		<g id="lines">
		</g>
	</g>
</g>
<g id="corrected">
	<g id="critical_corrected">
	</g>
	<g id="major_corrected">
	</g>
	<g id="normal_corrected">
	</g>
	<g id="minor_corrected">
	</g>
</g>
<g id="closed">
	<g id="critical_closed">
	</g>
	<g id="major_closed">
	</g>
	<g id="normal_closed">
	</g>
	<g id="minor_closed">
	</g>
</g>
<g id="open">
	<g id="critical_open">
	</g>
	<g id="major_open">
	</g>
	<g id="normal_open">
	</g>
	<g id="minor_open">
	</g>
</g>
</svg>
