<?xml version="1.0" encoding="UTF-8" standalone="no"?>
<svg
   xmlns:dc="http://purl.org/dc/elements/1.1/"
   xmlns:cc="http://creativecommons.org/ns#"
   xmlns:rdf="http://www.w3.org/1999/02/22-rdf-syntax-ns#"
   xmlns:svg="http://www.w3.org/2000/svg"
   xmlns="http://www.w3.org/2000/svg"
   xmlns:sodipodi="http://sodipodi.sourceforge.net/DTD/sodipodi-0.dtd"
   xmlns:inkscape="http://www.inkscape.org/namespaces/inkscape"
   id="Layer_1"
   style="enable-background:new 0 0 30 30;"
   version="1.1"
   viewBox="0 0 30 30"
   xml:space="preserve"
   sodipodi:docname="Open.svg"
   inkscape:version="0.92.2 (5c3e80d, 2017-08-06)"><metadata
     id="metadata15"><rdf:RDF><cc:Work
         rdf:about=""><dc:format>image/svg+xml</dc:format><dc:type
           rdf:resource="http://purl.org/dc/dcmitype/StillImage" /><dc:title></dc:title></cc:Work></rdf:RDF></metadata><defs
     id="defs13" /><sodipodi:namedview
     pagecolor="#ffffff"
     bordercolor="#666666"
     borderopacity="1"
     objecttolerance="10"
     gridtolerance="10"
     guidetolerance="10"
     inkscape:pageopacity="0"
     inkscape:pageshadow="2"
     inkscape:window-width="1920"
     inkscape:window-height="1017"
     id="namedview11"
     showgrid="false"
     inkscape:zoom="7.8666667"
     inkscape:cx="-5.6567797"
     inkscape:cy="15"
     inkscape:window-x="-8"
     inkscape:window-y="-8"
     inkscape:window-maximized="1"
     inkscape:current-layer="Layer_1" /><path
     d="M5,4h4.868c0.703,0,1.354,0.369,1.715,0.971L14,9H3V6C3,4.895,3.895,4,5,4z"
     id="path2"
     style="fill:#ffffff;fill-opacity:1" /><path
     d="M25,6H3v5h19h5V8C27,6.895,26.105,6,25,6z"
     id="path4"
     style="fill:#ffffff;fill-opacity:1" /><path
     d="M27.499,13H15v13h9.053c0.878,0,1.653-0.573,1.912-1.412l2.968-9.647C29.229,13.977,28.508,13,27.499,13z"
     id="path6"
     style="fill:#ffffff;fill-opacity:1" /><path
     d="M2.501,13H15v13H5.947c-0.878,0-1.653-0.573-1.912-1.412l-2.968-9.647C0.771,13.977,1.492,13,2.501,13z"
     id="path8"
     style="fill:#ffffff;fill-opacity:1" /></svg>