<svg xmlns="http://www.w3.org/2000/svg" viewBox="0 0 46.45 46.34"><defs><style>.cls-1{fill:#8DA3B7;}</style></defs><title>redo</title><g id="Layer_2" data-name="Layer 2"><g id="Layer_1-2" data-name="Layer 1"><path class="cls-1" d="M2,44.87A26.38,26.38,0,0,1,12.27,33.58a28.77,28.77,0,0,1,11.8-4.41c1.08-.13,1.42.24,1.41,1.29,0,3.28,0,8.29,0,11.57L45.07,22.67c1.76-1.69,1.91-1.39,0-3.25l0,3.25c1.77-1.66,1.87-1.44,0-3.25L25.54,0c0,3.24,0,8.27,0,11.5A1.24,1.24,0,0,1,24.39,13l-1.17.26-2,.45a28.78,28.78,0,0,0-8.16,3.39,27,27,0,0,0-9.83,9.83A20.82,20.82,0,0,0,.46,34.62,22.43,22.43,0,0,0,0,39.24a42.07,42.07,0,0,0,.56,4.51,17.9,17.9,0,0,0,.63,2.59Z"/></g></g></svg>