<?xml version="1.0" encoding="UTF-8" standalone="no"?>
<svg
   xmlns:dc="http://purl.org/dc/elements/1.1/"
   xmlns:cc="http://creativecommons.org/ns#"
   xmlns:rdf="http://www.w3.org/1999/02/22-rdf-syntax-ns#"
   xmlns:svg="http://www.w3.org/2000/svg"
   xmlns="http://www.w3.org/2000/svg"
   xmlns:sodipodi="http://sodipodi.sourceforge.net/DTD/sodipodi-0.dtd"
   xmlns:inkscape="http://www.inkscape.org/namespaces/inkscape"
   viewBox="0 0 46.45 46.34"
   id="svg3791"
   version="1.1"
   inkscape:version="0.48.4 r9939"
   width="100%"
   height="100%"
   sodipodi:docname="Redo.svg">
  <metadata
     id="metadata3805">
    <rdf:RDF>
      <cc:Work
         rdf:about="">
        <dc:format>image/svg+xml</dc:format>
        <dc:type
           rdf:resource="http://purl.org/dc/dcmitype/StillImage" />
        <dc:title>redo</dc:title>
      </cc:Work>
    </rdf:RDF>
  </metadata>
  <sodipodi:namedview
     pagecolor="#ffffff"
     bordercolor="#666666"
     borderopacity="1"
     objecttolerance="10"
     gridtolerance="10"
     guidetolerance="10"
     inkscape:pageopacity="0"
     inkscape:pageshadow="2"
     inkscape:window-width="1920"
     inkscape:window-height="1017"
     id="namedview3803"
     showgrid="false"
     inkscape:zoom="5.0927924"
     inkscape:cx="-7.4065254"
     inkscape:cy="23.17"
     inkscape:window-x="1912"
     inkscape:window-y="-8"
     inkscape:window-maximized="1"
     inkscape:current-layer="svg3791" />
  <defs
     id="defs3793">
    <style
       id="style3795">.cls-1{fill:#8DA3B7;}</style>
  </defs>
  <title
     id="title3797">redo</title>
  <g
     id="Layer_2"
     data-name="Layer 2"
     style="fill:#ffffff;fill-opacity:1">
    <g
       id="Layer_1-2"
       data-name="Layer 1"
       style="fill:#ffffff;fill-opacity:1">
      <path
         class="cls-1"
         d="M2,44.87A26.38,26.38,0,0,1,12.27,33.58a28.77,28.77,0,0,1,11.8-4.41c1.08-.13,1.42.24,1.41,1.29,0,3.28,0,8.29,0,11.57L45.07,22.67c1.76-1.69,1.91-1.39,0-3.25l0,3.25c1.77-1.66,1.87-1.44,0-3.25L25.54,0c0,3.24,0,8.27,0,11.5A1.24,1.24,0,0,1,24.39,13l-1.17.26-2,.45a28.78,28.78,0,0,0-8.16,3.39,27,27,0,0,0-9.83,9.83A20.82,20.82,0,0,0,.46,34.62,22.43,22.43,0,0,0,0,39.24a42.07,42.07,0,0,0,.56,4.51,17.9,17.9,0,0,0,.63,2.59Z"
         id="path3801"
         style="fill:#ffffff;fill-opacity:1" />
    </g>
  </g>
</svg>
