<?xml version="1.0" encoding="UTF-8" standalone="no"?>
<svg
   xmlns:dc="http://purl.org/dc/elements/1.1/"
   xmlns:cc="http://creativecommons.org/ns#"
   xmlns:rdf="http://www.w3.org/1999/02/22-rdf-syntax-ns#"
   xmlns:svg="http://www.w3.org/2000/svg"
   xmlns="http://www.w3.org/2000/svg"
   xmlns:sodipodi="http://sodipodi.sourceforge.net/DTD/sodipodi-0.dtd"
   xmlns:inkscape="http://www.inkscape.org/namespaces/inkscape"
   width="246"
   height="246"
   viewBox="0 0 246 246"
   id="svg2999"
   version="1.1"
   inkscape:version="0.48.4 r9939"
   sodipodi:docname="HideFlo.svg">
  <metadata
     id="metadata2994">
    <rdf:RDF>
      <cc:Work
         rdf:about="">
        <dc:format>image/svg+xml</dc:format>
        <dc:type
           rdf:resource="http://purl.org/dc/dcmitype/StillImage" />
        <dc:title></dc:title>
      </cc:Work>
    </rdf:RDF>
  </metadata>
  <sodipodi:namedview
     pagecolor="#ffffff"
     bordercolor="#666666"
     borderopacity="1"
     objecttolerance="10"
     gridtolerance="10"
     guidetolerance="10"
     inkscape:pageopacity="0"
     inkscape:pageshadow="2"
     inkscape:window-width="1920"
     inkscape:window-height="1017"
     id="namedview3009"
     showgrid="false"
     showguides="true"
     inkscape:guide-bbox="true"
     inkscape:zoom="1.3588406"
     inkscape:cx="-60.241015"
     inkscape:cy="88.567724"
     inkscape:window-x="1912"
     inkscape:window-y="-8"
     inkscape:window-maximized="1"
     inkscape:current-layer="svg2999" />
  <defs
     id="defs3003">
    <filter
       height="1.2504348"
       y="-0.12521739"
       width="1.2504348"
       x="-0.12521739"
       id="filter4104"
       inkscape:collect="always">
      <feGaussianBlur
         id="feGaussianBlur4106"
         stdDeviation="9.5478261"
         inkscape:collect="always" />
    </filter>
  </defs>
  <path
     style="fill:#8da3b7;fill-opacity:1;fill-rule:evenodd;stroke:#8da3b7;stroke-width:5.12552309;stroke-miterlimit:4;stroke-opacity:1;stroke-dasharray:none"
     inkscape:connector-curvature="0"
     d="m 122.99999,58.774047 c -83.033468,0 -119.9372285,64.581603 -119.9372285,64.581603 0,0 36.9037605,64.58159 119.9372285,64.58159 83.03348,-2e-5 119.93725,-64.58159 119.93725,-64.58159 0,0 -36.90377,-64.581603 -119.93725,-64.581603 l 0,0 0,0 z m 0,9.225939 c -73.807528,0 -108.866548,55.355664 -108.866548,55.355664 0,0 35.05902,55.35565 108.866548,55.35565 73.80754,-2e-5 108.86656,-55.35565 108.86656,-55.35565 0,0 -35.05902,-55.355664 -108.86656,-55.355664 l 0,0 0,0 z m 0,92.259424 c 20.38139,0 36.90377,-16.52237 36.90377,-36.90376 0,-20.38141 -16.52238,-36.903784 -36.90377,-36.903784 -20.38138,0 -36.903758,16.522374 -36.903758,36.903784 0,20.38139 16.522378,36.90376 36.903758,36.90376 l 0,0 0,0 z m 0,-9.22594 c 15.28606,0 27.67783,-12.39179 27.67783,-27.67782 0,-15.28606 -12.39177,-27.677834 -27.67783,-27.677834 -15.28603,0 -27.677818,12.391774 -27.677818,27.677834 0,15.28603 12.391788,27.67782 27.677818,27.67782 l 0,0 0,0 z m 0,-18.45188 c 5.09536,0 9.22595,-4.13061 9.22595,-9.22594 0,-5.09535 -4.13059,-9.22594 -9.22595,-9.22594 -5.09535,0 -9.22594,4.13059 -9.22594,9.22594 0,5.09533 4.13059,9.22594 9.22594,9.22594 l 0,0 0,0 z"
     id="eye-8" />
</svg>
