<?xml version="1.0" encoding="UTF-8" standalone="no"?>
<svg
   xmlns:dc="http://purl.org/dc/elements/1.1/"
   xmlns:cc="http://creativecommons.org/ns#"
   xmlns:rdf="http://www.w3.org/1999/02/22-rdf-syntax-ns#"
   xmlns:svg="http://www.w3.org/2000/svg"
   xmlns="http://www.w3.org/2000/svg"
   xmlns:sodipodi="http://sodipodi.sourceforge.net/DTD/sodipodi-0.dtd"
   xmlns:inkscape="http://www.inkscape.org/namespaces/inkscape"
   height="512px"
   viewBox="-19 -91 590.67618 590"
   width="512px"
   id="svg2"
   version="1.1"
   inkscape:version="0.48.4 r9939"
   sodipodi:docname="StickyNoteDeleteDark.svg">
  <metadata
     id="metadata28">
    <rdf:RDF>
      <cc:Work
         rdf:about="">
        <dc:format>image/svg+xml</dc:format>
        <dc:type
           rdf:resource="http://purl.org/dc/dcmitype/StillImage" />
      </cc:Work>
    </rdf:RDF>
  </metadata>
  <defs
     id="defs26" />
  <sodipodi:namedview
     pagecolor="#ffffff"
     bordercolor="#666666"
     borderopacity="1"
     objecttolerance="10"
     gridtolerance="10"
     guidetolerance="10"
     inkscape:pageopacity="0"
     inkscape:pageshadow="2"
     inkscape:window-width="1920"
     inkscape:window-height="1017"
     id="namedview24"
     showgrid="false"
     inkscape:zoom="0.4609375"
     inkscape:cx="256"
     inkscape:cy="256"
     inkscape:window-x="1912"
     inkscape:window-y="-8"
     inkscape:window-maximized="1"
     inkscape:current-layer="svg2" />
  <path
     d="m528.363281 79.472656-210.800781-59.867187c-18.523438-5.269531-37.816406 5.453125-43.113281 23.96875l-39.621094 134.539062-7.925781 6.460938c-18.09375 14.847656-26.949219 38.191406-23.261719 61.308593l-3.40625 3.164063-24.273437 19.792969c-19.9375 16.253906-22.921876 45.59375-6.664063 65.535156l43.054687 52.800781c7.78125 9.601563 19.082032 15.6875 31.382813 16.898438 1.59375.167969 3.195313.25 4.800781.253906 10.699219.011719 21.074219-3.691406 29.347656-10.476563l37.328126-30.429687c19.414062 2.113281 38.867187-3.636719 54.011718-15.964844l36.441406-29.71875 50.921876 14.464844c18.558593 5.28125 37.878906-5.492187 43.140624-24.054687l52.695313-185.53125c5.269531-18.550782-5.5-37.867188-24.058594-43.136719zm-237.140625-31.046875c2.632813-9.28125 12.296875-14.667969 21.574219-12.027343l15.28125 4.339843-24.492187 81.316407-44.796876 36.523437zm66.972656 285.480469c-12.0625 9.832031-27.703124 14.144531-43.097656 11.890625-2.742187-.78125-5.699218-.179687-7.910156 1.625l-40.339844 32.882813c-12.460937 10.164062-30.804687 8.296874-40.96875-4.164063l-43.046875-52.800781c-10.164062-12.46875-8.296875-30.808594 4.164063-40.96875l24.492187-19.96875c.144531-.121094.292969-.25.429688-.375l7.195312-6.6875c2.320313-2.160156 3.289063-5.40625 2.527344-8.484375-4.382813-18.03125 1.949219-36.980469 16.296875-48.75l103.230469-84.171875c10.195312 13.097656 8.0625 31.945312-4.804688 42.433594l-34.867187 28.429687c-3.738282 3.046875-4.292969 8.546875-1.246094 12.285156 3.046875 3.734375 8.542969 4.296875 12.28125 1.246094l29.363281-23.9375.007813-.007813 72.605468-59.195312c4.359376-3.492188 10.726563-2.820312 14.265626 1.511719 3.53125 4.332031 2.921874 10.699219-1.371094 14.28125l-.011719.011719-.015625.011718-87.253906 71.144532c-3.738282 3.042968-4.296875 8.542968-1.25 12.28125 3.046875 3.734374 8.546875 4.296874 12.285156 1.25l87.261719-71.152344 22.003906-17.9375c2.808594-2.386719 6.691406-3.074219 10.152344-1.789063 3.457031 1.285157 5.953125 4.339844 6.519531 7.992188.570312 3.644531-.878906 7.3125-3.78125 9.585937l-14.644531 11.945313-.019531.011719-22.003907 17.945312-.007812.007812-72.589844 59.1875c-2.441406 1.960938-3.644531 5.085938-3.152344 8.179688.496094 3.09375 2.609375 5.683594 5.539063 6.789062 2.933594 1.109376 6.230468.558594 8.640625-1.4375l72.601562-59.191406 17.710938-14.441406 4.285156-3.492188c4.367187-3.507812 10.742187-2.835937 14.285156 1.507813 3.535157 4.339844 2.914063 10.726563-1.402343 14.296875l-25.671876 20.925781c-.441406.363281-.855468.773438-1.222656 1.222657-.84375.542968-1.660156 1.132812-2.441406 1.769531l-50.601562 41.253906c-2.445313 1.960937-3.648438 5.085937-3.15625 8.183594.492187 3.09375 2.609374 5.691406 5.542968 6.796875 2.933594 1.105468 6.234375.550781 8.648438-1.449219l50.597656-41.253906c2.820312-2.335938 6.679688-2.984375 10.105469-1.695313 3.429687 1.292969 5.898437 4.320313 6.472656 7.941406.574219 3.617188-.832031 7.265626-3.691406 9.554688zm177.425782-216.0625-52.6875 185.527344c-2.648438 9.269531-12.296875 14.648437-21.578125 12.027344l-39.179688-11.132813 66-53.808594c7.113281-5.785156 10.898438-14.71875 10.09375-23.847656-.804687-9.128906-6.089843-17.269531-14.101562-21.71875l9.425781-7.6875c7.222656-5.882813 10.996094-15.007813 10.035156-24.269531-.953125-9.265625-6.519531-17.417969-14.796875-21.699219 8.507813-11.140625 7.328125-26.882813-2.742187-36.628906-10.070313-9.75-25.84375-10.417969-36.699219-1.554688l-2.082031 1.695313c-2.761719-8.738282-9.667969-15.542969-18.449219-18.164063-8.777344-2.621093-18.289063-.722656-25.390625 5.070313l-38.398438 31.300781c.089844-11.148437-3.730468-21.976563-10.796874-30.601563-5.855469-7.179687-16.417969-8.253906-23.59375-2.402343l-2.929688 2.386719 17.121094-56.839844 178.722656 50.761718c9.28125 2.628907 14.667969 12.296876 12.027344 21.578126zm0 0"
     fill="#FFFFFF"
     id="path4"
     style="fill:#8da3b7;fill-opacity:1" />
  <path
     d="m251.140625 20.21875c4.433594 0 8.160156-3.324219 8.667969-7.726562.511718-4.410157-2.363282-8.492188-6.683594-9.507813-5.535156-1.292969-11.246094-2.445313-16.960938-3.414063-.125-.019531-.257812-.039062-.390624-.054687l-24.859376-3.058594c-.121093-.015625-.25-.023437-.375-.039062-11.648437-.90625-23.34375-1.1875-35.023437-.84375-4.820313.136719-8.621094 4.15625-8.476563 8.980469.136719 4.824218 4.152344 8.617187 8.976563 8.480468 10.992187-.324218 21.996094-.0625 32.957031.78125l24.476563 3.015625c5.292969.894531 10.574219 1.960938 15.695312 3.160157.652344.152343 1.324219.230468 1.996094.226562zm0 0"
     fill="#FFFFFF"
     id="path6"
     style="fill:#8da3b7;fill-opacity:1" />
  <path
     d="m126.511719 17.984375c7.757812-1.308594 15.566406-2.378906 23.203125-3.183594 4.792968-.507812 8.269531-4.804687 7.765625-9.597656-.507813-4.792969-4.804688-8.273437-9.597657-7.769531-8 .839844-16.171874 1.964844-24.28125 3.335937-4.757812.804688-7.960937 5.308594-7.160156 10.066407.804688 4.753906 5.3125 7.953124 10.066406 7.148437zm0 0"
     fill="#FFFFFF"
     id="path8"
     style="fill:#8da3b7;fill-opacity:1" />
  <path
     d="m81.664062 10.128906c-13.160156 3.539063-26.078124 7.914063-38.683593 13.105469-4.417969 1.929687-6.441407 7.074219-4.511719 11.492187 1.929688 4.417969 7.074219 6.441407 11.496094 4.511719 11.859375-4.851562 24.003906-8.957031 36.378906-12.28125 4.644531-1.296875 7.363281-6.109375 6.070312-10.753906-1.289062-4.648437-6.101562-7.367187-10.75-6.074219zm0 0"
     fill="#FFFFFF"
     id="path10"
     style="fill:#8da3b7;fill-opacity:1" />
  <path
     d="m233.574219 101.101562c3.082031.714844 6.3125-.292968 8.4375-2.636718 2.128906-2.34375 2.820312-5.65625 1.8125-8.65625-1.011719-2.996094-3.566407-5.21875-6.675781-5.800782-4.816407-1-9.761719-1.898437-14.699219-2.660156-5.476563-.839844-11.113281-1.542968-16.738281-2.078125-4.800782-.457031-9.0625 3.0625-9.519532 7.863281-.457031 4.796876 3.0625 9.0625 7.863282 9.519532 5.292968.507812 10.601562 1.164062 15.738281 1.953125 4.628906.710937 9.269531 1.554687 13.78125 2.496093zm0 0"
     fill="#FFFFFF"
     id="path12"
     style="fill:#8da3b7;fill-opacity:1" />
  <path
     d="m125.503906 98.972656c.421875 0 .835938-.035156 1.25-.09375 12.308594-1.757812 24.703125-2.878906 37.132813-3.34375 4.816406-.085937 8.65625-4.0625 8.574219-8.886718-.089844-4.820313-4.0625-8.660157-8.886719-8.574219-.109375 0-.214844 0-.320313 0-13.042968.488281-26.050781 1.65625-38.972656 3.503906-4.542969.636719-7.820312 4.683594-7.496094 9.261719.320313 4.574218 4.125 8.121094 8.714844 8.117187zm0 0"
     fill="#FFFFFF"
     id="path14"
     style="fill:#8da3b7;fill-opacity:1" />
  <path
     d="m36.835938 122.394531c1.199218 0 2.386718-.25 3.484374-.726562.183594-.082031 18.753907-8.097657 47.496094-15.203125 4.636719-1.191406 7.453125-5.902344 6.304688-10.554688-1.152344-4.644531-5.835938-7.5-10.5-6.394531-30.292969 7.492187-49.476563 15.796875-50.28125 16.148437-3.789063 1.652344-5.902344 5.738282-5.054688 9.789063.84375 4.046875 4.414063 6.945313 8.550782 6.941406zm0 0"
     fill="#FFFFFF"
     id="path16"
     style="fill:#8da3b7;fill-opacity:1" />
  <path
     d="m173.941406 187.4375c11.46875 1 22.859375 2.734375 34.105469 5.191406 4.683594.976563 9.28125-2 10.3125-6.671875s-1.898437-9.304687-6.558594-10.382812c-11.980469-2.621094-24.113281-4.464844-36.332031-5.527344-3.125-.3125-6.179688 1.082031-7.996094 3.644531-1.8125 2.566406-2.109375 5.914063-.769531 8.757813 1.339844 2.847656 4.101563 4.75 7.238281 4.988281zm0 0"
     fill="#FFFFFF"
     id="path18"
     style="fill:#8da3b7;fill-opacity:1" />
  <path
     d="m124.949219 169.578125c-9.835938.640625-19.921875 1.699219-29.972657 3.164063-4.53125.65625-7.789062 4.699218-7.457031 9.265624.324219 4.570313 4.125 8.105469 8.707031 8.105469.421876 0 .847657-.035156 1.265626-.09375 9.601562-1.398437 19.214843-2.410156 28.59375-3.019531 4.808593-.3125 8.457031-4.460938 8.144531-9.277344-.3125-4.8125-4.46875-8.460937-9.277344-8.144531zm0 0"
     fill="#FFFFFF"
     id="path20"
     style="fill:#8da3b7;fill-opacity:1" />
  <path
     d="m38.136719 185.1875c-11.175781 3.1875-22.15625 7.007812-32.898438 11.445312-4.417969 1.929688-6.4375 7.074219-4.507812 11.496094 1.925781 4.417969 7.074219 6.4375 11.492187 4.507813 10.078125-4.132813 20.371094-7.707031 30.84375-10.699219 3.015625-.855469 5.339844-3.269531 6.085938-6.320312.746094-3.042969-.199219-6.253907-2.472656-8.410157-2.277344-2.160156-5.535157-2.929687-8.535157-2.019531zm0 0"
     fill="#FFFFFF"
     id="path22"
     style="fill:#8da3b7;fill-opacity:1" />
</svg>
