<?xml version="1.0" encoding="UTF-8" standalone="no"?>
<!-- Generator: Adobe Illustrator 18.0.0, SVG Export Plug-In . SVG Version: 6.00 Build 0)  -->

<svg
   xmlns:dc="http://purl.org/dc/elements/1.1/"
   xmlns:cc="http://creativecommons.org/ns#"
   xmlns:rdf="http://www.w3.org/1999/02/22-rdf-syntax-ns#"
   xmlns:svg="http://www.w3.org/2000/svg"
   xmlns="http://www.w3.org/2000/svg"
   xmlns:sodipodi="http://sodipodi.sourceforge.net/DTD/sodipodi-0.dtd"
   xmlns:inkscape="http://www.inkscape.org/namespaces/inkscape"
   version="1.1"
   id="Capa_1"
   x="0px"
   y="0px"
   viewBox="0 0 217.855 217.855"
   style="enable-background:new 0 0 217.855 217.855;"
   xml:space="preserve"
   sodipodi:docname="StickyNotePenUnselected.svg"
   inkscape:version="0.48.4 r9939"
   width="100%"
   height="100%"><metadata
   id="metadata39"><rdf:RDF><cc:Work
       rdf:about=""><dc:format>image/svg+xml</dc:format><dc:type
         rdf:resource="http://purl.org/dc/dcmitype/StillImage" /><dc:title></dc:title></cc:Work></rdf:RDF></metadata><defs
   id="defs37" /><sodipodi:namedview
   pagecolor="#ffffff"
   bordercolor="#666666"
   borderopacity="1"
   objecttolerance="10"
   gridtolerance="10"
   guidetolerance="10"
   inkscape:pageopacity="0"
   inkscape:pageshadow="2"
   inkscape:window-width="1920"
   inkscape:window-height="1017"
   id="namedview35"
   showgrid="false"
   inkscape:zoom="1.0832893"
   inkscape:cx="108.92751"
   inkscape:cy="108.92751"
   inkscape:window-x="1912"
   inkscape:window-y="-8"
   inkscape:window-maximized="1"
   inkscape:current-layer="Capa_1" />
<path
   d="M215.658,53.55L164.305,2.196C162.899,0.79,160.991,0,159.002,0c-1.989,0-3.897,0.79-5.303,2.196L3.809,152.086  c-1.35,1.352-2.135,3.166-2.193,5.075l-1.611,52.966c-0.063,2.067,0.731,4.069,2.193,5.532c1.409,1.408,3.317,2.196,5.303,2.196  c0.076,0,0.152-0.001,0.229-0.004l52.964-1.613c1.909-0.058,3.724-0.842,5.075-2.192l149.89-149.889  C218.587,61.228,218.587,56.479,215.658,53.55z M57.264,201.336l-42.024,1.28l1.279-42.026l91.124-91.125l40.75,40.743  L57.264,201.336z M159,99.602l-40.751-40.742l40.752-40.753l40.746,40.747L159,99.602z"
   id="path2"
   style="fill:#8da3b7;fill-opacity:1" />
<g
   id="g4">
</g>
<g
   id="g6">
</g>
<g
   id="g8">
</g>
<g
   id="g10">
</g>
<g
   id="g12">
</g>
<g
   id="g14">
</g>
<g
   id="g16">
</g>
<g
   id="g18">
</g>
<g
   id="g20">
</g>
<g
   id="g22">
</g>
<g
   id="g24">
</g>
<g
   id="g26">
</g>
<g
   id="g28">
</g>
<g
   id="g30">
</g>
<g
   id="g32">
</g>
</svg>