<?xml version="1.0" encoding="UTF-8" standalone="no"?>
<!-- Generator: Adobe Illustrator 22.1.0, SVG Export Plug-In . SVG Version: 6.00 Build 0)  -->

<svg
   xmlns:dc="http://purl.org/dc/elements/1.1/"
   xmlns:cc="http://creativecommons.org/ns#"
   xmlns:rdf="http://www.w3.org/1999/02/22-rdf-syntax-ns#"
   xmlns:svg="http://www.w3.org/2000/svg"
   xmlns="http://www.w3.org/2000/svg"
   xmlns:sodipodi="http://sodipodi.sourceforge.net/DTD/sodipodi-0.dtd"
   xmlns:inkscape="http://www.inkscape.org/namespaces/inkscape"
   version="1.1"
   id="Capa_1"
   x="0px"
   y="0px"
   viewBox="0 0 418.8 418.8"
   style="enable-background:new 0 0 418.8 418.8;"
   xml:space="preserve"
   sodipodi:docname="Clear.svg"
   inkscape:version="0.92.3 (2405546, 2018-03-11)"><metadata
   id="metadata19"><rdf:RDF><cc:Work
       rdf:about=""><dc:format>image/svg+xml</dc:format><dc:type
         rdf:resource="http://purl.org/dc/dcmitype/StillImage" /></cc:Work></rdf:RDF></metadata><defs
   id="defs17" /><sodipodi:namedview
   pagecolor="#ffffff"
   bordercolor="#666666"
   borderopacity="1"
   objecttolerance="10"
   gridtolerance="10"
   guidetolerance="10"
   inkscape:pageopacity="0"
   inkscape:pageshadow="2"
   inkscape:window-width="1920"
   inkscape:window-height="1017"
   id="namedview15"
   showgrid="false"
   inkscape:zoom="0.56351482"
   inkscape:cx="209.39999"
   inkscape:cy="209.39999"
   inkscape:window-x="-8"
   inkscape:window-y="-8"
   inkscape:window-maximized="1"
   inkscape:current-layer="Capa_1" />
<style
   type="text/css"
   id="style2">
	.st0{fill:none;}
	.st1{display:none;fill:#73D0F4;}
</style>
<g
   id="g12"
   style="fill:#ffffff;fill-opacity:1">
	<g
   id="g10"
   style="fill:#ffffff;fill-opacity:1">
		
			<rect
   x="159.6"
   y="103.9"
   transform="matrix(0.7071 -0.7071 0.7071 0.7071 -57.2085 238.6683)"
   class="st0"
   width="199.7"
   height="168.9"
   id="rect4"
   style="fill:#ffffff;fill-opacity:1" />
		<polygon
   class="st1"
   points="29,299.5 95.2,365.7 201.6,365.7 231.6,335.7 112.2,216.3   "
   id="polygon6"
   style="fill:#ffffff;fill-opacity:1" />
		<path
   d="M406.8,365.7H235.6L415.3,186c4.7-4.7,4.7-12.3,0-17L278.9,32.6c-2.3-2.3-5.3-3.5-8.5-3.5c-3.2,0-6.2,1.3-8.5,3.5L3.5,291    c-4.7,4.7-4.7,12.3,0,17l78.2,78.2c2.3,2.3,5.3,3.5,8.5,3.5h316.6c6.6,0,12-5.4,12-12C418.8,371.1,413.4,365.7,406.8,365.7z     M201.6,365.7H95.2L29,299.5l83.2-83.2l119.4,119.4L201.6,365.7z"
   id="path8"
   style="fill:#ffffff;fill-opacity:1" />
	</g>
</g>
</svg>