<?xml version="1.0" encoding="UTF-8" standalone="no"?>
<svg
   xmlns:dc="http://purl.org/dc/elements/1.1/"
   xmlns:cc="http://creativecommons.org/ns#"
   xmlns:rdf="http://www.w3.org/1999/02/22-rdf-syntax-ns#"
   xmlns:svg="http://www.w3.org/2000/svg"
   xmlns="http://www.w3.org/2000/svg"
   xmlns:sodipodi="http://sodipodi.sourceforge.net/DTD/sodipodi-0.dtd"
   xmlns:inkscape="http://www.inkscape.org/namespaces/inkscape"
   width="28px"
   height="28px"
   viewBox="0 0 28 28"
   version="1.1"
   id="svg2"
   inkscape:version="0.48.4 r9939"
   sodipodi:docname="FloatableElementSizeM.svg">
  <metadata
     id="metadata19">
    <rdf:RDF>
      <cc:Work
         rdf:about="">
        <dc:format>image/svg+xml</dc:format>
        <dc:type
           rdf:resource="http://purl.org/dc/dcmitype/StillImage" />
        <dc:title>Icon - Size L</dc:title>
      </cc:Work>
    </rdf:RDF>
  </metadata>
  <sodipodi:namedview
     pagecolor="#ffffff"
     bordercolor="#666666"
     borderopacity="1"
     objecttolerance="10"
     gridtolerance="10"
     guidetolerance="10"
     inkscape:pageopacity="0"
     inkscape:pageshadow="2"
     inkscape:window-width="1920"
     inkscape:window-height="1017"
     id="namedview17"
     showgrid="false"
     inkscape:zoom="8.4285714"
     inkscape:cx="14"
     inkscape:cy="14"
     inkscape:window-x="-8"
     inkscape:window-y="-8"
     inkscape:window-maximized="1"
     inkscape:current-layer="svg2" />
  <!-- Generator: Sketch 40.3 (33839) - http://www.bohemiancoding.com/sketch -->
  <title
     id="title4">Icon - Size L</title>
  <desc
     id="desc6">Created with Sketch.</desc>
  <defs
     id="defs8" />
  <g
     id="Proposition"
     stroke="none"
     stroke-width="1"
     fill="none"
     fill-rule="evenodd"
     style="fill:#8da3b7;fill-opacity:1">
    <g
       id="Home---Menu-Contextuel---Size-01"
       transform="translate(-646.000000, -508.000000)"
       fill="#FBFBFB"
       style="fill:#8da3b7;fill-opacity:1">
      <g
         id="Icon---Size-L"
         transform="translate(646.000000, 508.000000)"
         style="fill:#8da3b7;fill-opacity:1">
        <path
           d="M26,24.5857864 L21.7071068,20.2928932 C21.3165825,19.9023689 20.6834175,19.9023689 20.2928932,20.2928932 C19.9023689,20.6834175 19.9023689,21.3165825 20.2928932,21.7071068 L24.5857864,26 L20,26 C19.4477153,26 19,26.4477153 19,27 C19,27.5522847 19.4477153,28 20,28 L27,28 C27.5522847,28 28,27.5522847 28,27 L28,20 C28,19.4477153 27.5522847,19 27,19 C26.4477153,19 26,19.4477153 26,20 L26,24.5857864 Z"
           id="Combined-Shape"
           style="fill:#8da3b7;fill-opacity:1" />
        <path
           d="M26,5.58578644 L21.7071068,1.29289322 C21.3165825,0.902368927 20.6834175,0.902368927 20.2928932,1.29289322 C19.9023689,1.68341751 19.9023689,2.31658249 20.2928932,2.70710678 L24.5857864,7 L20,7 C19.4477153,7 19,7.44771525 19,8 C19,8.55228475 19.4477153,9 20,9 L27,9 C27.5522847,9 28,8.55228475 28,8 L28,1 C28,0.44771525 27.5522847,0 27,0 C26.4477153,0 26,0.44771525 26,1 L26,5.58578644 Z"
           id="Combined-Shape-Copy-3"
           transform="translate(23.500000, 4.500000) scale(1, -1) translate(-23.500000, -4.500000) "
           style="fill:#8da3b7;fill-opacity:1" />
        <path
           d="M7,24.5857864 L2.70710678,20.2928932 C2.31658249,19.9023689 1.68341751,19.9023689 1.29289322,20.2928932 C0.902368927,20.6834175 0.902368927,21.3165825 1.29289322,21.7071068 L5.58578644,26 L1,26 C0.44771525,26 0,26.4477153 0,27 C0,27.5522847 0.44771525,28 1,28 L8,28 C8.55228475,28 9,27.5522847 9,27 L9,20 C9,19.4477153 8.55228475,19 8,19 C7.44771525,19 7,19.4477153 7,20 L7,24.5857864 Z"
           id="Combined-Shape-Copy-2"
           transform="translate(4.500000, 23.500000) scale(-1, 1) translate(-4.500000, -23.500000) "
           style="fill:#8da3b7;fill-opacity:1" />
        <path
           d="M7,5.58578644 L2.70710678,1.29289322 C2.31658249,0.902368927 1.68341751,0.902368927 1.29289322,1.29289322 C0.902368927,1.68341751 0.902368927,2.31658249 1.29289322,2.70710678 L5.58578644,7 L1,7 C0.44771525,7 0,7.44771525 0,8 C0,8.55228475 0.44771525,9 1,9 L8,9 C8.55228475,9 9,8.55228475 9,8 L9,1 C9,0.44771525 8.55228475,0 8,0 C7.44771525,0 7,0.44771525 7,1 L7,5.58578644 Z"
           id="Combined-Shape-Copy-4"
           transform="translate(4.500000, 4.500000) scale(-1, -1) translate(-4.500000, -4.500000) "
           style="fill:#8da3b7;fill-opacity:1" />
      </g>
    </g>
  </g>
</svg>
