<?xml version="1.0" encoding="UTF-8"?>
<svg width="28px" height="28px" viewBox="0 0 28 28" version="1.1" xmlns="http://www.w3.org/2000/svg" xmlns:xlink="http://www.w3.org/1999/xlink">
    <!-- Generator: Sketch 40.3 (33839) - http://www.bohemiancoding.com/sketch -->
    <title>Icon - Size L</title>
    <desc>Created with Sketch.</desc>
    <defs></defs>
    <g id="Proposition" stroke="none" stroke-width="1" fill="none" fill-rule="evenodd">
        <g id="Home---Menu-Contextuel---Size-01" transform="translate(-646.000000, -508.000000)" fill="#FBFBFB">
            <g id="Icon---Size-L" transform="translate(646.000000, 508.000000)">
                <path d="M26,24.5857864 L21.7071068,20.2928932 C21.3165825,19.9023689 20.6834175,19.9023689 20.2928932,20.2928932 C19.9023689,20.6834175 19.9023689,21.3165825 20.2928932,21.7071068 L24.5857864,26 L20,26 C19.4477153,26 19,26.4477153 19,27 C19,27.5522847 19.4477153,28 20,28 L27,28 C27.5522847,28 28,27.5522847 28,27 L28,20 C28,19.4477153 27.5522847,19 27,19 C26.4477153,19 26,19.4477153 26,20 L26,24.5857864 Z" id="Combined-Shape"></path>
                <path d="M26,5.58578644 L21.7071068,1.29289322 C21.3165825,0.902368927 20.6834175,0.902368927 20.2928932,1.29289322 C19.9023689,1.68341751 19.9023689,2.31658249 20.2928932,2.70710678 L24.5857864,7 L20,7 C19.4477153,7 19,7.44771525 19,8 C19,8.55228475 19.4477153,9 20,9 L27,9 C27.5522847,9 28,8.55228475 28,8 L28,1 C28,0.44771525 27.5522847,0 27,0 C26.4477153,0 26,0.44771525 26,1 L26,5.58578644 Z" id="Combined-Shape-Copy-3" transform="translate(23.500000, 4.500000) scale(1, -1) translate(-23.500000, -4.500000) "></path>
                <path d="M7,24.5857864 L2.70710678,20.2928932 C2.31658249,19.9023689 1.68341751,19.9023689 1.29289322,20.2928932 C0.902368927,20.6834175 0.902368927,21.3165825 1.29289322,21.7071068 L5.58578644,26 L1,26 C0.44771525,26 0,26.4477153 0,27 C0,27.5522847 0.44771525,28 1,28 L8,28 C8.55228475,28 9,27.5522847 9,27 L9,20 C9,19.4477153 8.55228475,19 8,19 C7.44771525,19 7,19.4477153 7,20 L7,24.5857864 Z" id="Combined-Shape-Copy-2" transform="translate(4.500000, 23.500000) scale(-1, 1) translate(-4.500000, -23.500000) "></path>
                <path d="M7,5.58578644 L2.70710678,1.29289322 C2.31658249,0.902368927 1.68341751,0.902368927 1.29289322,1.29289322 C0.902368927,1.68341751 0.902368927,2.31658249 1.29289322,2.70710678 L5.58578644,7 L1,7 C0.44771525,7 0,7.44771525 0,8 C0,8.55228475 0.44771525,9 1,9 L8,9 C8.55228475,9 9,8.55228475 9,8 L9,1 C9,0.44771525 8.55228475,0 8,0 C7.44771525,0 7,0.44771525 7,1 L7,5.58578644 Z" id="Combined-Shape-Copy-4" transform="translate(4.500000, 4.500000) scale(-1, -1) translate(-4.500000, -4.500000) "></path>
            </g>
        </g>
    </g>
</svg>