<svg xmlns="http://www.w3.org/2000/svg" viewBox="0 0 49.63 46.15"><defs><style>.cls-1{fill:#8DA3B7;}</style></defs><title>load</title><g id="Layer_2" data-name="Layer 2"><g id="Layer_1-2" data-name="Layer 1"><path class="cls-1" d="M9.71,39.11H40a2.32,2.32,0,0,0,2.62-2.6c0-2.38,0-4.76,0-7.14,0-.71.16-1,.94-1,1.72.05,3.44,0,5.16,0,.73,0,1,.2,1,1,0,2.58,0,5.16,0,7.73a8.59,8.59,0,0,1-1.43,4.82,9.25,9.25,0,0,1-8.28,4.25q-14.43,0-28.86,0H38.58q-14.43,0-28.86,0A9.25,9.25,0,0,1,1.44,41.9,8.59,8.59,0,0,1,0,37.08c0-2.58,0-5.16,0-7.73,0-.75.24-1,1-1,1.72,0,3.44,0,5.16,0,.77,0,.95.28.94,1,0,2.38,0,4.76,0,7.14a2.32,2.32,0,0,0,2.62,2.6H39.92"/><path class="cls-1" d="M21,30.56c0,1.48.07,1.54,1.58,1.55H27c1.51,0,1.58-.07,1.58-1.55q0-9,0-18c0-.3,0-.59,0-.89a.66.66,0,0,1,.72-.75h.89c1.49,0,2.84,0,4.33,0h0c.29,0,.73,0,.73-.35,0-.18-.12-.34-.33-.55h0L25.17.19h0c-.25-.26-.46-.25-.74,0h.76c-.27-.27-.48-.28-.74,0h0L14.67,10h0c-.21.21-.33.37-.33.55,0,.35.45.35.73.35h0c1.49,0,2.84,0,4.33,0h.89a.66.66,0,0,1,.72.75c0,.3,0,.59,0,.89q0,9,0,18c0,1.48.07,1.54,1.58,1.55H27c1.51,0,1.58-.07,1.58-1.55"/></g></g></svg>