<?xml version="1.0" encoding="UTF-8"?>
<svg width="29px" height="29px" viewBox="0 0 29 29" version="1.1" xmlns="http://www.w3.org/2000/svg" xmlns:xlink="http://www.w3.org/1999/xlink">
    <!-- Generator: Sketch 40.3 (33839) - http://www.bohemiancoding.com/sketch -->
    <title>Icon - ActionLog</title>
    <desc>Created with Sketch.</desc>
    <defs></defs>
    <g id="Page-2" stroke="none" stroke-width="1" fill="none" fill-rule="evenodd">
        <g id="Icon---ActionLog" fill="#FFFFFF">
            <path d="M21,4 L25.3240787,4 C25.7125094,4 26,4.26580602 26,4.54650444 L26,5.45349556 L26,8 L2,8 L2,4.54700425 C2,4.26346893 2.28539575,4 2.67592128,4 L7,4 L7,5 C7,5.55228475 7.44771525,6 8,6 C8.55228475,6 9,5.55228475 9,5 L9,4 L19,4 L19,5 C19,5.55228475 19.4477153,6 20,6 C20.5522847,6 21,5.55228475 21,5 L21,4 Z M19,2 L9,2 L9,1 C9,0.44771525 8.55228475,0 8,0 C7.44771525,0 7,0.44771525 7,1 L7,2 L2.67592128,2 C1.21495337,2 0,3.12160908 0,4.54700425 L0,25.4529957 C0,26.8781308 1.21357725,28 2.67329569,28 L7.12670431,28 L11.5510184,28 C12.1033032,28 12.5510184,27.5522847 12.5510184,27 C12.5510184,26.4477153 12.1033032,26 11.5510184,26 L7.12670431,26 L2.67329569,26 C2.28457317,26 2,25.7369316 2,25.4529957 L2,10 L26,10 L26,12.0412035 C26,12.5934883 26.4477153,13.0412035 27,13.0412035 C27.5522847,13.0412035 28,12.5934883 28,12.0412035 L28,5.45349556 L28,4.54650444 C28,3.12468068 26.7835673,2 25.3240787,2 L21,2 L21,1 C21,0.44771525 20.5522847,0 20,0 C19.4477153,0 19,0.44771525 19,1 L19,2 Z M13,21 C13,16.581722 16.581722,13 21,13 C25.418278,13 29,16.581722 29,21 C29,25.418278 25.418278,29 21,29 C16.581722,29 13,25.418278 13,21 Z M27,21 C27,17.6862915 24.3137085,15 21,15 C17.6862915,15 15,17.6862915 15,21 C15,24.3137085 17.6862915,27 21,27 C24.3137085,27 27,24.3137085 27,21 Z M20,22 C20,22.5522847 20.4477153,23 21,23 L24,23 C24.5522847,23 25,22.5522847 25,22 C25,21.4477153 24.5522847,21 24,21 L21,21 L22,22 L22,18 C22,17.4477153 21.5522847,17 21,17 C20.4477153,17 20,17.4477153 20,18 L20,22 Z" id="ActionLog"></path>
        </g>
    </g>
</svg>