<?xml version="1.0" encoding="UTF-8" standalone="no"?>
<svg
   xmlns:dc="http://purl.org/dc/elements/1.1/"
   xmlns:cc="http://creativecommons.org/ns#"
   xmlns:rdf="http://www.w3.org/1999/02/22-rdf-syntax-ns#"
   xmlns:svg="http://www.w3.org/2000/svg"
   xmlns="http://www.w3.org/2000/svg"
   xmlns:sodipodi="http://sodipodi.sourceforge.net/DTD/sodipodi-0.dtd"
   xmlns:inkscape="http://www.inkscape.org/namespaces/inkscape"
   viewBox="0 0 24 24"
   version="1.1"
   id="svg3735"
   sodipodi:docname="connectionLost.svg"
   inkscape:version="0.92.4 (5da689c313, 2019-01-14)">
  <metadata
     id="metadata3741">
    <rdf:RDF>
      <cc:Work
         rdf:about="">
        <dc:format>image/svg+xml</dc:format>
        <dc:type
           rdf:resource="http://purl.org/dc/dcmitype/StillImage" />
      </cc:Work>
    </rdf:RDF>
  </metadata>
  <defs
     id="defs3739" />
  <sodipodi:namedview
     pagecolor="#ffffff"
     bordercolor="#666666"
     borderopacity="1"
     objecttolerance="10"
     gridtolerance="10"
     guidetolerance="10"
     inkscape:pageopacity="0"
     inkscape:pageshadow="2"
     inkscape:window-width="1920"
     inkscape:window-height="1017"
     id="namedview3737"
     showgrid="false"
     inkscape:zoom="17.666667"
     inkscape:cx="12.682947"
     inkscape:cy="5.3487807"
     inkscape:window-x="1912"
     inkscape:window-y="-8"
     inkscape:window-maximized="1"
     inkscape:current-layer="Layer_2" />
  <title
     id="title3728" />
  <g
     data-name="Layer 2"
     id="Layer_2">
    <path
       d="M2.71,22.71l2.4-2.4a3.79,3.79,0,0,0,4.6-.6L12.41,17l-1-1,2.29-2.29-1.41-1.41L10,14.59,9.41,14l2.29-2.29-1.41-1.41L8,12.59l-1-1L4.29,14.29a3.82,3.82,0,0,0-.6,4.6l-2.4,2.4Zm3-7L7,14.41,9.59,17,8.29,18.29a1.83,1.83,0,0,1-2.59-2.59Z"
       id="path3730"
       style="fill:#239def;fill-opacity:0.94117647" />
    <path
       d="M18.89,3.69a3.82,3.82,0,0,0-4.6.6L11.59,7,17,12.41l2.71-2.71a3.82,3.82,0,0,0,.6-4.6l2.4-2.4L21.29,1.29Zm-.6,4.6L17,9.59,14.41,7l1.29-1.29a1.83,1.83,0,0,1,2.59,2.59Z"
       id="path3732"
       style="fill:#239def;fill-opacity:0.94117647" />
  </g>
</svg>
