<?xml version="1.0" encoding="UTF-8" standalone="no"?>
<svg
   xmlns:dc="http://purl.org/dc/elements/1.1/"
   xmlns:cc="http://creativecommons.org/ns#"
   xmlns:rdf="http://www.w3.org/1999/02/22-rdf-syntax-ns#"
   xmlns:svg="http://www.w3.org/2000/svg"
   xmlns="http://www.w3.org/2000/svg"
   xmlns:sodipodi="http://sodipodi.sourceforge.net/DTD/sodipodi-0.dtd"
   xmlns:inkscape="http://www.inkscape.org/namespaces/inkscape"
   viewBox="0 0 46.15 46.15"
   id="svg2"
   version="1.1"
   inkscape:version="0.48.4 r9939"
   width="100%"
   height="100%"
   sodipodi:docname="Download.svg">
  <metadata
     id="metadata18">
    <rdf:RDF>
      <cc:Work
         rdf:about="">
        <dc:format>image/svg+xml</dc:format>
        <dc:type
           rdf:resource="http://purl.org/dc/dcmitype/StillImage" />
        <dc:title>load</dc:title>
      </cc:Work>
    </rdf:RDF>
  </metadata>
  <sodipodi:namedview
     pagecolor="#ffffff"
     bordercolor="#666666"
     borderopacity="1"
     objecttolerance="10"
     gridtolerance="10"
     guidetolerance="10"
     inkscape:pageopacity="0"
     inkscape:pageshadow="2"
     inkscape:window-width="1920"
     inkscape:window-height="1017"
     id="namedview16"
     showgrid="false"
     inkscape:zoom="14.463896"
     inkscape:cx="26.870941"
     inkscape:cy="23.778752"
     inkscape:window-x="1912"
     inkscape:window-y="-8"
     inkscape:window-maximized="1"
     inkscape:current-layer="svg2" />
  <defs
     id="defs4">
    <style
       id="style6">.cls-1{fill:#8DA3B7;}</style>
  </defs>
  <title
     id="title8">load</title>
  <path
     class="cls-1"
     d="m 20.084854,9.2432228 c 0,-1.0499773 0.05142,-1.0925439 1.160641,-1.0996384 h 3.246859 c 1.10922,0 1.160641,0.049661 1.160641,1.0996384 q 0,6.3849962 0,12.7699932 c 0,0.212833 0,0.418572 0,0.631405 a 0.48482496,0.46823307 0 0 0 0.5289,0.532083 h 0.653779 c 1.094529,0 2.086217,0 3.180746,0 h 0 c 0.213029,0 0.536245,0 0.536245,0.248305 0,0.1277 -0.08815,0.241211 -0.242412,0.390194 h 0 l -7.162187,6.973835 h 0 c -0.183646,0.184456 -0.337908,0.177361 -0.543591,0 h 0.558283 c -0.198338,0.19155 -0.3526,0.198645 -0.543592,0 h 0 l -7.184224,-6.959646 h 0 c -0.154263,-0.148983 -0.242413,-0.262494 -0.242413,-0.390194 0,-0.248305 0.330563,-0.248305 0.536246,-0.248305 h 0 c 1.094529,0 2.086217,0 3.180746,0 H 19.5633 a 0.48482496,0.46823307 0 0 0 0.5289,-0.532083 c 0,-0.212834 0,-0.418572 0,-0.631406 q 0,-6.384996 0,-12.7699923 c 0,-1.0499773 0.05142,-1.0925439 1.160641,-1.0996384 h 3.239513 c 1.10922,0 1.160641,0.049661 1.160641,1.0996384"
     id="path14"
     inkscape:connector-curvature="0"
     style="fill:#0a93e2;fill-opacity:1" />
  <rect
     style="fill:#0a93e2;fill-opacity:1"
     id="rect3013"
     width="30.84944"
     height="3.1720955"
     x="7.4712934"
     y="35.052235"
     ry="0.97512579" />
</svg>
