<?xml version="1.0" encoding="UTF-8" standalone="no"?>
<svg
   xmlns:dc="http://purl.org/dc/elements/1.1/"
   xmlns:cc="http://creativecommons.org/ns#"
   xmlns:rdf="http://www.w3.org/1999/02/22-rdf-syntax-ns#"
   xmlns:svg="http://www.w3.org/2000/svg"
   xmlns="http://www.w3.org/2000/svg"
   xmlns:sodipodi="http://sodipodi.sourceforge.net/DTD/sodipodi-0.dtd"
   xmlns:inkscape="http://www.inkscape.org/namespaces/inkscape"
   enable-background="new 0 0 256 256"
   height="256px"
   id="Layer_1"
   version="1.1"
   viewBox="0 0 256 256"
   width="256px"
   xml:space="preserve"
   inkscape:version="0.91 r13725"
   sodipodi:docname="CreatePage - Copy.svg"><metadata
     id="metadata9"><rdf:RDF><cc:Work
         rdf:about=""><dc:format>image/svg+xml</dc:format><dc:type
           rdf:resource="http://purl.org/dc/dcmitype/StillImage" /></cc:Work></rdf:RDF></metadata><defs
     id="defs7"><style
       id="style2"
       type="text/css">

        .fil1 {fill:none}
        .fil0 {fill:#0A93E2;fill-rule:nonzero}

      </style></defs><sodipodi:namedview
     pagecolor="#ffffff"
     bordercolor="#666666"
     borderopacity="1"
     objecttolerance="10"
     gridtolerance="10"
     guidetolerance="10"
     inkscape:pageopacity="0"
     inkscape:pageshadow="2"
     inkscape:window-width="1920"
     inkscape:window-height="1058"
     id="namedview5"
     showgrid="false"
     inkscape:zoom="1.3037281"
     inkscape:cx="-91.83631"
     inkscape:cy="94.95629"
     inkscape:window-x="3832"
     inkscape:window-y="-8"
     inkscape:window-maximized="1"
     inkscape:current-layer="Layer_1" /><path
     d="M 256,128 C 256,57.42 198.58,0 128,0 57.42,0 0,57.42 0,128 c 0,70.58 57.42,128 128,128 70.58,0 128,-57.42 128,-128 z m -12.8,0 C 243.2,191.521 191.521,243.2 128,243.2 64.478,243.2 12.8,191.521 12.8,128 12.8,64.478 64.478,12.8 128,12.8 c 63.521,0 115.2,51.678 115.2,115.2 z"
     id="path3"
     style="fill:#627a8f;fill-opacity:1"
     inkscape:connector-curvature="0"
     sodipodi:nodetypes="ssssssssss" /><g
     style="clip-rule:evenodd;fill-rule:evenodd;image-rendering:optimizeQuality;shape-rendering:geometricPrecision;text-rendering:geometricPrecision"
     id="g4147"
     transform="matrix(32,0,0,32,17.496938,16.560415)"><g
       transform="translate(0.3886287,0)"
       id="Layer_x0020_1"><path
         style="fill:#0a93e2;fill-rule:nonzero"
         inkscape:connector-curvature="0"
         id="path6"
         d="M 2.46703,5.54888 C 2.580707,5.579254 2.697491,5.5117225 2.727865,5.398045 2.758239,5.284368 2.6907075,5.167584 2.57703,5.13721 2.110176,5.012119 1.738231,4.709667 1.5143,4.321804 1.290548,3.934257 1.214733,3.461021 1.339875,2.993974 1.464966,2.52712 1.767418,2.155179 2.155281,1.931244 2.542828,1.707492 3.016064,1.631673 3.483111,1.756815 3.949965,1.881906 4.321906,2.184358 4.545841,2.572221 4.769593,2.959768 4.845412,3.433004 4.72027,3.900051 4.689896,4.013728 4.7574275,4.130512 4.871105,4.160886 4.984782,4.19126 5.101566,4.1237285 5.13194,4.010051 5.287373,3.429957 5.1927707,2.841441 4.914172,2.358891 4.635751,1.876655 4.173396,1.500631 3.593112,1.345151 3.013018,1.189718 2.424502,1.2843203 1.941952,1.562919 1.459716,1.84134 1.083692,2.303695 0.928212,2.883979 c -0.155433,0.580094 -0.0608346,1.16861 0.217764,1.65116 0.278421,0.482236 0.74078,0.85826 1.32106,1.01374 z"
         class="fil0" /><path
         style="fill:#0a93e2;fill-rule:nonzero"
         inkscape:connector-curvature="0"
         id="path8"
         d="M 5.895,3.43303 C 5.985665,3.358475 5.99872,3.22453 5.924165,3.133865 5.84961,3.0432 5.715665,3.030145 5.625,3.1047 L 4.955177,3.655889 4.404075,2.986165 C 4.32952,2.8955 4.195575,2.882445 4.10491,2.957 4.014245,3.031555 4.00119,3.1655 4.075745,3.256165 l 0.674638,0.81985 c 0.00343,0.00497 0.00709,0.00985 0.010996,0.014602 0.074862,0.090976 0.209307,0.104035 0.300283,0.029173 l -5e-4,-6.063e-4 0.833839,-0.686154 z"
         class="fil0" /></g><rect
       id="rect11"
       width="6.8266602"
       height="6.8266602"
       class="fil1"
       x="0"
       y="0"
       style="fill:none" /></g><path
     style="opacity:1;fill:#627a8f;fill-opacity:1;stroke:#269de6;stroke-width:0;stroke-miterlimit:4;stroke-dasharray:none;stroke-opacity:1"
     d="m 104.9759,192.92579 c -8.119411,-2.73194 -15.240542,-6.57677 -21.483708,-11.59946 -4.221799,-3.39648 -10.223554,-9.7392 -13.33063,-14.08794 -3.128986,-4.37942 -7.869525,-13.77746 -9.471444,-18.77698 -4.892917,-15.27058 -4.541515,-31.12334 1.02015,-46.02186 C 74.635343,67.816 112.82414,49.227463 147.9228,60.475276 c 27.16356,8.704906 46.89498,33.83102 48.38947,61.619444 0.13329,2.47847 0.31674,4.50631 0.40765,4.50631 0.0909,0 3.26095,-2.54559 7.04449,-5.65686 3.78355,-3.11127 7.35019,-5.8648 7.92585,-6.11895 0.57567,-0.25415 1.69939,-0.46988 2.49717,-0.4794 4.95454,-0.0591 8.31024,5.30293 6.15765,9.83919 -0.45667,0.96235 -4.53971,4.56787 -14.39784,12.71397 -7.56822,6.25387 -14.40038,11.75615 -15.18258,12.22727 -1.71153,1.03089 -4.20599,1.13112 -6.0752,0.24412 -0.72451,-0.3438 -2.05796,-1.50873 -2.96322,-2.58873 -7.00174,-8.35328 -21.49133,-26.16438 -22.10831,-27.17631 -0.4865,-0.79792 -0.76259,-1.93112 -0.7635,-3.13377 -0.003,-3.74152 2.95997,-6.74522 6.65342,-6.74522 3.13221,0 4.05195,0.75885 10.67235,8.80543 3.39115,4.12169 6.29692,7.5451 6.45726,7.60757 0.16034,0.0625 0.21164,-1.0593 0.11398,-2.49285 -1.55864,-22.88057 -15.96993,-41.977202 -37.36732,-49.516052 -6.62612,-2.334553 -10.49223,-2.94784 -18.55467,-2.943358 -10.28876,0.0057 -15.81667,1.28331 -24.92851,5.761388 -15.256535,7.497933 -25.924484,21.312404 -29.789884,38.576432 -0.763609,3.41051 -0.890504,5.02545 -0.885381,11.26788 0.0066,8.08691 0.464367,11.24092 2.536685,17.47918 4.7102,14.17903 15.154132,26.27569 28.13858,32.59146 2.10933,1.02601 5.47468,2.40923 7.47855,3.07383 4.70112,1.55917 5.49541,1.98734 6.75832,3.64309 1.9819,2.59841 1.54136,6.87422 -0.93939,9.1177 -0.9312,0.84214 -3.32789,1.74712 -4.66838,1.76275 -0.52734,0.006 -3.0267,-0.6846 -5.55414,-1.535 z"
     id="path4153"
     inkscape:connector-curvature="0" /></svg>