<?xml version="1.0" encoding="UTF-8" standalone="no"?>
<svg
   xmlns:dc="http://purl.org/dc/elements/1.1/"
   xmlns:cc="http://creativecommons.org/ns#"
   xmlns:rdf="http://www.w3.org/1999/02/22-rdf-syntax-ns#"
   xmlns:svg="http://www.w3.org/2000/svg"
   xmlns="http://www.w3.org/2000/svg"
   xmlns:sodipodi="http://sodipodi.sourceforge.net/DTD/sodipodi-0.dtd"
   xmlns:inkscape="http://www.inkscape.org/namespaces/inkscape"
   width="24"
   height="24"
   viewBox="0 0 24 24"
   id="svg2995"
   version="1.1"
   inkscape:version="0.48.4 r9939"
   xml:space="preserve"
   sodipodi:docname="megaphone.svg">
  <metadata
     id="metadata3003">
    <rdf:RDF>
      <cc:Work
         rdf:about="">
        <dc:format>image/svg+xml</dc:format>
        <dc:type
           rdf:resource="http://purl.org/dc/dcmitype/StillImage" />
      </cc:Work>
    </rdf:RDF>
  </metadata>
  <defs
     id="defs3001" />
  <sodipodi:namedview
     pagecolor="#ffffff"
     bordercolor="#666666"
     borderopacity="1"
     objecttolerance="10"
     gridtolerance="10"
     guidetolerance="10"
     inkscape:pageopacity="0"
     inkscape:pageshadow="2"
     inkscape:window-width="1920"
     inkscape:window-height="1017"
     id="namedview2999"
     showgrid="false"
     inkscape:zoom="34.583333"
     inkscape:cx="7.4891566"
     inkscape:cy="12"
     inkscape:window-x="1912"
     inkscape:window-y="-8"
     inkscape:window-maximized="1"
     inkscape:current-layer="svg2995" />
  <path
     d="m 19.426711,16.989 c 1.768073,0.647 3.719154,-0.275 4.365181,-2.06 0.647026,-1.785 -0.262011,-3.757 -2.027084,-4.404 l -3.242134,-1.187 -2.338097,6.464 3.242134,1.187 z m -6.28226,3.172 c 0.437018,-0.151 0.814034,-0.43 1.089045,-0.8 l 1.635068,-2.202 3.301137,1.209 -2.602108,3.353 c -0.292012,0.376 -0.790033,0.52 -1.237051,0.356 l -2.216092,-0.81 c -0.229009,-0.084 -0.382016,-0.307 -0.381016,-0.553 0.002,-0.246 0.156007,-0.464 0.389017,-0.545 l 0.022,-0.008 z m 4.09017,-11.294 -2.338097,6.464 C 12.741435,14.914 9.8193139,14.93 6.000156,15.732 L 10.675349,2.805 c 2.476103,3.165 4.663193,5.004 6.559272,6.062 z M 6.4391742,5.765 C 5.5831388,6.176 4.8831098,6.914 4.5460959,7.882 4.2070819,8.849 4.2920854,9.862 4.7031024,10.718 L 3.2960442,11.396 C 2.71102,10.18 2.5880149,8.74 3.0690348,7.366 3.5500547,5.991 4.5430958,4.942 5.758146,4.357 L 6.4391742,5.765 z M 5.251125,3.3 C 3.7650636,4.015 2.5530135,5.298 1.9649892,6.978 1.3769648,8.658 1.526971,10.419 2.2420006,11.905 L 0.79894093,12.601 C -0.09409599,10.744 -0.28010368,8.546 0.45292663,6.448 1.187957,4.351 2.7000195,2.75 4.5550963,1.857 L 5.251125,3.3 z"
     id="path2997"
     style="fill:#239def;fill-opacity:0.94117647;stroke:none"
     inkscape:connector-curvature="0" />
</svg>
