<?xml version="1.0" encoding="UTF-8" standalone="no"?>
<svg
   xmlns:dc="http://purl.org/dc/elements/1.1/"
   xmlns:cc="http://creativecommons.org/ns#"
   xmlns:rdf="http://www.w3.org/1999/02/22-rdf-syntax-ns#"
   xmlns:svg="http://www.w3.org/2000/svg"
   xmlns="http://www.w3.org/2000/svg"
   xmlns:sodipodi="http://sodipodi.sourceforge.net/DTD/sodipodi-0.dtd"
   xmlns:inkscape="http://www.inkscape.org/namespaces/inkscape"
   enable-background="new 0 0 256 256"
   height="256px"
   id="Layer_1"
   version="1.1"
   viewBox="0 0 256 256"
   width="256px"
   xml:space="preserve"
   inkscape:version="0.48.4 r9939"
   sodipodi:docname="MinusIcon.svg"><metadata
     id="metadata9"><rdf:RDF><cc:Work
         rdf:about=""><dc:format>image/svg+xml</dc:format><dc:type
           rdf:resource="http://purl.org/dc/dcmitype/StillImage" /><dc:title></dc:title></cc:Work></rdf:RDF></metadata><defs
     id="defs7" /><sodipodi:namedview
     pagecolor="#ffffff"
     bordercolor="#666666"
     borderopacity="1"
     objecttolerance="10"
     gridtolerance="10"
     guidetolerance="10"
     inkscape:pageopacity="0"
     inkscape:pageshadow="2"
     inkscape:window-width="1920"
     inkscape:window-height="1017"
     id="namedview5"
     showgrid="false"
     inkscape:zoom="2.8284271"
     inkscape:cx="59.123001"
     inkscape:cy="113.74603"
     inkscape:window-x="-8"
     inkscape:window-y="-8"
     inkscape:window-maximized="1"
     inkscape:current-layer="Layer_1" /><path
     d="M 256,128 C 256,57.42 198.58,0 128,0 57.42,0 0,57.42 0,128 c 0,70.58 57.42,128 128,128 70.58,0 128,-57.42 128,-128 z m -12.8,0 C 243.2,191.521 191.521,243.2 128,243.2 64.478,243.2 12.8,191.521 12.8,128 12.8,64.478 64.478,12.8 128,12.8 c 63.521,0 115.2,51.678 115.2,115.2 z"
     id="path3"
     style="fill:#627a8f;fill-opacity:1"
     inkscape:connector-curvature="0"
     sodipodi:nodetypes="ssssssssss" /><g
     id="g3011"
     transform="matrix(0.245,0,0,0.245,65.370937,64.05896)"
     style="fill:#627a8f;fill-opacity:1"><g
       style="fill:#627a8f;fill-opacity:1"
       id="g14">
	<g
   style="fill:#627a8f;fill-opacity:1"
   id="g12">
		<g
   style="fill:#627a8f;fill-opacity:1"
   id="g10">
			<polygon
   style="fill:#627a8f;fill-opacity:1"
   id="polygon2"
   points="353.574,176.526 313.496,175.056 304.807,412.34 344.885,413.804 " />
			<rect
   style="fill:#627a8f;fill-opacity:1"
   id="rect4"
   height="237.285"
   width="40.104"
   y="175.791"
   x="235.948" />
			<polygon
   style="fill:#627a8f;fill-opacity:1"
   id="polygon6"
   points="207.186,412.334 198.497,175.049 158.419,176.52 167.109,413.804 " />
			<path
   style="fill:#627a8f;fill-opacity:1"
   id="path8"
   d="m 17.379,76.867 v 40.104 H 59.168 L 92.32,493.706 C 93.229,504.059 101.899,512 112.292,512 h 286.74 c 10.394,0 19.07,-7.947 19.972,-18.301 l 33.153,-376.728 h 42.464 V 76.867 H 17.379 z M 380.665,471.896 H 130.654 L 99.426,116.971 H 411.9 l -31.235,354.925 z"
   inkscape:connector-curvature="0" />
		</g>
	</g>
</g><g
       style="fill:#627a8f;fill-opacity:1"
       id="g20">
	<g
   style="fill:#627a8f;fill-opacity:1"
   id="g18">
		<path
   style="fill:#627a8f;fill-opacity:1"
   id="path16"
   d="M 321.504,0 H 190.496 c -18.428,0 -33.42,14.992 -33.42,33.42 V 96.919 H 197.18 V 40.104 h 117.64 v 56.815 h 40.104 V 33.42 C 354.924,14.992 339.932,0 321.504,0 z"
   inkscape:connector-curvature="0" />
	</g>
</g><g
       id="g22"
       style="fill:#627a8f;fill-opacity:1">
</g><g
       id="g24"
       style="fill:#627a8f;fill-opacity:1">
</g><g
       id="g26"
       style="fill:#627a8f;fill-opacity:1">
</g><g
       id="g28"
       style="fill:#627a8f;fill-opacity:1">
</g><g
       id="g30"
       style="fill:#627a8f;fill-opacity:1">
</g><g
       id="g32"
       style="fill:#627a8f;fill-opacity:1">
</g><g
       id="g34"
       style="fill:#627a8f;fill-opacity:1">
</g><g
       id="g36"
       style="fill:#627a8f;fill-opacity:1">
</g><g
       id="g38"
       style="fill:#627a8f;fill-opacity:1">
</g><g
       id="g40"
       style="fill:#627a8f;fill-opacity:1">
</g><g
       id="g42"
       style="fill:#627a8f;fill-opacity:1">
</g><g
       id="g44"
       style="fill:#627a8f;fill-opacity:1">
</g><g
       id="g46"
       style="fill:#627a8f;fill-opacity:1">
</g><g
       id="g48"
       style="fill:#627a8f;fill-opacity:1">
</g><g
       id="g50"
       style="fill:#627a8f;fill-opacity:1">
</g></g><path
     style="fill:#ffffff;fill-opacity:1;stroke:none;stroke-width:1.87383305999999990;stroke-miterlimit:4;stroke-opacity:1;stroke-dasharray:none"
     d="M 118.37855,242.65256 C 86.389979,239.64689 57.650956,224.17285 37.960582,199.35284 24.8786,182.86282 16.859775,163.87226 13.850389,142.25397 13.078357,136.70798 12.963523,120.17023 13.661356,115.03036 15.557624,101.06344 18.686846,90.242964 24.154246,78.747196 40.546793,44.280192 73.229668,20.01479 110.95393,14.302767 c 30.64475,-4.6400779 62.15123,3.492574 86.79736,22.404688 23.59188,18.103137 39.20012,44.256175 43.82153,73.426985 1.339,8.45194 1.72833,20.62978 0.91949,28.76077 -3.31223,33.29679 -20.65092,63.24229 -47.923,82.76741 -15.35957,10.9965 -33.34229,17.99944 -52.63156,20.49611 -5.06336,0.65536 -18.78001,0.94288 -23.5592,0.49383 z m 47.41226,-53.8226 c 0.66073,-0.44008 1.46819,-1.3549 1.79435,-2.03293 0.46599,-0.9687 1.4317,-10.85078 4.50839,-46.13405 2.15346,-24.6957 4.00441,-45.577452 4.11323,-46.403883 l 0.19785,-1.502602 5.10486,0 5.10486,0 0,-4.949748 0,-4.949747 -16.9267,0 -16.9267,0 -0.16231,-6.275573 c -0.17382,-6.720527 -0.40526,-7.76947 -2.17818,-9.87195 -0.52014,-0.616826 -1.69772,-1.491871 -2.61684,-1.944543 l -1.67113,-0.823041 -18.03122,0 -18.03123,0 -1.67112,0.823041 c -0.91912,0.452672 -2.0967,1.327717 -2.61684,1.944543 -1.79496,2.128618 -2.01947,3.144819 -2.18097,9.87195 l -0.15065,6.275573 -16.931141,0 -16.931138,0 0,4.949747 0,4.949748 5.126524,0 5.126524,0 0.0037,0.972272 c 0.0021,0.534749 1.816529,21.532293 4.032188,46.661213 3.685755,41.80207 4.091677,45.79122 4.771454,46.89112 1.532565,2.47974 -0.958975,2.33204 39.488789,2.34097 l 36.4521,0.008 1.20134,-0.80016 z"
     id="path3782"
     inkscape:connector-curvature="0" /><path
     style="fill:#ffffff;fill-opacity:1;stroke:none"
     d="M 97.36962,177.3461 C 96.904086,173.02369 90.094278,94.857384 90.094278,93.836175 l 0,-1.07968 38.006992,0 c 30.1805,0 38.00289,0.09101 37.98709,0.441942 -0.011,0.243068 -1.72338,19.692923 -3.80541,43.221903 l -3.78549,42.77996 -30.45434,0.0903 -30.454338,0.0904 -0.219162,-2.03489 0,0 z m 18.81819,-12.27744 c 0.13834,-0.13834 -1.54796,-48.12949 -1.91179,-54.40832 l -0.22249,-3.83969 -4.8859,0.13418 c -2.68724,0.0738 -4.95116,0.21067 -5.03093,0.30415 -0.0798,0.0935 0.29867,11.86376 0.84097,26.15616 0.5423,14.29239 0.99511,27.40198 1.00625,29.13242 l 0.0203,3.14626 5.02811,-0.24888 c 2.76546,-0.13688 5.08544,-0.3062 5.15552,-0.37628 l 0,0 z m 17.03998,-28.8251 0,-29.34493 -5.12652,0 -5.12653,0 0,29.34493 0,29.34493 5.12653,0 5.12652,0 0,-29.34493 z m 17.78955,1.5026 c 0.53091,-15.31328 1.02357,-28.42098 1.09481,-29.12822 0.1245,-1.23601 0.0796,-1.29415 -1.1573,-1.49871 -0.70775,-0.11705 -2.98229,-0.21457 -5.05453,-0.21671 l -3.7677,-0.004 -0.21159,3.27037 c -0.20504,3.16918 -1.98323,51.61916 -1.97821,53.90002 l 0.002,1.13218 2.20971,0.12552 c 1.21534,0.069 3.48936,0.15619 5.05338,0.19365 l 2.84367,0.0681 0.96528,-27.84233 1e-5,0 z"
     id="path3784"
     inkscape:connector-curvature="0" /><path
     style="fill:#ffffff;fill-opacity:1;stroke:none"
     d="m 113.78236,78.437582 0,-4.419417 14.31891,0 14.31891,0 0,4.419417 0,4.419418 -14.31891,0 -14.31891,0 0,-4.419418 z"
     id="path3786"
     inkscape:connector-curvature="0" /><path
     style="fill:#ffffff;fill-opacity:1;stroke:none"
     d="M 118.37855,242.62821 C 86.871911,239.89624 57.793074,224.24924 37.954343,199.35284 24.953483,183.03756 16.858205,163.86098 13.850389,142.25397 c -0.772032,-5.54599 -0.886866,-22.08374 -0.189033,-27.22361 1.896268,-13.96692 5.02549,-24.787396 10.49289,-36.283164 16.294005,-34.259809 48.738058,-58.508298 86.051334,-64.314241 31.07851,-4.8358152 62.41119,3.107262 87.42068,22.161822 25.59986,19.504358 41.61227,48.31972 44.86291,80.733683 0.50013,4.98711 0.50182,16.55374 0.003,21.56675 -3.6359,36.5501 -24.13349,68.87884 -55.68443,87.82529 -20.33417,12.21073 -44.98282,17.94078 -68.42937,15.90771 z m 47.01228,-53.52308 c 1.6611,-0.85899 2.39785,-2.25763 2.80545,-5.32586 0.2054,-1.54616 2.04675,-21.98264 4.09189,-45.41439 2.04514,-23.43175 3.808,-43.279352 3.91745,-44.105783 l 0.19901,-1.502602 5.10486,0 5.10486,0 0,-4.949748 0,-4.949747 -16.92294,0 -16.92294,0 -0.16518,-6.295054 c -0.15088,-5.749846 -0.23857,-6.442001 -1.01253,-7.991699 -0.92863,-1.859415 -2.31263,-3.191732 -4.22083,-4.063213 -1.08223,-0.494257 -3.49907,-0.565141 -19.26866,-0.565141 l -18.03123,0 -1.67112,0.823041 c -0.91912,0.452672 -2.0967,1.327717 -2.61684,1.944543 -1.77292,2.10248 -2.00437,3.151423 -2.17818,9.87195 l -0.16231,6.275573 -16.926704,0 -16.926705,0 0,4.949747 0,4.949748 5.126524,0 5.126524,0 0,0.858954 c 0,1.072094 7.285467,83.930491 7.804974,88.766831 0.554422,5.16136 1.266033,6.32926 4.215842,6.91909 0.68059,0.13609 17.274565,0.26573 36.875495,0.2881 30.88079,0.0352 35.77359,-0.0294 36.65329,-0.48434 z"
     id="path3788"
     inkscape:connector-curvature="0" /></svg>