<?xml version="1.0" encoding="UTF-8" standalone="no"?>
<svg
   xmlns:dc="http://purl.org/dc/elements/1.1/"
   xmlns:cc="http://creativecommons.org/ns#"
   xmlns:rdf="http://www.w3.org/1999/02/22-rdf-syntax-ns#"
   xmlns:svg="http://www.w3.org/2000/svg"
   xmlns="http://www.w3.org/2000/svg"
   xmlns:sodipodi="http://sodipodi.sourceforge.net/DTD/sodipodi-0.dtd"
   xmlns:inkscape="http://www.inkscape.org/namespaces/inkscape"
   enable-background="new 0 0 256 256"
   height="256px"
   id="Layer_1"
   version="1.1"
   viewBox="0 0 256 256"
   width="256px"
   xml:space="preserve"
   inkscape:version="0.48.4 r9939"
   sodipodi:docname="MinusIcon.svg"><metadata
     id="metadata9"><rdf:RDF><cc:Work
         rdf:about=""><dc:format>image/svg+xml</dc:format><dc:type
           rdf:resource="http://purl.org/dc/dcmitype/StillImage" /><dc:title /></cc:Work></rdf:RDF></metadata><defs
     id="defs7" /><sodipodi:namedview
     pagecolor="#ffffff"
     bordercolor="#666666"
     borderopacity="1"
     objecttolerance="10"
     gridtolerance="10"
     guidetolerance="10"
     inkscape:pageopacity="0"
     inkscape:pageshadow="2"
     inkscape:window-width="1920"
     inkscape:window-height="1017"
     id="namedview5"
     showgrid="false"
     inkscape:zoom="2.8284271"
     inkscape:cx="114.27733"
     inkscape:cy="113.74603"
     inkscape:window-x="-8"
     inkscape:window-y="-8"
     inkscape:window-maximized="1"
     inkscape:current-layer="Layer_1" /><path
     d="M 256,128 C 256,57.42 198.58,0 128,0 57.42,0 0,57.42 0,128 c 0,70.58 57.42,128 128,128 70.58,0 128,-57.42 128,-128 z m -12.8,0 C 243.2,191.521 191.521,243.2 128,243.2 64.478,243.2 12.8,191.521 12.8,128 12.8,64.478 64.478,12.8 128,12.8 c 63.521,0 115.2,51.678 115.2,115.2 z"
     id="path3"
     style="fill:#627a8f;fill-opacity:1"
     inkscape:connector-curvature="0"
     sodipodi:nodetypes="ssssssssss" /><g
     id="g3011"
     transform="matrix(0.245,0,0,0.245,65.370937,64.05896)"
     style="fill:#627a8f;fill-opacity:1"><g
       style="fill:#627a8f;fill-opacity:1"
       id="g14">
	<g
   style="fill:#627a8f;fill-opacity:1"
   id="g12">
		<g
   style="fill:#627a8f;fill-opacity:1"
   id="g10">
			<polygon
   style="fill:#627a8f;fill-opacity:1"
   id="polygon2"
   points="353.574,176.526 313.496,175.056 304.807,412.34 344.885,413.804 " />
			<rect
   style="fill:#627a8f;fill-opacity:1"
   id="rect4"
   height="237.285"
   width="40.104"
   y="175.791"
   x="235.948" />
			<polygon
   style="fill:#627a8f;fill-opacity:1"
   id="polygon6"
   points="207.186,412.334 198.497,175.049 158.419,176.52 167.109,413.804 " />
			<path
   style="fill:#627a8f;fill-opacity:1"
   id="path8"
   d="m 17.379,76.867 v 40.104 H 59.168 L 92.32,493.706 C 93.229,504.059 101.899,512 112.292,512 h 286.74 c 10.394,0 19.07,-7.947 19.972,-18.301 l 33.153,-376.728 h 42.464 V 76.867 H 17.379 z M 380.665,471.896 H 130.654 L 99.426,116.971 H 411.9 l -31.235,354.925 z"
   inkscape:connector-curvature="0" />
		</g>
	</g>
</g><g
       style="fill:#627a8f;fill-opacity:1"
       id="g20">
	<g
   style="fill:#627a8f;fill-opacity:1"
   id="g18">
		<path
   style="fill:#627a8f;fill-opacity:1"
   id="path16"
   d="M 321.504,0 H 190.496 c -18.428,0 -33.42,14.992 -33.42,33.42 V 96.919 H 197.18 V 40.104 h 117.64 v 56.815 h 40.104 V 33.42 C 354.924,14.992 339.932,0 321.504,0 z"
   inkscape:connector-curvature="0" />
	</g>
</g><g
       id="g22"
       style="fill:#627a8f;fill-opacity:1">
</g><g
       id="g24"
       style="fill:#627a8f;fill-opacity:1">
</g><g
       id="g26"
       style="fill:#627a8f;fill-opacity:1">
</g><g
       id="g28"
       style="fill:#627a8f;fill-opacity:1">
</g><g
       id="g30"
       style="fill:#627a8f;fill-opacity:1">
</g><g
       id="g32"
       style="fill:#627a8f;fill-opacity:1">
</g><g
       id="g34"
       style="fill:#627a8f;fill-opacity:1">
</g><g
       id="g36"
       style="fill:#627a8f;fill-opacity:1">
</g><g
       id="g38"
       style="fill:#627a8f;fill-opacity:1">
</g><g
       id="g40"
       style="fill:#627a8f;fill-opacity:1">
</g><g
       id="g42"
       style="fill:#627a8f;fill-opacity:1">
</g><g
       id="g44"
       style="fill:#627a8f;fill-opacity:1">
</g><g
       id="g46"
       style="fill:#627a8f;fill-opacity:1">
</g><g
       id="g48"
       style="fill:#627a8f;fill-opacity:1">
</g><g
       id="g50"
       style="fill:#627a8f;fill-opacity:1">
</g></g></svg>