<?xml version="1.0" encoding="UTF-8" standalone="no"?>
<svg
   xmlns:dc="http://purl.org/dc/elements/1.1/"
   xmlns:cc="http://creativecommons.org/ns#"
   xmlns:rdf="http://www.w3.org/1999/02/22-rdf-syntax-ns#"
   xmlns:svg="http://www.w3.org/2000/svg"
   xmlns="http://www.w3.org/2000/svg"
   xmlns:sodipodi="http://sodipodi.sourceforge.net/DTD/sodipodi-0.dtd"
   xmlns:inkscape="http://www.inkscape.org/namespaces/inkscape"
   height="512px"
   id="Layer_1"
   style="enable-background:new 0 0 512 512;"
   version="1.1"
   viewBox="0 0 512 512"
   width="512px"
   xml:space="preserve"
   inkscape:version="0.91 r13725"
   sodipodi:docname="navigate_down.svg"><metadata
     id="metadata9"><rdf:RDF><cc:Work
         rdf:about=""><dc:format>image/svg+xml</dc:format><dc:type
           rdf:resource="http://purl.org/dc/dcmitype/StillImage" /><dc:title></dc:title></cc:Work></rdf:RDF></metadata><defs
     id="defs7" /><sodipodi:namedview
     pagecolor="#ffffff"
     bordercolor="#666666"
     borderopacity="1"
     objecttolerance="10"
     gridtolerance="10"
     guidetolerance="10"
     inkscape:pageopacity="0"
     inkscape:pageshadow="2"
     inkscape:window-width="1920"
     inkscape:window-height="1058"
     id="namedview5"
     showgrid="false"
     inkscape:zoom="0.921875"
     inkscape:cx="280.09088"
     inkscape:cy="179.61606"
     inkscape:window-x="-8"
     inkscape:window-y="-8"
     inkscape:window-maximized="1"
     inkscape:current-layer="Layer_1" /><polygon
     points="396.6,160 416,180.7 256,352 96,180.7 115.3,160 256,310.5 "
     id="polygon3" /><path
     style="fill:#239de8;fill-opacity:1;stroke:#ffffff;stroke-opacity:1;stroke-width:0;stroke-miterlimit:4;stroke-dasharray:none;opacity:0.99999999"
     d="m 175.73628,265.85724 -79.50701,-85.16091 9.54091,-10.3309 9.5409,-10.33091 4.88136,5.39343 c 17.38513,19.20891 135.1051,144.40809 135.78138,144.40809 0.4579,0 32.20967,-33.65648 70.55949,-74.79218 l 69.72692,-74.79218 9.4955,9.96672 c 5.22252,5.48169 9.37006,10.34298 9.21677,10.80287 -0.44557,1.33671 -158.2347,170.03714 -159.0196,170.016 -0.39029,-0.0109 -36.48777,-38.34154 -80.21662,-85.18003 z"
     id="path4177"
     inkscape:connector-curvature="0" /><path
     style="opacity:1;fill:#239de8;fill-opacity:1;stroke:#ffffff;stroke-width:0;stroke-miterlimit:4;stroke-dasharray:none;stroke-opacity:1"
     d="m 259.27931,347.67558 c 3.72156,-3.82806 20.51137,-21.61976 40.48387,-42.89962 l 5.63915,-6.00829 0.15563,0 0.15563,0 -0.10467,0.11017 c -0.0576,0.0606 -10.41216,11.14661 -23.0102,24.63559 l -22.90553,24.52543 -0.39286,0.01 -0.39287,0.01 0.37185,-0.38249 z"
     id="path4179"
     inkscape:connector-curvature="0" /><path
     style="opacity:1;fill:#239de8;fill-opacity:1;stroke:#ffffff;stroke-width:0;stroke-miterlimit:4;stroke-dasharray:none;stroke-opacity:1"
     d="m 305.47753,298.697 c 0.039,-0.0432 3.60076,-3.84626 7.9151,-8.45134 7.9833,-8.52129 18.8113,-20.08826 24.16445,-25.81356 2.74845,-2.93952 2.9722,-3.17029 3.08381,-3.18051 l 0.12035,-0.011 -0.0728,0.0788 c -0.04,0.0433 -7.92264,8.4839 -17.51693,18.75678 l -17.44417,18.67796 -0.16034,0.0107 -0.16035,0.0107 0.0708,-0.0784 z"
     id="path4183"
     inkscape:connector-curvature="0" /><path
     style="opacity:1;fill:#239de8;fill-opacity:1;stroke:#ffffff;stroke-width:0;stroke-miterlimit:4;stroke-dasharray:none;stroke-opacity:1"
     d="m 233.53945,327.94702 c -12.3528,-13.22453 -22.56389,-24.16187 -22.69132,-24.3052 -0.21671,-0.24378 -0.22419,-0.26061 -0.1157,-0.26061 0.0919,0 0.98686,0.92866 4.30653,4.46858 22.27699,23.75496 40.01321,42.4889 40.78698,43.08137 l 0.16244,0.12437 1.46854,-1.49959 1.46855,-1.4996 0.36259,0.0142 0.36259,0.0142 -1.43598,1.53406 c -0.78979,0.84373 -1.6114,1.72278 -1.82579,1.95343 l -0.3898,0.41938 -22.45963,-24.04459 z"
     id="path4185"
     inkscape:connector-curvature="0" /><path
     style="opacity:1;fill:#239de8;fill-opacity:1;stroke:#ffffff;stroke-width:0;stroke-miterlimit:4;stroke-dasharray:none;stroke-opacity:1"
     d="m 215.60865,308.76948 c -4.19322,-4.48566 -4.97409,-5.34231 -4.91339,-5.39023 0.0608,-0.048 -0.27185,-0.42319 -2.10347,-2.373 -9.38348,-9.98895 -52.86908,-56.52903 -52.86908,-56.58267 0,-0.0136 8.60445,-0.0248 19.121,-0.0248 l 19.121,0 5.60377,5.95641 c 12.09546,12.85665 17.28259,18.34889 17.32954,18.34889 0.027,0 0.0373,0.0189 0.023,0.0421 -0.0143,0.0232 0.1623,0.2227 0.39246,0.44344 0.23015,0.22075 0.41364,0.41611 0.40775,0.43414 -0.006,0.018 0.16679,0.19827 0.38374,0.40052 0.21694,0.20226 0.38951,0.38564 0.3835,0.40752 -0.006,0.0219 0.18236,0.21644 0.41862,0.43238 0.23626,0.21593 0.41954,0.40882 0.40729,0.42865 -0.0123,0.0198 0.17158,0.21322 0.40852,0.42977 0.23694,0.21656 0.41975,0.41161 0.40626,0.43344 -0.0135,0.0218 0.0404,0.09 0.11976,0.15154 0.0794,0.0615 1.3577,1.40619 2.84074,2.98819 6.55674,6.99423 7.89959,8.42293 10.70058,11.38473 1.63372,1.7275 4.55144,4.80639 6.48381,6.84197 l 3.51341,3.70105 0,8.43962 0,8.43961 -11.59662,0 -11.59662,0 -4.98557,-5.33327 z"
     id="path4189"
     inkscape:connector-curvature="0" /><path
     style="opacity:1;fill:#239de8;fill-opacity:1;stroke:#ffffff;stroke-width:0;stroke-miterlimit:4;stroke-dasharray:none;stroke-opacity:1"
     d="m 183.28219,274.13555 c -15.03906,-16.10103 -27.43924,-29.38058 -27.55593,-29.51011 -0.17172,-0.19061 -0.19302,-0.23239 -0.11172,-0.2191 0.0595,0.01 1.0841,1.07305 2.51038,2.60516 8.10923,8.71093 40.47543,43.34266 49.08183,52.51738 3.43213,3.65878 3.55596,3.79673 3.46098,3.85543 -0.023,0.0142 -12.34647,-13.14774 -27.38554,-29.24876 z"
     id="path4191"
     inkscape:connector-curvature="0" /><path
     style="opacity:1;fill:#239de8;fill-opacity:1;stroke:#ffffff;stroke-width:0;stroke-miterlimit:4;stroke-dasharray:none;stroke-opacity:1"
     d="m 216.66837,268.47223 c -0.70543,-0.71342 -4.31803,-4.53722 -12.83734,-13.58783 l -3.17568,-3.37374 0.0842,-0.004 c 0.0463,-0.002 0.0909,-0.001 0.099,0.002 0.008,0.003 3.61344,3.85547 8.01173,8.56075 4.3983,4.70528 8.01336,8.57259 8.03347,8.59401 0.0201,0.0214 0.0312,0.0389 0.0246,0.0389 -0.007,0 -0.11459,-0.10382 -0.24006,-0.23071 z"
     id="path4193"
     inkscape:connector-curvature="0" /><path
     style="opacity:1;fill:#239de8;fill-opacity:1;stroke:#ffffff;stroke-width:0;stroke-miterlimit:4;stroke-dasharray:none;stroke-opacity:1"
     d="m 362.26053,237.98049 c 0.15988,-0.16479 1.04445,-1.1086 1.9657,-2.09735 0.92126,-0.98875 4.63003,-4.96892 8.24172,-8.84483 23.91662,-25.66624 38.89925,-41.86129 41.86692,-45.25483 0.38837,-0.4441 0.62893,-0.75859 0.62905,-0.82238 4.8e-4,-0.25243 -1.17812,-1.81528 -2.74206,-3.63599 -1.94433,-2.26354 -4.21066,-4.73988 -7.36836,-8.05115 l -0.64258,-0.67383 0.20631,-0.0151 c 0.12588,-0.009 0.22998,0.009 0.26703,0.0479 0.97205,1.00895 11.28321,12.05728 11.27477,12.08083 -0.007,0.0186 -12.10324,12.97869 -26.88125,28.8001 -21.88842,23.43387 -26.89123,28.7662 -26.98852,28.7662 -0.109,0 -0.0941,-0.0261 0.17127,-0.29962 z"
     id="path4195"
     inkscape:connector-curvature="0" /><path
     style="opacity:1;fill:#239de8;fill-opacity:1;stroke:#ffffff;stroke-width:0;stroke-miterlimit:4;stroke-dasharray:none;stroke-opacity:1"
     d="m 404.41715,168.59458 -0.22115,-0.012 -3.94031,-4.13478 -3.94032,-4.13478 0.13456,-0.14381 c 0.074,-0.0791 0.14229,-0.14382 0.15175,-0.14382 0.0188,0 8.05742,8.57084 8.04456,8.57722 -0.004,0.002 -0.10745,-0.001 -0.22909,-0.008 z"
     id="path4198"
     inkscape:connector-curvature="0" /></svg>