<?xml version="1.0" encoding="UTF-8" standalone="no"?>
<svg
   xmlns:dc="http://purl.org/dc/elements/1.1/"
   xmlns:cc="http://creativecommons.org/ns#"
   xmlns:rdf="http://www.w3.org/1999/02/22-rdf-syntax-ns#"
   xmlns:svg="http://www.w3.org/2000/svg"
   xmlns="http://www.w3.org/2000/svg"
   xmlns:sodipodi="http://sodipodi.sourceforge.net/DTD/sodipodi-0.dtd"
   xmlns:inkscape="http://www.inkscape.org/namespaces/inkscape"
   width="30px"
   height="30px"
   viewBox="0 0 30 30"
   version="1.1"
   id="svg2"
   inkscape:version="0.91 r13725"
   sodipodi:docname="tools.svg">
  <metadata
     id="metadata19">
    <rdf:RDF>
      <cc:Work
         rdf:about="">
        <dc:format>image/svg+xml</dc:format>
        <dc:type
           rdf:resource="http://purl.org/dc/dcmitype/StillImage" />
      </cc:Work>
    </rdf:RDF>
  </metadata>
  <sodipodi:namedview
     pagecolor="#ffffff"
     bordercolor="#666666"
     borderopacity="1"
     objecttolerance="10"
     gridtolerance="10"
     guidetolerance="10"
     inkscape:pageopacity="0"
     inkscape:pageshadow="2"
     inkscape:window-width="1920"
     inkscape:window-height="1018"
     id="namedview17"
     showgrid="false"
     inkscape:zoom="7.8666667"
     inkscape:cx="15"
     inkscape:cy="15"
     inkscape:window-x="-8"
     inkscape:window-y="-8"
     inkscape:window-maximized="1"
     inkscape:current-layer="svg2" />
  <!-- Generator: Sketch 40.3 (33839) - http://www.bohemiancoding.com/sketch -->
  <title
     id="title4">Icon - Tools</title>
  <desc
     id="desc6">Created with Sketch.</desc>
  <defs
     id="defs8" />
  <g
     id="Proposition"
     stroke="none"
     stroke-width="1"
     fill="none"
     fill-rule="evenodd"
     style="fill:#ffffff;fill-opacity:1">
    <g
       id="Widget---Updated-Today"
       transform="translate(-1841.000000, -725.000000)"
       fill="#239DE8"
       style="fill:#ffffff;fill-opacity:1">
      <g
         id="Style-02-/-Board-03"
         transform="translate(34.000000, 34.000000)"
         style="fill:#ffffff;fill-opacity:1">
        <g
           id="Style03-/-Menu-Copy"
           transform="translate(1790.000000, 552.000000)"
           style="fill:#ffffff;fill-opacity:1">
          <g
             id="Icon---Tools"
             transform="translate(17.000000, 139.000000)"
             style="fill:#ffffff;fill-opacity:1">
            <path
               d="M7.54170817,16.3278137 L8.52090759,21.9790924 L14.1721863,22.9582918 C14.7124328,23.0519006 15.4721563,22.8060183 15.8594768,22.4186978 L27.4581742,10.8200003 C27.8497925,10.4283821 27.8527146,9.79636546 27.4632823,9.4069331 L21.0930669,3.03671771 C20.7042697,2.64792051 20.0673201,2.65450529 19.6799997,3.04182576 L8.0813022,14.6405232 C7.68968391,15.0321415 7.44758351,15.7845897 7.54170817,16.3278137 Z M18.2657861,1.62761219 C19.432051,0.461347313 21.3352681,0.450491803 22.5072805,1.62250415 L28.8774959,7.99271954 C30.0502543,9.16547803 30.0428005,11.0638013 28.8723878,12.2342139 L17.2736904,23.8329114 C16.4268909,24.6797108 15.0125558,25.1337036 13.8307332,24.9289287 L8.17945451,23.9497293 C7.34671604,23.8054404 6.69455963,23.153284 6.55027069,22.3205455 L5.57107127,16.6692668 C5.36567471,15.4838563 5.81644896,14.0769493 6.66708864,13.2263096 L18.2657861,1.62761219 Z"
               id="Path-2-Copy-4"
               style="fill:#ffffff;fill-opacity:1" />
            <path
               d="M23,27.2891377 C23,27.6819946 22.6822055,28 22.2900523,28 L2.70994773,28 C2.3177156,28 2,27.6823253 2,27.2900523 L2,7.70994773 C2,7.31462974 2.31268934,7 2.70306849,7 L7.66293004,7 C8.21521479,7 8.66293004,6.55228475 8.66293004,6 C8.66293004,5.44771525 8.21521479,5 7.66293004,5 L2.70306849,5 C1.20534069,5 0,6.21282044 0,7.70994773 L0,27.2900523 C0,28.7869524 1.21320371,30 2.70994773,30 L22.2900523,30 C23.7870721,30 25,28.7862672 25,27.2891377 L25,21.9454793 C25,21.3931946 24.5522847,20.9454793 24,20.9454793 C23.4477153,20.9454793 23,21.3931946 23,21.9454793 L23,27.2891377 Z"
               id="Rectangle-2"
               style="fill:#ffffff;fill-opacity:1" />
          </g>
        </g>
      </g>
    </g>
  </g>
</svg>
