<?xml version="1.0" encoding="UTF-8" standalone="no"?>
<svg
   xmlns:dc="http://purl.org/dc/elements/1.1/"
   xmlns:cc="http://creativecommons.org/ns#"
   xmlns:rdf="http://www.w3.org/1999/02/22-rdf-syntax-ns#"
   xmlns:svg="http://www.w3.org/2000/svg"
   xmlns="http://www.w3.org/2000/svg"
   xmlns:sodipodi="http://sodipodi.sourceforge.net/DTD/sodipodi-0.dtd"
   xmlns:inkscape="http://www.inkscape.org/namespaces/inkscape"
   width="31px"
   height="31px"
   viewBox="0 0 31 31"
   version="1.1"
   id="svg2"
   inkscape:version="0.92.2 (5c3e80d, 2017-08-06)"
   sodipodi:docname="PanelViewCustomize.svg">
  <metadata
     id="metadata18">
    <rdf:RDF>
      <cc:Work
         rdf:about="">
        <dc:format>image/svg+xml</dc:format>
        <dc:type
           rdf:resource="http://purl.org/dc/dcmitype/StillImage" />
      </cc:Work>
    </rdf:RDF>
  </metadata>
  <sodipodi:namedview
     pagecolor="#ffffff"
     bordercolor="#666666"
     borderopacity="1"
     objecttolerance="10"
     gridtolerance="10"
     guidetolerance="10"
     inkscape:pageopacity="0"
     inkscape:pageshadow="2"
     inkscape:window-width="1920"
     inkscape:window-height="976"
     id="namedview16"
     showgrid="false"
     inkscape:zoom="15.225806"
     inkscape:cx="6.0276782"
     inkscape:cy="15.911411"
     inkscape:window-x="1912"
     inkscape:window-y="-8"
     inkscape:window-maximized="1"
     inkscape:current-layer="svg2" />
  <!-- Generator: Sketch 40.3 (33839) - http://www.bohemiancoding.com/sketch -->
  <title
     id="title4">Icon - Settings</title>
  <desc
     id="desc6">Created with Sketch.</desc>
  <defs
     id="defs8" />
  <g
     id="Proposition"
     stroke="none"
     stroke-width="1"
     fill="none"
     fill-rule="evenodd"
     style="stroke:#ffffff;stroke-opacity:1;fill:#ffffff;fill-opacity:1">
    <g
       id="Widget---Updated-Today"
       transform="translate(-1841.000000, -864.000000)"
       fill="#239DE8"
       style="stroke:#ffffff;stroke-opacity:1;fill:#ffffff;fill-opacity:1">
      <g
         id="Style-02-/-Board-03"
         transform="translate(34.000000, 34.000000)"
         style="stroke:#ffffff;stroke-opacity:1;fill:#ffffff;fill-opacity:1">
        <g
           id="Style03-/-Menu-Copy"
           transform="translate(1790.000000, 552.000000)"
           style="stroke:#ffffff;stroke-opacity:1;fill:#ffffff;fill-opacity:1">
          <g
             id="Icon---Settings"
             transform="translate(16.000000, 278.000000)"
             style="stroke:#ffffff;stroke-opacity:1;fill:#ffffff;fill-opacity:1">
            <path
               style="stroke:#ffffff;stroke-opacity:1;fill:#ffffff;fill-opacity:1"
               d="M 15.595703 0.001953125 C 13.943764 -0.0053795706 13.039174 0.00013131344 12.716797 0.033203125 C 11.437272 0.1644663 10.589848 0.83306665 10.197266 2.0527344 C 10.133528 2.2507524 10.099609 2.4579926 10.099609 2.6660156 L 10.099609 3.1835938 C 9.5271478 3.4283695 8.970303 3.710906 8.4296875 4.0371094 L 7.2734375 3.2617188 C 6.073135 2.4664887 4.4717806 2.7406101 3.6210938 3.8925781 L 0.51171875 8.1035156 C -0.39185541 9.3271016 -0.06036107 11.025524 1.1894531 11.853516 L 2.3261719 12.603516 C 2.1693582 13.39249 2.0800781 14.196346 2.0800781 15.011719 C 2.0800781 15.891795 2.186172 16.760798 2.3730469 17.615234 L 1.4511719 18.234375 C 0.20068458 19.076994 -0.10261011 20.784267 0.8125 21.996094 L 3.96875 26.179688 C 4.8310887 27.322655 6.4480096 27.580357 7.6289062 26.787109 L 8.6152344 26.099609 C 9.1018947 26.387905 9.5950804 26.634676 10.099609 26.849609 L 10.099609 27.916016 C 10.099609 29.299442 11.287879 31 12.921875 31 L 18.361328 31 C 20.300726 31 20.900391 29.451079 20.900391 27.916016 L 20.900391 26.863281 C 21.490985 26.62325 22.060983 26.34671 22.605469 26.033203 L 23.509766 26.621094 C 24.681599 27.395794 26.314981 27.130639 27.169922 25.976562 L 30.294922 21.767578 C 31.197996 20.551218 30.890091 18.844056 29.626953 18.011719 L 28.923828 17.544922 C 29.099852 16.713774 29.201172 15.867837 29.201172 15.011719 C 29.201172 14.148335 29.097105 13.296957 28.917969 12.458984 L 29.830078 11.845703 C 31.080651 11.005652 31.384129 9.2981199 30.46875 8.0859375 L 27.314453 3.9003906 C 26.44927 2.7572208 24.834696 2.5020084 23.654297 3.2949219 L 22.59375 3.9863281 C 22.053001 3.6753447 21.486653 3.4003972 20.900391 3.1621094 L 20.900391 2.6660156 C 20.900391 1.7982323 20.677511 1.0707736 19.953125 0.515625 C 19.59296 0.23960455 19.211044 0.10448836 18.8125 0.05078125 C 18.627952 0.025911916 18.524849 0.0234375 18.292969 0.0234375 C 18.245563 0.02282175 18.245813 0.022414473 17.949219 0.01953125 C 17.663524 0.01682977 17.352206 0.014239882 17.027344 0.01171875 C 16.532203 0.0078761537 16.050139 0.0039702957 15.595703 0.001953125 z M 15.794922 2.0039062 C 17.074837 2.0103653 18.292969 2.0234375 18.292969 2.0234375 C 18.668308 2.0234375 18.898438 2.0217522 18.898438 2.6640625 L 18.898438 4.5742188 C 18.899035 4.5743888 18.899794 4.5740486 18.900391 4.5742188 C 20.259638 4.9615625 21.526841 5.5787227 22.605469 6.3632812 L 24.767578 4.9550781 C 25.073562 4.7495388 25.498529 4.8170714 25.716797 5.1054688 L 28.873047 9.2910156 C 29.091315 9.5800553 29.018874 9.9800076 28.712891 10.185547 L 26.615234 11.597656 C 26.989894 12.672884 27.199219 13.818306 27.199219 15.011719 C 27.199219 16.20192 26.99176 17.345311 26.619141 18.417969 L 28.525391 19.681641 C 28.833414 19.884611 28.905001 20.283894 28.689453 20.574219 L 25.5625 24.785156 C 25.346952 25.076123 24.90568 25.146972 24.597656 24.943359 L 22.617188 23.658203 L 22.615234 23.65625 L 22.613281 23.65625 C 21.531935 24.443377 20.259643 25.061232 18.900391 25.449219 C 18.899794 25.449389 18.899035 25.449048 18.898438 25.449219 L 18.898438 27.914062 C 18.898438 28.268618 18.736668 29 18.361328 29 L 12.919922 29 C 12.543902 29 12.099609 28.268618 12.099609 27.914062 L 12.099609 25.449219 C 10.740626 25.067309 9.6450483 24.461417 8.5761719 23.691406 C 8.5754303 23.690872 8.5749603 23.689987 8.5742188 23.689453 L 6.5117188 25.125 C 6.2057353 25.330539 5.7820413 25.26496 5.5644531 24.976562 L 2.4082031 20.791016 C 2.189935 20.501976 2.2604229 20.100713 2.5664062 19.894531 L 4.6796875 18.472656 L 4.6816406 18.470703 L 4.6835938 18.470703 L 4.6796875 18.464844 C 4.2961088 17.37845 4.0800781 16.219676 4.0800781 15.011719 C 4.0800781 13.865403 4.2679612 12.760734 4.6152344 11.722656 C 4.6154892 11.721895 4.6169325 11.721465 4.6171875 11.720703 C 4.6173851 11.720113 4.6169898 11.71934 4.6171875 11.71875 L 2.2929688 10.185547 C 1.9856254 9.9819345 1.9062254 9.5819822 2.1210938 9.2910156 L 5.2304688 5.0800781 C 5.4453371 4.7891115 5.8508598 4.7182626 6.1582031 4.921875 L 8.421875 6.4414062 C 8.4223065 6.4410849 8.4233966 6.4417276 8.4238281 6.4414062 C 8.4245563 6.440864 8.425053 6.4399952 8.4257812 6.4394531 C 9.5304639 5.6172533 10.74111 4.9739584 12.099609 4.5742188 L 12.099609 2.6640625 C 12.244662 2.2134141 12.416228 2.0751102 12.919922 2.0234375 C 13.171769 1.9976012 14.515007 1.9974472 15.794922 2.0039062 z M 15.5 8 C 11.357582 8 8 11.357582 8 15.5 C 8 19.642418 11.357582 23 15.5 23 C 19.642418 23 23 19.642418 23 15.5 C 23 11.357582 19.642418 8 15.5 8 z M 15.5 10 C 18.537833 10 21 12.462167 21 15.5 C 21 18.537833 18.537833 21 15.5 21 C 12.462167 21 10 18.537833 10 15.5 C 10 12.462167 12.462167 10 15.5 10 z "
               transform="translate(1)"
               id="Combined-Shape" />
          </g>
        </g>
      </g>
    </g>
  </g>
</svg>
