<?xml version="1.0" encoding="UTF-8" standalone="no"?>
<svg
   xmlns:dc="http://purl.org/dc/elements/1.1/"
   xmlns:cc="http://creativecommons.org/ns#"
   xmlns:rdf="http://www.w3.org/1999/02/22-rdf-syntax-ns#"
   xmlns:svg="http://www.w3.org/2000/svg"
   xmlns="http://www.w3.org/2000/svg"
   xmlns:sodipodi="http://sodipodi.sourceforge.net/DTD/sodipodi-0.dtd"
   xmlns:inkscape="http://www.inkscape.org/namespaces/inkscape"
   id="Layer_1"
   style="enable-background:new 0 0 64 64;"
   version="1.1"
   viewBox="0 0 64 64"
   xml:space="preserve"
   sodipodi:docname="ImageChooser.svg"
   inkscape:version="0.91 r13725"><metadata
     id="metadata16"><rdf:RDF><cc:Work
         rdf:about=""><dc:format>image/svg+xml</dc:format><dc:type
           rdf:resource="http://purl.org/dc/dcmitype/StillImage" /></cc:Work></rdf:RDF></metadata><defs
     id="defs14" /><sodipodi:namedview
     pagecolor="#ffffff"
     bordercolor="#666666"
     borderopacity="1"
     objecttolerance="10"
     gridtolerance="10"
     guidetolerance="10"
     inkscape:pageopacity="0"
     inkscape:pageshadow="2"
     inkscape:window-width="1920"
     inkscape:window-height="1018"
     id="namedview12"
     showgrid="false"
     inkscape:zoom="3.6875"
     inkscape:cx="-16.40678"
     inkscape:cy="32"
     inkscape:window-x="1912"
     inkscape:window-y="-8"
     inkscape:window-maximized="1"
     inkscape:current-layer="Layer_1" /><style
     type="text/css"
     id="style2">
	.st0{fill:#134563;}
</style><g
     id="g9"
     style="fill:#627a8f;fill-opacity:1"><g
       id="Icon-Image"
       transform="translate(278.000000, 232.000000)"
       style="fill:#627a8f;fill-opacity:1"><path
         class="st0"
         d="M-226.2-181.6h-39.5c-2.3,0-4.2-1.9-4.2-4.2v-28.2c0-2.3,1.9-4.2,4.2-4.2h39.5     c2.3,0,4.2,1.9,4.2,4.2v28.2C-222-183.5-223.9-181.6-226.2-181.6L-226.2-181.6z M-265.8-215.5c-0.8,0-1.4,0.6-1.4,1.4v28.2     c0,0.8,0.6,1.4,1.4,1.4h39.5c0.8,0,1.4-0.6,1.4-1.4v-28.2c0-0.8-0.6-1.4-1.4-1.4H-265.8L-265.8-215.5z"
         id="Fill-12"
         style="fill:#627a8f;fill-opacity:1" /><path
         class="st0"
         d="M-238.9-201.5c-3.1,0-5.5-2.5-5.5-5.5s2.5-5.5,5.5-5.5s5.5,2.5,5.5,5.5     S-235.9-201.5-238.9-201.5L-238.9-201.5z M-238.9-210c-1.6,0-2.9,1.3-2.9,2.9c0,1.6,1.3,2.9,2.9,2.9c1.6,0,2.9-1.3,2.9-2.9     C-236-208.7-237.3-210-238.9-210L-238.9-210z"
         id="Fill-13"
         style="fill:#627a8f;fill-opacity:1" /><polyline
         class="st0"
         id="Fill-14"
         points="-231.4,-182.1 -254.5,-203.8 -267.7,-191.6 -269.5,-193.5 -254.5,-207.4 -229.6,-184      -231.4,-182.1    "
         style="fill:#627a8f;fill-opacity:1" /><polyline
         class="st0"
         id="Fill-15"
         points="-224.2,-189.3 -231.9,-195.5 -238.3,-190.2 -240,-192.3 -231.9,-198.9 -222.6,-191.3      -224.2,-189.3    "
         style="fill:#627a8f;fill-opacity:1" /></g></g></svg>