<?xml version="1.0" encoding="UTF-8"?>
<svg width="31px" height="30px" viewBox="0 0 31 30" version="1.1" xmlns="http://www.w3.org/2000/svg" xmlns:xlink="http://www.w3.org/1999/xlink">
    <!-- Generator: Sketch 40.3 (33839) - http://www.bohemiancoding.com/sketch -->
    <title>Icon - Delete</title>
    <desc>Created with Sketch.</desc>
    <defs></defs>
    <g id="Proposition" stroke="none" stroke-width="1" fill="none" fill-rule="evenodd">
        <g id="Tools---06" transform="translate(-280.000000, -567.000000)" fill="#FFFFFF">
            <g id="Icon---Delete" transform="translate(280.000000, 567.000000)">
                <path d="M12,7 L19,7 L19,2.99980749 C19,2.44371665 18.5509732,2 17.9970707,2 L13.0029293,2 C12.4378814,2 12,2.44762906 12,2.99980749 L12,7 Z M8,7 L10,7 L10,2.99980749 C10,1.34124152 11.3351018,0 13.0029293,0 L17.9970707,0 C19.6543027,0 21,1.33788242 21,2.99980749 L21,7 L23,7 L30,7 C30.5522847,7 31,7.44771525 31,8 C31,8.55228475 30.5522847,9 30,9 L27.0004064,9 C27.0002135,9.09769952 26.9928586,9.19677471 26.9778727,9.29668091 L24.2770884,27.3019097 C24.0480867,28.8285878 22.6993105,30 21.1503384,30 L9.84966165,30 C8.30578352,30 6.9510881,28.8230863 6.72291162,27.3019097 L4.02212729,9.29668091 C4.00714137,9.19677471 3.9997865,9.09769952 3.99959364,9 L1,9 C0.44771525,9 0,8.55228475 0,8 C0,7.44771525 0.44771525,7 1,7 L8,7 Z M6,9 L8.70078432,27.0052288 C8.78236119,27.5490746 9.29756376,28 9.84966165,28 L21.1503384,28 C21.7074852,28 22.2168061,27.5546258 22.2992157,27.0052288 L25,9 L6,9 Z" id="Combined-Shape"></path>
            </g>
        </g>
    </g>
</svg>