<?xml version="1.0" encoding="UTF-8"?>
<svg width="29px" height="30px" viewBox="0 0 29 30" version="1.1" xmlns="http://www.w3.org/2000/svg" xmlns:xlink="http://www.w3.org/1999/xlink">
    <!-- Generator: Sketch 40.3 (33839) - http://www.bohemiancoding.com/sketch -->
    <title>Icon - Pen</title>
    <desc>Created with Sketch.</desc>
    <defs></defs>
    <g id="Proposition" stroke="none" stroke-width="1" fill="none" fill-rule="evenodd">
        <g id="Tools---06" transform="translate(-31.000000, -566.000000)" fill="#FFFFFF">
            <g id="Icon---Pen" transform="translate(30.642136, 566.000000)">
                <path d="M2.71548313,19.0656289 L3.83234003,25.9955241 L10.7622353,27.112381 C11.3071339,27.2001996 12.0639044,26.9563479 12.4571719,26.5630804 L26.8121069,12.2081454 C27.2032959,11.8169564 27.2039944,11.1834123 26.8143694,10.7937873 L19.0340768,3.01349472 C18.6441374,2.62355531 18.0129862,2.62248976 17.6197187,3.01575728 L3.26478377,17.3706922 C2.87359478,17.7618812 2.62872518,18.5273115 2.71548313,19.0656289 Z M16.2055052,1.60154372 C17.3787331,0.428315757 19.2762146,0.427205374 20.4482904,1.59928116 L28.228583,9.37957378 C29.4002821,10.5512729 29.3975351,12.4511444 28.2263204,13.622359 L13.8713855,27.9772939 C13.0248292,28.8238503 11.623913,29.277061 10.4440115,29.0869021 L3.51411624,27.9700452 C2.66264604,27.832818 1.99504615,27.1652181 1.85781892,26.3137479 L0.740962014,19.3838527 C0.551736595,18.2097431 1.00665322,16.8003956 1.85057021,15.9564787 L16.2055052,1.60154372 Z" id="Path-2-Copy-4"></path>
            </g>
        </g>
    </g>
</svg>