<?xml version="1.0" encoding="UTF-8" standalone="no"?>
<svg
   xmlns:dc="http://purl.org/dc/elements/1.1/"
   xmlns:cc="http://creativecommons.org/ns#"
   xmlns:rdf="http://www.w3.org/1999/02/22-rdf-syntax-ns#"
   xmlns:svg="http://www.w3.org/2000/svg"
   xmlns="http://www.w3.org/2000/svg"
   xmlns:sodipodi="http://sodipodi.sourceforge.net/DTD/sodipodi-0.dtd"
   xmlns:inkscape="http://www.inkscape.org/namespaces/inkscape"
   width="32px"
   height="33px"
   viewBox="0 0 32 33"
   version="1.1"
   id="svg8088"
   inkscape:version="0.91 r13725"
   sodipodi:docname="Icon - Erase - Unselected.svg">
  <metadata
     id="metadata8102">
    <rdf:RDF>
      <cc:Work
         rdf:about="">
        <dc:format>image/svg+xml</dc:format>
        <dc:type
           rdf:resource="http://purl.org/dc/dcmitype/StillImage" />
        <dc:title>Icon - Erase</dc:title>
      </cc:Work>
    </rdf:RDF>
  </metadata>
  <sodipodi:namedview
     pagecolor="#ffffff"
     bordercolor="#666666"
     borderopacity="1"
     objecttolerance="10"
     gridtolerance="10"
     guidetolerance="10"
     inkscape:pageopacity="0"
     inkscape:pageshadow="2"
     inkscape:window-width="1920"
     inkscape:window-height="1018"
     id="namedview8100"
     showgrid="false"
     inkscape:zoom="25.727273"
     inkscape:cx="9.9752651"
     inkscape:cy="14.94523"
     inkscape:window-x="-8"
     inkscape:window-y="-8"
     inkscape:window-maximized="1"
     inkscape:current-layer="svg8088" />
  <!-- Generator: Sketch 40.3 (33839) - http://www.bohemiancoding.com/sketch -->
  <title
     id="title8090">Icon - Erase</title>
  <desc
     id="desc8092">Created with Sketch.</desc>
  <defs
     id="defs8094" />
  <g
     id="Proposition"
     transform="translate(-0.11660777,0)"
     style="fill:#8da3b7;fill-rule:evenodd;stroke:none;stroke-width:1;fill-opacity:1">
    <g
       id="Tools---06"
       transform="translate(-66,-566)"
       style="fill:#8da3b7;fill-opacity:1">
      <g
         id="Icon---Erase"
         transform="translate(65.642136,566)"
         style="fill:#8da3b7;fill-opacity:1">
        <path
           d="m 20.889087,21.303301 -8.636702,8.636702 c -0.387777,0.387777 -1.018555,0.38571 -1.40818,-0.0039 L 3.0639121,22.155795 C 2.6739727,21.765856 2.6733108,21.134301 3.059997,20.747615 l 8.636702,-8.636702 9.192388,9.192388 z m 1.414214,-1.414214 7.636702,-7.636702 c 0.386686,-0.386686 0.386024,-1.018241 -0.0039,-1.40818 L 22.155795,3.0639121 C 21.76617,2.6742872 21.135392,2.6722198 20.747615,3.059997 l -7.636702,7.636702 9.192388,9.192388 z m -2.9699,-18.2433036 c 1.170582,-1.17058151 3.067677,-1.16501524 4.236608,0.00392 l 7.780292,7.7802926 c 1.169193,1.1691928 1.173451,3.0670718 0.0039,4.2366078 L 13.666599,31.354217 c -1.170582,1.170581 -3.067677,1.165015 -4.2366078,-0.0039 L 1.6496986,23.570009 C 0.48050633,22.400816 0.47624756,20.502937 1.6457834,19.333401 L 19.333401,1.6457834 Z"
           id="Combined-Shape"
           style="fill:#8da3b7;fill-opacity:1"
           inkscape:connector-curvature="0" />
      </g>
    </g>
  </g>
</svg>
