<?xml version="1.0" encoding="UTF-8" standalone="no"?>
<svg
   xmlns:dc="http://purl.org/dc/elements/1.1/"
   xmlns:cc="http://creativecommons.org/ns#"
   xmlns:rdf="http://www.w3.org/1999/02/22-rdf-syntax-ns#"
   xmlns:svg="http://www.w3.org/2000/svg"
   xmlns="http://www.w3.org/2000/svg"
   xmlns:sodipodi="http://sodipodi.sourceforge.net/DTD/sodipodi-0.dtd"
   xmlns:inkscape="http://www.inkscape.org/namespaces/inkscape"
   width="32px"
   height="33px"
   viewBox="0 0 32 33"
   version="1.1"
   id="svg8088"
   inkscape:version="0.91 r13725"
   sodipodi:docname="Icon - Erase.svg">
  <metadata
     id="metadata8102">
    <rdf:RDF>
      <cc:Work
         rdf:about="">
        <dc:format>image/svg+xml</dc:format>
        <dc:type
           rdf:resource="http://purl.org/dc/dcmitype/StillImage" />
      </cc:Work>
    </rdf:RDF>
  </metadata>
  <sodipodi:namedview
     pagecolor="#ffffff"
     bordercolor="#666666"
     borderopacity="1"
     objecttolerance="10"
     gridtolerance="10"
     guidetolerance="10"
     inkscape:pageopacity="0"
     inkscape:pageshadow="2"
     inkscape:window-width="1920"
     inkscape:window-height="1018"
     id="namedview8100"
     showgrid="false"
     inkscape:zoom="25.727273"
     inkscape:cx="16"
     inkscape:cy="14.94523"
     inkscape:window-x="-8"
     inkscape:window-y="-8"
     inkscape:window-maximized="1"
     inkscape:current-layer="svg8088" />
  <!-- Generator: Sketch 40.3 (33839) - http://www.bohemiancoding.com/sketch -->
  <title
     id="title8090">Icon - Erase</title>
  <desc
     id="desc8092">Created with Sketch.</desc>
  <defs
     id="defs8094" />
  <g
     id="Proposition"
     stroke="none"
     stroke-width="1"
     fill="none"
     fill-rule="evenodd">
    <g
       id="Tools---06"
       transform="translate(-66.000000, -566.000000)"
       fill="#8DA3B7">
      <g
         id="Icon---Erase"
         transform="translate(65.642136, 566.000000)">
        <path
           d="M20.8890873,21.3033009 L12.2523851,29.940003 C11.864608,30.3277802 11.2338297,30.3257128 10.8442048,29.9360879 L3.06391214,22.1557952 C2.67397273,21.7658558 2.67331081,21.134301 3.05999698,20.7476149 L11.6966991,12.1109127 L20.8890873,21.3033009 Z M22.3033009,19.8890873 L29.940003,12.2523851 C30.3266892,11.865699 30.3260273,11.2341442 29.9360879,10.8442048 L22.1557952,3.06391214 C21.7661703,2.67428718 21.135392,2.67221985 20.7476149,3.05999698 L13.1109127,10.6966991 L22.3033009,19.8890873 Z M19.3334013,1.64578341 C20.5039828,0.475201893 22.4010784,0.480768156 23.5700088,1.64969858 L31.3503014,9.4299912 C32.5194937,10.5991835 32.5237524,12.4970628 31.3542166,13.6665987 L13.6665987,31.3542166 C12.4960172,32.5247981 10.5989216,32.5192318 9.4299912,31.3503014 L1.64969858,23.5700088 C0.48050633,22.4008165 0.476247561,20.5029372 1.64578341,19.3334013 L19.3334013,1.64578341 Z"
           id="Combined-Shape"
           style="fill:#ffffff;fill-opacity:1" />
      </g>
    </g>
  </g>
</svg>
