<?xml version="1.0" encoding="UTF-8" standalone="no"?>
<!-- Created with Inkscape (http://www.inkscape.org/) -->

<svg
   xmlns:osb="http://www.openswatchbook.org/uri/2009/osb"
   xmlns:dc="http://purl.org/dc/elements/1.1/"
   xmlns:cc="http://creativecommons.org/ns#"
   xmlns:rdf="http://www.w3.org/1999/02/22-rdf-syntax-ns#"
   xmlns:svg="http://www.w3.org/2000/svg"
   xmlns="http://www.w3.org/2000/svg"
   xmlns:sodipodi="http://sodipodi.sourceforge.net/DTD/sodipodi-0.dtd"
   xmlns:inkscape="http://www.inkscape.org/namespaces/inkscape"
   width="100%"
   height="100%"
   viewBox="0 0 668.26196 407.81745"
   version="1.1"
   id="svg8"
   inkscape:version="0.48.4 r9939"
   sodipodi:docname="EmptyMapView.svg">
  <defs
     id="defs2">
    <linearGradient
       id="linearGradient4290"
       osb:paint="solid">
      <stop
         style="stop-color:#bce30f;stop-opacity:1;"
         offset="0"
         id="stop4288" />
    </linearGradient>
  </defs>
  <sodipodi:namedview
     id="base"
     pagecolor="#ffffff"
     bordercolor="#666666"
     borderopacity="1.0"
     inkscape:pageopacity="0.0"
     inkscape:pageshadow="2"
     inkscape:zoom="1.4"
     inkscape:cx="259.97825"
     inkscape:cy="194.59308"
     inkscape:document-units="mm"
     inkscape:current-layer="layer1"
     showgrid="false"
     showguides="true"
     inkscape:guide-bbox="true"
     inkscape:window-width="1920"
     inkscape:window-height="1017"
     inkscape:window-x="1912"
     inkscape:window-y="-8"
     inkscape:window-maximized="1"
     fit-margin-top="0"
     fit-margin-left="0"
     fit-margin-right="0"
     fit-margin-bottom="0">
    <sodipodi:guide
       position="65.037984,407.81744"
       orientation="0,1"
       id="guide849"
       inkscape:locked="false" />
    <sodipodi:guide
       position="94.520132,275.52578"
       orientation="1,0"
       id="guide857"
       inkscape:locked="false" />
    <sodipodi:guide
       position="140.63322,263.43054"
       orientation="1,0"
       id="guide859"
       inkscape:locked="false" />
    <sodipodi:guide
       position="164.8237,280.81745"
       orientation="1,0"
       id="guide1058"
       inkscape:locked="false" />
    <sodipodi:guide
       position="-9.8012949,340.53769"
       orientation="0,1"
       id="guide1060"
       inkscape:locked="false" />
    <sodipodi:guide
       position="51.430844,241.50792"
       orientation="0,1"
       id="guide1062"
       inkscape:locked="false" />
    <sodipodi:guide
       position="-7.5334349,120.55555"
       orientation="0,1"
       id="guide1064"
       inkscape:locked="false" />
  </sodipodi:namedview>
  <metadata
     id="metadata5">
    <rdf:RDF>
      <cc:Work
         rdf:about="">
        <dc:format>image/svg+xml</dc:format>
        <dc:type
           rdf:resource="http://purl.org/dc/dcmitype/StillImage" />
        <dc:title />
      </cc:Work>
    </rdf:RDF>
  </metadata>
  <g
     inkscape:label="Layer 1"
     inkscape:groupmode="layer"
     id="layer1"
     transform="translate(210.9368,62.833328)">
    <g
       transform="matrix(5.5561951,0,0,5.5561951,-383.34417,115.03228)"
       style="fill:#239de8;fill-opacity:1;fill-rule:evenodd;stroke:none;stroke-width:1;stroke-opacity:1"
       id="Proposition">
      <g
         style="fill:#239de8;fill-opacity:1;stroke:none;stroke-opacity:1"
         id="Widget---Updated-Today"
         transform="translate(-1841,-864)">
        <g
           id="Style-02-/-Board-03"
           transform="translate(34,34)"
           style="fill:#239de8;fill-opacity:1;stroke:none;stroke-opacity:1">
          <g
             id="Style03-/-Menu-Copy"
             transform="translate(1790,552)"
             style="fill:#239de8;fill-opacity:1;stroke:none;stroke-opacity:1">
            <g
               id="Icon---Settings"
               transform="translate(16,278)"
               style="fill:#239de8;fill-opacity:1;stroke:none;stroke-opacity:1">
              <path
                 style="fill:#239de8;fill-opacity:1;stroke:none;stroke-width:1.83262002000000000;stroke-opacity:1"
                 d="M 91.5 178.74023 C 90.633816 178.74845 90.072742 178.76657 89.777344 178.79688 C 87.432463 179.03743 85.875705 180.26091 85.15625 182.49609 C 85.039403 182.85899 84.980469 183.23791 84.980469 183.61914 L 84.980469 184.55469 C 83.929636 185.00364 82.912206 185.53613 81.919922 186.13477 L 79.800781 184.71289 C 77.601084 183.25554 74.666412 183.75802 73.107422 185.86914 L 67.410156 193.58594 C 65.754249 195.82831 66.358002 198.93964 68.648438 200.45703 L 70.736328 201.83398 C 70.448847 203.28012 70.283203 204.75352 70.283203 206.24805 C 70.283203 207.85994 70.480194 209.45066 70.822266 211.01562 L 69.130859 212.1543 C 66.83919 213.6985 66.283883 216.8241 67.960938 219.04492 L 73.744141 226.71289 C 75.324478 228.80751 78.287039 229.27794 80.451172 227.82422 L 82.257812 226.56641 C 83.150535 227.09534 84.054941 227.54718 84.980469 227.94141 L 84.980469 229.89258 C 84.980469 232.42787 87.155896 235.54688 90.150391 235.54688 L 100.12109 235.54688 C 103.67527 235.54688 104.77148 232.70576 104.77148 229.89258 L 104.77148 227.96484 C 105.85287 227.52536 106.89944 227.02117 107.89648 226.44727 L 109.55469 227.52344 C 111.70221 228.94317 114.69689 228.45678 116.26367 226.3418 L 121.99219 218.62695 C 123.64718 216.39783 123.08047 213.26755 120.76562 211.74219 L 119.47656 210.88867 C 119.79924 209.36529 119.98438 207.81721 119.98438 206.24805 C 119.98438 204.66621 119.79687 203.10366 119.46875 201.56836 L 121.13867 200.44531 C 123.4305 198.90582 123.98808 195.7742 122.31055 193.55273 L 116.5293 185.88477 C 114.94374 183.78977 111.98353 183.32033 109.82031 184.77344 L 107.87695 186.03906 C 106.88571 185.46911 105.84615 184.96597 104.77148 184.5293 L 104.77148 183.61914 C 104.77148 182.02882 104.36658 180.69706 103.03906 179.67969 C 102.37901 179.17386 101.6796 178.92655 100.94922 178.82812 C 100.61101 178.78255 100.42103 178.77734 99.996094 178.77734 C 99.909239 178.77622 99.908797 178.77676 99.365234 178.77148 C 98.841657 178.76621 98.271128 178.76038 97.675781 178.75586 C 96.768377 178.74908 95.883588 178.74393 95.050781 178.74023 C 93.537093 178.73351 92.366184 178.73202 91.5 178.74023 z M 92.078125 182.40234 C 94.976538 182.38903 99.994141 182.44141 99.994141 182.44141 C 100.682 182.44141 101.10547 182.44203 101.10547 183.61914 L 101.10547 187.11914 C 101.10607 187.11931 101.10682 187.11897 101.10742 187.11914 C 103.59897 187.82897 105.92133 188.9584 107.89844 190.39648 L 107.90039 190.39648 L 107.90234 190.39453 L 111.86133 187.81445 C 112.42208 187.43779 113.19962 187.56327 113.59961 188.0918 L 119.38281 195.76172 C 119.78281 196.29142 119.65255 197.02567 119.0918 197.40234 L 115.24805 199.99023 L 115.24609 199.99023 C 115.93271 201.96072 116.31836 204.05902 116.31836 206.24609 C 116.31836 208.42728 115.93482 210.52251 115.25195 212.48828 L 115.25391 212.48828 L 118.74805 214.80273 C 119.31256 215.1747 119.44186 215.90935 119.04688 216.44141 L 113.31836 224.1582 C 112.92334 224.69145 112.11332 224.82238 111.54883 224.44922 L 107.91406 222.08789 C 105.93197 223.53068 103.59899 224.664 101.10742 225.375 C 101.10683 225.37517 101.10607 225.37483 101.10547 225.375 L 101.10547 229.89258 C 101.10547 230.54234 100.80699 231.88086 100.11914 231.88086 L 90.150391 231.88086 C 89.461289 231.88086 88.644531 230.54234 88.644531 229.89258 L 88.644531 225.38281 L 88.646484 225.375 L 88.644531 225.375 C 86.1523 224.67462 84.145684 223.56292 82.185547 222.15039 L 78.404297 224.78125 C 77.843543 225.15792 77.066737 225.03438 76.667969 224.50586 L 70.882812 216.83594 C 70.482805 216.30624 70.615028 215.57121 71.175781 215.19336 L 75.052734 212.58594 C 74.347448 210.59191 73.947266 208.46377 73.947266 206.24609 C 73.947266 204.1426 74.293628 202.11745 74.931641 200.21289 L 70.671875 197.40234 C 70.108644 197.0292 69.963654 196.29495 70.357422 195.76172 L 76.054688 188.04688 C 76.448461 187.51364 77.19457 187.3827 77.757812 187.75586 L 81.90625 190.53906 C 83.932433 189.03001 86.152306 187.85248 88.644531 187.11914 L 88.646484 187.11914 L 88.644531 187.11328 L 88.644531 183.61914 C 88.910362 182.79327 89.227312 182.5361 90.150391 182.44141 C 90.381162 182.41773 91.111987 182.40678 92.078125 182.40234 z M 94.875 193.39648 C 87.283526 193.39648 81.130859 199.54915 81.130859 207.14062 C 81.130859 214.7321 87.283526 220.88477 94.875 220.88477 C 102.46648 220.88477 108.61914 214.7321 108.61914 207.14062 C 108.61914 199.54915 102.46648 193.39648 94.875 193.39648 z M 94.875 197.06055 C 100.44219 197.06055 104.95508 201.57343 104.95508 207.14062 C 104.95508 212.70782 100.44219 217.21875 94.875 217.21875 C 89.307804 217.21875 84.794922 212.70782 84.794922 207.14062 C 84.794922 201.57343 89.307804 197.06055 94.875 197.06055 z "
                 transform="matrix(0.17997928,0,0,0.17997928,32.029755,-32.012124)"
                 id="Combined-Shape" />
            </g>
          </g>
        </g>
      </g>
    </g>
    <g
       transform="matrix(1.771669,0,0,1.771669,-138.44892,7.6455229)"
       style="fill:#239de8;fill-opacity:1;fill-rule:evenodd;stroke:none;stroke-width:1;stroke-opacity:1"
       id="Proposition-6">
      <g
         style="fill:#239de8;fill-opacity:1;stroke:none;stroke-opacity:1"
         id="Widget---Updated-Today-7"
         transform="translate(-1841,-725)">
        <g
           id="Style-02-/-Board-03-1"
           transform="translate(34,34)"
           style="fill:#239de8;fill-opacity:1;stroke:none;stroke-opacity:1">
          <g
             id="Style03-/-Menu-Copy-2"
             transform="translate(1790,552)"
             style="fill:#239de8;fill-opacity:1;stroke:none;stroke-opacity:1">
            <g
               id="Icon---Tools"
               transform="translate(17,139)"
               style="fill:#239de8;fill-opacity:1;stroke:none;stroke-opacity:1">
              <path
                 inkscape:connector-curvature="0"
                 d="m 7.5417082,16.327814 0.9791994,5.651278 5.6512784,0.9792 c 0.540247,0.09361 1.29997,-0.152274 1.687291,-0.539594 L 27.458174,10.82 c 0.391618,-0.391618 0.394541,-1.0236345 0.0051,-1.4130669 L 21.093067,3.0367177 C 20.70427,2.6479205 20.06732,2.6545053 19.68,3.0418258 L 8.0813022,14.640523 C 7.6896839,15.032142 7.4475835,15.78459 7.5417082,16.327814 Z M 18.265786,1.6276122 c 1.166265,-1.16626489 3.069482,-1.1771204 4.241494,-0.00511 l 6.370216,6.3702154 c 1.172758,1.1727585 1.165304,3.0710814 -0.0051,4.2414944 L 17.27369,23.832911 c -0.846799,0.8468 -2.261134,1.300793 -3.442957,1.096018 l -5.6512785,-0.9792 C 7.346716,23.80544 6.6945596,23.153284 6.5502707,22.320546 L 5.5710713,16.669267 C 5.3656747,15.483856 5.816449,14.076949 6.6670886,13.22631 Z"
                 id="Path-2-Copy-4"
                 style="fill:#239de8;fill-opacity:1;stroke:none;stroke-opacity:1" />
              <path
                 inkscape:connector-curvature="0"
                 d="M 23,27.289138 C 23,27.681995 22.682205,28 22.290052,28 H 2.7099477 C 2.3177156,28 2,27.682325 2,27.290052 V 7.7099477 C 2,7.3146297 2.3126893,7 2.7030685,7 H 7.66293 c 0.5522848,0 1,-0.4477153 1,-1 0,-0.5522848 -0.4477152,-1 -1,-1 H 2.7030685 C 1.2053407,5 0,6.2128204 0,7.7099477 V 27.290052 C 0,28.786952 1.2132037,30 2.7099477,30 H 22.290052 C 23.787072,30 25,28.786267 25,27.289138 v -5.343659 c 0,-0.552284 -0.447715,-1 -1,-1 -0.552285,0 -1,0.447716 -1,1 z"
                 id="Rectangle-2"
                 style="fill:#239de8;fill-opacity:1;stroke:none;stroke-opacity:1" />
            </g>
          </g>
        </g>
      </g>
    </g>
    <path
       style="opacity:1;fill:#239de8;fill-opacity:1;stroke:none;stroke-width:0;stroke-miterlimit:4;stroke-dasharray:none;stroke-opacity:1"
       d="m -127.9852,282.83234 c -1.59146,-0.14662 -2.86392,-0.7807 -4.09778,-2.04297 -0.74348,-0.76067 -1.16701,-1.47773 -1.34764,-2.282 -0.21954,-0.97755 -4.48773,-28.58047 -5.46713,-35.35603 l -0.22624,-1.56442 -3.19138,-0.0595 c -3.54749,-0.067 -3.74448,-0.11238 -4.24319,-0.91912 -0.32075,-0.51872 -0.34755,-1.42994 -0.0595,-2.03559 0.11164,-0.23517 0.41527,-0.59538 0.67501,-0.80116 l 0.47258,-0.37434 h 9.02437 c 4.96337,0 9.02609,-0.0149 9.02826,-0.0298 0.002,-0.0149 0.0595,-1.93148 0.12205,-4.25383 0.12651,-4.50716 0.2456,-5.45947 0.80458,-6.41274 0.37138,-0.63334 1.58327,-1.79425 2.3263,-2.22828 1.14343,-0.66831 1.71723,-0.71966 7.98424,-0.71966 5.38818,0 5.79051,0.0149 6.55155,0.25006 1.0204,0.3148 2.39179,1.27322 3.0249,2.11307 1.00797,1.33721 1.16805,2.28037 1.29033,7.60298 l 0.0848,3.67929 h 9.104603 9.1046 l 0.57082,0.63482 c 0.34755,0.387 0.60282,0.80733 0.65342,1.07585 0.17862,0.95104 -0.49341,2.03024 -1.4254,2.289 -0.25676,0.0744 -1.76068,0.1295 -3.36405,0.1295 l -2.89985,6.5e-4 -0.0744,0.34384 c -0.0967,0.46885 -0.79737,5.0619 -2.51413,16.48907 -2.93693,19.54924 -3.05854,20.22432 -3.91819,21.75772 -0.376583,0.67129 -1.470523,1.66259 -2.321613,2.10317 -1.21114,0.62664 -1.35292,0.63408 -13.40955,0.67129 -6.19505,0.0224 -11.71438,-0.007 -12.26511,-0.0595 v -8e-5 z m 23.75047,-4.4343 c 0.83026,-0.4123 0.89225,-0.59241 1.51383,-4.39732 1.08827,-6.66147 4.246983,-27.25112 4.748813,-30.95416 0.15926,-1.17334 0.15628,-1.30142 -0.0223,-1.37666 -0.28727,-0.11907 -36.048113,-0.1027 -36.475223,0.0148 -0.34754,0.0968 -0.3535,0.11313 -0.27089,0.75093 0.11908,0.91785 2.17485,14.82469 3.81496,25.80548 l 1.38292,9.25902 0.59241,0.60133 0.5924,0.60133 11.82707,-0.0372 c 11.26864,-0.0372 11.84936,-0.0447 12.29887,-0.27015 z m -5.31159,-45.03999 c -0.0521,-4.45373 -0.0886,-4.69017 -0.85191,-5.14109 -0.58719,-0.34681 -2.80118,-0.47928 -7.26749,-0.43612 -4.41115,0.0447 -4.27444,0.0224 -5.09427,0.76618 -0.28132,0.25527 -0.28132,0.25527 -0.28132,4.55152 v 4.29602 h 6.76997 6.76997 z"
       id="path4165"
       inkscape:connector-curvature="0" />
    <g
       aria-label="Open the Tools Menu to add sticky notes, team and stickers"
       transform="matrix(0.26458333,0,0,0.26458333,0,12)"
       style="font-style:normal;font-variant:normal;font-weight:normal;font-stretch:normal;font-size:40px;line-height:125%;font-family:'3ds';-inkscape-font-specification:'3ds';letter-spacing:0px;word-spacing:0px;fill:#239de8;fill-opacity:1;stroke:none;stroke-width:1px;stroke-linecap:butt;stroke-linejoin:miter;stroke-opacity:1"
       id="flowRoot861">
      <path
         id="path1176"
         style="font-size:96px;line-height:95.40001153999999400%;fill:#239de8;fill-opacity:1;stroke:none;stroke-opacity:1"
         d="m 955.99462,139.85038 q -2.304,-0.48 -5.376,-0.768 -3.072,-0.384 -6.528,-0.384 -5.088,0 -8.064,1.056 -2.88,1.056 -2.88,4.128 0,1.824 1.92,3.264 1.92,1.44 4.704,2.88 2.88,1.344 6.24,2.88 3.36,1.44 6.144,3.456 2.88,2.016 4.8,4.704 1.92,2.592 1.92,6.336 0,3.36 -1.44,5.76 -1.44,2.304 -3.936,3.84 -2.496,1.44 -5.952,2.112 -3.36,0.672 -7.392,0.672 -4.608,0 -8.928,-0.672 -4.224,-0.672 -7.2,-1.728 l 1.056,-7.296 q 1.344,0.48 3.072,0.864 1.824,0.384 3.84,0.768 2.016,0.288 4.032,0.48 2.016,0.192 3.936,0.192 4.416,0 6.624,-0.96 2.208,-1.056 2.208,-4.032 0,-2.208 -1.92,-3.744 -1.824,-1.632 -4.704,-3.072 -2.784,-1.44 -6.048,-2.88 -3.264,-1.44 -6.144,-3.264 -2.784,-1.824 -4.704,-4.32 -1.824,-2.496 -1.824,-5.952 0,-3.744 1.632,-6.144 1.632,-2.496 4.416,-3.84 2.88,-1.44 6.624,-2.016 3.84,-0.576 8.064,-0.576 3.552,0 7.008,0.384 3.456,0.288 5.664,0.672 z m -64.2465,-4.704 q 5.952,-1.824 11.904,-2.592 6.048,-0.864 13.248,-0.864 v 7.68 q -1.056,-0.096 -2.208,-0.096 -1.152,0 -2.304,0 -3.072,0 -5.952,0.384 -2.88,0.384 -4.992,0.96 v 38.208 h -9.696 z m -42.7755,23.328 q 0.096,3.456 0.864,6.144 0.768,2.592 2.496,4.32 1.728,1.728 4.608,2.592 2.88,0.864 7.296,0.864 1.536,0 3.36,-0.096 1.824,-0.192 3.552,-0.48 1.824,-0.288 3.36,-0.576 1.632,-0.288 2.688,-0.576 l 0.864,7.104 q -2.784,0.768 -6.816,1.344 -3.936,0.672 -8.064,0.672 -5.472,0 -9.984,-1.056 -4.512,-1.056 -7.68,-3.744 -3.168,-2.784 -4.992,-7.392 -1.728,-4.704 -1.728,-11.904 0,-6.72 1.44,-11.328 1.536,-4.608 4.32,-7.392 2.784,-2.88 6.72,-4.128 4.032,-1.248 8.928,-1.248 4.896,0 8.448,1.44 3.552,1.344 5.856,3.84 2.4,2.496 3.456,6.048 1.152,3.552 1.152,7.968 v 7.584 z m 20.832,-6.72 q 0,-13.344 -9.888,-13.344 -5.472,0 -7.968,3.36 -2.496,3.36 -2.88,9.984 z m -68.6685,-43.008 v 45.312 l 20.544,-21.504 h 10.656 l -17.76,18.624 q 5.472,1.344 8.736,5.376 3.36,3.936 5.28,9.408 l 4.416,12.864 h -10.464 l -4.128,-11.904 q -1.632,-4.8 -4.416,-6.912 -2.784,-2.112 -6.432,-2.496 l -6.432,6.144 v 15.168 h -9.696 v -70.08 z m -23.07,31.392 q -2.304,-0.48 -4.992,-0.768 -2.688,-0.384 -5.472,-0.384 -2.88,0 -5.184,0.768 -2.304,0.672 -3.936,2.592 -1.536,1.824 -2.4,5.088 -0.768,3.168 -0.768,8.256 0,4.608 0.672,7.872 0.672,3.168 2.112,5.184 1.536,1.92 3.936,2.784 2.4,0.864 5.76,0.864 2.976,0 5.568,-0.384 2.688,-0.48 5.376,-1.152 l 0.864,7.2 q -2.784,0.768 -5.952,1.248 -3.168,0.48 -6.432,0.48 -4.896,0 -8.928,-1.248 -4.032,-1.248 -7.008,-4.032 -2.88,-2.88 -4.512,-7.488 -1.536,-4.608 -1.536,-11.424 0,-6.912 1.632,-11.52 1.632,-4.704 4.608,-7.392 2.976,-2.784 7.104,-3.936 4.128,-1.152 9.12,-1.152 2.976,0 6.048,0.384 3.072,0.384 5.28,0.864 z m -45.93,-7.584 v 46.272 h -9.696 v -46.272 z m 1.248,-17.28 q 0,2.592 -1.632,4.032 -1.536,1.44 -4.512,1.44 -2.88,0 -4.512,-1.44 -1.632,-1.44 -1.632,-4.032 0,-2.688 1.632,-4.128 1.632,-1.44 4.512,-1.44 6.144,0 6.144,5.568 z m -36.174,3.936 v 13.344 h 13.44 v 7.2 h -13.44 v 27.552 q 0,2.784 1.536,3.936 1.536,1.056 4.032,1.056 2.208,0 4.608,-0.384 2.4,-0.48 4.032,-0.96 l 0.288,7.296 q -2.208,0.768 -4.8,1.152 -2.592,0.384 -5.28,0.384 -6.24,0 -10.176,-2.976 -3.936,-2.976 -3.936,-9.792 v -27.264 h -7.584 v -7.2 h 7.584 l 2.208,-13.344 z m -26.5905,20.64 q -2.304,-0.48 -5.376,-0.768 -3.072,-0.384 -6.528,-0.384 -5.088,0 -8.064,1.056 -2.88,1.056 -2.88,4.128 0,1.824 1.92,3.264 1.92,1.44 4.704,2.88 2.88,1.344 6.24,2.88 3.36,1.44 6.144,3.456 2.88,2.016 4.8,4.704 1.92,2.592 1.92,6.336 0,3.36 -1.44,5.76 -1.44,2.304 -3.936,3.84 -2.496,1.44 -5.952,2.112 -3.36,0.672 -7.392,0.672 -4.608,0 -8.928,-0.672 -4.224,-0.672 -7.2,-1.728 l 1.056,-7.296 q 1.344,0.48 3.072,0.864 1.824,0.384 3.84,0.768 2.016,0.288 4.032,0.48 2.016,0.192 3.936,0.192 4.416,0 6.624,-0.96 2.208,-1.056 2.208,-4.032 0,-2.208 -1.92,-3.744 -1.824,-1.632 -4.704,-3.072 -2.784,-1.44 -6.048,-2.88 -3.264,-1.44 -6.144,-3.264 -2.784,-1.824 -4.704,-4.32 -1.824,-2.496 -1.824,-5.952 0,-3.744 1.632,-6.144 1.632,-2.496 4.416,-3.84 2.88,-1.44 6.624,-2.016 3.84,-0.576 8.064,-0.576 3.552,0 7.008,0.384 3.456,0.288 5.664,0.672 z m -80.7255,0.576 q -2.592,-0.672 -5.184,-1.056 -2.592,-0.384 -5.184,-0.384 -2.4,0 -4.608,0.768 -2.112,0.672 -3.744,2.592 -1.536,1.824 -2.496,4.992 -0.864,3.072 -0.864,7.968 0,5.184 0.768,8.544 0.864,3.264 2.4,5.28 1.536,1.92 3.744,2.688 2.208,0.672 4.992,0.672 2.496,0 5.088,-0.288 2.592,-0.384 5.088,-0.864 z m 9.696,-31.68 v 68.256 q -4.32,1.056 -9.888,1.92 -5.568,0.864 -10.176,0.864 -4.608,0 -8.544,-1.056 -3.936,-1.152 -6.912,-3.936 -2.976,-2.88 -4.704,-7.584 -1.632,-4.704 -1.632,-11.904 0,-6.72 1.632,-11.232 1.728,-4.512 4.608,-7.296 2.88,-2.784 6.72,-3.936 3.936,-1.248 8.448,-1.248 2.784,0 5.28,0.384 2.592,0.384 5.376,0.96 v -24.192 z m -94.9335,26.4 q 1.824,-0.576 4.128,-1.152 2.4,-0.672 5.088,-1.152 2.688,-0.576 5.568,-0.864 2.976,-0.384 5.856,-0.384 4.32,0 7.968,0.864 3.744,0.768 6.432,2.688 2.784,1.824 4.32,4.992 1.536,3.168 1.536,7.776 v 30.912 h -9.696 v -30.528 q 0,-2.688 -0.864,-4.512 -0.768,-1.824 -2.208,-2.88 -1.44,-1.056 -3.456,-1.44 -2.016,-0.48 -4.32,-0.48 -2.688,0 -5.568,0.48 -2.88,0.384 -5.088,0.96 v 38.4 h -9.696 z m -24.8235,23.328 q -2.016,-0.384 -4.416,-0.576 -2.4,-0.288 -4.896,-0.288 -2.112,0 -4.032,0.288 -1.824,0.288 -3.264,1.152 -1.344,0.768 -2.208,2.304 -0.768,1.44 -0.768,3.84 0,4.416 2.784,6.144 2.88,1.632 6.912,1.632 2.88,0 5.376,-0.384 2.592,-0.384 4.512,-0.864 z m -24.48,-25.248 q 3.072,-0.672 6.72,-1.152 3.744,-0.48 7.296,-0.48 4.032,0 7.68,0.768 3.744,0.672 6.432,2.496 2.784,1.728 4.416,4.608 1.632,2.88 1.632,7.2 v 29.856 q -3.648,1.056 -8.832,2.208 -5.088,1.056 -10.944,1.056 -4.032,0 -7.488,-0.768 -3.456,-0.768 -6.048,-2.496 -2.496,-1.824 -3.936,-4.704 -1.44,-2.88 -1.44,-7.2 0,-4.032 1.536,-6.72 1.632,-2.688 4.224,-4.32 2.592,-1.632 6.048,-2.304 3.456,-0.672 7.2,-0.672 3.072,0 5.472,0.288 2.496,0.192 4.512,0.576 v -4.512 q 0,-4.8 -3.168,-6.432 -3.072,-1.728 -7.776,-1.728 -3.264,0 -6.72,0.576 -3.456,0.576 -6.144,1.152 z m -110.4465,1.92 q 3.744,-1.152 9.024,-2.304 5.28,-1.248 10.848,-1.248 4.224,0 7.776,0.96 3.552,0.96 6.144,3.072 3.552,-1.728 8.064,-2.88 4.512,-1.152 8.832,-1.152 3.84,0 7.104,0.864 3.36,0.768 5.76,2.688 2.4,1.92 3.744,5.088 1.44,3.072 1.44,7.68 v 30.912 h -9.696 v -30.528 q 0,-2.784 -0.768,-4.512 -0.768,-1.824 -2.112,-2.88 -1.248,-1.056 -3.072,-1.44 -1.824,-0.48 -3.84,-0.48 -3.36,0 -6.144,0.864 -2.688,0.864 -4.896,1.824 0.96,2.592 0.96,6.24 v 30.912 h -9.696 v -30.528 q 0,-2.784 -0.768,-4.512 -0.768,-1.824 -2.112,-2.88 -1.248,-1.056 -3.072,-1.44 -1.728,-0.48 -3.84,-0.48 -2.496,0 -5.184,0.48 -2.688,0.384 -4.8,0.96 v 38.4 h -9.696 z m -24.8235,23.328 q -2.016,-0.384 -4.416,-0.576 -2.4,-0.288 -4.896,-0.288 -2.112,0 -4.032,0.288 -1.824,0.288 -3.264,1.152 -1.344,0.768 -2.208,2.304 -0.768,1.44 -0.768,3.84 0,4.416 2.784,6.144 2.88,1.632 6.912,1.632 2.88,0 5.376,-0.384 2.592,-0.384 4.512,-0.864 z m -24.48,-25.248 q 3.072,-0.672 6.72,-1.152 3.744,-0.48 7.296,-0.48 4.032,0 7.68,0.768 3.744,0.672 6.432,2.496 2.784,1.728 4.416,4.608 1.632,2.88 1.632,7.2 v 29.856 q -3.648,1.056 -8.832,2.208 -5.088,1.056 -10.944,1.056 -4.032,0 -7.488,-0.768 -3.456,-0.768 -6.048,-2.496 -2.496,-1.824 -3.936,-4.704 -1.44,-2.88 -1.44,-7.2 0,-4.032 1.536,-6.72 1.632,-2.688 4.224,-4.32 2.592,-1.632 6.048,-2.304 3.456,-0.672 7.2,-0.672 3.072,0 5.472,0.288 2.496,0.192 4.512,0.576 v -4.512 q 0,-4.8 -3.168,-6.432 -3.072,-1.728 -7.776,-1.728 -3.264,0 -6.72,0.576 -3.456,0.576 -6.144,1.152 z m -43.2555,25.248 q 0.096,3.456 0.864,6.144 0.768,2.592 2.496,4.32 1.728,1.728 4.608,2.592 2.88,0.864 7.296,0.864 1.536,0 3.36,-0.096 1.824,-0.192 3.552,-0.48 1.824,-0.288 3.36,-0.576 1.632,-0.288 2.688,-0.576 l 0.864,7.104 q -2.784,0.768 -6.816,1.344 -3.936,0.672 -8.064,0.672 -5.472,0 -9.984,-1.056 -4.512,-1.056 -7.68,-3.744 -3.168,-2.784 -4.992,-7.392 -1.728,-4.704 -1.728,-11.904 0,-6.72 1.44,-11.328 1.536,-4.608 4.32,-7.392 2.784,-2.88 6.72,-4.128 4.032,-1.248 8.928,-1.248 4.896,0 8.448,1.44 3.552,1.344 5.856,3.84 2.4,2.496 3.456,6.048 1.152,3.552 1.152,7.968 v 7.584 z m 20.832,-6.72 q 0,-13.344 -9.888,-13.344 -5.472,0 -7.968,3.36 -2.496,3.36 -2.88,9.984 z m -51.8445,-32.544 v 13.344 h 13.44 v 7.2 h -13.44 v 27.552 q 0,2.784 1.536,3.936 1.536,1.056 4.032,1.056 2.208,0 4.608,-0.384 2.4,-0.48 4.032,-0.96 l 0.288,7.296 q -2.208,0.768 -4.8,1.152 -2.592,0.384 -5.28,0.384 -6.24,0 -10.176,-2.976 -3.936,-2.976 -3.936,-9.792 v -27.264 h -7.584 v -7.2 h 7.584 l 2.208,-13.344 z m -52.6965,49.824 -9.408,22.56 h -7.488 l 6.912,-22.56 z m -26.2065,-29.184 q -2.304,-0.48 -5.376,-0.768 -3.072,-0.384 -6.528,-0.384 -5.088,0 -8.064,1.056 -2.88,1.056 -2.88,4.128 0,1.824 1.92,3.264 1.92,1.44 4.704,2.88 2.88,1.344 6.24,2.88 3.36,1.44 6.144,3.456 2.88,2.016 4.8,4.704 1.92,2.592 1.92,6.336 0,3.36 -1.44,5.76 -1.44,2.304 -3.936,3.84 -2.496,1.44 -5.952,2.112 -3.36,0.672 -7.392,0.672 -4.608,0 -8.928,-0.672 -4.224,-0.672 -7.2,-1.728 l 1.056,-7.296 q 1.344,0.48 3.072,0.864 1.824,0.384 3.84,0.768 2.016,0.288 4.032,0.48 2.016,0.192 3.936,0.192 4.416,0 6.624,-0.96 2.208,-1.056 2.208,-4.032 0,-2.208 -1.92,-3.744 -1.824,-1.632 -4.704,-3.072 -2.784,-1.44 -6.048,-2.88 -3.264,-1.44 -6.144,-3.264 -2.784,-1.824 -4.704,-4.32 -1.824,-2.496 -1.824,-5.952 0,-3.744 1.632,-6.144 1.632,-2.496 4.416,-3.84 2.88,-1.44 6.624,-2.016 3.84,-0.576 8.064,-0.576 3.552,0 7.008,0.384 3.456,0.288 5.664,0.672 z m -72.521995,18.624 q 0.096,3.456 0.864,6.144 0.768,2.592 2.496,4.32 1.728,1.728 4.608,2.592 2.88,0.864 7.296,0.864 1.536,0 3.36,-0.096 1.824,-0.192 3.552,-0.48 1.824,-0.288 3.36,-0.576 1.632,-0.288 2.688,-0.576 l 0.864,7.104 q -2.784,0.768 -6.816,1.344 -3.936,0.672 -8.064,0.672 -5.472,0 -9.984,-1.056 -4.512,-1.056 -7.68,-3.744 -3.168,-2.784 -4.992,-7.392 -1.728,-4.704 -1.728,-11.904 0,-6.72 1.44,-11.328 1.536,-4.608 4.32,-7.392 2.784,-2.88 6.72,-4.128 4.032,-1.248 8.928,-1.248 4.896,0 8.448,1.44 3.552,1.344 5.856,3.84 2.4,2.496 3.456,6.048 1.151995,3.552 1.151995,7.968 v 7.584 z m 20.832,-6.72 q 0,-13.344 -9.888,-13.344 -5.472,0 -7.968,3.36 -2.496,3.36 -2.88,9.984 z m -51.8445,-32.544 v 13.344 h 13.44 v 7.2 h -13.44 v 27.552 q 0,2.784 1.536,3.936 1.536,1.056 4.032,1.056 2.208,0 4.608,-0.384 2.4,-0.48 4.032,-0.96 l 0.288,7.296 q -2.208,0.768 -4.8,1.152 -2.592,0.384 -5.28,0.384 -6.24,0 -10.176,-2.976 -3.936,-2.976 -3.936,-9.792 v -27.264 h -7.584 v -7.2 h 7.584 l 2.208,-13.344 z m -24.5415,36.48 q 0,12.768 -5.76,18.432 -5.664,5.664 -16.224,5.664 -10.560002,0 -16.224002,-5.664 -5.664,-5.664 -5.664,-18.432 0,-12.768 5.664,-18.432 5.664,-5.664 16.224002,-5.664 10.56,0 16.224,5.664 5.76,5.664 5.76,18.432 z m -10.08,0 q 0,-4.896 -0.768,-8.064 -0.768,-3.264 -2.304,-5.184 -1.53600001,-1.92 -3.744,-2.688 -2.112,-0.768 -4.992,-0.768 -2.88,0 -5.088,0.768 -2.208002,0.768 -3.744002,2.688 -1.536,1.92 -2.304,5.184 -0.768,3.168 -0.768,8.064 0,4.896 0.768,8.16 0.768,3.168 2.304,5.088 1.536,1.92 3.744002,2.688 2.208,0.768 5.088,0.768 2.88,0 4.992,-0.768 2.20799999,-0.768 3.744,-2.688 1.536,-1.92 2.304,-5.088 0.768,-3.264 0.768,-8.16 z m -86.869502,-20.544 q 1.824,-0.576 4.128,-1.152 2.4,-0.672 5.088,-1.152 2.688,-0.576 5.568,-0.864 2.976,-0.384 5.856,-0.384 4.32,0 7.968,0.864 3.744,0.768 6.432,2.688 2.784,1.824 4.32,4.992 1.536,3.168 1.536,7.776 v 30.912 h -9.696 v -30.528 q 0,-2.688 -0.864,-4.512 -0.768,-1.824 -2.208,-2.88 -1.44,-1.056 -3.456,-1.44 -2.016,-0.48 -4.32,-0.48 -2.688,0 -5.568,0.48 -2.88,0.384 -5.088,0.96 v 38.4 h -9.696 z M 1404.3536,38.762375 v 46.464 q 0,5.28 -1.44,8.832 -1.44,3.648 -4.128,5.856 -2.688,2.208005 -6.624,3.168005 -3.936,0.96 -8.928,0.96 -4.128,0 -8.736,-0.768 -4.512,-0.672 -7.776,-1.536 l 1.056,-7.200005 q 3.168,0.768 7.392,1.44 4.224,0.672 7.776,0.672 6.144,0 8.928,-2.304 2.784,-2.304 2.784,-7.776 v -2.688 q -2.496,0.48 -5.184,0.864 -2.592,0.288 -5.088,0.288 -4.032,0 -7.68,-0.768 -3.648,-0.864 -6.432,-2.784 -2.688,-1.92 -4.32,-5.088 -1.536,-3.264 -1.536,-8.064 v -29.568 h 9.696 v 29.664 q 0,2.592 0.768,4.416 0.864,1.824 2.304,2.88 1.44,1.056 3.264,1.536 1.92,0.48 4.128,0.48 2.688,0 5.472,-0.384 2.784,-0.48 4.608,-1.056 v -37.536 z m -81.03,-23.808 v 45.312 l 20.544,-21.504 h 10.656 l -17.76,18.624 q 5.472,1.344 8.736,5.376 3.36,3.936 5.28,9.408 l 4.416,12.864 h -10.464 l -4.128,-11.904 q -1.632,-4.8 -4.416,-6.912 -2.784,-2.112 -6.432,-2.496 l -6.432,6.144 v 15.168 h -9.696 v -70.08 z m -23.07,31.392 q -2.304,-0.48 -4.992,-0.768 -2.688,-0.384 -5.472,-0.384 -2.88,0 -5.184,0.768 -2.304,0.672 -3.936,2.592 -1.536,1.824 -2.4,5.088 -0.768,3.168 -0.768,8.256 0,4.608 0.672,7.872 0.672,3.168 2.112,5.184 1.536,1.92 3.936,2.784 2.4,0.864 5.76,0.864 2.976,0 5.568,-0.384 2.688,-0.48 5.376,-1.152 l 0.864,7.2 q -2.784,0.768 -5.952,1.248 -3.168,0.48 -6.432,0.48 -4.896,0 -8.928,-1.248 -4.032,-1.248 -7.008,-4.032 -2.88,-2.88 -4.512,-7.488 -1.536,-4.608 -1.536,-11.424 0,-6.912 1.632,-11.52 1.632,-4.704 4.608,-7.392 2.976,-2.784 7.104,-3.936 4.128,-1.152 9.12,-1.152 2.976,0 6.048,0.384 3.072,0.384 5.28,0.864 z m -45.93,-7.584 v 46.272 h -9.696 v -46.272 z m 1.248,-17.28 q 0,2.592 -1.632,4.032 -1.536,1.44 -4.512,1.44 -2.88,0 -4.512,-1.44 -1.632,-1.44 -1.632,-4.032 0,-2.688 1.632,-4.128 1.632,-1.44 4.512,-1.44 6.144,0 6.144,5.568 z m -36.174,3.936 v 13.344 h 13.44 v 7.2 h -13.44 v 27.552 q 0,2.784 1.536,3.936 1.536,1.056 4.032,1.056 2.208,0 4.608,-0.384 2.4,-0.48 4.032,-0.96 l 0.288,7.296 q -2.208,0.768 -4.8,1.152 -2.592,0.384 -5.28,0.384 -6.24,0 -10.176,-2.976 -3.936,-2.976 -3.936,-9.792 v -27.264 h -7.584 v -7.2 h 7.584 l 2.208,-13.344 z m -26.5905,20.64 q -2.304,-0.48 -5.376,-0.768 -3.072,-0.384 -6.528,-0.384 -5.088,0 -8.064,1.056 -2.88,1.056 -2.88,4.128 0,1.824 1.92,3.264 1.92,1.44 4.704,2.88 2.88,1.344 6.24,2.88 3.36,1.44 6.144,3.456 2.88,2.016 4.8,4.704 1.92,2.592 1.92,6.336 0,3.36 -1.44,5.76 -1.44,2.304 -3.936,3.84 -2.496,1.44 -5.952,2.112 -3.36,0.672 -7.392,0.672 -4.608,0 -8.928,-0.672 -4.224,-0.672 -7.2,-1.728 l 1.056,-7.296 q 1.344,0.48 3.072,0.864 1.824,0.384 3.84,0.768 2.016,0.288 4.032,0.48 2.016,0.192 3.936,0.192 4.416,0 6.624,-0.96 2.208,-1.056 2.208,-4.032 0,-2.208 -1.92,-3.744 -1.824,-1.632 -4.704,-3.072 -2.784,-1.44 -6.048,-2.88 -3.264,-1.44 -6.144,-3.264 -2.784,-1.824 -4.704,-4.32 -1.824,-2.496 -1.824,-5.952 0,-3.744 1.632,-6.144 1.632,-2.496 4.416,-3.84 2.88,-1.44 6.624,-2.016 3.84,-0.576 8.064,-0.576 3.552,0 7.008,0.384 3.456,0.288 5.664,0.672 z m -80.7255,0.576 q -2.592,-0.672 -5.184,-1.056 -2.592,-0.384 -5.184,-0.384 -2.4,0 -4.608,0.768 -2.112,0.672 -3.744,2.592 -1.536,1.824 -2.496,4.992 -0.864,3.072 -0.864,7.968 0,5.184 0.768,8.544 0.864,3.264 2.4,5.28 1.536,1.92 3.744,2.688 2.208,0.672 4.992,0.672 2.496,0 5.088,-0.288 2.592,-0.384 5.088,-0.864 z m 9.696,-31.68 v 68.256 q -4.32,1.056 -9.888,1.92 -5.568,0.864 -10.176,0.864 -4.608,0 -8.544,-1.056 -3.936,-1.152 -6.912,-3.936 -2.976,-2.88 -4.704,-7.584 -1.632,-4.704 -1.632,-11.904 0,-6.72 1.632,-11.232 1.728,-4.512 4.608,-7.296 2.88,-2.784 6.72,-3.936 3.936,-1.248 8.448,-1.248 2.784,0 5.28,0.384 2.592,0.384 5.376,0.96 v -24.192 z m -64.2585,31.68 q -2.592,-0.672 -5.184,-1.056 -2.592,-0.384 -5.184,-0.384 -2.4,0 -4.608,0.768 -2.112,0.672 -3.744,2.592 -1.536,1.824 -2.496,4.992 -0.864,3.072 -0.864,7.968 0,5.184 0.768,8.544 0.864,3.264 2.4,5.28 1.536,1.92 3.744,2.688 2.208,0.672 4.992,0.672 2.496,0 5.088,-0.288 2.592,-0.384 5.088,-0.864 z m 9.696,-31.68 v 68.256 q -4.32,1.056 -9.888,1.92 -5.568,0.864 -10.176,0.864 -4.608,0 -8.544,-1.056 -3.936,-1.152 -6.912,-3.936 -2.976,-2.88 -4.704,-7.584 -1.632,-4.704 -1.632,-11.904 0,-6.72 1.632,-11.232 1.728,-4.512 4.608,-7.296 2.88,-2.784 6.72,-3.936 3.936,-1.248 8.448,-1.248 2.784,0 5.28,0.384 2.592,0.384 5.376,0.96 v -24.192 z m -63.3195,49.728 q -2.016,-0.384 -4.41598,-0.576 -2.4,-0.288 -4.896,-0.288 -2.112,0 -4.032,0.288 -1.824,0.288 -3.264,1.152 -1.344,0.768 -2.208,2.304 -0.768,1.44 -0.768,3.84 0,4.416 2.784,6.144 2.88,1.632 6.912,1.632 2.88,0 5.376,-0.384 2.59198,-0.384 4.51198,-0.864 z m -24.47998,-25.248 q 3.072,-0.672 6.72,-1.152 3.744,-0.48 7.296,-0.48 4.032,0 7.67998,0.768 3.744,0.672 6.432,2.496 2.784,1.728 4.416,4.608 1.632,2.88 1.632,7.2 v 29.856 q -3.648,1.056 -8.832,2.208 -5.08798,1.056 -10.94398,1.056 -4.032,0 -7.488,-0.768 -3.456,-0.768 -6.048,-2.496 -2.496,-1.824 -3.936,-4.704 -1.44,-2.88 -1.44,-7.2 0,-4.032 1.536,-6.72 1.632,-2.688 4.224,-4.32 2.592,-1.632 6.048,-2.304 3.456,-0.672 7.2,-0.672 3.072,0 5.472,0.288 2.49598,0.192 4.51198,0.576 v -4.512 q 0,-4.8 -3.168,-6.432 -3.07198,-1.728 -7.77598,-1.728 -3.264,0 -6.72,0.576 -3.456,0.576 -6.144,1.152 z m -39.1845,22.464 q 0,12.768 -5.76,18.432 -5.664,5.664 -16.224,5.664 -10.56,0 -16.224,-5.664 -5.664,-5.664 -5.664,-18.432 0,-12.768 5.664,-18.432 5.664,-5.664 16.224,-5.664 10.56,0 16.224,5.664 5.76,5.664 5.76,18.432 z m -10.08,0 q 0,-4.896 -0.768,-8.064 -0.768,-3.264 -2.304,-5.184 -1.536,-1.92 -3.744,-2.688 -2.112,-0.768 -4.992,-0.768 -2.88,0 -5.088,0.768 -2.208,0.768 -3.744,2.688 -1.536,1.92 -2.304,5.184 -0.768,3.168 -0.768,8.064 0,4.896 0.768,8.16 0.768,3.168 2.304,5.088 1.536,1.92 3.744,2.688 2.208,0.768 5.088,0.768 2.88,0 4.992,-0.768 2.208,-0.768 3.744,-2.688 1.536,-1.92 2.304,-5.088 0.768,-3.264 0.768,-8.16 z m -54.6285,-36.48 v 13.344 h 13.44 v 7.2 h -13.44 v 27.552 q 0,2.784 1.536,3.936 1.536,1.056 4.032,1.056 2.208,0 4.608,-0.384 2.4,-0.48 4.032,-0.96 l 0.288,7.296 q -2.208,0.768 -4.8,1.152 -2.592,0.384 -5.28,0.384 -6.24,0 -10.176,-2.976 -3.936,-2.976 -3.936,-9.792 v -27.264 h -7.584 v -7.2 h 7.584 l 2.208,-13.344 z m -53.7315,57.12 q -3.84,1.344 -9.216,2.4 -5.28,1.056 -10.752,1.056 -4.032,0 -7.68,-0.864 -3.648,-0.768 -6.432,-2.688 -2.688,-1.92 -4.32,-5.088 -1.536,-3.264 -1.536,-8.064 v -30.528 h 9.696 v 30.624 q 0,2.592 0.768,4.416 0.864,1.728 2.304,2.88 1.44,1.056 3.264,1.536 1.92,0.384 4.128,0.384 2.688,0 5.472,-0.384 2.784,-0.48 4.608,-0.96 v -38.496 h 9.696 z m -95.5095,-41.184 q 1.824,-0.576 4.128,-1.152 2.4,-0.672 5.088,-1.152 2.688,-0.576 5.568,-0.864 2.976,-0.384 5.856,-0.384 4.32,0 7.968,0.864 3.744,0.768 6.432,2.688 2.784,1.824 4.32,4.992 1.536,3.168 1.536,7.776 v 30.912 h -9.696 v -30.528 q 0,-2.688 -0.864,-4.512 -0.768,-1.824 -2.208,-2.88 -1.44,-1.056 -3.456,-1.44 -2.016,-0.48 -4.32,-0.48 -2.688,0 -5.568,0.48 -2.88,0.384 -5.088,0.96 v 38.4 h -9.696 z m -42.8715,23.328 q 0.096,3.456 0.864,6.144 0.768,2.592 2.496,4.32 1.728,1.728 4.608,2.592 2.88,0.864 7.296,0.864 1.536,0 3.36,-0.096 1.824,-0.192 3.552,-0.48 1.824,-0.288 3.36,-0.576 1.632,-0.288 2.688,-0.576 l 0.864,7.104 q -2.784,0.768 -6.816,1.344 -3.936,0.672 -8.064,0.672 -5.472,0 -9.984,-1.056 -4.512,-1.056 -7.68,-3.744 -3.168,-2.784 -4.992,-7.392 -1.728,-4.704 -1.728,-11.904 0,-6.72 1.44,-11.328 1.536,-4.608 4.32,-7.392 2.784,-2.88 6.72,-4.128 4.032,-1.248 8.928,-1.248 4.896,0 8.448,1.44 3.552,1.344 5.856,3.84 2.4,2.496 3.456,6.048 1.152,3.552 1.152,7.968 v 7.584 z m 20.832,-6.72 q 0,-13.344 -9.888,-13.344 -5.472,0 -7.968,3.36 -2.496,3.36 -2.88,9.984 z m -102.63,-36.768 22.944,34.464 23.04,-34.464 h 10.944 v 63.84 h -9.888 v -50.208 l -20.064,30.144 h -8.064 l -19.968,-30.144 v 50.208 h -9.984 v -63.84 z m -53.6175,24.864 q -2.304,-0.48 -5.376,-0.768 -3.072,-0.384 -6.528,-0.384 -5.088,0 -8.064,1.056 -2.88,1.056 -2.88,4.128 0,1.824 1.92,3.264 1.92,1.44 4.704,2.88 2.88,1.344 6.24,2.88 3.36,1.44 6.144,3.456 2.88,2.016 4.8,4.704 1.92,2.592 1.92,6.336 0,3.36 -1.44,5.76 -1.44,2.304 -3.936,3.84 -2.496,1.44 -5.952,2.112 -3.36,0.672 -7.392,0.672 -4.608,0 -8.928,-0.672 -4.224,-0.672 -7.2,-1.728 l 1.056,-7.296 q 1.344,0.48 3.072,0.864 1.824,0.384 3.84,0.768 2.016,0.288 4.032,0.48 2.016,0.192 3.936,0.192 4.416,0 6.624,-0.96 2.208,-1.056 2.208,-4.032 0,-2.208 -1.92,-3.744 -1.824,-1.632 -4.704,-3.072 -2.784,-1.44 -6.048,-2.88 -3.264,-1.44 -6.144,-3.264 -2.784,-1.824 -4.704,-4.32 -1.824,-2.496 -1.824,-5.952 0,-3.744 1.632,-6.144 1.632,-2.496 4.416,-3.84 2.88,-1.44 6.624,-2.016 3.84,-0.576 8.064,-0.576 3.552,0 7.008,0.384 3.456,0.288 5.664,0.672 z m -45.546,-31.104 v 70.08 h -9.696 v -70.08 z m -22.7175,46.944 q 0,12.768 -5.76,18.432 -5.664,5.664 -16.224,5.664 -10.56,0 -16.224,-5.664 -5.664,-5.664 -5.664,-18.432 0,-12.768 5.664,-18.432 5.664,-5.664 16.224,-5.664 10.56,0 16.224,5.664 5.76,5.664 5.76,18.432 z m -10.08,0 q 0,-4.896 -0.768,-8.064 -0.768,-3.264 -2.304,-5.184 -1.536,-1.92 -3.744,-2.688 -2.112,-0.768 -4.992,-0.768 -2.88,0 -5.088,0.768 -2.208,0.768 -3.744,2.688 -1.536,1.92 -2.304,5.184 -0.768,3.168 -0.768,8.064 0,4.896 0.768,8.16 0.768,3.168 2.304,5.088 1.536,1.92 3.744,2.688 2.208,0.768 5.088,0.768 2.88,0 4.992,-0.768 2.208,-0.768 3.744,-2.688 1.536,-1.92 2.304,-5.088 0.768,-3.264 0.768,-8.16 z m -43.3575,0 q 0,12.768 -5.76,18.432 -5.664,5.664 -16.224,5.664 -10.56,0 -16.224,-5.664 -5.664,-5.664 -5.664,-18.432 0,-12.768 5.664,-18.432 5.664,-5.664 16.224,-5.664 10.56,0 16.224,5.664 5.76,5.664 5.76,18.432 z m -10.08,0 q 0,-4.896 -0.768,-8.064 -0.768,-3.264 -2.304,-5.184 -1.536,-1.92 -3.744,-2.688 -2.112,-0.768 -4.992,-0.768 -2.88,0 -5.088,0.768 -2.208,0.768 -3.744,2.688 -1.536,1.92 -2.304,5.184 -0.768,3.168 -0.768,8.064 0,4.896 0.768,8.16 0.768,3.168 2.304,5.088 1.536,1.92 3.744,2.688 2.208,0.768 5.088,0.768 2.88,0 4.992,-0.768 2.208,-0.768 3.744,-2.688 1.536,-1.92 2.304,-5.088 0.768,-3.264 0.768,-8.16 z m -31.899,-40.704 v 7.584 h -20.928 v 56.256 h -10.08 v -56.256 h -20.928 v -7.584 z m -114.1545,43.488 q 0.096,3.456 0.864,6.144 0.768,2.592 2.496,4.32 1.728,1.728 4.608,2.592 2.88,0.864 7.296,0.864 1.536,0 3.36,-0.096 1.824,-0.192 3.552,-0.48 1.824,-0.288 3.36,-0.576 1.632,-0.288 2.688,-0.576 l 0.864,7.104 q -2.784,0.768 -6.816,1.344 -3.936,0.672 -8.064,0.672 -5.472,0 -9.984,-1.056 -4.512,-1.056 -7.68,-3.744 -3.168,-2.784 -4.992,-7.392 -1.728,-4.704 -1.728,-11.904 0,-6.72 1.44,-11.328 1.536,-4.608 4.32,-7.392 2.784,-2.88 6.72,-4.128 4.032,-1.248 8.928,-1.248 4.896,0 8.448,1.44 3.552,1.344 5.856,3.84 2.4,2.496 3.456,6.048 1.152,3.552 1.152,7.968 v 7.584 z m 20.832,-6.72 q 0,-13.344 -9.888,-13.344 -5.472,0 -7.968,3.36 -2.496,3.36 -2.88,9.984 z m -84.0855,-43.008 h 9.696 v 24.384 q 2.784,-0.576 5.76,-1.056 3.072,-0.48 6.048,-0.48 4.032,0 7.584,0.864 3.552,0.768 6.144,2.688 2.592,1.92 4.128,5.088 1.536,3.072 1.536,7.68 v 30.912 h -9.696 v -30.528 q 0,-2.688 -0.864,-4.512 -0.768,-1.824 -2.304,-2.88 -1.44,-1.056 -3.456,-1.44 -1.92,-0.48 -4.224,-0.48 -2.688,0 -5.568,0.48 -2.88,0.48 -5.088,0.96 v 38.4 h -9.696 z m -25.134,10.464 v 13.344 h 13.44 v 7.2 h -13.44 v 27.552 q 0,2.784 1.536,3.936 1.536,1.056 4.032,1.056 2.208,0 4.608,-0.384 2.4,-0.48 4.032,-0.96 l 0.288,7.296 q -2.208,0.768 -4.8,1.152 -2.592,0.384 -5.28,0.384 -6.24,0 -10.176,-2.976 -3.936,-2.976 -3.936,-9.792 v -27.264 h -7.584 v -7.2 h 7.584 l 2.208,-13.344 z m -93.928495,15.936 q 1.824,-0.576 4.128,-1.152 2.4,-0.672 5.088,-1.152 2.688,-0.576 5.567995,-0.864 2.976,-0.384 5.856,-0.384 4.32,0 7.968,0.864 3.744,0.768 6.432,2.688 2.784,1.824 4.32,4.992 1.536,3.168 1.536,7.776 v 30.912 h -9.696 v -30.528 q 0,-2.688 -0.864,-4.512 -0.768,-1.824 -2.208,-2.88 -1.44,-1.056 -3.456,-1.44 -2.016,-0.48 -4.32,-0.48 -2.688,0 -5.568,0.48 -2.879995,0.384 -5.087995,0.96 v 38.4 h -9.696 z m -42.8715,23.328 q 0.096,3.456 0.864,6.144 0.768,2.592 2.496,4.32 1.728,1.728 4.608,2.592 2.88,0.864 7.296,0.864 1.536,0 3.36,-0.096 1.824,-0.192 3.552,-0.48 1.824,-0.288 3.36,-0.576 1.632,-0.288 2.688,-0.576 l 0.864,7.104 q -2.784,0.768 -6.816,1.344 -3.936,0.672 -8.064,0.672 -5.472,0 -9.984,-1.056 -4.512,-1.056 -7.68,-3.744 -3.168,-2.784 -4.992,-7.392 -1.728,-4.704 -1.728,-11.904 0,-6.72 1.44,-11.328 1.536,-4.608 4.32,-7.392 2.784,-2.88 6.72,-4.128 4.032,-1.248 8.928,-1.248 4.896,0 8.448,1.44 3.552,1.344 5.856,3.84 2.4,2.496 3.456,6.048 1.152,3.552 1.152,7.968 v 7.584 z m 20.832,-6.72 q 0,-13.344 -9.888,-13.344 -5.472,0 -7.968,3.36 -2.496,3.36 -2.88,9.984 z m -82.494002,-16.608 q 4.512002,-1.44 9.888002,-2.496 5.472,-1.056 10.368,-1.056 4.608,0 8.544,1.248 3.936,1.152 6.816,3.936 2.976,2.784 4.608,7.296 1.632,4.512 1.632,11.136 0,7.296 -1.728,12.096 -1.632,4.704 -4.512,7.488 -2.88,2.784 -6.72,3.936 -3.744,1.056 -8.064,1.056 -2.784,0 -5.76,-0.384 -2.88,-0.384 -5.376,-0.864 v 18.336005 h -9.696002 z m 9.696002,36 q 2.688,0.48 5.28,0.864 2.59199999,0.384 5.184,0.384 2.592,0 4.704,-0.672 2.208,-0.768 3.744,-2.688 1.536,-1.92 2.304,-5.184 0.864,-3.36 0.864,-8.544 0,-4.992 -0.864,-8.16 -0.768,-3.168 -2.304,-4.992 -1.536,-1.824 -3.744,-2.496 -2.112,-0.672 -4.8,-0.672 -1.152,0 -2.59200001,0.192 -1.344,0.096 -2.78399999,0.288 -1.44,0.192 -2.784,0.48 -1.248,0.192 -2.208,0.48 z m -23.376002,-24.192 q 0,8.832 -1.824,15.072 -1.728,6.24 -5.184,10.272 -3.456,3.936 -8.64,5.76 -5.088,1.824 -11.712,1.824 -6.72,0 -11.904,-1.824 -5.088,-1.824 -8.544,-5.76 -3.456,-4.032 -5.28,-10.272 -1.728,-6.24 -1.728,-15.072 0,-8.832 1.728,-15.072 1.824,-6.24 5.28,-10.176 3.456,-4.032 8.544,-5.856 5.184,-1.824 11.904,-1.824 6.624,0 11.712,1.824 5.184,1.824 8.64,5.856 3.456,3.936 5.184,10.176 1.824,6.24 1.824,15.072 z m -10.56,0 q 0,-7.104 -1.056,-11.904 -1.056,-4.896 -3.168,-7.872 -2.112,-2.976 -5.28,-4.224 -3.168,-1.344 -7.296,-1.344 -4.224,0 -7.392,1.344 -3.072,1.248 -5.28,4.224 -2.112,2.976 -3.168,7.872 -1.056,4.8 -1.056,11.904 0,7.104 1.056,12 1.056,4.8 3.168,7.776 2.208,2.976 5.28,4.32 3.168,1.248 7.392,1.248 4.128,0 7.296,-1.248 3.168,-1.344 5.28,-4.32 2.112,-2.976 3.168,-7.776 1.056,-4.896 1.056,-12 z"
         inkscape:connector-curvature="0" />
    </g>
    <g
       aria-label="Start adding new leangets and configure your Dashboard"
       transform="matrix(0.26458333,0,0,0.26458333,22.097819,116.89093)"
       style="font-style:normal;font-variant:normal;font-weight:normal;font-stretch:normal;font-size:40px;line-height:125%;font-family:'3ds';-inkscape-font-specification:'3ds';letter-spacing:0px;word-spacing:0px;fill:#239de8;fill-opacity:1;stroke:none;stroke-width:1px;stroke-linecap:butt;stroke-linejoin:miter;stroke-opacity:1"
       id="flowRoot861-4">
      <path
         id="path1078"
         style="font-size:96px;line-height:95.40001153999999400%;fill:#239de8;fill-opacity:1;stroke:none;stroke-opacity:1"
         d="m 917.87992,136.0104 q -2.592,-0.672 -5.184,-1.056 -2.592,-0.384 -5.184,-0.384 -2.4,0 -4.608,0.768 -2.112,0.672 -3.744,2.592 -1.536,1.824 -2.496,4.992 -0.864,3.072 -0.864,7.968 0,5.184 0.768,8.544 0.864,3.264 2.4,5.28 1.536,1.92 3.744,2.688 2.208,0.672 4.992,0.672 2.496,0 5.088,-0.288 2.592,-0.384 5.088,-0.864 z m 9.696,-31.68 v 68.256 q -4.32,1.056 -9.888,1.92 -5.568,0.864 -10.176,0.864 -4.608,0 -8.544,-1.056 -3.936,-1.152 -6.912,-3.936 -2.976,-2.88 -4.704,-7.584 -1.632,-4.704 -1.632,-11.904 0,-6.72 1.632,-11.232 1.728,-4.512 4.608,-7.296 2.88,-2.784 6.72,-3.936 3.936,-1.248 8.448,-1.248 2.784,0 5.28,0.384 2.592,0.384 5.376,0.96 v -24.192 z m -71.7795,26.4 q 5.952,-1.824 11.904,-2.592 6.048,-0.864 13.248,-0.864 v 7.68 q -1.056,-0.096 -2.208,-0.096 -1.152,0 -2.304,0 -3.072,0 -5.952,0.384 -2.88,0.384 -4.992,0.96 v 38.208 h -9.696 z m -24.7275,23.328 q -2.016,-0.384 -4.416,-0.576 -2.4,-0.288 -4.896,-0.288 -2.112,0 -4.032,0.288 -1.824,0.288 -3.264,1.152 -1.344,0.768 -2.208,2.304 -0.768,1.44 -0.768,3.84 0,4.416 2.784,6.144 2.88,1.632 6.912,1.632 2.88,0 5.376,-0.384 2.592,-0.384 4.512,-0.864 z m -24.48,-25.248 q 3.072,-0.672 6.72,-1.152 3.744,-0.48 7.296,-0.48 4.032,0 7.68,0.768 3.744,0.672 6.432,2.496 2.784,1.728 4.416,4.608 1.632,2.88 1.632,7.2 v 29.856 q -3.648,1.056 -8.832,2.208 -5.088,1.056 -10.944,1.056 -4.032,0 -7.488,-0.768 -3.456,-0.768 -6.048,-2.496 -2.496,-1.824 -3.936,-4.704 -1.44,-2.88 -1.44,-7.2 0,-4.032 1.536,-6.72 1.632,-2.688 4.224,-4.32 2.592,-1.632 6.048,-2.304 3.456,-0.672 7.2,-0.672 3.072,0 5.472,0.288 2.496,0.192 4.512,0.576 v -4.512 q 0,-4.8 -3.168,-6.432 -3.072,-1.728 -7.776,-1.728 -3.264,0 -6.72,0.576 -3.456,0.576 -6.144,1.152 z m -13.3095,22.464 q 0,12.768 -5.76,18.432 -5.664,5.664 -16.224,5.664 -10.56,0 -16.224,-5.664 -5.664,-5.664 -5.664,-18.432 0,-12.768 5.664,-18.432 5.664,-5.664 16.224,-5.664 10.56,0 16.224,5.664 5.76,5.664 5.76,18.432 z m -10.08,0 q 0,-4.896 -0.768,-8.064 -0.768,-3.264 -2.304,-5.184 -1.536,-1.92 -3.744,-2.688 -2.112,-0.768 -4.992,-0.768 -2.88,0 -5.088,0.768 -2.208,0.768 -3.744,2.688 -1.536,1.92 -2.304,5.184 -0.768,3.168 -0.768,8.064 0,4.896 0.768,8.16 0.768,3.168 2.304,5.088 1.536,1.92 3.744,2.688 2.208,0.768 5.088,0.768 2.88,0 4.992,-0.768 2.208,-0.768 3.744,-2.688 1.536,-1.92 2.304,-5.088 0.768,-3.264 0.768,-8.16 z m -75.5865,-46.944 v 24.288 q 2.688,-0.576 5.568,-0.96 2.88,-0.48 5.664,-0.48 4.416,0 8.256,1.248 3.84,1.152 6.624,3.936 2.88,2.784 4.416,7.296 1.632,4.512 1.632,11.232 0,7.2 -1.728,11.904 -1.728,4.704 -4.704,7.584 -2.88,2.784 -6.912,3.936 -3.936,1.056 -8.448,1.056 -2.304,0 -4.992,-0.288 -2.592,-0.192 -5.28,-0.576 -2.592,-0.384 -5.184,-0.864 -2.496,-0.48 -4.608,-1.056 v -68.256 z m 0,62.592 q 2.496,0.48 5.088,0.864 2.592,0.288 5.088,0.288 2.784,0 4.992,-0.672 2.208,-0.768 3.744,-2.688 1.536,-2.016 2.304,-5.28 0.864,-3.36 0.864,-8.544 0,-4.896 -0.864,-7.968 -0.768,-3.168 -2.304,-4.992 -1.536,-1.92 -3.648,-2.592 -2.016,-0.768 -4.512,-0.768 -2.592,0 -5.376,0.48 -2.784,0.384 -5.376,0.96 z m -65.8455,-62.592 h 9.696 v 24.384 q 2.784,-0.576 5.76,-1.056 3.072,-0.48 6.048,-0.48 4.032,0 7.584,0.864 3.552,0.768 6.144,2.688 2.592,1.92 4.128,5.088 1.536,3.072 1.536,7.68 v 30.912 h -9.696 v -30.528 q 0,-2.688 -0.864,-4.512 -0.768,-1.824 -2.304,-2.88 -1.44,-1.056 -3.456,-1.44 -1.92,-0.48 -4.224,-0.48 -2.688,0 -5.568,0.48 -2.88,0.48 -5.088,0.96 v 38.4 h -9.696 z m -14.9745,31.104 q -2.304,-0.48 -5.376,-0.768 -3.072,-0.384 -6.528,-0.384 -5.088,0 -8.064,1.056 -2.88,1.056 -2.88,4.128 0,1.824 1.92,3.264 1.92,1.44 4.704,2.88 2.88,1.344 6.24,2.88 3.36,1.44 6.144,3.456 2.88,2.016 4.8,4.704 1.92,2.592 1.92,6.336 0,3.36 -1.44,5.76 -1.44,2.304 -3.936,3.84 -2.496,1.44 -5.952,2.112 -3.36,0.672 -7.392,0.672 -4.608,0 -8.928,-0.672 -4.224,-0.672 -7.2,-1.728 l 1.056,-7.296 q 1.344,0.48 3.072,0.864 1.824,0.384 3.84,0.768 2.016,0.288 4.032,0.48 2.016,0.192 3.936,0.192 4.416,0 6.624,-0.96 2.208,-1.056 2.208,-4.032 0,-2.208 -1.92,-3.744 -1.824,-1.632 -4.704,-3.072 -2.784,-1.44 -6.048,-2.88 -3.264,-1.44 -6.144,-3.264 -2.784,-1.824 -4.704,-4.32 -1.824,-2.496 -1.824,-5.952 0,-3.744 1.632,-6.144 1.632,-2.496 4.416,-3.84 2.88,-1.44 6.624,-2.016 3.84,-0.576 8.064,-0.576 3.552,0 7.008,0.384 3.456,0.288 5.664,0.672 z m -53.9115,18.624 q -2.016,-0.384 -4.416,-0.576 -2.4,-0.288 -4.896,-0.288 -2.112,0 -4.032,0.288 -1.824,0.288 -3.264,1.152 -1.344,0.768 -2.208,2.304 -0.768,1.44 -0.768,3.84 0,4.416 2.784,6.144 2.88,1.632 6.912,1.632 2.88,0 5.376,-0.384 2.592,-0.384 4.512,-0.864 z m -24.48,-25.248 q 3.072,-0.672 6.72,-1.152 3.744,-0.48 7.296,-0.48 4.032,0 7.68,0.768 3.744,0.672 6.432,2.496 2.784,1.728 4.416,4.608 1.632,2.88 1.632,7.2 v 29.856 q -3.648,1.056 -8.832,2.208 -5.088,1.056 -10.944,1.056 -4.032,0 -7.488,-0.768 -3.456,-0.768 -6.048,-2.496 -2.496,-1.824 -3.936,-4.704 -1.44,-2.88 -1.44,-7.2 0,-4.032 1.536,-6.72 1.632,-2.688 4.224,-4.32 2.592,-1.632 6.048,-2.304 3.456,-0.672 7.2,-0.672 3.072,0 5.472,0.288 2.496,0.192 4.512,0.576 v -4.512 q 0,-4.8 -3.168,-6.432 -3.072,-1.728 -7.776,-1.728 -3.264,0 -6.72,0.576 -3.456,0.576 -6.144,1.152 z m -42.7815,-18.24 q 6.816,0 12.096,1.824 5.376,1.824 9.024,5.664 3.648,3.84 5.568,9.792 1.92,5.856 1.92,14.016 0,7.872 -1.536,14.112 -1.536,6.24 -5.088,10.56 -3.552,4.32 -9.312,6.624 -5.664,2.304 -14.016,2.304 -4.8,0 -9.888,-0.576 -4.992,-0.576 -10.368,-1.824 v -62.496 z m -11.52,56.448 q 4.704,0.864 10.464,0.864 10.08,0 14.688,-6.24 4.608,-6.24 4.608,-19.68 0,-6.432 -1.248,-10.944 -1.248,-4.608 -3.552,-7.392 -2.304,-2.88 -5.76,-4.128 -3.36,-1.344 -7.68,-1.344 h -11.52 z m -72.5535,-36.288 q 5.952,-1.824 11.904,-2.592 6.048,-0.864 13.248,-0.864 v 7.68 q -1.056,-0.096 -2.208,-0.096 -1.152,0 -2.304,0 -3.072,0 -5.952,0.384 -2.88,0.384 -4.992,0.96 v 38.208 h -9.696 z m -16.1445,41.184 q -3.84,1.344 -9.216,2.4 -5.28,1.056 -10.752,1.056 -4.032,0 -7.68,-0.864 -3.648,-0.768 -6.432,-2.688 -2.688,-1.92 -4.32,-5.088 -1.536,-3.264 -1.536,-8.064 v -30.528 h 9.696 v 30.624 q 0,2.592 0.768,4.416 0.864,1.728 2.304,2.88 1.44,1.056 3.264,1.536 1.92,0.384 4.128,0.384 2.688,0 5.472,-0.384 2.784,-0.48 4.608,-0.96 v -38.496 h 9.696 z m -51.9975,-20.64 q 0,12.768 -5.76,18.432 -5.664,5.664 -16.224,5.664 -10.56,0 -16.224,-5.664 -5.664,-5.664 -5.664,-18.432 0,-12.768 5.664,-18.432 5.664,-5.664 16.224,-5.664 10.56,0 16.224,5.664 5.76,5.664 5.76,18.432 z m -10.08,0 q 0,-4.896 -0.768,-8.064 -0.768,-3.264 -2.304,-5.184 -1.536,-1.92 -3.744,-2.688 -2.112,-0.768 -4.992,-0.768 -2.88,0 -5.088,0.768 -2.208,0.768 -3.744,2.688 -1.536,1.92 -2.304,5.184 -0.768,3.168 -0.768,8.064 0,4.896 0.768,8.16 0.768,3.168 2.304,5.088 1.536,1.92 3.744,2.688 2.208,0.768 5.088,0.768 2.88,0 4.992,-0.768 2.208,-0.768 3.744,-2.688 1.536,-1.92 2.304,-5.088 0.768,-3.264 0.768,-8.16 z m -46.86,-23.136 v 46.464 q 0,5.28 -1.44,8.832 -1.44,3.648 -4.128,5.856 -2.688,2.208 -6.624,3.168 -3.936,0.96 -8.928,0.96 -4.128,0 -8.736,-0.768 -4.512,-0.672 -7.776,-1.536 l 1.056,-7.2 q 3.168,0.768 7.392,1.44 4.224,0.672 7.776,0.672 6.144,0 8.928,-2.304 2.784,-2.304 2.784,-7.776 v -2.688 q -2.496,0.48 -5.184,0.864 -2.592,0.288 -5.088,0.288 -4.032,0 -7.68,-0.768 -3.648,-0.864 -6.432,-2.784 -2.688,-1.92 -4.32,-5.088 -1.536,-3.264 -1.536,-8.064 v -29.568 h 9.696 v 29.664 q 0,2.592 0.768,4.416 0.864,1.824 2.304,2.88 1.44,1.056 3.264,1.536 1.92,0.48 4.128,0.48 2.688,0 5.472,-0.384 2.784,-0.48 4.608,-1.056 v -37.536 z m -107.8185,25.92 q 0.096,3.456 0.864,6.144 0.768,2.592 2.496,4.32 1.728,1.728 4.608,2.592 2.88,0.864 7.296,0.864 1.536,0 3.36,-0.096 1.824,-0.192 3.552,-0.48 1.824,-0.288 3.36,-0.576 1.632,-0.288 2.688,-0.576 l 0.864,7.104 q -2.784,0.768 -6.816,1.344 -3.936,0.672 -8.064,0.672 -5.472,0 -9.984,-1.056 -4.512,-1.056 -7.68,-3.744 -3.168,-2.784 -4.992,-7.392 -1.728,-4.704 -1.728,-11.904 0,-6.72 1.44,-11.328 1.536,-4.608 4.32,-7.392 2.784,-2.88 6.72,-4.128 4.032,-1.248 8.928,-1.248 4.896,0 8.448,1.44 3.552,1.344 5.856,3.84 2.4,2.496 3.456,6.048 1.152,3.552 1.152,7.968 v 7.584 z m 20.832,-6.72 q 0,-13.344 -9.888,-13.344 -5.472,0 -7.968,3.36 -2.496,3.36 -2.88,9.984 z m -60.9315,-16.608 q 5.952,-1.824 11.904,-2.592 6.048,-0.864 13.248,-0.864 v 7.68 q -1.056,-0.096 -2.208,-0.096 -1.152,0 -2.304,0 -3.072,0 -5.952,0.384 -2.88,0.384 -4.992,0.96 v 38.208 h -9.696 z m -16.1445,41.184 q -3.84,1.344 -9.216,2.4 -5.28,1.056 -10.752,1.056 -4.032,0 -7.68,-0.864 -3.648,-0.768 -6.431998,-2.688 -2.688,-1.92 -4.32,-5.088 -1.536,-3.264 -1.536,-8.064 v -30.528 h 9.695998 v 30.624 q 0,2.592 0.768,4.416 0.864,1.728 2.304,2.88 1.44,1.056 3.264,1.536 1.92,0.384 4.128,0.384 2.688,0 5.472,-0.384 2.784,-0.48 4.608,-0.96 v -38.496 h 9.696 z m -55.417498,2.784 q 0,5.28 -1.44,8.832 -1.44,3.552 -4.224,5.76 -2.688,2.208 -6.624,3.168 -3.84,0.96 -8.832,0.96 -4.128,0 -8.736,-0.672 -4.608,-0.672 -7.776,-1.536 l 1.056,-7.296 q 3.168,0.768 7.392,1.44 4.224,0.768 7.776,0.768 6.144,0 8.928,-2.496 2.784,-2.4 2.784,-7.872 v -2.592 q -2.496,0.48 -5.472,0.864 -2.976,0.384 -5.76,0.384 -4.224,0 -8.064,-0.96 -3.84,-0.96 -6.72,-3.552 -2.88,-2.688 -4.608,-7.296 -1.632,-4.608 -1.632,-11.904 0,-6.624 1.824,-11.136 1.824,-4.512 4.896,-7.2 3.072,-2.784 7.2,-3.936 4.224,-1.248 8.832,-1.248 4.896,0 9.792,1.056 4.896,1.056 9.408,2.496 z m -9.696,-38.688 q -1.92,-0.48 -4.512,-0.96 -2.496,-0.48 -4.896,-0.48 -2.592,0 -4.896,0.672 -2.304,0.672 -4.032,2.496 -1.728,1.824 -2.784,4.992 -0.96,3.072 -0.96,8.064 0,5.184 0.768,8.352 0.864,3.168 2.4,4.992 1.536,1.728 3.648,2.304 2.208,0.576 4.8,0.576 2.496,0 5.088,-0.384 2.592,-0.384 5.376,-0.864 z m -83.13,-7.872 v -7.68 q 0,-4.512 1.632,-7.776 1.632,-3.264 4.4159999,-5.28 2.784,-2.112 6.624,-3.072 3.83999998,-1.056 8.352,-1.056 4.32,0 8.3520001,0.576 4.128,0.48 6.624,1.152 l -1.056,7.488 q -2.496,-0.672 -6.144,-1.152 -3.5520001,-0.48 -7.2000001,-0.48 -5.28000002,0 -8.544,2.112 -3.264,2.112 -3.264,7.392 v 7.776 H 22.078422 v 46.272 h -9.696 v -39.264 H -6.0495781 v 39.264 h -9.7919999 v -39.264 h -7.392 v -7.008 z m -58.4535,2.592 q 1.824,-0.576 4.128,-1.152 2.4,-0.672 5.088,-1.152 2.688,-0.576 5.568,-0.864 2.976,-0.384 5.856,-0.384 4.32,0 7.968,0.864 3.744,0.768 6.432,2.688 2.784,1.824 4.32,4.992 1.536,3.168 1.536,7.776 v 30.912 h -9.696 v -30.528 q 0,-2.688 -0.864,-4.512 -0.768,-1.824 -2.208,-2.88 -1.44,-1.056 -3.456,-1.44 -2.016,-0.48 -4.32,-0.48 -2.688,0 -5.568,0.48 -2.88,0.384 -5.088,0.96 v 38.4 h -9.696 z m -12.9255,20.544 q 0,12.768 -5.76,18.432 -5.664,5.664 -16.224002,5.664 -10.56,0 -16.224,-5.664 -5.664,-5.664 -5.664,-18.432 0,-12.768 5.664,-18.432 5.664,-5.664 16.224,-5.664 10.560002,0 16.224002,5.664 5.76,5.664 5.76,18.432 z m -10.08,0 q 0,-4.896 -0.768,-8.064 -0.768,-3.264 -2.304002,-5.184 -1.536,-1.92 -3.744,-2.688 -2.112,-0.768 -4.992,-0.768 -2.88,0 -5.088,0.768 -2.208,0.768 -3.744,2.688 -1.536,1.92 -2.304,5.184 -0.768,3.168 -0.768,8.064 0,4.896 0.768,8.16 0.768,3.168 2.304,5.088 1.536,1.92 3.744,2.688 2.208,0.768 5.088,0.768 2.88,0 4.992,-0.768 2.208,-0.768 3.744,-2.688 1.536002,-1.92 2.304002,-5.088 0.768,-3.264 0.768,-8.16 z m -42.210002,-15.552 q -2.304,-0.48 -4.992,-0.768 -2.688,-0.384 -5.472,-0.384 -2.88,0 -5.184,0.768 -2.304,0.672 -3.936,2.592 -1.536,1.824 -2.4,5.088 -0.768,3.168 -0.768,8.256 0,4.608 0.672,7.872 0.672,3.168 2.112,5.184 1.536,1.92 3.936,2.784 2.4,0.864 5.76,0.864 2.976,0 5.568,-0.384 2.688,-0.48 5.376,-1.152 l 0.864,7.2 q -2.784,0.768 -5.952,1.248 -3.168,0.48 -6.432,0.48 -4.896,0 -8.928,-1.248 -4.032,-1.248 -7.008,-4.032 -2.88,-2.88 -4.512,-7.488 -1.536,-4.608 -1.536,-11.424 0,-6.912 1.632,-11.52 1.632,-4.704 4.608,-7.392 2.976,-2.784 7.104,-3.936 4.128,-1.152 9.12,-1.152 2.976,0 6.048,0.384 3.072,0.384 5.28,0.864 z M 1133.8799,44.426383 q -2.592,-0.672 -5.184,-1.056 -2.592,-0.384 -5.184,-0.384 -2.4,0 -4.608,0.768 -2.112,0.672 -3.744,2.592 -1.536,1.824 -2.496,4.992 -0.864,3.072 -0.864,7.968 0,5.184 0.768,8.544 0.864,3.264 2.4,5.28 1.536,1.92 3.744,2.688 2.208,0.672 4.992,0.672 2.496,0 5.088,-0.288 2.592,-0.384 5.088,-0.864 z m 9.696,-31.68 v 68.256 q -4.32,1.056 -9.888,1.92 -5.568,0.864 -10.176,0.864 -4.608,0 -8.544,-1.056 -3.936,-1.152 -6.912,-3.936 -2.976,-2.88 -4.704,-7.584 -1.632,-4.704 -1.632,-11.904 0,-6.72 1.632,-11.232 1.728,-4.512 4.608,-7.296 2.88,-2.784 6.72,-3.936 3.936,-1.248 8.448,-1.248 2.784,0 5.28,0.384 2.592,0.384 5.376,0.96 v -24.192 z m -94.9335,26.4 q 1.824,-0.576 4.128,-1.152 2.4,-0.672 5.088,-1.152 2.688,-0.576 5.568,-0.864 2.976,-0.384 5.856,-0.384 4.32,0 7.968,0.864 3.744,0.768 6.432,2.688 2.784,1.824 4.32,4.992 1.536,3.168 1.536,7.776 v 30.912 h -9.696 v -30.528 q 0,-2.688 -0.864,-4.512 -0.768,-1.824 -2.208,-2.88 -1.44,-1.056 -3.456,-1.44 -2.016,-0.48 -4.32,-0.48 -2.688,0 -5.568,0.48 -2.88,0.384 -5.088,0.96 v 38.4 h -9.696 z m -24.8235,23.328 q -2.016,-0.384 -4.416,-0.576 -2.4,-0.288 -4.896,-0.288 -2.112,0 -4.032,0.288 -1.824,0.288 -3.264,1.152 -1.344,0.768 -2.208,2.304 -0.768,1.44 -0.768,3.84 0,4.416 2.784,6.144 2.88,1.632 6.912,1.632 2.88,0 5.376,-0.384 2.592,-0.384 4.512,-0.864 z m -24.47998,-25.248 q 3.07198,-0.672 6.71998,-1.152 3.744,-0.48 7.296,-0.48 4.032,0 7.68,0.768 3.744,0.672 6.432,2.496 2.784,1.728 4.416,4.608 1.632,2.88 1.632,7.2 v 29.856 q -3.648,1.056 -8.832,2.208 -5.088,1.056 -10.944,1.056 -4.032,0 -7.488,-0.768 -3.456,-0.768 -6.048,-2.496 -2.49598,-1.824 -3.93598,-4.704 -1.44,-2.88 -1.44,-7.2 0,-4.032 1.536,-6.72 1.632,-2.688 4.22398,-4.32 2.592,-1.632 6.048,-2.304 3.456,-0.672 7.2,-0.672 3.072,0 5.472,0.288 2.496,0.192 4.512,0.576 v -4.512 q 0,-4.8 -3.168,-6.432 -3.072,-1.728 -7.776,-1.728 -3.264,0 -6.72,0.576 -3.456,0.576 -6.144,1.152 z m -41.2335,6.624 q -2.304,-0.48 -5.376,-0.768 -3.072,-0.384 -6.528,-0.384 -5.088,0 -8.064,1.056 -2.88,1.056 -2.88,4.128 0,1.824 1.92,3.264 1.92,1.44 4.704,2.88 2.88,1.344 6.24,2.88 3.36,1.44 6.144,3.456 2.88,2.016 4.8,4.704 1.92,2.592 1.92,6.336 0,3.36 -1.44,5.76 -1.44,2.304 -3.936,3.84 -2.496,1.44 -5.952,2.112 -3.36,0.672 -7.392,0.672 -4.608,0 -8.928,-0.672 -4.224,-0.672 -7.2,-1.728 l 1.056,-7.296 q 1.344,0.48 3.072,0.864 1.824,0.384 3.84,0.768 2.016,0.288 4.032,0.48 2.016,0.192 3.936,0.192 4.416,0 6.624,-0.96 2.208,-1.056 2.208,-4.032 0,-2.208 -1.92,-3.744 -1.824,-1.632 -4.704,-3.072 -2.784,-1.44 -6.048,-2.88 -3.264,-1.44 -6.144,-3.264 -2.784,-1.824 -4.704,-4.32 -1.824,-2.496 -1.824,-5.952 0,-3.744 1.632,-6.144 1.632,-2.496 4.416,-3.84 2.88,-1.44 6.624,-2.016 3.84,-0.576 8.064,-0.576 3.552,0 7.008,0.384 3.456,0.288 5.664,0.672 z m -54.222,-20.64 v 13.344 h 13.44 v 7.2 h -13.44 v 27.552 q 0,2.784 1.536,3.936 1.536,1.056 4.032,1.056 2.208,0 4.608,-0.384 2.4,-0.48 4.032,-0.96 l 0.288,7.296 q -2.208,0.768 -4.8,1.152 -2.592,0.384 -5.28,0.384 -6.24,0 -10.176,-2.976 -3.936,-2.976 -3.936,-9.792 v -27.264 h -7.584 v -7.2 h 7.584 l 2.208,-13.344 z m -54.4875,39.264 q 0.096,3.456 0.864,6.144 0.768,2.592 2.496,4.32 1.728,1.728 4.608,2.592 2.88,0.864 7.296,0.864 1.536,0 3.36,-0.096 1.824,-0.192 3.552,-0.48 1.824,-0.288 3.36,-0.576 1.632,-0.288 2.688,-0.576 l 0.864,7.104 q -2.784,0.768 -6.816,1.344 -3.936,0.672 -8.064,0.672 -5.472,0 -9.984,-1.056 -4.512,-1.056 -7.68,-3.744 -3.168,-2.784 -4.992,-7.392 -1.728,-4.704 -1.728,-11.904 0,-6.72 1.44,-11.328 1.536,-4.608 4.32,-7.392 2.784,-2.88 6.72,-4.128 4.032,-1.248 8.928,-1.248 4.896,0 8.448,1.44 3.552,1.344 5.856,3.84 2.4,2.496 3.456,6.048 1.152,3.552 1.152,7.968 v 7.584 z m 20.832,-6.72 q 0,-13.344 -9.888,-13.344 -5.472,0 -7.968,3.36 -2.496,3.36 -2.88,9.984 z m -43.9935,27.36 q 0,5.28 -1.44,8.832 -1.44,3.552 -4.224,5.76 -2.688,2.208 -6.624,3.167997 -3.84,0.96 -8.832,0.96 -4.128,0 -8.736,-0.672 -4.608,-0.672 -7.776,-1.535997 l 1.056,-7.296 q 3.168,0.768 7.392,1.44 4.224,0.768 7.776,0.768 6.144,0 8.928,-2.496 2.784,-2.4 2.784,-7.872 v -2.592 q -2.496,0.48 -5.472,0.864 -2.976,0.384 -5.76,0.384 -4.224,0 -8.064,-0.96 -3.84,-0.96 -6.72,-3.552 -2.88,-2.688 -4.608,-7.296 -1.632,-4.608 -1.632,-11.904 0,-6.624 1.824,-11.136 1.824,-4.512 4.896,-7.2 3.072,-2.784 7.2,-3.936 4.224,-1.248 8.832,-1.248 4.896,0 9.792,1.056 4.896,1.056 9.408,2.496 z m -9.696,-38.688 q -1.92,-0.48 -4.512,-0.96 -2.496,-0.48 -4.896,-0.48 -2.592,0 -4.896,0.672 -2.304,0.672 -4.032,2.496 -1.728,1.824 -2.784,4.992 -0.96,3.072 -0.96,8.064 0,5.184 0.768,8.352 0.864,3.168 2.4,4.992 1.536,1.728 3.648,2.304 2.208,0.576 4.8,0.576 2.496,0 5.088,-0.384 2.592,-0.384 5.376,-0.864 z m -85.3335,-5.28 q 1.824,-0.576 4.128,-1.152 2.4,-0.672 5.088,-1.152 2.688,-0.576 5.568,-0.864 2.976,-0.384 5.856,-0.384 4.32,0 7.968,0.864 3.744,0.768 6.432,2.688 2.784,1.824 4.32,4.992 1.536,3.168 1.536,7.776 v 30.912 h -9.696 v -30.528 q 0,-2.688 -0.864,-4.512 -0.768,-1.824 -2.208,-2.88 -1.44,-1.056 -3.456,-1.44 -2.016,-0.48 -4.32,-0.48 -2.688,0 -5.568,0.48 -2.88,0.384 -5.088,0.96 v 38.4 h -9.696 z m -24.8235,23.328 q -2.016,-0.384 -4.416,-0.576 -2.4,-0.288 -4.896,-0.288 -2.112,0 -4.032,0.288 -1.824,0.288 -3.264,1.152 -1.344,0.768 -2.208,2.304 -0.768,1.44 -0.768,3.84 0,4.416 2.784,6.144 2.88,1.632 6.912,1.632 2.88,0 5.376,-0.384 2.592,-0.384 4.512,-0.864 z m -24.48,-25.248 q 3.072,-0.672 6.72,-1.152 3.744,-0.48 7.296,-0.48 4.032,0 7.68,0.768 3.744,0.672 6.432,2.496 2.784,1.728 4.416,4.608 1.632,2.88 1.632,7.2 v 29.856 q -3.648,1.056 -8.832,2.208 -5.088,1.056 -10.944,1.056 -4.032,0 -7.488,-0.768 -3.456,-0.768 -6.048,-2.496 -2.496,-1.824 -3.936,-4.704 -1.44,-2.88 -1.44,-7.2 0,-4.032 1.536,-6.72 1.632,-2.688 4.224,-4.32 2.592,-1.632 6.048,-2.304 3.456,-0.672 7.2,-0.672 3.072,0 5.472,0.288 2.496,0.192 4.512,0.576 v -4.512 q 0,-4.8 -3.168,-6.432 -3.072,-1.728 -7.776,-1.728 -3.264,0 -6.72,0.576 -3.456,0.576 -6.144,1.152 z m -43.2555,25.248 q 0.096,3.456 0.864,6.144 0.768,2.592 2.496,4.32 1.728,1.728 4.608,2.592 2.88,0.864 7.296,0.864 1.536,0 3.36,-0.096 1.824,-0.192 3.552,-0.48 1.824,-0.288 3.36,-0.576 1.632,-0.288 2.688,-0.576 l 0.864,7.104 q -2.784,0.768 -6.816,1.344 -3.936,0.672 -8.064,0.672 -5.472,0 -9.984,-1.056 -4.512,-1.056 -7.68,-3.744 -3.168,-2.784 -4.992,-7.392 -1.728,-4.704 -1.728,-11.904 0,-6.72 1.44,-11.328 1.536,-4.608 4.32,-7.392 2.784,-2.88 6.72,-4.128 4.032,-1.248 8.928,-1.248 4.896,0 8.448,1.44 3.552,1.344 5.856,3.84 2.4,2.496 3.456,6.048 1.152,3.552 1.152,7.968 v 7.584 z m 20.832,-6.72 q 0,-13.344 -9.888,-13.344 -5.472,0 -7.968,3.36 -2.496,3.36 -2.88,9.984 z m -44.106,-43.008 v 70.08 h -9.696 v -70.08 z m -122.9205,23.808 h 9.984 l 11.808,38.016 12.48,-38.016 h 10.272 l 13.728,38.496 q 3.552,-7.296 6.432,-16.896 2.88,-9.6 4.224,-21.6 h 8.736 q -1.536,12.96 -5.088,24.192 -3.552,11.232 -9.408,22.08 h -10.944 l -12.864,-36.288 -12.192,36.288 h -12 z m -36.0555,25.92 q 0.096,3.456 0.864,6.144 0.768,2.592 2.496,4.32 1.728,1.728 4.608,2.592 2.88,0.864 7.296,0.864 1.536,0 3.36,-0.096 1.824,-0.192 3.552,-0.48 1.824,-0.288 3.36,-0.576 1.632,-0.288 2.688,-0.576 l 0.864,7.104 q -2.784,0.768 -6.816,1.344 -3.936,0.672 -8.064,0.672 -5.472,0 -9.984,-1.056 -4.512,-1.056 -7.68,-3.744 -3.168,-2.784 -4.992,-7.392 -1.728,-4.704 -1.728,-11.904 0,-6.72 1.44,-11.328 1.536,-4.608 4.32,-7.392 2.784,-2.88 6.72,-4.128 4.032,-1.248 8.928,-1.248 4.896,0 8.448,1.44 3.552,1.344 5.856,3.84 2.4,2.496 3.456,6.048 1.152,3.552 1.152,7.968 v 7.584 z m 20.832,-6.72 q 0,-13.344 -9.888,-13.344 -5.472,0 -7.968,3.36 -2.496,3.36 -2.88,9.984 z m -84.0855,-16.608 q 1.824,-0.576 4.128,-1.152 2.4,-0.672 5.088,-1.152 2.688,-0.576 5.568,-0.864 2.976,-0.384 5.856,-0.384 4.32,0 7.968,0.864 3.744,0.768 6.432,2.688 2.784,1.824 4.32,4.992 1.536,3.168 1.536,7.776 v 30.912 h -9.696 v -30.528 q 0,-2.688 -0.864,-4.512 -0.768,-1.824 -2.208,-2.88 -1.44,-1.056 -3.456,-1.44 -2.016,-0.48 -4.32,-0.48 -2.688,0 -5.568,0.48 -2.88,0.384 -5.088,0.96 v 38.4 h -9.696 z m -42.2205,43.968 q 0,5.28 -1.44,8.832 -1.44,3.552 -4.224,5.76 -2.688,2.208 -6.624,3.167997 -3.84,0.96 -8.832,0.96 -4.128,0 -8.736,-0.672 -4.608,-0.672 -7.776,-1.535997 l 1.056,-7.296 q 3.168,0.768 7.392,1.44 4.224,0.768 7.776,0.768 6.144,0 8.928,-2.496 2.784,-2.4 2.784,-7.872 v -2.592 q -2.496,0.48 -5.472,0.864 -2.976,0.384 -5.76,0.384 -4.224,0 -8.064,-0.96 -3.84,-0.96 -6.72,-3.552 -2.88,-2.688 -4.608,-7.296 -1.632,-4.608 -1.632,-11.904 0,-6.624 1.824,-11.136 1.824,-4.512 4.896,-7.2 3.072,-2.784 7.2,-3.936 4.224,-1.248 8.832,-1.248 4.896,0 9.792,1.056 4.896,1.056 9.408,2.496 z m -9.696,-38.688 q -1.92,-0.48 -4.512,-0.96 -2.496,-0.48 -4.896,-0.48 -2.592,0 -4.896,0.672 -2.304,0.672 -4.032,2.496 -1.728,1.824 -2.784,4.992 -0.96,3.072 -0.96,8.064 0,5.184 0.768,8.352 0.864,3.168 2.4,4.992 1.536,1.728 3.648,2.304 2.208,0.576 4.8,0.576 2.496,0 5.088,-0.384 2.592,-0.384 5.376,-0.864 z m -85.3335,-5.28 q 1.824,-0.576 4.128,-1.152 2.4,-0.672 5.088,-1.152 2.688,-0.576 5.568,-0.864 2.976,-0.384 5.856,-0.384 4.32,0 7.968,0.864 3.744,0.768 6.432,2.688 2.784,1.824 4.32,4.992 1.536,3.168 1.536,7.776 v 30.912 h -9.696 v -30.528 q 0,-2.688 -0.864,-4.512 -0.768,-1.824 -2.208,-2.88 -1.44,-1.056 -3.456,-1.44 -2.016,-0.48 -4.32,-0.48 -2.688,0 -5.568,0.48 -2.88,0.384 -5.088,0.96 v 38.4 h -9.696 z m -16.458,-2.592 v 46.272 h -9.696 v -46.272 z m 1.248,-17.28 q 0,2.592 -1.632,4.032 -1.536,1.44 -4.512,1.44 -2.88,0 -4.512,-1.44 -1.632,-1.44 -1.632,-4.032 0,-2.688 1.632,-4.128 1.632,-1.44 4.512,-1.44 6.144,0 6.144,5.568 z m -36.8025,25.152 q -2.592,-0.672 -5.184,-1.056 -2.592,-0.384 -5.184,-0.384 -2.4,0 -4.608,0.768 -2.112,0.672 -3.744,2.592 -1.536,1.824 -2.496,4.992 -0.864,3.072 -0.864,7.968 0,5.184 0.768,8.544 0.864,3.264 2.4,5.28 1.536,1.92 3.744,2.688 2.208,0.672 4.992,0.672 2.496,0 5.088,-0.288 2.592,-0.384 5.088,-0.864 z m 9.696,-31.68 v 68.256 q -4.32,1.056 -9.888,1.92 -5.568,0.864 -10.176,0.864 -4.608,0 -8.544,-1.056 -3.936,-1.152 -6.912,-3.936 -2.976,-2.88 -4.704,-7.584 -1.632,-4.704 -1.632,-11.904 0,-6.72 1.632,-11.232 1.728,-4.512 4.608,-7.296 2.88,-2.784 6.72,-3.936 3.936,-1.248 8.448,-1.248 2.784,0 5.28,0.384 2.592,0.384 5.376,0.96 v -24.192 z m -64.2585,31.68 q -2.592,-0.672 -5.184,-1.056 -2.592,-0.384 -5.184,-0.384 -2.4,0 -4.608,0.768 -2.112,0.672 -3.744,2.592 -1.536,1.824 -2.496,4.992 -0.864,3.072 -0.864,7.968 0,5.184 0.768,8.544 0.864,3.264 2.4,5.28 1.536,1.92 3.744,2.688 2.208,0.672 4.992,0.672 2.496,0 5.088,-0.288 2.592,-0.384 5.088,-0.864 z m 9.696,-31.68 v 68.256 q -4.32,1.056 -9.888,1.92 -5.568,0.864 -10.176,0.864 -4.608,0 -8.544,-1.056 -3.936,-1.152 -6.912,-3.936 -2.976,-2.88 -4.704,-7.584 -1.632,-4.704 -1.632,-11.904 0,-6.72 1.632,-11.232 1.728,-4.512 4.608,-7.296 2.88,-2.784 6.72,-3.936 3.936,-1.248 8.448,-1.248 2.784,0 5.28,0.384 2.592,0.384 5.376,0.96 v -24.192 z m -63.319498,49.728 q -2.016,-0.384 -4.416,-0.576 -2.4,-0.288 -4.896,-0.288 -2.112,0 -4.032,0.288 -1.824,0.288 -3.264,1.152 -1.344,0.768 -2.208,2.304 -0.768,1.44 -0.768,3.84 0,4.416 2.784,6.144 2.88,1.632 6.912,1.632 2.88,0 5.376,-0.384 2.592,-0.384 4.512,-0.864 z m -24.48,-25.248 q 3.072,-0.672 6.72,-1.152 3.744,-0.48 7.296,-0.48 4.032,0 7.68,0.768 3.744,0.672 6.432,2.496 2.783998,1.728 4.415998,4.608 1.632,2.88 1.632,7.2 v 29.856 q -3.648,1.056 -8.831998,2.208 -5.088,1.056 -10.944,1.056 -4.032,0 -7.488,-0.768 -3.456,-0.768 -6.048,-2.496 -2.496,-1.824 -3.936,-4.704 -1.44,-2.88 -1.44,-7.2 0,-4.032 1.536,-6.72 1.632,-2.688 4.224,-4.32 2.592,-1.632 6.048,-2.304 3.456,-0.672 7.2,-0.672 3.072,0 5.472,0.288 2.496,0.192 4.512,0.576 v -4.512 q 0,-4.8 -3.168,-6.432 -3.072,-1.728 -7.776,-1.728 -3.264,0 -6.72,0.576 -3.456,0.576 -6.144,1.152 z m -51.393,-14.016 v 13.344 h 13.44 v 7.2 h -13.44 v 27.552 q 0,2.784 1.536,3.936 1.536,1.056 4.032,1.056 2.208,0 4.608,-0.384 2.4,-0.48 4.032,-0.96 l 0.288,7.296 q -2.208,0.768 -4.8,1.152 -2.592,0.384 -5.28,0.384 -6.24,0 -10.176,-2.976 -3.936,-2.976 -3.936,-9.792 v -27.264 H 2.5409219 v -7.2 h 7.5840001 l 2.208,-13.344 z m -48.6495,15.936 q 5.952,-1.824 11.904,-2.592 6.048,-0.864 13.2479999,-0.864 v 7.68 q -1.056,-0.096 -2.208,-0.096 -1.152,0 -2.304,0 -3.0719999,0 -5.9519999,0.384 -2.88,0.384 -4.992,0.96 v 38.208 h -9.696 z m -24.7275,23.328 q -2.016,-0.384 -4.416,-0.576 -2.4,-0.288 -4.896,-0.288 -2.112,0 -4.032,0.288 -1.824,0.288 -3.264,1.152 -1.344,0.768 -2.208,2.304 -0.768,1.44 -0.768,3.84 0,4.416 2.784,6.144 2.88,1.632 6.912,1.632 2.88,0 5.376,-0.384 2.592,-0.384 4.512,-0.864 z m -24.48,-25.248 q 3.072,-0.672 6.72,-1.152 3.744,-0.48 7.296,-0.48 4.032,0 7.68,0.768 3.744,0.672 6.432,2.496 2.784,1.728 4.416,4.608 1.632,2.88 1.632,7.2 v 29.856 q -3.648,1.056 -8.832,2.208 -5.088,1.056 -10.944,1.056 -4.032,0 -7.488,-0.768 -3.456,-0.768 -6.048,-2.496 -2.496,-1.824 -3.936,-4.704 -1.44,-2.88 -1.44,-7.2 0,-4.032 1.536,-6.72 1.632,-2.688 4.224,-4.32 2.592,-1.632 6.048,-2.304 3.456,-0.672 7.2,-0.672 3.072,0 5.472,0.288 2.496,0.192 4.512,0.576 v -4.512 q 0,-4.8 -3.168,-6.432 -3.072,-1.728 -7.776,-1.728 -3.264,0 -6.72,0.576 -3.456,0.576 -6.144,1.152 z m -25.518002,-14.016 v 13.344 h 13.440002 v 7.2 h -13.440002 v 27.552 q 0,2.784 1.536,3.936 1.536,1.056 4.032002,1.056 2.208,0 4.608,-0.384 2.4,-0.48 4.032,-0.96 l 0.288,7.296 q -2.208,0.768 -4.8,1.152 -2.592,0.384 -5.28,0.384 -6.240002,0 -10.176002,-2.976 -3.936,-2.976 -3.936,-9.792 v -27.264 h -7.584 v -7.2 h 7.584 l 2.208,-13.344 z m -29.3325,4.032 q -1.44,-0.288 -3.36,-0.576 -1.92,-0.288 -4.032,-0.48 -2.016,-0.288 -4.128,-0.384 -2.016,-0.192 -3.648,-0.192 -2.88,0 -5.28,0.288 -2.4,0.192 -4.128,0.96 -1.728,0.768 -2.688,2.208 -0.96,1.344 -0.96,3.552 0,2.592 2.304,4.992 2.4,2.4 5.952,4.8 3.552,2.4 7.68,5.088 4.128,2.592 7.68,5.664 3.552,3.072 5.856,6.816 2.4,3.648 2.4,8.16 0,4.32 -1.632,7.392 -1.536,2.976 -4.416,4.896 -2.88,1.824 -7.008,2.592 -4.032,0.864 -8.928,0.864 -6.048,0 -11.232,-1.056 -5.088,-1.152 -8.736,-2.304 l 1.248,-7.488 q 3.648,1.056 8.352,2.208 4.8,1.056 10.272,1.056 5.088,0 8.352,-1.536 3.36,-1.536 3.36,-5.76 0,-2.976 -2.4,-5.664 -2.304,-2.688 -5.952,-5.28 -3.552,-2.592 -7.68,-5.28 -4.128,-2.688 -7.776,-5.664 -3.552,-2.976 -5.952,-6.336 -2.304,-3.36 -2.304,-7.488 0,-4.32 1.824,-7.2 1.92,-2.976 5.088,-4.704 3.168,-1.824 7.488,-2.592 4.32,-0.768 9.216,-0.768 2.112,0 4.416,0.192 2.304,0.096 4.416,0.288 2.208,0.192 4.032,0.48 1.824,0.288 3.168,0.576 z"
         inkscape:connector-curvature="0" />
    </g>
    <g
       aria-label="Delete the selected stickies or all of them"
       transform="matrix(0.26458333,0,0,0.26458333,22.592965,231.83326)"
       style="font-style:normal;font-variant:normal;font-weight:normal;font-stretch:normal;font-size:40px;line-height:125%;font-family:'3ds';-inkscape-font-specification:'3ds';letter-spacing:0px;word-spacing:0px;fill:#239de8;fill-opacity:1;stroke:none;stroke-width:1px;stroke-linecap:butt;stroke-linejoin:miter;stroke-opacity:1"
       id="flowRoot861-4-9">
      <path
         id="path984"
         style="font-size:96px;line-height:95.40001153999999400%;fill:#239de8;fill-opacity:1;stroke:none;stroke-opacity:1"
         d="m -26.107578,130.7304 q 3.744,-1.152 9.024,-2.304 5.28,-1.248 10.8479999,-1.248 4.224,0 7.776,0.96 3.552,0.96 6.144,3.072 3.5520001,-1.728 8.0640001,-2.88 4.512,-1.152 8.832,-1.152 3.84,0 7.104,0.864 3.36,0.768 5.76,2.688 2.4,1.92 3.744,5.088 1.44,3.072 1.44,7.68 v 30.912 h -9.696 v -30.528 q 0,-2.784 -0.768,-4.512 -0.768,-1.824 -2.112,-2.88 -1.248,-1.056 -3.072,-1.44 -1.824,-0.48 -3.84,-0.48 -3.36,0 -6.144,0.864 -2.688,0.864 -4.896,1.824 0.96,2.592 0.96,6.24 v 30.912 H 3.3644219 v -30.528 q 0,-2.784 -0.768,-4.512 -0.768,-1.824 -2.11200003,-2.88 -1.24799999,-1.056 -3.07199997,-1.44 -1.728,-0.48 -3.84,-0.48 -2.496,0 -5.1839999,0.48 -2.688,0.384 -4.8,0.96 v 38.4 h -9.696 z m -42.8715,23.328 q 0.096,3.456 0.864,6.144 0.768,2.592 2.496,4.32 1.728,1.728 4.608,2.592 2.88,0.864 7.296,0.864 1.536,0 3.36,-0.096 1.824,-0.192 3.552,-0.48 1.824,-0.288 3.36,-0.576 1.632,-0.288 2.688,-0.576 l 0.864,7.104 q -2.784,0.768 -6.816,1.344 -3.936,0.672 -8.064,0.672 -5.472,0 -9.984,-1.056 -4.512,-1.056 -7.68,-3.744 -3.168,-2.784 -4.992,-7.392 -1.728,-4.704 -1.728,-11.904 0,-6.72 1.44,-11.328 1.536,-4.608 4.32,-7.392 2.784,-2.88 6.72,-4.128 4.032,-1.248 8.928,-1.248 4.896,0 8.448,1.44 3.552,1.344 5.856,3.84 2.4,2.496 3.456,6.048 1.152,3.552 1.152,7.968 v 7.584 z m 20.832,-6.72 q 0,-13.344 -9.888,-13.344 -5.472,0 -7.968,3.36 -2.496,3.36 -2.88,9.984 z m -84.085502,-43.008 h 9.696 v 24.384 q 2.784,-0.576 5.76,-1.056 3.072,-0.48 6.048,-0.48 4.032,0 7.584,0.864 3.552002,0.768 6.144002,2.688 2.592,1.92 4.128,5.088 1.536,3.072 1.536,7.68 v 30.912 h -9.696002 v -30.528 q 0,-2.688 -0.864,-4.512 -0.768,-1.824 -2.304,-2.88 -1.44,-1.056 -3.456,-1.44 -1.92,-0.48 -4.224,-0.48 -2.688,0 -5.568,0.48 -2.88,0.48 -5.088,0.96 v 38.4 h -9.696 z m -25.134,10.464 v 13.344 h 13.44 v 7.2 h -13.44 v 27.552 q 0,2.784 1.536,3.936 1.536,1.056 4.032,1.056 2.208,0 4.608,-0.384 2.4,-0.48 4.032,-0.96 l 0.288,7.296 q -2.208,0.768 -4.8,1.152 -2.592,0.384 -5.28,0.384 -6.24,0 -10.176,-2.976 -3.936,-2.976 -3.936,-9.792 v -27.264 h -7.584 v -7.2 h 7.584 l 2.208,-13.344 z M 1326.5669,36.554383 v -8.448 q 0,-8.448 4.992,-12.384 5.088,-4.032 13.536,-4.032 2.208,0 4.608,0.192 2.4,0.192 4.32,0.576 l -1.056,7.2 q -1.632,-0.192 -3.456,-0.384 -1.824,-0.192 -3.552,-0.192 -2.016,0 -3.84,0.48 -1.728,0.384 -3.072,1.44 -1.248,0.96 -2.016,2.688 -0.768,1.728 -0.768,4.416 v 8.448 h 14.976 v 7.2 h -14.976 v 39.072 h -9.696 v -39.072 h -7.488 v -7.2 z m -15.0375,23.136 q 0,12.768 -5.76,18.432 -5.664,5.664 -16.224,5.664 -10.56,0 -16.224,-5.664 -5.664,-5.664 -5.664,-18.432 0,-12.768 5.664,-18.432 5.664,-5.664 16.224,-5.664 10.56,0 16.224,5.664 5.76,5.664 5.76,18.432 z m -10.08,0 q 0,-4.896 -0.768,-8.064 -0.768,-3.264 -2.304,-5.184 -1.536,-1.92 -3.744,-2.688 -2.112,-0.768 -4.992,-0.768 -2.88,0 -5.088,0.768 -2.208,0.768 -3.744,2.688 -1.536,1.92 -2.304,5.184 -0.768,3.168 -0.768,8.064 0,4.896 0.768,8.16 0.768,3.168 2.304,5.088 1.536,1.92 3.744,2.688 2.208,0.768 5.088,0.768 2.88,0 4.992,-0.768 2.208,-0.768 3.744,-2.688 1.536,-1.92 2.304,-5.088 0.768,-3.264 0.768,-8.16 z m -72.765,-46.944 v 70.08 h -9.696 v -70.08 z m -26.25,0 v 70.08 h -9.696 v -70.08 z m -34.6155,49.728 q -2.016,-0.384 -4.416,-0.576 -2.4,-0.288 -4.896,-0.288 -2.112,0 -4.032,0.288 -1.824,0.288 -3.264,1.152 -1.344,0.768 -2.208,2.304 -0.768,1.44 -0.768,3.84 0,4.416 2.784,6.144 2.88,1.632 6.912,1.632 2.88,0 5.376,-0.384 2.592,-0.384 4.512,-0.864 z m -24.48,-25.248 q 3.072,-0.672 6.72,-1.152 3.744,-0.48 7.296,-0.48 4.032,0 7.68,0.768 3.744,0.672 6.432,2.496 2.784,1.728 4.416,4.608 1.632,2.88 1.632,7.2 v 29.856 q -3.648,1.056 -8.832,2.208 -5.088,1.056 -10.944,1.056 -4.032,0 -7.488,-0.768 -3.456,-0.768 -6.048,-2.496 -2.496,-1.824 -3.936,-4.704 -1.44,-2.88 -1.44,-7.2 0,-4.032 1.536,-6.72 1.632,-2.688 4.224,-4.32 2.592,-1.632 6.048,-2.304 3.456,-0.672 7.2,-0.672 3.072,0 5.472,0.288 2.496,0.192 4.512,0.576 v -4.512 q 0,-4.8 -3.168,-6.432 -3.072,-1.728 -7.776,-1.728 -3.264,0 -6.72,0.576 -3.456,0.576 -6.144,1.152 z m -61.4175,1.92 q 5.952,-1.824 11.904,-2.592 6.048,-0.864 13.248,-0.864 v 7.68 q -1.056,-0.096 -2.208,-0.096 -1.152,0 -2.304,0 -3.072,0 -5.952,0.384 -2.88,0.384 -4.992,0.96 v 38.208 h -9.696 z m -12.8295,20.544 q 0,12.768 -5.76,18.432 -5.664,5.664 -16.224,5.664 -10.56,0 -16.224,-5.664 -5.664,-5.664 -5.664,-18.432 0,-12.768 5.664,-18.432 5.664,-5.664 16.224,-5.664 10.56,0 16.224,5.664 5.76,5.664 5.76,18.432 z m -10.08,0 q 0,-4.896 -0.768,-8.064 -0.768,-3.264 -2.304,-5.184 -1.536,-1.92 -3.744,-2.688 -2.112,-0.768 -4.992,-0.768 -2.88,0 -5.088,0.768 -2.208,0.768 -3.744,2.688 -1.536,1.92 -2.304,5.184 -0.768,3.168 -0.768,8.064 0,4.896 0.768,8.16 0.768,3.168 2.304,5.088 1.536,1.92 3.744,2.688 2.208,0.768 5.088,0.768 2.88,0 4.992,-0.768 2.208,-0.768 3.744,-2.688 1.536,-1.92 2.304,-5.088 0.768,-3.264 0.768,-8.16 z m -71.28148,-15.84 q -2.304,-0.48 -5.376,-0.768 -3.072,-0.384 -6.528,-0.384 -5.088,0 -8.064,1.056 -2.88,1.056 -2.88,4.128 0,1.824 1.92,3.264 1.92,1.44 4.704,2.88 2.88,1.344 6.24,2.88 3.36,1.44 6.144,3.456 2.88,2.016 4.8,4.704 1.92,2.592 1.92,6.336 0,3.36 -1.44,5.76 -1.44,2.304 -3.936,3.84 -2.496,1.44 -5.952,2.112 -3.36,0.672 -7.392,0.672 -4.608,0 -8.928,-0.672 -4.224,-0.672 -7.2,-1.728 l 1.056,-7.296 q 1.344,0.48 3.072,0.864 1.824,0.384 3.84,0.768 2.016,0.288 4.032,0.48 2.016,0.192 3.936,0.192 4.416,0 6.624,-0.96 2.208,-1.056 2.208,-4.032 0,-2.208 -1.92,-3.744 -1.824,-1.632 -4.704,-3.072 -2.784,-1.44 -6.048,-2.88 -3.264,-1.44 -6.144,-3.264 -2.784,-1.824 -4.704,-4.32 -1.824,-2.496 -1.824,-5.952 0,-3.744 1.632,-6.144 1.632,-2.496 4.416,-3.84 2.88,-1.44 6.624,-2.016 3.84,-0.576 8.064,-0.576 3.552,0 7.008,0.384 3.456,0.288 5.664,0.672 z m -72.522,18.624 q 0.096,3.456 0.864,6.144 0.768,2.592 2.496,4.32 1.728,1.728 4.608,2.592 2.88,0.864 7.296,0.864 1.536,0 3.36,-0.096 1.824,-0.192 3.552,-0.48 1.824,-0.288 3.36,-0.576 1.632,-0.288 2.688,-0.576 l 0.864,7.104 q -2.784,0.768 -6.816,1.344 -3.936,0.672 -8.064,0.672 -5.472,0 -9.984,-1.056 -4.512,-1.056 -7.68,-3.744 -3.168,-2.784 -4.992,-7.392 -1.728,-4.704 -1.728,-11.904 0,-6.72 1.44,-11.328 1.536,-4.608 4.32,-7.392 2.784,-2.88 6.72,-4.128 4.032,-1.248 8.928,-1.248 4.896,0 8.448,1.44 3.552,1.344 5.856,3.84 2.4,2.496 3.456,6.048 1.152,3.552 1.152,7.968 v 7.584 z m 20.832,-6.72 q 0,-13.344 -9.888,-13.344 -5.472,0 -7.968,3.36 -2.496,3.36 -2.88,9.984 z m -44.106,-19.2 v 46.272 h -9.696 v -46.272 z m 1.248,-17.28 q 0,2.592 -1.632,4.032 -1.536,1.44 -4.512,1.44 -2.88,0 -4.512,-1.44 -1.632,-1.44 -1.632,-4.032 0,-2.688 1.632,-4.128 1.632,-1.44 4.512,-1.44 6.144,0 6.144,5.568 z m -52.998,-6.528 v 45.312 l 20.544,-21.504 h 10.656 l -17.76,18.624 q 5.472,1.344 8.736,5.376 3.36,3.936 5.28,9.408 l 4.416,12.864 h -10.464 l -4.128,-11.904 q -1.632,-4.8 -4.416,-6.912 -2.784,-2.112 -6.432,-2.496 l -6.432,6.144 v 15.168 h -9.696 v -70.08 z m -23.07,31.392 q -2.304,-0.48 -4.992,-0.768 -2.688,-0.384 -5.472,-0.384 -2.88,0 -5.184,0.768 -2.304,0.672 -3.936,2.592 -1.536,1.824 -2.4,5.088 -0.768,3.168 -0.768,8.256 0,4.608 0.672,7.872 0.672,3.168 2.112,5.184 1.536,1.92 3.936,2.784 2.4,0.864 5.76,0.864 2.976,0 5.568,-0.384 2.688,-0.48 5.376,-1.152 l 0.864,7.2 q -2.784,0.768 -5.952,1.248 -3.168,0.48 -6.432,0.48 -4.896,0 -8.928,-1.248 -4.032,-1.248 -7.008,-4.032 -2.88,-2.88 -4.512,-7.488 -1.536,-4.608 -1.536,-11.424 0,-6.912 1.632,-11.52 1.632,-4.704 4.608,-7.392 2.976,-2.784 7.104,-3.936 4.128,-1.152 9.12,-1.152 2.976,0 6.048,0.384 3.072,0.384 5.28,0.864 z m -45.93,-7.584 v 46.272 h -9.696 v -46.272 z m 1.248,-17.28 q 0,2.592 -1.632,4.032 -1.536,1.44 -4.512,1.44 -2.88,0 -4.512,-1.44 -1.632,-1.44 -1.632,-4.032 0,-2.688 1.632,-4.128 1.632,-1.44 4.512,-1.44 6.144,0 6.144,5.568 z m -36.174,3.936 v 13.344 h 13.44 v 7.2 h -13.44 v 27.552 q 0,2.784 1.536,3.936 1.536,1.056 4.032,1.056 2.208,0 4.608,-0.384 2.4,-0.48 4.032,-0.96 l 0.288,7.296 q -2.208,0.768 -4.8,1.152 -2.592,0.384 -5.28,0.384 -6.24,0 -10.176,-2.976 -3.936,-2.976 -3.936,-9.792 v -27.264 h -7.584 v -7.2 h 7.584 l 2.208,-13.344 z m -26.5905,20.64 q -2.304,-0.48 -5.376,-0.768 -3.072,-0.384 -6.528,-0.384 -5.088,0 -8.064,1.056 -2.88,1.056 -2.88,4.128 0,1.824 1.92,3.264 1.92,1.44 4.704,2.88 2.88,1.344 6.24,2.88 3.36,1.44 6.144,3.456 2.88,2.016 4.8,4.704 1.92,2.592 1.92,6.336 0,3.36 -1.44,5.76 -1.44,2.304 -3.936,3.84 -2.496,1.44 -5.952,2.112 -3.36,0.672 -7.392,0.672 -4.608,0 -8.928,-0.672 -4.224,-0.672 -7.2,-1.728 l 1.056,-7.296 q 1.344,0.48 3.072,0.864 1.824,0.384 3.84,0.768 2.016,0.288 4.032,0.48 2.016,0.192 3.936,0.192 4.416,0 6.624,-0.96 2.208,-1.056 2.208,-4.032 0,-2.208 -1.92,-3.744 -1.824,-1.632 -4.704,-3.072 -2.784,-1.44 -6.048,-2.88 -3.264,-1.44 -6.144,-3.264 -2.784,-1.824 -4.704,-4.32 -1.824,-2.496 -1.824,-5.952 0,-3.744 1.632,-6.144 1.632,-2.496 4.416,-3.84 2.88,-1.44 6.624,-2.016 3.84,-0.576 8.064,-0.576 3.552,0 7.008,0.384 3.456,0.288 5.664,0.672 z m -80.7255,0.576 q -2.592,-0.672 -5.184,-1.056 -2.592,-0.384 -5.184,-0.384 -2.4,0 -4.608,0.768 -2.112,0.672 -3.744,2.592 -1.536,1.824 -2.496,4.992 -0.864,3.072 -0.864,7.968 0,5.184 0.768,8.544 0.864,3.264 2.4,5.28 1.536,1.92 3.744,2.688 2.208,0.672 4.992,0.672 2.496,0 5.088,-0.288 2.592,-0.384 5.088,-0.864 z m 9.696,-31.68 v 68.256 q -4.32,1.056 -9.888,1.92 -5.568,0.864 -10.176,0.864 -4.608,0 -8.544,-1.056 -3.936,-1.152 -6.912,-3.936 -2.976,-2.88 -4.704,-7.584 -1.632,-4.704 -1.632,-11.904 0,-6.72 1.632,-11.232 1.728,-4.512 4.608,-7.296 2.88,-2.784 6.72,-3.936 3.936,-1.248 8.448,-1.248 2.784,0 5.28,0.384 2.592,0.384 5.376,0.96 v -24.192 z m -81.3675,49.728 q 0.096,3.456 0.864,6.144 0.768,2.592 2.496,4.32 1.728,1.728 4.608,2.592 2.88,0.864 7.296,0.864 1.536,0 3.36,-0.096 1.824,-0.192 3.552,-0.48 1.824,-0.288 3.36,-0.576 1.632,-0.288 2.688,-0.576 l 0.864,7.104 q -2.784,0.768 -6.816,1.344 -3.936,0.672 -8.064,0.672 -5.472,0 -9.984,-1.056 -4.512,-1.056 -7.68,-3.744 -3.168,-2.784 -4.992,-7.392 -1.728,-4.704 -1.728,-11.904 0,-6.72 1.44,-11.328 1.536,-4.608 4.32,-7.392 2.784,-2.88 6.72,-4.128 4.032,-1.248 8.928,-1.248 4.896,0 8.448,1.44 3.552,1.344 5.856,3.84 2.4,2.496 3.456,6.048 1.152,3.552 1.152,7.968 v 7.584 z m 20.832,-6.72 q 0,-13.344 -9.888,-13.344 -5.472,0 -7.968,3.36 -2.496,3.36 -2.88,9.984 z m -51.8445,-32.544 v 13.344 h 13.44 v 7.2 h -13.44 v 27.552 q 0,2.784 1.536,3.936 1.536,1.056 4.032,1.056 2.208,0 4.608,-0.384 2.4,-0.48 4.032,-0.96 l 0.288,7.296 q -2.208,0.768 -4.8,1.152 -2.592,0.384 -5.28,0.384 -6.24,0 -10.176,-2.976 -3.936,-2.976 -3.936,-9.792 v -27.264 h -7.584 v -7.2 h 7.584 l 2.208,-13.344 z m -24.894,20.928 q -2.304,-0.48 -4.992,-0.768 -2.688,-0.384 -5.472,-0.384 -2.88,0 -5.184,0.768 -2.304,0.672 -3.936,2.592 -1.536,1.824 -2.4,5.088 -0.768,3.168 -0.768,8.256 0,4.608 0.672,7.872 0.672,3.168 2.112,5.184 1.536,1.92 3.936,2.784 2.4,0.864 5.76,0.864 2.976,0 5.568,-0.384 2.688,-0.48 5.376,-1.152 l 0.864,7.2 q -2.784,0.768 -5.952,1.248 -3.168,0.48 -6.432,0.48 -4.896,0 -8.928,-1.248 -4.032,-1.248 -7.008,-4.032 -2.88,-2.88 -4.512,-7.488 -1.536,-4.608 -1.536,-11.424 0,-6.912 1.632,-11.52 1.632,-4.704 4.608,-7.392 2.976,-2.784 7.104,-3.936 4.128,-1.152 9.12,-1.152 2.976,0 6.048,0.384 3.072,0.384 5.28,0.864 z m -72.3435,18.336 q 0.096,3.456 0.864,6.144 0.768,2.592 2.496,4.32 1.728,1.728 4.608,2.592 2.88,0.864 7.296,0.864 1.536,0 3.36,-0.096 1.824,-0.192 3.552,-0.48 1.824,-0.288 3.36,-0.576 1.632,-0.288 2.688,-0.576 l 0.864,7.104 q -2.784,0.768 -6.816,1.344 -3.936,0.672 -8.064,0.672 -5.472,0 -9.984,-1.056 -4.512,-1.056 -7.68,-3.744 -3.168,-2.784 -4.992,-7.392 -1.728,-4.704 -1.728,-11.904 0,-6.72 1.44,-11.328 1.536,-4.608 4.32,-7.392 2.784,-2.88 6.72,-4.128 4.032,-1.248 8.928,-1.248 4.896,0 8.448,1.44 3.552,1.344 5.856,3.84 2.4,2.496 3.456,6.048 1.152,3.552 1.152,7.968 v 7.584 z m 20.832,-6.72 q 0,-13.344 -9.888,-13.344 -5.472,0 -7.968,3.36 -2.496,3.36 -2.88,9.984 z m -44.106,-43.008 v 70.08 h -9.696 v -70.08 z m -52.6635,49.728 q 0.096,3.456 0.864,6.144 0.768,2.592 2.496,4.32 1.728,1.728 4.608,2.592 2.88,0.864 7.296,0.864 1.536,0 3.36,-0.096 1.824,-0.192 3.552,-0.48 1.824,-0.288 3.36,-0.576 1.632,-0.288 2.688,-0.576 l 0.864,7.104 q -2.784,0.768 -6.816,1.344 -3.936,0.672 -8.064,0.672 -5.472,0 -9.984,-1.056 -4.512,-1.056 -7.68,-3.744 -3.168,-2.784 -4.992,-7.392 -1.728,-4.704 -1.728,-11.904 0,-6.72 1.44,-11.328 1.536,-4.608 4.32,-7.392 2.784,-2.88 6.72,-4.128 4.032,-1.248 8.928,-1.248 4.896,0 8.448,1.44 3.552,1.344 5.856,3.84 2.4,2.496 3.456,6.048 1.152,3.552 1.152,7.968 v 7.584 z m 20.832,-6.72 q 0,-13.344 -9.888,-13.344 -5.472,0 -7.968,3.36 -2.496,3.36 -2.88,9.984 z m -42.6225,-11.904 q -2.304,-0.48 -5.376,-0.768 -3.072,-0.384 -6.528,-0.384 -5.088,0 -8.064,1.056 -2.88,1.056 -2.88,4.128 0,1.824 1.92,3.264 1.92,1.44 4.704,2.88 2.88,1.344 6.24,2.88 3.36,1.44 6.144,3.456 2.88,2.016 4.8,4.704 1.92,2.592 1.92,6.336 0,3.36 -1.44,5.76 -1.44,2.304 -3.936,3.84 -2.496,1.44 -5.952,2.112 -3.36,0.672 -7.392,0.672 -4.608,0 -8.928,-0.672 -4.224,-0.672 -7.2,-1.728 l 1.056,-7.296 q 1.344,0.48 3.072,0.864 1.824,0.384 3.84,0.768 2.016,0.288 4.032,0.48 2.016,0.192 3.936,0.192 4.416,0 6.624,-0.96 2.208,-1.056 2.208,-4.032 0,-2.208 -1.92,-3.744 -1.824,-1.632 -4.704,-3.072 -2.784,-1.44 -6.048,-2.88 -3.264,-1.44 -6.144,-3.264 -2.784,-1.824 -4.704,-4.32 -1.824,-2.496 -1.824,-5.952 0,-3.744 1.632,-6.144 1.632,-2.496 4.416,-3.84 2.88,-1.44 6.624,-2.016 3.84,-0.576 8.064,-0.576 3.552,0 7.008,0.384 3.456,0.288 5.664,0.672 z m -97.8345,18.624 q 0.096,3.456 0.864,6.144 0.768,2.592 2.496,4.32 1.728,1.728 4.608,2.592 2.88,0.864 7.296,0.864 1.536,0 3.36,-0.096 1.824,-0.192 3.552,-0.48 1.824,-0.288 3.36,-0.576 1.632,-0.288 2.688,-0.576 l 0.864,7.104 q -2.784,0.768 -6.816,1.344 -3.936,0.672 -8.064,0.672 -5.472,0 -9.984,-1.056 -4.512,-1.056 -7.68,-3.744 -3.168,-2.784 -4.992,-7.392 -1.728,-4.704 -1.728,-11.904 0,-6.72 1.44,-11.328 1.536,-4.608 4.32,-7.392 2.784,-2.88 6.72,-4.128 4.032,-1.248 8.928,-1.248 4.896,0 8.448,1.44 3.552,1.344 5.856,3.84 2.4,2.496 3.456,6.048 1.152,3.552 1.152,7.968 v 7.584 z m 20.832,-6.72 q 0,-13.344 -9.888,-13.344 -5.472,0 -7.968,3.36 -2.496,3.36 -2.88,9.984 z m -84.0855,-43.008 h 9.696 v 24.384 q 2.784,-0.576 5.76,-1.056 3.072,-0.48 6.048,-0.48 4.032,0 7.584,0.864 3.552,0.768 6.144,2.688 2.592,1.92 4.128,5.088 1.536,3.072 1.536,7.68 v 30.912 h -9.696 v -30.528 q 0,-2.688 -0.864,-4.512 -0.768,-1.824 -2.304,-2.88 -1.44,-1.056 -3.456,-1.44 -1.92,-0.48 -4.224,-0.48 -2.688,0 -5.568,0.48 -2.88,0.48 -5.088,0.96 v 38.4 h -9.696 z m -25.134,10.464 v 13.344 h 13.44 v 7.2 h -13.44 v 27.552 q 0,2.784 1.536,3.936 1.536,1.056 4.032,1.056 2.208,0 4.608,-0.384 2.4,-0.48 4.032,-0.96 l 0.288,7.296 q -2.208,0.768 -4.8,1.152 -2.592,0.384 -5.28,0.384 -6.24,0 -10.176,-2.976 -3.936,-2.976 -3.936,-9.792 v -27.264 h -7.584 v -7.2 h 7.584 l 2.208,-13.344 z m -80.362498,39.264 q 0.096,3.456 0.864,6.144 0.768,2.592 2.496,4.32 1.728,1.728 4.608,2.592 2.88,0.864 7.296,0.864 1.536,0 3.36,-0.096 1.824,-0.192 3.552,-0.48 1.824,-0.288 3.36,-0.576 1.632,-0.288 2.688,-0.576 l 0.864,7.104 q -2.784,0.768 -6.816,1.344 -3.936,0.672 -8.064,0.672 -5.472,0 -9.984,-1.056 -4.512,-1.056 -7.68,-3.744 -3.168,-2.784 -4.992,-7.392 -1.728,-4.704 -1.728,-11.904 0,-6.72 1.44,-11.328 1.536,-4.608 4.32,-7.392 2.784,-2.88 6.72,-4.128 4.032,-1.248 8.928,-1.248 4.896,0 8.448,1.44 3.552,1.344 5.856,3.84 2.4,2.496 3.456,6.048 1.152,3.552 1.152,7.968 v 7.584 z m 20.832,-6.72 q 0,-13.344 -9.888,-13.344 -5.472,0 -7.968,3.36 -2.496,3.36 -2.88,9.984 z m -51.8445,-32.544 v 13.344 h 13.44 v 7.2 h -13.44 v 27.552 q 0,2.784 1.536,3.936 1.536,1.056 4.032,1.056 2.208,0 4.608,-0.384 2.4,-0.48 4.032,-0.96 l 0.288,7.296 q -2.208,0.768 -4.8,1.152 -2.592,0.384 -5.28,0.384 -6.24,0 -10.176,-2.976 -3.936,-2.976 -3.936,-9.792 v -27.264 h -7.584 v -7.2 h 7.584 l 2.208,-13.344 z m -54.4875,39.264 q 0.096,3.456 0.864,6.144 0.768,2.592 2.496,4.32 1.728,1.728 4.608,2.592 2.8799999,0.864 7.2959999,0.864 1.536,0 3.36,-0.096 1.82399997,-0.192 3.552,-0.48 1.824,-0.288 3.36,-0.576 1.632,-0.288 2.688,-0.576 l 0.864,7.104 q -2.784,0.768 -6.816,1.344 -3.936,0.672 -8.064,0.672 -5.4719999,0 -9.9839999,-1.056 -4.512,-1.056 -7.68,-3.744 -3.168,-2.784 -4.992,-7.392 -1.728,-4.704 -1.728,-11.904 0,-6.72 1.44,-11.328 1.536,-4.608 4.32,-7.392 2.784,-2.88 6.72,-4.128 4.032,-1.248 8.9279999,-1.248 4.896,0 8.448,1.44 3.552,1.344 5.856,3.84 2.4,2.496 3.456,6.048 1.152,3.552 1.152,7.968 v 7.584 z m 20.83199987,-6.72 q 0,-13.344 -9.88799997,-13.344 -5.4719999,0 -7.9679999,3.36 -2.496,3.36 -2.88,9.984 z m -44.10599987,-43.008 v 70.08 h -9.696 v -70.08 z m -52.6635,49.728 q 0.096,3.456 0.864,6.144 0.768,2.592 2.496,4.32 1.728,1.728 4.608,2.592 2.88,0.864 7.296,0.864 1.536,0 3.36,-0.096 1.824,-0.192 3.552,-0.48 1.824,-0.288 3.36,-0.576 1.632,-0.288 2.688,-0.576 l 0.864,7.104 q -2.784,0.768 -6.816,1.344 -3.936,0.672 -8.064,0.672 -5.472,0 -9.984,-1.056 -4.512,-1.056 -7.680002,-3.744 -3.168,-2.784 -4.992,-7.392 -1.728,-4.704 -1.728,-11.904 0,-6.72 1.44,-11.328 1.536,-4.608 4.32,-7.392 2.784002,-2.88 6.720002,-4.128 4.032,-1.248 8.928,-1.248 4.896,0 8.448,1.44 3.552,1.344 5.856,3.84 2.4,2.496 3.456,6.048 1.152,3.552 1.152,7.968 v 7.584 z m 20.832,-6.72 q 0,-13.344 -9.888,-13.344 -5.472,0 -7.968,3.36 -2.496,3.36 -2.88,9.984 z m -70.045502,-36.768 q 6.816,0 12.096,1.824 5.376,1.824 9.024,5.664 3.648,3.84 5.568,9.792 1.92,5.856 1.92,14.016 0,7.872 -1.536,14.112 -1.536,6.24 -5.088,10.56 -3.552,4.32 -9.312,6.624 -5.664,2.304 -14.016,2.304 -4.8,0 -9.888,-0.576 -4.992,-0.576 -10.368,-1.824 v -62.496 z m -11.52,56.448 q 4.704,0.864 10.464,0.864 10.08,0 14.688,-6.24 4.608,-6.24 4.608,-19.68 0,-6.432 -1.248,-10.944 -1.248,-4.608 -3.552,-7.392 -2.304,-2.88 -5.76,-4.128 -3.36,-1.344 -7.68,-1.344 h -11.52 z"
         inkscape:connector-curvature="0" />
    </g>
    <rect
       style="opacity:1;vector-effect:none;fill:none;fill-opacity:1;stroke:none;stroke-width:0.02645833;stroke-linecap:butt;stroke-linejoin:round;stroke-miterlimit:4;stroke-dasharray:none;stroke-dashoffset:0;stroke-opacity:1"
       id="rect1094"
       width="668.26196"
       height="407.81744"
       x="-210.9368"
       y="-62.833328"
       rx="0.52916664" />
  </g>
</svg>
