<?xml version="1.0" encoding="UTF-8" standalone="no"?>
<!-- Created with Inkscape (http://www.inkscape.org/) -->

<svg
   xmlns:osb="http://www.openswatchbook.org/uri/2009/osb"
   xmlns:dc="http://purl.org/dc/elements/1.1/"
   xmlns:cc="http://creativecommons.org/ns#"
   xmlns:rdf="http://www.w3.org/1999/02/22-rdf-syntax-ns#"
   xmlns:svg="http://www.w3.org/2000/svg"
   xmlns="http://www.w3.org/2000/svg"
   xmlns:sodipodi="http://sodipodi.sourceforge.net/DTD/sodipodi-0.dtd"
   xmlns:inkscape="http://www.inkscape.org/namespaces/inkscape"
   width="100%"
   height="100%"
   viewBox="0 0 668.26196 407.81745"
   version="1.1"
   id="svg8"
   inkscape:version="0.48.4 r9939"
   sodipodi:docname="KPIEmptyImg.svg">
  <defs
     id="defs2">
    <linearGradient
       id="linearGradient4290"
       osb:paint="solid">
      <stop
         style="stop-color:#bce30f;stop-opacity:1;"
         offset="0"
         id="stop4288" />
    </linearGradient>
  </defs>
  <sodipodi:namedview
     id="base"
     pagecolor="#ffffff"
     bordercolor="#666666"
     borderopacity="1.0"
     inkscape:pageopacity="0.0"
     inkscape:pageshadow="2"
     inkscape:zoom="1.4142136"
     inkscape:cx="304.07346"
     inkscape:cy="239.70095"
     inkscape:document-units="mm"
     inkscape:current-layer="layer1"
     showgrid="false"
     showguides="true"
     inkscape:guide-bbox="true"
     inkscape:window-width="1920"
     inkscape:window-height="1017"
     inkscape:window-x="1912"
     inkscape:window-y="-8"
     inkscape:window-maximized="1"
     fit-margin-top="0"
     fit-margin-left="0"
     fit-margin-right="0"
     fit-margin-bottom="0">
    <sodipodi:guide
       position="65.037984,407.81744"
       orientation="0,1"
       id="guide849"
       inkscape:locked="false" />
    <sodipodi:guide
       position="94.520132,275.52578"
       orientation="1,0"
       id="guide857"
       inkscape:locked="false" />
    <sodipodi:guide
       position="140.63322,263.43054"
       orientation="1,0"
       id="guide859"
       inkscape:locked="false" />
    <sodipodi:guide
       position="164.8237,280.81745"
       orientation="1,0"
       id="guide1058"
       inkscape:locked="false" />
    <sodipodi:guide
       position="-9.8012949,340.53769"
       orientation="0,1"
       id="guide1060"
       inkscape:locked="false" />
    <sodipodi:guide
       position="-7.5334349,120.55555"
       orientation="0,1"
       id="guide1064"
       inkscape:locked="false" />
    <sodipodi:guide
       orientation="1,0"
       position="274.75,227.75"
       id="guide3975" />
    <sodipodi:guide
       orientation="0,1"
       position="237.25,201.75"
       id="guide3993" />
  </sodipodi:namedview>
  <metadata
     id="metadata5">
    <rdf:RDF>
      <cc:Work
         rdf:about="">
        <dc:format>image/svg+xml</dc:format>
        <dc:type
           rdf:resource="http://purl.org/dc/dcmitype/StillImage" />
        <dc:title />
      </cc:Work>
    </rdf:RDF>
  </metadata>
  <g
     inkscape:label="Layer 1"
     inkscape:groupmode="layer"
     id="layer1"
     transform="translate(210.9368,62.833328)">
    <g
       aria-label="Start adding new leangets and configure your Dashboard"
       transform="matrix(0.26458333,0,0,0.26458333,22.097819,116.89093)"
       style="font-style:normal;font-variant:normal;font-weight:normal;font-stretch:normal;font-size:40px;line-height:125%;font-family:'3ds';-inkscape-font-specification:'3ds';letter-spacing:0px;word-spacing:0px;fill:#239de8;fill-opacity:1;stroke:none;stroke-width:1px;stroke-linecap:butt;stroke-linejoin:miter;stroke-opacity:1"
       id="flowRoot861-4" />
    <rect
       style="opacity:1;vector-effect:none;fill:none;fill-opacity:1;stroke:none;stroke-width:0.02645833;stroke-linecap:butt;stroke-linejoin:round;stroke-miterlimit:4;stroke-dasharray:none;stroke-dashoffset:0;stroke-opacity:1"
       id="rect1094"
       width="668.26196"
       height="407.81744"
       x="-210.9368"
       y="-62.833328"
       rx="0.52916664" />
    <g
       id="g3977"
       transform="translate(-174.25,0)">
      <g
         transform="translate(175.75,0)"
         id="g3882">
        <path
           sodipodi:type="arc"
           style="fill:#239de8;fill-opacity:1;stroke:#239de8;stroke-width:1.79999995;stroke-miterlimit:4;stroke-opacity:1;stroke-dasharray:none"
           id="path3806"
           sodipodi:cx="278.77686"
           sodipodi:cy="198.69061"
           sodipodi:rx="6.5407376"
           sodipodi:ry="6.5407376"
           d="m 285.31759,198.69061 c 0,3.61235 -2.92838,6.54074 -6.54073,6.54074 -3.61235,0 -6.54074,-2.92839 -6.54074,-6.54074 0,-3.61235 2.92839,-6.54073 6.54074,-6.54073 3.61235,0 6.54073,2.92838 6.54073,6.54073 z"
           transform="translate(-208.99227,-62.479775)" />
        <path
           transform="translate(-172.39948,-84.576853)"
           d="m 285.31759,198.69061 c 0,3.61235 -2.92838,6.54074 -6.54073,6.54074 -3.61235,0 -6.54074,-2.92839 -6.54074,-6.54074 0,-3.61235 2.92839,-6.54073 6.54074,-6.54073 3.61235,0 6.54073,2.92838 6.54073,6.54073 z"
           sodipodi:ry="6.5407376"
           sodipodi:rx="6.5407376"
           sodipodi:cy="198.69061"
           sodipodi:cx="278.77686"
           id="path3806-1"
           style="fill:#239de8;fill-opacity:1;stroke:#239de8;stroke-width:1.79999995;stroke-miterlimit:4;stroke-opacity:1;stroke-dasharray:none"
           sodipodi:type="arc" />
        <path
           transform="translate(-143.23133,-114.27534)"
           d="m 285.31759,198.69061 c 0,3.61235 -2.92838,6.54074 -6.54073,6.54074 -3.61235,0 -6.54074,-2.92839 -6.54074,-6.54074 0,-3.61235 2.92839,-6.54073 6.54074,-6.54073 3.61235,0 6.54073,2.92838 6.54073,6.54073 z"
           sodipodi:ry="6.5407376"
           sodipodi:rx="6.5407376"
           sodipodi:cy="198.69061"
           sodipodi:cx="278.77686"
           id="path3806-1-7"
           style="fill:#239de8;fill-opacity:1;stroke:#239de8;stroke-width:1.79999995;stroke-miterlimit:4;stroke-opacity:1;stroke-dasharray:none"
           sodipodi:type="arc" />
        <path
           transform="translate(-114.77028,-92.178254)"
           d="m 285.31759,198.69061 c 0,3.61235 -2.92838,6.54074 -6.54073,6.54074 -3.61235,0 -6.54074,-2.92839 -6.54074,-6.54074 0,-3.61235 2.92839,-6.54073 6.54074,-6.54073 3.61235,0 6.54073,2.92838 6.54073,6.54073 z"
           sodipodi:ry="6.5407376"
           sodipodi:rx="6.5407376"
           sodipodi:cy="198.69061"
           sodipodi:cx="278.77686"
           id="path3806-1-7-4"
           style="fill:#239de8;fill-opacity:1;stroke:#239de8;stroke-width:1.79999995;stroke-miterlimit:4;stroke-opacity:1;stroke-dasharray:none"
           sodipodi:type="arc" />
        <path
           transform="translate(-77.470401,-136.01887)"
           d="m 285.31759,198.69061 c 0,3.61235 -2.92838,6.54074 -6.54073,6.54074 -3.61235,0 -6.54074,-2.92839 -6.54074,-6.54074 0,-3.61235 2.92839,-6.54073 6.54074,-6.54073 3.61235,0 6.54073,2.92838 6.54073,6.54073 z"
           sodipodi:ry="6.5407376"
           sodipodi:rx="6.5407376"
           sodipodi:cy="198.69061"
           sodipodi:cx="278.77686"
           id="path3806-1-7-4-0"
           style="fill:#239de8;fill-opacity:1;stroke:#239de8;stroke-width:1.79999995;stroke-miterlimit:4;stroke-opacity:1;stroke-dasharray:none"
           sodipodi:type="arc" />
        <path
           transform="translate(-210.93681,-62.833328)"
           sodipodi:nodetypes="ccccc"
           inkscape:connector-curvature="0"
           id="path3880"
           d="m 280.54462,199.04417 36.59277,-22.09708 28.99138,-30.22882 28.63783,22.80419 37.47665,-44.19418"
           style="fill:none;stroke:#239de8;stroke-width:6.37795305;stroke-linecap:butt;stroke-linejoin:miter;stroke-miterlimit:4;stroke-opacity:1;stroke-dasharray:none" />
      </g>
      <g
         transform="translate(351.50001,0)"
         id="g3960">
        <path
           transform="translate(-384.71365,-11.206487)"
           d="m 285.31759,198.69061 c 0,3.61235 -2.92838,6.54074 -6.54073,6.54074 -3.61235,0 -6.54074,-2.92839 -6.54074,-6.54074 0,-3.61235 2.92839,-6.54073 6.54074,-6.54073 3.61235,0 6.54073,2.92838 6.54073,6.54073 z"
           sodipodi:ry="6.5407376"
           sodipodi:rx="6.5407376"
           sodipodi:cy="198.69061"
           sodipodi:cx="278.77686"
           id="path3806-9"
           style="fill:#239de8;fill-opacity:1;stroke:#239de8;stroke-width:1.79999995;stroke-miterlimit:4;stroke-opacity:1;stroke-dasharray:none"
           sodipodi:type="arc" />
        <path
           sodipodi:type="arc"
           style="fill:#239de8;fill-opacity:1;stroke:#239de8;stroke-width:1.79999995;stroke-miterlimit:4;stroke-opacity:1;stroke-dasharray:none"
           id="path3806-9-4"
           sodipodi:cx="278.77686"
           sodipodi:cy="198.69061"
           sodipodi:rx="6.5407376"
           sodipodi:ry="6.5407376"
           d="m 285.31759,198.69061 c 0,3.61235 -2.92838,6.54074 -6.54073,6.54074 -3.61235,0 -6.54074,-2.92839 -6.54074,-6.54074 0,-3.61235 2.92839,-6.54073 6.54074,-6.54073 3.61235,0 6.54073,2.92838 6.54073,6.54073 z"
           transform="translate(-347.53688,-4.0297107)" />
        <path
           sodipodi:type="arc"
           style="fill:#239de8;fill-opacity:1;stroke:#239de8;stroke-width:1.79999995;stroke-miterlimit:4;stroke-opacity:1;stroke-dasharray:none"
           id="path3806-9-4-8"
           sodipodi:cx="278.77686"
           sodipodi:cy="198.69061"
           sodipodi:rx="6.5407376"
           sodipodi:ry="6.5407376"
           d="m 285.31759,198.69061 c 0,3.61235 -2.92838,6.54074 -6.54073,6.54074 -3.61235,0 -6.54074,-2.92839 -6.54074,-6.54074 0,-3.61235 2.92839,-6.54073 6.54074,-6.54073 3.61235,0 6.54073,2.92838 6.54073,6.54073 z"
           transform="translate(-319.36011,-33.133265)" />
        <path
           sodipodi:type="arc"
           style="fill:#239de8;fill-opacity:1;stroke:#239de8;stroke-width:1.79999995;stroke-miterlimit:4;stroke-opacity:1;stroke-dasharray:none"
           id="path3806-9-4-82"
           sodipodi:cx="278.77686"
           sodipodi:cy="198.69061"
           sodipodi:rx="6.5407376"
           sodipodi:ry="6.5407376"
           d="m 285.31759,198.69061 c 0,3.61235 -2.92838,6.54074 -6.54073,6.54074 -3.61235,0 -6.54074,-2.92839 -6.54074,-6.54074 0,-3.61235 2.92839,-6.54073 6.54074,-6.54073 3.61235,0 6.54073,2.92838 6.54073,6.54073 z"
           transform="translate(-289.96366,3.5435127)" />
        <path
           sodipodi:type="arc"
           style="fill:#239de8;fill-opacity:1;stroke:#239de8;stroke-width:1.79999995;stroke-miterlimit:4;stroke-opacity:1;stroke-dasharray:none"
           id="path3806-9-4-4"
           sodipodi:cx="278.77686"
           sodipodi:cy="198.69061"
           sodipodi:rx="6.5407376"
           sodipodi:ry="6.5407376"
           d="m 285.31759,198.69061 c 0,3.61235 -2.92838,6.54074 -6.54073,6.54074 -3.61235,0 -6.54074,-2.92839 -6.54074,-6.54074 0,-3.61235 2.92839,-6.54073 6.54074,-6.54073 3.61235,0 6.54073,2.92838 6.54073,6.54073 z"
           transform="translate(-253.21365,-40.956488)" />
        <path
           sodipodi:nodetypes="ccccc"
           transform="translate(-386.68681,-62.833328)"
           inkscape:connector-curvature="0"
           id="path3958"
           d="m 280.54462,250.30941 37.1231,7.6014 28.28427,-29.52171 28.99138,36.416 37.83021,-44.54773"
           style="fill:none;stroke:#239de8;stroke-width:6.37795305;stroke-linecap:butt;stroke-linejoin:miter;stroke-miterlimit:4;stroke-opacity:1;stroke-dasharray:none" />
      </g>
    </g>
  </g>
</svg>
