<?xml version="1.0" encoding="UTF-8" standalone="no"?>
<!-- Created with Inkscape (http://www.inkscape.org/) -->

<svg
   xmlns:osb="http://www.openswatchbook.org/uri/2009/osb"
   xmlns:dc="http://purl.org/dc/elements/1.1/"
   xmlns:cc="http://creativecommons.org/ns#"
   xmlns:rdf="http://www.w3.org/1999/02/22-rdf-syntax-ns#"
   xmlns:svg="http://www.w3.org/2000/svg"
   xmlns="http://www.w3.org/2000/svg"
   xmlns:sodipodi="http://sodipodi.sourceforge.net/DTD/sodipodi-0.dtd"
   xmlns:inkscape="http://www.inkscape.org/namespaces/inkscape"
   width="100%"
   height="100%"
   viewBox="0 0 668.26196 407.81745"
   version="1.1"
   id="svg8"
   inkscape:version="0.48.4 r9939"
   sodipodi:docname="videoplayerEmptyImg.svg">
  <defs
     id="defs2">
    <linearGradient
       id="linearGradient4290"
       osb:paint="solid">
      <stop
         style="stop-color:#bce30f;stop-opacity:1;"
         offset="0"
         id="stop4288" />
    </linearGradient>
  </defs>
  <sodipodi:namedview
     id="base"
     pagecolor="#ffffff"
     bordercolor="#666666"
     borderopacity="1.0"
     inkscape:pageopacity="0.0"
     inkscape:pageshadow="2"
     inkscape:zoom="1.4"
     inkscape:cx="461.11563"
     inkscape:cy="190.81178"
     inkscape:document-units="mm"
     inkscape:current-layer="layer1"
     showgrid="false"
     showguides="true"
     inkscape:guide-bbox="true"
     inkscape:window-width="1920"
     inkscape:window-height="1017"
     inkscape:window-x="1912"
     inkscape:window-y="-8"
     inkscape:window-maximized="1"
     fit-margin-top="0"
     fit-margin-left="0"
     fit-margin-right="0"
     fit-margin-bottom="0">
    <sodipodi:guide
       position="65.037984,407.81744"
       orientation="0,1"
       id="guide849"
       inkscape:locked="false" />
    <sodipodi:guide
       position="94.520132,275.52578"
       orientation="1,0"
       id="guide857"
       inkscape:locked="false" />
    <sodipodi:guide
       position="140.63322,263.43054"
       orientation="1,0"
       id="guide859"
       inkscape:locked="false" />
    <sodipodi:guide
       position="164.8237,280.81745"
       orientation="1,0"
       id="guide1058"
       inkscape:locked="false" />
    <sodipodi:guide
       position="-9.8012949,340.53769"
       orientation="0,1"
       id="guide1060"
       inkscape:locked="false" />
    <sodipodi:guide
       position="51.430844,241.50792"
       orientation="0,1"
       id="guide1062"
       inkscape:locked="false" />
    <sodipodi:guide
       position="-7.5334349,120.55555"
       orientation="0,1"
       id="guide1064"
       inkscape:locked="false" />
    <sodipodi:guide
       orientation="1,0"
       position="302.5,206.78571"
       id="guide2999" />
    <sodipodi:guide
       orientation="0,1"
       position="216.42857,136.42857"
       id="guide3001" />
  </sodipodi:namedview>
  <metadata
     id="metadata5">
    <rdf:RDF>
      <cc:Work
         rdf:about="">
        <dc:format>image/svg+xml</dc:format>
        <dc:type
           rdf:resource="http://purl.org/dc/dcmitype/StillImage" />
        <dc:title />
      </cc:Work>
    </rdf:RDF>
  </metadata>
  <g
     inkscape:label="Layer 1"
     inkscape:groupmode="layer"
     id="layer1"
     transform="translate(210.9368,62.833328)">
    <g
       aria-label="Start adding new leangets and configure your Dashboard"
       transform="matrix(0.26458333,0,0,0.26458333,22.097819,116.89093)"
       style="font-style:normal;font-variant:normal;font-weight:normal;font-stretch:normal;font-size:40px;line-height:125%;font-family:'3ds';-inkscape-font-specification:'3ds';letter-spacing:0px;word-spacing:0px;fill:#239de8;fill-opacity:1;stroke:none;stroke-width:1px;stroke-linecap:butt;stroke-linejoin:miter;stroke-opacity:1"
       id="flowRoot861-4" />
    <rect
       style="opacity:1;vector-effect:none;fill:none;fill-opacity:1;stroke:none;stroke-width:0.02645833;stroke-linecap:butt;stroke-linejoin:round;stroke-miterlimit:4;stroke-dasharray:none;stroke-dashoffset:0;stroke-opacity:1"
       id="rect1094"
       width="668.26196"
       height="407.81744"
       x="-210.9368"
       y="-62.833328"
       rx="0.52916664" />
    <path
       style="fill:#239de8;fill-opacity:1;stroke:#269de6;stroke-width:0;stroke-miterlimit:4;stroke-opacity:1;stroke-dasharray:none"
       d="m 71.995726,148.34048 0.283031,-52.26013 62.938173,-0.2825 62.93819,-0.28251 0,52.54264 0,52.54263 -63.22122,0 -63.221204,0 0.28303,-52.26013 z m 19.355211,38.03224 c 0,-4.37781 0,-4.37781 -4.35937,-4.37781 -4.35935,0 -4.35935,0 -4.35935,4.37781 0,4.37783 0,4.37783 4.35935,4.37783 4.35937,0 4.35937,0 4.35937,-4.37783 z m 77.378533,-14.22789 0,-18.60572 -33.78501,0 -33.78499,0 0,18.60572 0,18.60572 33.78499,0 33.78501,0 0,-18.60572 z m 19.61709,14.22789 0,-4.37781 -4.90427,0 -4.90428,0 0,4.37781 0,4.37783 4.90428,0 4.90427,0 0,-4.37783 z m -96.995623,-18.6057 c 0,-4.37782 0,-4.37782 -4.35937,-4.37782 -4.35935,0 -4.35935,0 -4.35935,4.37782 0,4.37781 0,4.37781 4.35935,4.37781 4.35937,0 4.35937,0 4.35937,-4.37781 z m 96.995623,0 0,-4.37782 -4.90427,0 -4.90428,0 0,4.37782 0,4.37781 4.90428,0 4.90427,0 0,-4.37781 z m -96.995623,-19.15291 0,-4.92506 -4.35937,0 -4.35935,0 0,4.92506 0,4.925 4.35935,0 4.35937,0 0,-4.925 z m 96.995623,0 0,-4.92506 -4.90427,0 -4.90428,0 0,4.19542 c 0,5.20971 0.44309,5.65464 5.63083,5.65464 l 4.17772,0 0,-4.925 z m -19.61709,-24.07798 0,-19.15292 -33.78501,0 -33.78499,0 0,19.15292 0,19.15292 33.78499,0 33.78501,0 0,-19.15292 z m -77.378533,4.92506 c 0,-4.37784 0,-4.37784 -4.35937,-4.37784 -4.35935,0 -4.35935,0 -4.35935,4.37784 0,4.37778 0,4.37778 4.35935,4.37778 4.35937,0 4.35937,0 4.35937,-4.37778 z m 96.995623,0 0,-4.37784 -4.90427,0 -4.90428,0 0,4.37784 0,4.37778 4.90428,0 4.90427,0 0,-4.37778 z m -96.995623,-19.15295 0,-4.92503 -4.35937,0 -4.35935,0 0,4.92503 0,4.92504 4.35935,0 4.35937,0 0,-4.92504 z m 96.995623,0 0,-4.92503 -4.90427,0 -4.90428,0 0,4.1954 c 0,2.30746 0.32696,4.52375 0.72658,4.92502 0.3996,0.40132 2.60651,0.72965 4.90425,0.72965 l 4.17772,0 0,-4.92504 z"
       id="path4170"
       inkscape:connector-curvature="0" />
  </g>
</svg>
