<?xml version="1.0" encoding="UTF-8" standalone="no"?>
<!-- Created with Inkscape (http://www.inkscape.org/) -->

<svg
   xmlns:osb="http://www.openswatchbook.org/uri/2009/osb"
   xmlns:dc="http://purl.org/dc/elements/1.1/"
   xmlns:cc="http://creativecommons.org/ns#"
   xmlns:rdf="http://www.w3.org/1999/02/22-rdf-syntax-ns#"
   xmlns:svg="http://www.w3.org/2000/svg"
   xmlns="http://www.w3.org/2000/svg"
   xmlns:sodipodi="http://sodipodi.sourceforge.net/DTD/sodipodi-0.dtd"
   xmlns:inkscape="http://www.inkscape.org/namespaces/inkscape"
   width="100%"
   height="100%"
   viewBox="0 0 668.26196 407.81745"
   version="1.1"
   id="svg8"
   inkscape:version="0.48.4 r9939"
   sodipodi:docname="webviewerContainerCoachMarkImg.svg">
  <defs
     id="defs2">
    <linearGradient
       id="linearGradient4290"
       osb:paint="solid">
      <stop
         style="stop-color:#bce30f;stop-opacity:1;"
         offset="0"
         id="stop4288" />
    </linearGradient>
  </defs>
  <sodipodi:namedview
     id="base"
     pagecolor="#ffffff"
     bordercolor="#666666"
     borderopacity="1.0"
     inkscape:pageopacity="0.0"
     inkscape:pageshadow="2"
     inkscape:zoom="1.979899"
     inkscape:cx="116.61718"
     inkscape:cy="222.44201"
     inkscape:document-units="mm"
     inkscape:current-layer="layer1"
     showgrid="false"
     showguides="true"
     inkscape:guide-bbox="true"
     inkscape:window-width="1920"
     inkscape:window-height="1017"
     inkscape:window-x="1912"
     inkscape:window-y="-8"
     inkscape:window-maximized="1"
     fit-margin-top="0"
     fit-margin-left="0"
     fit-margin-right="0"
     fit-margin-bottom="0">
    <sodipodi:guide
       position="65.037984,407.81744"
       orientation="0,1"
       id="guide849"
       inkscape:locked="false" />
    <sodipodi:guide
       position="94.520132,275.52578"
       orientation="1,0"
       id="guide857"
       inkscape:locked="false" />
    <sodipodi:guide
       position="140.63322,263.43054"
       orientation="1,0"
       id="guide859"
       inkscape:locked="false" />
    <sodipodi:guide
       position="164.8237,280.81745"
       orientation="1,0"
       id="guide1058"
       inkscape:locked="false" />
    <sodipodi:guide
       position="-9.8012949,340.53769"
       orientation="0,1"
       id="guide1060"
       inkscape:locked="false" />
    <sodipodi:guide
       position="51.430844,241.50792"
       orientation="0,1"
       id="guide1062"
       inkscape:locked="false" />
    <sodipodi:guide
       position="-7.5334349,120.55555"
       orientation="0,1"
       id="guide1064"
       inkscape:locked="false" />
  </sodipodi:namedview>
  <metadata
     id="metadata5">
    <rdf:RDF>
      <cc:Work
         rdf:about="">
        <dc:format>image/svg+xml</dc:format>
        <dc:type
           rdf:resource="http://purl.org/dc/dcmitype/StillImage" />
        <dc:title />
      </cc:Work>
    </rdf:RDF>
  </metadata>
  <g
     inkscape:label="Layer 1"
     inkscape:groupmode="layer"
     id="layer1"
     transform="translate(210.9368,62.833328)">
    <g
       transform="matrix(5.3942407,0,0,5.4318016,-374.30616,117.48431)"
       style="fill:#239de8;fill-opacity:1;fill-rule:evenodd;stroke:none"
       id="Proposition">
      <g
         style="fill:#239de8;fill-opacity:1;stroke:none"
         id="Widget---Updated-Today"
         transform="translate(-1841,-864)">
        <g
           id="Style-02-/-Board-03"
           transform="translate(34,34)"
           style="fill:#239de8;fill-opacity:1;stroke:none">
          <g
             id="Style03-/-Menu-Copy"
             transform="translate(1790,552)"
             style="fill:#239de8;fill-opacity:1;stroke:none">
            <g
               id="Icon---Settings"
               transform="translate(16,278)"
               style="fill:#239de8;fill-opacity:1;stroke:none">
              <path
                 style="fill:#239de8;fill-opacity:1;stroke:none"
                 d="m 91.5,178.74023 c -0.866184,0.008 -1.427258,0.0263 -1.722656,0.0566 -2.344881,0.24055 -3.901639,1.46403 -4.621094,3.69921 -0.116847,0.3629 -0.175781,0.74182 -0.175781,1.12305 l 0,0.93555 c -1.050833,0.44895 -2.068263,0.98144 -3.060547,1.58008 l -2.119141,-1.42188 c -2.199697,-1.45735 -5.134369,-0.95487 -6.693359,1.15625 l -5.697266,7.7168 c -1.655907,2.24237 -1.052154,5.3537 1.238282,6.87109 l 2.08789,1.37695 c -0.287481,1.44614 -0.453125,2.91954 -0.453125,4.41407 0,1.61189 0.196991,3.20261 0.539063,4.76757 l -1.691407,1.13868 c -2.291669,1.5442 -2.846976,4.6698 -1.169921,6.89062 l 5.783203,7.66797 c 1.580337,2.09462 4.542898,2.56505 6.707031,1.11133 l 1.80664,-1.25781 c 0.892723,0.52893 1.797129,0.98077 2.722657,1.375 l 0,1.95117 c 0,2.53529 2.175427,5.6543 5.169922,5.6543 l 9.970699,0 c 3.55418,0 4.65039,-2.84112 4.65039,-5.6543 l 0,-1.92774 c 1.08139,-0.43948 2.12796,-0.94367 3.125,-1.51757 l 1.65821,1.07617 c 2.14752,1.41973 5.1422,0.93334 6.70898,-1.18164 l 5.72852,-7.71485 c 1.65499,-2.22912 1.08828,-5.3594 -1.22657,-6.88476 l -1.28906,-0.85352 c 0.32268,-1.52338 0.50782,-3.07146 0.50782,-4.64062 0,-1.58184 -0.18751,-3.14439 -0.51563,-4.67969 l 1.66992,-1.12305 c 2.29183,-1.53949 2.84941,-4.67111 1.17188,-6.89258 l -5.78125,-7.66796 c -1.58556,-2.095 -4.54577,-2.56444 -6.70899,-1.11133 l -1.94336,1.26562 c -0.99124,-0.56995 -2.0308,-1.07309 -3.10547,-1.50976 l 0,-0.91016 c 0,-1.59032 -0.4049,-2.92208 -1.73242,-3.93945 -0.66005,-0.50583 -1.35946,-0.75314 -2.08984,-0.85157 -0.33821,-0.0456 -0.52819,-0.0508 -0.953126,-0.0508 -0.08685,-10e-4 -0.0873,-5.8e-4 -0.63086,-0.006 -0.523577,-0.005 -1.094106,-0.0111 -1.689453,-0.0156 -0.907404,-0.007 -1.792193,-0.0119 -2.625,-0.0156 -1.513688,-0.007 -2.684597,-0.008 -3.550781,0 z m 0.578125,3.66211 c 2.898413,-0.0133 7.916016,0.0391 7.916016,0.0391 0.687859,0 1.111329,6.2e-4 1.111329,1.17773 l 0,3.5 c 6e-4,1.7e-4 0.001,-1.7e-4 0.002,0 2.49155,0.70983 4.81391,1.83926 6.79102,3.27734 l 0.002,0 0.002,-0.002 3.95899,-2.58008 c 0.56075,-0.37666 1.33829,-0.25118 1.73828,0.27735 l 5.7832,7.66992 c 0.4,0.5297 0.26974,1.26395 -0.29101,1.64062 l -3.84375,2.58789 -0.002,0 c 0.68662,1.97049 1.07227,4.06879 1.07227,6.25586 0,2.18119 -0.38354,4.27642 -1.06641,6.24219 l 0.002,0 3.49414,2.31445 c 0.56451,0.37197 0.69381,1.10662 0.29883,1.63868 l -5.72852,7.71679 c -0.39502,0.53325 -1.20504,0.66418 -1.76953,0.29102 l -3.63477,-2.36133 c -1.98209,1.44279 -4.31507,2.57611 -6.80664,3.28711 -5.9e-4,1.7e-4 -10e-4,-1.7e-4 -0.002,0 l 0,4.51758 c 0,0.64976 -0.29848,1.98828 -0.98633,1.98828 l -9.968749,0 c -0.689102,0 -1.50586,-1.33852 -1.50586,-1.98828 l 0,-4.50977 0.002,-0.008 -0.002,0 c -2.492231,-0.70038 -4.498847,-1.81208 -6.458984,-3.22461 l -3.78125,2.63086 c -0.560754,0.37667 -1.33756,0.25313 -1.736328,-0.27539 l -5.785157,-7.66992 c -0.400007,-0.5297 -0.267784,-1.26473 0.292969,-1.64258 l 3.876953,-2.60742 c -0.705286,-1.99403 -1.105468,-4.12217 -1.105468,-6.33985 0,-2.10349 0.346362,-4.12864 0.984375,-6.0332 l -4.259766,-2.81055 c -0.563231,-0.37314 -0.708221,-1.10739 -0.314453,-1.64062 l 5.697266,-7.71484 c 0.393773,-0.53324 1.139882,-0.66418 1.703124,-0.29102 l 4.148438,2.7832 c 2.026183,-1.50905 4.246056,-2.68658 6.738281,-3.41992 l 0.002,0 -0.002,-0.006 0,-3.49414 c 0.265831,-0.82587 0.582781,-1.08304 1.50586,-1.17773 0.230771,-0.0237 0.961596,-0.0346 1.927734,-0.0391 z M 94.875,193.39648 c -7.591474,0 -13.744141,6.15267 -13.744141,13.74414 0,7.59148 6.152667,13.74415 13.744141,13.74415 7.59148,0 13.74414,-6.15267 13.74414,-13.74415 0,-7.59147 -6.15266,-13.74414 -13.74414,-13.74414 z m 0,3.66407 c 5.56719,0 10.08008,4.51288 10.08008,10.08007 0,5.5672 -4.51289,10.07813 -10.08008,10.07813 -5.567196,0 -10.080078,-4.51093 -10.080078,-10.07813 0,-5.56719 4.512882,-10.08007 10.080078,-10.08007 z"
                 transform="matrix(0.17997928,0,0,0.17997928,32.029755,-32.012124)"
                 id="Combined-Shape"
                 inkscape:connector-curvature="0" />
            </g>
          </g>
        </g>
      </g>
    </g>
    <rect
       style="opacity:1;vector-effect:none;fill:none;fill-opacity:1;stroke:none;stroke-width:0.02645833;stroke-linecap:butt;stroke-linejoin:round;stroke-miterlimit:4;stroke-dasharray:none;stroke-dashoffset:0;stroke-opacity:1"
       id="rect1094"
       width="668.26196"
       height="407.81744"
       x="-210.9368"
       y="-62.833328"
       rx="0.52916664" />
  </g>
</svg>
