<svg id="button_create_copy_6" data-name="button create copy 6" xmlns="http://www.w3.org/2000/svg" xmlns:xlink="http://www.w3.org/1999/xlink" width="127" height="127" viewBox="0 0 127 127">
  <metadata><?xpacket begin="﻿" id="W5M0MpCehiHzreSzNTczkc9d"?>
<x:xmpmeta xmlns:x="adobe:ns:meta/" x:xmptk="Adobe XMP Core 5.6-c142 79.160924, 2017/07/13-01:06:39        ">
   <rdf:RDF xmlns:rdf="http://www.w3.org/1999/02/22-rdf-syntax-ns#">
      <rdf:Description rdf:about=""/>
   </rdf:RDF>
</x:xmpmeta>
                                                                                                    
                                                                                                    
                                                                                                    
                                                                                                    
                                                                                                    
                                                                                                    
                                                                                                    
                                                                                                    
                                                                                                    
                                                                                                    
                                                                                                    
                                                                                                    
                                                                                                    
                                                                                                    
                                                                                                    
                                                                                                    
                                                                                                    
                                                                                                    
                                                                                                    
                                                                                                    
                           
<?xpacket end="w"?></metadata>
<defs>
    <style>
      .cls-1 {
        fill: #09c5fb;
        filter: url(#filter);
      }

      .cls-2 {
        fill: #fff;
        fill-rule: evenodd;
      }
    </style>
    <filter id="filter" x="6" y="8" width="115" height="115" filterUnits="userSpaceOnUse">
      <feOffset result="offset" dy="2" in="SourceAlpha"/>
      <feGaussianBlur result="blur" stdDeviation="2.828"/>
      <feFlood result="flood" flood-opacity="0.3"/>
      <feComposite result="composite" operator="in" in2="blur"/>
      <feBlend result="blend" in="SourceGraphic"/>
    </filter>
  </defs>
  <circle class="cls-1" cx="63" cy="63" r="50"/>
  <path class="cls-2" d="M36,56.934v21.2A5.926,5.926,0,0,0,41.98,84H79.02A5.926,5.926,0,0,0,85,78.136v-21.2a5.639,5.639,0,0,0-5.69-5.58H71.35l-0.19-.814A7.241,7.241,0,0,0,64.04,45H56.95a7.257,7.257,0,0,0-7.12,5.541l-0.19.814H41.69A5.645,5.645,0,0,0,36,56.934Zm14.62-3.177a1.214,1.214,0,0,0,1.19-.932l0.41-1.745A4.818,4.818,0,0,1,56.95,47.4h7.09a4.819,4.819,0,0,1,4.73,3.677l0.41,1.745a1.224,1.224,0,0,0,1.19.932H79.3a3.208,3.208,0,0,1,3.24,3.177v21.2A3.5,3.5,0,0,1,79.01,81.6H41.98a3.5,3.5,0,0,1-3.53-3.462v-21.2a3.208,3.208,0,0,1,3.24-3.177h8.93Zm-6.33,3.521a1.609,1.609,0,1,1-1.64,1.608A1.624,1.624,0,0,1,44.29,57.278ZM60.5,77.832A10.093,10.093,0,1,0,50.21,67.741,10.208,10.208,0,0,0,60.5,77.832Zm0-17.779a7.69,7.69,0,1,1-7.84,7.688A7.778,7.778,0,0,1,60.5,60.053Z"/>
  <path id="Shape_1_copy_5" data-name="Shape 1 copy 5" class="cls-2" d="M92.651,31.339a1.144,1.144,0,0,0-1.625,0L77.255,45.2l-5.293-5.326a1.144,1.144,0,0,0-1.626,0,1.162,1.162,0,0,0,0,1.636l6.106,6.144a1.145,1.145,0,0,0,1.625,0L92.651,32.974A1.162,1.162,0,0,0,92.651,31.339Z"/>
</svg>
