<?xml version="1.0" encoding="UTF-8" standalone="no"?>
<svg
   xmlns:dc="http://purl.org/dc/elements/1.1/"
   xmlns:cc="http://creativecommons.org/ns#"
   xmlns:rdf="http://www.w3.org/1999/02/22-rdf-syntax-ns#"
   xmlns:svg="http://www.w3.org/2000/svg"
   xmlns="http://www.w3.org/2000/svg"
   xmlns:sodipodi="http://sodipodi.sourceforge.net/DTD/sodipodi-0.dtd"
   xmlns:inkscape="http://www.inkscape.org/namespaces/inkscape"
   width="246"
   height="246"
   viewBox="0 0 246 246"
   id="svg2999"
   version="1.1"
   inkscape:version="0.48.4 r9939"
   sodipodi:docname="Button cross V2.svg">
  <metadata
     id="metadata2994">
    <rdf:RDF>
      <cc:Work
         rdf:about="">
        <dc:format>image/svg+xml</dc:format>
        <dc:type
           rdf:resource="http://purl.org/dc/dcmitype/StillImage" />
      </cc:Work>
    </rdf:RDF>
  </metadata>
  <sodipodi:namedview
     pagecolor="#ffffff"
     bordercolor="#666666"
     borderopacity="1"
     objecttolerance="10"
     gridtolerance="10"
     guidetolerance="10"
     inkscape:pageopacity="0"
     inkscape:pageshadow="2"
     inkscape:window-width="1920"
     inkscape:window-height="1017"
     id="namedview3009"
     showgrid="false"
     showguides="true"
     inkscape:guide-bbox="true"
     inkscape:zoom="2.3857668"
     inkscape:cx="159.43018"
     inkscape:cy="105.04751"
     inkscape:window-x="1912"
     inkscape:window-y="-8"
     inkscape:window-maximized="1"
     inkscape:current-layer="svg2999" />
  <circle
     sodipodi:ry="91.5"
     sodipodi:rx="91.5"
     sodipodi:cy="122.5"
     sodipodi:cx="122.5"
     class="cls-1"
     cx="122.5"
     cy="122.5"
     r="91.5"
     id="circle3007-8"
     style="color:#000000;fill:#627a8f;fill-opacity:1;fill-rule:nonzero;stroke-width:1;stroke-linecap:butt;stroke-linejoin:miter;stroke-miterlimit:4;stroke-opacity:1;stroke-dasharray:none;stroke-dashoffset:0;marker:none;visibility:visible;display:inline;overflow:visible;enable-background:accumulate;filter:url(#filter4104)"
     transform="matrix(0.96235115,0,0,0.96235115,3.0999841,12.424984)" />
  <defs
     id="defs3003">
    <filter
       inkscape:collect="always"
       id="filter4104"
       x="-0.12521739"
       width="1.2504348"
       y="-0.12521739"
       height="1.2504348">
      <feGaussianBlur
         inkscape:collect="always"
         stdDeviation="9.5478261"
         id="feGaussianBlur4106" />
    </filter>
  </defs>
  <circle
     class="cls-1"
     cx="122.5"
     cy="122.5"
     r="91.5"
     id="circle3007"
     style="color:#000000;fill:#627a8f;fill-opacity:1;fill-rule:nonzero;stroke-width:1;stroke-linecap:butt;stroke-linejoin:miter;stroke-miterlimit:4;stroke-opacity:1;stroke-dasharray:none;stroke-dashoffset:0;marker:none;visibility:visible;display:inline;overflow:visible;enable-background:accumulate" />
  <g
     transform="matrix(2.0088296,0,0,2.0088296,75.113608,73.631678)"
     id="g3055"
     style="fill:#ffffff;fill-opacity:1">
    <path
       inkscape:connector-curvature="0"
       d="M 28.228,23.986 47.092,5.122 c 1.172,-1.171 1.172,-3.071 0,-4.242 -1.172,-1.172 -3.07,-1.172 -4.242,0 L 23.986,19.744 5.121,0.88 c -1.172,-1.172 -3.07,-1.172 -4.242,0 -1.172,1.171 -1.172,3.071 0,4.242 L 19.744,23.986 0.879,42.85 c -1.172,1.171 -1.172,3.071 0,4.242 0.586,0.585 1.354,0.878 2.121,0.878 0.767,0 1.535,-0.293 2.121,-0.879 L 23.986,28.227 42.85,47.091 c 0.586,0.586 1.354,0.879 2.121,0.879 0.767,0 1.535,-0.293 2.121,-0.879 1.172,-1.171 1.172,-3.071 0,-4.242 L 28.228,23.986 z"
       id="path3057"
       style="fill:#ffffff;fill-opacity:1" />
  </g>
</svg>
