<?xml version="1.0" encoding="UTF-8" standalone="no"?>
<svg
   xmlns:dc="http://purl.org/dc/elements/1.1/"
   xmlns:cc="http://creativecommons.org/ns#"
   xmlns:rdf="http://www.w3.org/1999/02/22-rdf-syntax-ns#"
   xmlns:svg="http://www.w3.org/2000/svg"
   xmlns="http://www.w3.org/2000/svg"
   xmlns:sodipodi="http://sodipodi.sourceforge.net/DTD/sodipodi-0.dtd"
   xmlns:inkscape="http://www.inkscape.org/namespaces/inkscape"
   viewBox="0 0 46.15 46.15"
   id="svg2"
   version="1.1"
   inkscape:version="0.91 r13725"
   width="100%"
   height="100%"
   sodipodi:docname="Capture.svg">
  <metadata
     id="metadata18">
    <rdf:RDF>
      <cc:Work
         rdf:about="">
        <dc:format>image/svg+xml</dc:format>
        <dc:type
           rdf:resource="http://purl.org/dc/dcmitype/StillImage" />
        <dc:title>load</dc:title>
      </cc:Work>
    </rdf:RDF>
  </metadata>
  <sodipodi:namedview
     pagecolor="#ffffff"
     bordercolor="#666666"
     borderopacity="1"
     objecttolerance="10"
     gridtolerance="10"
     guidetolerance="10"
     inkscape:pageopacity="0"
     inkscape:pageshadow="2"
     inkscape:window-width="1920"
     inkscape:window-height="1018"
     id="namedview16"
     showgrid="false"
     inkscape:zoom="14.463896"
     inkscape:cx="14.529868"
     inkscape:cy="24.411917"
     inkscape:window-x="-8"
     inkscape:window-y="-8"
     inkscape:window-maximized="1"
     inkscape:current-layer="svg2" />
  <defs
     id="defs4">
    <style
       id="style6">.cls-1{fill:#8DA3B7;}</style>
  </defs>
  <title
     id="title8">load</title>
  <path
     class="cls-1"
     d="m 19.00703,3.8442021 c 0,-1.5060855 0.07494,-1.5671428 1.691276,-1.5773193 l 4.731294,0 c 1.616345,0 1.691275,0.071233 1.691275,1.5773193 q 0,9.1586269 0,18.3172549 c 0,0.305287 0,0.600399 0,0.905686 a 0.70648253,0.67163262 0 0 0 0.770708,0.763219 l 0.952681,0 c 1.594937,0 3.040017,0 4.634954,0 l 0,0 c 0.310424,0 0.781411,0 0.781411,0.356169 0,0.183171 -0.128451,0.345991 -0.35324,0.559692 l 0,0 -10.436673,10.003256 0,0 c -0.267608,0.264583 -0.492398,0.254407 -0.792118,0 l 0.813526,0 c -0.289016,0.274759 -0.513806,0.284936 -0.792118,0 l 0,0 -10.468785,-9.982902 0,0 c -0.22479,-0.213702 -0.353241,-0.376521 -0.353241,-0.559694 0,-0.356168 0.481692,-0.356168 0.781411,-0.356168 l 0,0 c 1.594939,0 3.040017,0 4.634954,0 l 0.952682,0 a 0.70648253,0.67163262 0 0 0 0.770707,-0.763219 c 0,-0.305289 0,-0.6004 0,-0.905688 q 0,-9.158627 0,-18.3172533 c 0,-1.5060854 0.07494,-1.5671429 1.691277,-1.5773193 l 4.720589,0 c 1.616345,0 1.691275,0.071233 1.691275,1.5773193"
     id="path14"
     inkscape:connector-curvature="0"
     style="fill:#0a93e2;fill-opacity:1" />
  <rect
     style="fill:#0a93e2;fill-opacity:1"
     id="rect3013"
     width="44.953522"
     height="4.5500479"
     x="0.62666452"
     y="40.864601"
     ry="1.3987186" />
</svg>
