<?xml version="1.0" encoding="UTF-8" standalone="no"?>
<svg
   xmlns:dc="http://purl.org/dc/elements/1.1/"
   xmlns:cc="http://creativecommons.org/ns#"
   xmlns:rdf="http://www.w3.org/1999/02/22-rdf-syntax-ns#"
   xmlns:svg="http://www.w3.org/2000/svg"
   xmlns="http://www.w3.org/2000/svg"
   xmlns:sodipodi="http://sodipodi.sourceforge.net/DTD/sodipodi-0.dtd"
   xmlns:inkscape="http://www.inkscape.org/namespaces/inkscape"
   width="246"
   height="246"
   viewBox="0 0 246 246"
   id="svg2999"
   version="1.1"
   inkscape:version="0.48.4 r9939"
   sodipodi:docname="ShowFlo.svg">
  <metadata
     id="metadata2994">
    <rdf:RDF>
      <cc:Work
         rdf:about="">
        <dc:format>image/svg+xml</dc:format>
        <dc:type
           rdf:resource="http://purl.org/dc/dcmitype/StillImage" />
        <dc:title></dc:title>
      </cc:Work>
    </rdf:RDF>
  </metadata>
  <sodipodi:namedview
     pagecolor="#ffffff"
     bordercolor="#666666"
     borderopacity="1"
     objecttolerance="10"
     gridtolerance="10"
     guidetolerance="10"
     inkscape:pageopacity="0"
     inkscape:pageshadow="2"
     inkscape:window-width="1920"
     inkscape:window-height="1017"
     id="namedview3009"
     showgrid="false"
     showguides="true"
     inkscape:guide-bbox="true"
     inkscape:zoom="2.9430894"
     inkscape:cx="94.901243"
     inkscape:cy="123.8316"
     inkscape:window-x="-8"
     inkscape:window-y="-8"
     inkscape:window-maximized="1"
     inkscape:current-layer="svg2999" />
  <circle
     sodipodi:ry="91.5"
     sodipodi:rx="91.5"
     sodipodi:cy="122.5"
     sodipodi:cx="122.5"
     class="cls-1"
     cx="122.5"
     cy="122.5"
     r="91.5"
     id="circle3007-8"
     style="color:#000000;fill:#627a8f;fill-opacity:1;fill-rule:nonzero;stroke-width:1;stroke-linecap:butt;stroke-linejoin:miter;stroke-miterlimit:4;stroke-opacity:1;stroke-dasharray:none;stroke-dashoffset:0;marker:none;visibility:visible;display:inline;overflow:visible;enable-background:accumulate;filter:url(#filter4104)"
     transform="matrix(0.96235115,0,0,0.96235115,3.0999841,12.424984)" />
  <defs
     id="defs3003">
    <filter
       inkscape:collect="always"
       id="filter4104"
       x="-0.12521739"
       width="1.2504348"
       y="-0.12521739"
       height="1.2504348">
      <feGaussianBlur
         inkscape:collect="always"
         stdDeviation="9.5478261"
         id="feGaussianBlur4106" />
    </filter>
  </defs>
  <circle
     class="cls-1"
     cx="122.5"
     cy="122.5"
     r="91.5"
     id="circle3007"
     style="color:#000000;fill:#627a8f;fill-opacity:1;fill-rule:nonzero;stroke-width:1;stroke-linecap:butt;stroke-linejoin:miter;stroke-miterlimit:4;stroke-opacity:1;stroke-dasharray:none;stroke-dashoffset:0;marker:none;visibility:visible;display:inline;overflow:visible;enable-background:accumulate" />
  <g
     transform="translate(95.075395,93.356306)"
     id="Page-1"
     style="fill:#ffffff;fill-opacity:1;fill-rule:evenodd;stroke:none">
    <g
       id="icon-21-eye-hidden"
       style="fill:#ffffff;fill-opacity:1">
      <g
         id="Page-1-7"
         transform="matrix(5.4,0,0,5.4,-59.020695,-57.568146)"
         style="fill:#ffffff;fill-opacity:1;fill-rule:evenodd;stroke:#ffffff;stroke-opacity:1">
        <g
           id="icon-21-eye-hidden-4"
           style="fill:#ffffff;fill-opacity:1;stroke:#ffffff;stroke-opacity:1">
          <path
             id="eye-hidden"
             d="M 8.1086989,20.891301 C 4.6172082,18.830115 3,16 3,16 3,16 7,9 16,9 c 1.304511,0 2.503975,0.1470647 3.601439,0.3985612 L 18.751902,10.248098 C 17.897148,10.090055 16.980093,10 16,10 8,10 4.1999512,16 4.1999512,16 c 0,0 1.5147769,2.391722 4.6449759,4.155073 l -0.7362282,0.736228 0,0 0,0 z m 4.2898621,1.710138 C 13.496025,22.852936 14.695489,23 16,23 c 9,-1e-6 13,-7 13,-7 0,0 -1.617208,-2.830114 -5.108699,-4.891301 l -0.736228,0.736228 C 26.285272,13.608278 27.800049,16 27.800049,16 27.800049,16 24,21.999999 16,22 15.019907,22 14.102852,21.90995 13.248098,21.751902 l -0.849537,0.849537 0,0 0,0 z m 7.500092,-7.500092 C 19.964966,15.390212 20,15.691014 20,16 c 0,2.209139 -1.790861,4 -4,4 -0.308986,0 -0.609788,-0.03503 -0.898653,-0.101347 L 16,19 c 0.767767,0 1.535534,-0.292893 2.12132,-0.87868 C 18.707107,17.535534 19,16.767767 19,16 l 0.898653,-0.898653 0,0 0,0 z m -3,-3 C 16.609788,12.035034 16.308986,12 16,12 c -2.209139,0 -4,1.790861 -4,4 0,0.308986 0.03503,0.609788 0.101347,0.898653 L 13,16 c 0,-0.767767 0.292893,-1.535534 0.87868,-2.12132 C 14.464466,13.292893 15.232233,13 16,13 l 0.898653,-0.898653 0,0 0,0 z M 24,7 7,24 8,25 25,8 24,7 24,7 z"
             inkscape:connector-curvature="0"
             style="fill:#ffffff;fill-opacity:1;stroke:#ffffff;stroke-opacity:1" />
        </g>
      </g>
    </g>
  </g>
</svg>
