<?xml version="1.0" encoding="UTF-8" standalone="no"?>
<svg
   xmlns:dc="http://purl.org/dc/elements/1.1/"
   xmlns:cc="http://creativecommons.org/ns#"
   xmlns:rdf="http://www.w3.org/1999/02/22-rdf-syntax-ns#"
   xmlns:svg="http://www.w3.org/2000/svg"
   xmlns="http://www.w3.org/2000/svg"
   xmlns:sodipodi="http://sodipodi.sourceforge.net/DTD/sodipodi-0.dtd"
   xmlns:inkscape="http://www.inkscape.org/namespaces/inkscape"
   style="shape-rendering:geometricPrecision; text-rendering:geometricPrecision; image-rendering:optimizeQuality; fill-rule:evenodd; clip-rule:evenodd"
   viewBox="0 0 6.82666 6.82666"
   height="100%"
   width="100%"
   xml:space="preserve"
   version="1.1"
   id="svg13"
   sodipodi:docname="InfraReload.svg"
   inkscape:version="0.91 r13725"><metadata
     id="metadata17"><rdf:RDF><cc:Work
         rdf:about=""><dc:format>image/svg+xml</dc:format><dc:type
           rdf:resource="http://purl.org/dc/dcmitype/StillImage" /></cc:Work></rdf:RDF></metadata><sodipodi:namedview
     pagecolor="#ffffff"
     bordercolor="#666666"
     borderopacity="1"
     objecttolerance="10"
     gridtolerance="10"
     guidetolerance="10"
     inkscape:pageopacity="0"
     inkscape:pageshadow="2"
     inkscape:window-width="1920"
     inkscape:window-height="1018"
     id="namedview15"
     showgrid="false"
     showguides="true"
     inkscape:guide-bbox="true"
     inkscape:zoom="97.779705"
     inkscape:cx="0.9897894"
     inkscape:cy="3.2024236"
     inkscape:window-x="-8"
     inkscape:window-y="-8"
     inkscape:window-maximized="1"
     inkscape:current-layer="svg13"><sodipodi:guide
       position="3.4158417,5.7476139"
       orientation="1,0"
       id="guide826"
       inkscape:locked="false" /><sodipodi:guide
       position="1.3908816,3.4158417"
       orientation="0,1"
       id="guide828"
       inkscape:locked="false" /><sodipodi:guide
       position="1.2272485,5.6964785"
       orientation="1,0"
       id="guide830"
       inkscape:locked="false" /><sodipodi:guide
       position="5.5942078,6.4532817"
       orientation="1,0"
       id="guide832"
       inkscape:locked="false" /></sodipodi:namedview><defs
     id="defs4"><style
       type="text/css"
       id="style2">

        .fil1 {fill:none}
        .fil0 {fill:#0A93E2;fill-rule:nonzero}

      </style></defs><g
     id="Layer_x0020_1"
     transform="matrix(1.25,0,0,1.25,-0.78168251,-0.8635671)"><path
       class="fil0"
       d="M 2.46703,5.54888 C 2.580707,5.579254 2.697491,5.5117225 2.727865,5.398045 2.758239,5.284368 2.6907075,5.167584 2.57703,5.13721 2.110176,5.012119 1.738231,4.709667 1.5143,4.321804 1.290548,3.934257 1.214733,3.461021 1.339875,2.993974 1.464966,2.52712 1.767418,2.155179 2.155281,1.931244 2.542828,1.707492 3.016064,1.631673 3.483111,1.756815 3.949965,1.881906 4.321906,2.184358 4.545841,2.572221 4.769593,2.959768 4.845412,3.433004 4.72027,3.900051 4.689896,4.013728 4.7574275,4.130512 4.871105,4.160886 4.984782,4.19126 5.101566,4.1237285 5.13194,4.010051 5.287373,3.429957 5.1927707,2.841441 4.914172,2.358891 4.635751,1.876655 4.173396,1.500631 3.593112,1.345151 3.013018,1.189718 2.424502,1.2843203 1.941952,1.562919 1.459716,1.84134 1.083692,2.303695 0.928212,2.883979 c -0.155433,0.580094 -0.0608346,1.16861 0.217764,1.65116 0.278421,0.482236 0.74078,0.85826 1.32106,1.01374 z"
       id="path6"
       inkscape:connector-curvature="0"
       style="fill:#0a93e2;fill-rule:nonzero" /><path
       class="fil0"
       d="M 5.895,3.43303 C 5.985665,3.358475 5.99872,3.22453 5.924165,3.133865 5.84961,3.0432 5.715665,3.030145 5.625,3.1047 L 4.955177,3.655889 4.404075,2.986165 C 4.32952,2.8955 4.195575,2.882445 4.10491,2.957 4.014245,3.031555 4.00119,3.1655 4.075745,3.256165 l 0.674638,0.81985 c 0.00343,0.00497 0.00709,0.00985 0.010996,0.014602 0.074862,0.090976 0.209307,0.104035 0.300283,0.029173 l -5e-4,-6.063e-4 0.833839,-0.686154 z"
       id="path8"
       inkscape:connector-curvature="0"
       style="fill:#0a93e2;fill-rule:nonzero" /></g><rect
     class="fil1"
     height="6.82666"
     width="6.82666"
     id="rect11" /></svg>