<?xml version="1.0" encoding="UTF-8" standalone="no"?>
<svg
   xmlns:dc="http://purl.org/dc/elements/1.1/"
   xmlns:cc="http://creativecommons.org/ns#"
   xmlns:rdf="http://www.w3.org/1999/02/22-rdf-syntax-ns#"
   xmlns:svg="http://www.w3.org/2000/svg"
   xmlns="http://www.w3.org/2000/svg"
   xmlns:sodipodi="http://sodipodi.sourceforge.net/DTD/sodipodi-0.dtd"
   xmlns:inkscape="http://www.inkscape.org/namespaces/inkscape"
   id="Layer_1"
   style="enable-background:new 0 0 30 30;"
   version="1.1"
   viewBox="0 0 30 30"
   xml:space="preserve"
   inkscape:version="0.48.4 r9939"
   width="100%"
   height="100%"
   sodipodi:docname="infraSketchCapture.svg"><metadata
     id="metadata31"><rdf:RDF><cc:Work
         rdf:about=""><dc:format>image/svg+xml</dc:format><dc:type
           rdf:resource="http://purl.org/dc/dcmitype/StillImage" /><dc:title></dc:title></cc:Work></rdf:RDF></metadata><defs
     id="defs29"><style
       id="style2"
       type="text/css">

        .fil1 {fill:none}
        .fil0 {fill:#0A93E2;fill-rule:nonzero}

      </style></defs><sodipodi:namedview
     pagecolor="#ffffff"
     bordercolor="#666666"
     borderopacity="1"
     objecttolerance="10"
     gridtolerance="10"
     guidetolerance="10"
     inkscape:pageopacity="0"
     inkscape:pageshadow="2"
     inkscape:window-width="1920"
     inkscape:window-height="1017"
     id="namedview27"
     showgrid="false"
     inkscape:zoom="22.627417"
     inkscape:cx="-3.2946669"
     inkscape:cy="14.461269"
     inkscape:window-x="-8"
     inkscape:window-y="-8"
     inkscape:window-maximized="1"
     inkscape:current-layer="Layer_1" /><g
     id="g3"
     transform="matrix(1.3636364,0,0,1.3636364,-5.4545453,-5.4545464)"><rect
       style="fill:#0a93e2;fill-opacity:1;stroke:none"
       id="rect3834-3-1-8"
       width="1.5"
       height="4"
       x="24.5"
       y="10" /><rect
       style="fill:#0a93e2;fill-opacity:1;stroke:none"
       id="rect3834-3-1-6-2"
       width="1.5"
       height="2.497751"
       x="24.5"
       y="5.5022488" /><rect
       style="fill:#0a93e2;fill-opacity:1;stroke:none"
       id="rect3834-3-1-6-2-7"
       width="1.5"
       height="4"
       x="4"
       y="-14"
       transform="matrix(0,1,-1,0,0,0)" /><rect
       style="fill:#0a93e2;fill-opacity:1;stroke:none"
       id="rect3834-3-1-6-2-7-7"
       width="1.5"
       height="4"
       x="4"
       y="-20"
       transform="matrix(0,1,-1,0,0,0)" /><rect
       style="fill:#0a93e2;fill-opacity:1;stroke:none"
       id="rect3834-3-1-6-2-7-1"
       width="1.5"
       height="2.5043256"
       x="4"
       y="-24.504326"
       transform="matrix(0,1,-1,0,0,0)" /><rect
       style="fill:#0a93e2;fill-opacity:1;stroke:none"
       id="rect3834-3-1-6-2-7-1-2"
       width="1.5"
       height="2.499459"
       x="4"
       y="-8"
       transform="matrix(0,1,-1,0,0,0)" /><rect
       style="fill:#0a93e2;fill-opacity:1;stroke:none"
       id="rect3834-3-1-6-2-7-6"
       width="1.5"
       height="2.4991629"
       x="24.5"
       y="-8"
       transform="matrix(0,1,-1,0,0,0)" /><rect
       style="fill:#0a93e2;fill-opacity:1;stroke:none"
       id="rect3834-3-1-6-2-7-7-1"
       width="1.5"
       height="4"
       x="24.5"
       y="-20"
       transform="matrix(0,1,-1,0,0,0)" /><rect
       style="fill:#0a93e2;fill-opacity:1;stroke:none"
       id="rect3834-3-1-6-2-7-74"
       width="1.5"
       height="4"
       x="24.5"
       y="-14"
       transform="matrix(0,1,-1,0,0,0)" /><rect
       style="fill:#0a93e2;fill-opacity:1;stroke:none"
       id="rect3834-3-1-6-2-0"
       width="1.5"
       height="2.4994586"
       x="-26"
       y="-24.499458"
       transform="matrix(0,-1,-1,0,0,0)" /><rect
       style="fill:#0a93e2;fill-opacity:1;stroke:none"
       id="rect3834-3-1-6-2-7-1-9"
       width="1.5"
       height="2.4981873"
       x="-26"
       y="22"
       transform="scale(-1,1)" /></g><rect
     style="fill:#0a93e2;fill-opacity:1;stroke:none"
     id="rect3834-3"
     width="2.0454545"
     height="5.454546"
     x="0"
     y="16.363634" /><rect
     style="fill:#0a93e2;fill-opacity:1;stroke:none"
     id="rect3834-3-1"
     width="2.0454545"
     height="5.454546"
     x="0"
     y="8.1818171" /><rect
     style="fill:#0a93e2;fill-opacity:1;stroke:none"
     id="rect3834-3-1-6"
     width="2.0454545"
     height="3.4134495"
     x="0"
     y="2.0410948" /><rect
     style="fill:#0a93e2;fill-opacity:1;stroke:none"
     id="rect3834-3-8"
     width="2.0454545"
     height="3.4079499"
     x="0"
     y="24.545454" /><rect
     style="fill:#0a93e2;fill-opacity:1;stroke:none"
     id="rect3834-3-4"
     width="2.0454545"
     height="5.454546"
     x="27.954544"
     y="16.265059" /><g
     id="g3095"
     transform="matrix(0.08262439,0,0,0.08262439,5.9998747,5.9998638)"
     style="fill:#0a93e2;fill-opacity:1"><path
       style="fill:#0a93e2;fill-opacity:1"
       id="path2"
       d="M 227.51686,47.396861 170.45797,-9.663136 c -1.56222,-1.562223 -3.68222,-2.44 -5.89222,-2.44 -2.21,0 -4.33,0.877777 -5.89222,2.44 L -7.8709109,156.8813 c -1.5,1.50222 -2.3722221,3.51777 -2.4366661,5.63889 l -1.79,58.8511 c -0.07,2.29667 0.812222,4.52111 2.4366661,6.14667 1.5655555,1.56444 3.6855554,2.44 5.892222,2.44 0.084444,0 0.1688889,-0.001 0.2544444,-0.004 l 58.8488865,-1.79223 c 2.121111,-0.0644 4.137778,-0.93555 5.638889,-2.43555 L 227.51797,59.182416 c 3.25333,-3.254444 3.25333,-8.531111 -0.001,-11.785555 z M 51.523531,211.60352 4.8301996,213.02574 6.2513106,166.33019 107.5002,65.080194 152.77798,110.35019 51.523531,211.60352 z M 164.56353,98.565748 119.28464,53.296861 l 45.28,-45.2811093 45.27333,45.2744423 -45.27444,45.275554 z"
       inkscape:connector-curvature="0" /><g
       id="g4"
       style="fill:#0a93e2;fill-opacity:1">
</g><g
       id="g6"
       style="fill:#0a93e2;fill-opacity:1">
</g><g
       id="g8"
       style="fill:#0a93e2;fill-opacity:1">
</g><g
       id="g10"
       style="fill:#0a93e2;fill-opacity:1">
</g><g
       id="g12"
       style="fill:#0a93e2;fill-opacity:1">
</g><g
       id="g14"
       style="fill:#0a93e2;fill-opacity:1">
</g><g
       id="g16"
       style="fill:#0a93e2;fill-opacity:1">
</g><g
       id="g18"
       style="fill:#0a93e2;fill-opacity:1">
</g><g
       id="g20"
       style="fill:#0a93e2;fill-opacity:1">
</g><g
       id="g22"
       style="fill:#0a93e2;fill-opacity:1">
</g><g
       id="g24"
       style="fill:#0a93e2;fill-opacity:1">
</g><g
       id="g26"
       style="fill:#0a93e2;fill-opacity:1">
</g><g
       id="g28"
       style="fill:#0a93e2;fill-opacity:1">
</g><g
       id="g30"
       style="fill:#0a93e2;fill-opacity:1">
</g><g
       id="g32"
       style="fill:#0a93e2;fill-opacity:1">
</g></g><path
     style="fill:#0a93e2;fill-opacity:1;stroke:#0a93e2;stroke-opacity:1"
     d="m 17.730513,12.23502 -1.844911,-1.845303 1.845304,-1.8449113 1.845304,-1.8449118 1.855761,1.8561553 1.855761,1.8561548 -1.83366,1.83406 c -1.008514,1.008733 -1.843783,1.834059 -1.856154,1.834059 -0.01237,0 -0.852704,-0.830386 -1.867405,-1.845303 z"
     id="path3016"
     inkscape:connector-curvature="0" /></svg>