<?xml version="1.0" encoding="UTF-8" standalone="no"?>
<!-- Generator: Adobe Illustrator 19.0.0, SVG Export Plug-In . SVG Version: 6.00 Build 0)  -->

<svg
   xmlns:dc="http://purl.org/dc/elements/1.1/"
   xmlns:cc="http://creativecommons.org/ns#"
   xmlns:rdf="http://www.w3.org/1999/02/22-rdf-syntax-ns#"
   xmlns:svg="http://www.w3.org/2000/svg"
   xmlns="http://www.w3.org/2000/svg"
   xmlns:sodipodi="http://sodipodi.sourceforge.net/DTD/sodipodi-0.dtd"
   xmlns:inkscape="http://www.inkscape.org/namespaces/inkscape"
   version="1.1"
   id="Capa_1"
   x="0px"
   y="0px"
   viewBox="0 0 512 512"
   style="enable-background:new 0 0 512 512;"
   xml:space="preserve"
   inkscape:version="0.48.4 r9939"
   width="100%"
   height="100%"
   sodipodi:docname="object-alignment.svg"><metadata
   id="metadata55"><rdf:RDF><cc:Work
       rdf:about=""><dc:format>image/svg+xml</dc:format><dc:type
         rdf:resource="http://purl.org/dc/dcmitype/StillImage" /></cc:Work></rdf:RDF></metadata><defs
   id="defs53" /><sodipodi:namedview
   pagecolor="#ffffff"
   bordercolor="#666666"
   borderopacity="1"
   objecttolerance="10"
   gridtolerance="10"
   guidetolerance="10"
   inkscape:pageopacity="0"
   inkscape:pageshadow="2"
   inkscape:window-width="1920"
   inkscape:window-height="1017"
   id="namedview51"
   showgrid="false"
   inkscape:zoom="0.4609375"
   inkscape:cx="-82.440678"
   inkscape:cy="256"
   inkscape:window-x="1912"
   inkscape:window-y="-8"
   inkscape:window-maximized="1"
   inkscape:current-layer="Capa_1" />
<g
   id="g3"
   style="fill:#0a93e2;fill-opacity:1">
	<g
   id="g5"
   style="fill:#0a93e2;fill-opacity:1">
		<path
   d="M497,31H15C6.716,31,0,37.716,0,46s6.716,15,15,15h482c8.284,0,15-6.716,15-15S505.284,31,497,31z"
   id="path7"
   style="fill:#0a93e2;fill-opacity:1" />
	</g>
</g>
<g
   id="g9"
   style="fill:#0a93e2;fill-opacity:1">
	<g
   id="g11"
   style="fill:#0a93e2;fill-opacity:1">
		<path
   d="M437,91H317c-8.284,0-15,6.716-15,15v180c0,8.284,6.716,15,15,15h120c8.284,0,15-6.716,15-15V106    C452,97.716,445.284,91,437,91z M422,271h-90V121h90V271z"
   id="path13"
   style="fill:#0a93e2;fill-opacity:1" />
	</g>
</g>
<g
   id="g15"
   style="fill:#0a93e2;fill-opacity:1">
	<g
   id="g17"
   style="fill:#0a93e2;fill-opacity:1">
		<path
   d="M197,91H77c-8.284,0-15,6.716-15,15v360c0,8.284,6.716,15,15,15h120c8.284,0,15-6.716,15-15V106    C212,97.716,205.284,91,197,91z M182,451H92V121h90V451z"
   id="path19"
   style="fill:#0a93e2;fill-opacity:1" />
	</g>
</g>
<g
   id="g21">
</g>
<g
   id="g23">
</g>
<g
   id="g25">
</g>
<g
   id="g27">
</g>
<g
   id="g29">
</g>
<g
   id="g31">
</g>
<g
   id="g33">
</g>
<g
   id="g35">
</g>
<g
   id="g37">
</g>
<g
   id="g39">
</g>
<g
   id="g41">
</g>
<g
   id="g43">
</g>
<g
   id="g45">
</g>
<g
   id="g47">
</g>
<g
   id="g49">
</g>
</svg>