<?xml version="1.0" encoding="UTF-8" standalone="no"?>
<svg
   xmlns:dc="http://purl.org/dc/elements/1.1/"
   xmlns:cc="http://creativecommons.org/ns#"
   xmlns:rdf="http://www.w3.org/1999/02/22-rdf-syntax-ns#"
   xmlns:svg="http://www.w3.org/2000/svg"
   xmlns="http://www.w3.org/2000/svg"
   xmlns:sodipodi="http://sodipodi.sourceforge.net/DTD/sodipodi-0.dtd"
   xmlns:inkscape="http://www.inkscape.org/namespaces/inkscape"
   width="246"
   height="246"
   viewBox="0 0 246 246"
   id="svg2999"
   version="1.1"
   inkscape:version="0.48.4 r9939"
   sodipodi:docname="ShowHideFlo.svg">
  <metadata
     id="metadata2994">
    <rdf:RDF>
      <cc:Work
         rdf:about="">
        <dc:format>image/svg+xml</dc:format>
        <dc:type
           rdf:resource="http://purl.org/dc/dcmitype/StillImage" />
        <dc:title></dc:title>
      </cc:Work>
    </rdf:RDF>
  </metadata>
  <sodipodi:namedview
     pagecolor="#ffffff"
     bordercolor="#666666"
     borderopacity="1"
     objecttolerance="10"
     gridtolerance="10"
     guidetolerance="10"
     inkscape:pageopacity="0"
     inkscape:pageshadow="2"
     inkscape:window-width="1920"
     inkscape:window-height="1017"
     id="namedview3009"
     showgrid="false"
     showguides="true"
     inkscape:guide-bbox="true"
     inkscape:zoom="1.6869919"
     inkscape:cx="-73.142857"
     inkscape:cy="68.863925"
     inkscape:window-x="-8"
     inkscape:window-y="-8"
     inkscape:window-maximized="1"
     inkscape:current-layer="icon-21-eye-hidden" />
  <circle
     sodipodi:ry="91.5"
     sodipodi:rx="91.5"
     sodipodi:cy="122.5"
     sodipodi:cx="122.5"
     class="cls-1"
     cx="122.5"
     cy="122.5"
     r="91.5"
     id="circle3007-8"
     style="color:#000000;fill:#627a8f;fill-opacity:1;fill-rule:nonzero;stroke-width:1;stroke-linecap:butt;stroke-linejoin:miter;stroke-miterlimit:4;stroke-opacity:1;stroke-dasharray:none;stroke-dashoffset:0;marker:none;visibility:visible;display:inline;overflow:visible;enable-background:accumulate;filter:url(#filter4104)"
     transform="matrix(0.96235115,0,0,0.96235115,3.0999841,12.424984)" />
  <defs
     id="defs3003">
    <filter
       inkscape:collect="always"
       id="filter4104"
       x="-0.12521739"
       width="1.2504348"
       y="-0.12521739"
       height="1.2504348">
      <feGaussianBlur
         inkscape:collect="always"
         stdDeviation="9.5478261"
         id="feGaussianBlur4106" />
    </filter>
  </defs>
  <circle
     class="cls-1"
     cx="122.5"
     cy="122.5"
     r="91.5"
     id="circle3007"
     style="color:#000000;fill:#627a8f;fill-opacity:1;fill-rule:nonzero;stroke-width:1;stroke-linecap:butt;stroke-linejoin:miter;stroke-miterlimit:4;stroke-opacity:1;stroke-dasharray:none;stroke-dashoffset:0;marker:none;visibility:visible;display:inline;overflow:visible;enable-background:accumulate" />
  <g
     transform="translate(95.075395,93.356306)"
     id="Page-1"
     style="fill:#ffffff;fill-opacity:1;fill-rule:evenodd;stroke:none">
    <g
       id="icon-21-eye-hidden"
       style="fill:#ffffff;fill-opacity:1">
      <g
         id="Page-1-1"
         transform="matrix(5.4,0,0,5.4,-58.364223,-58.13154)"
         style="fill:#ffffff;fill-opacity:1;stroke:#ffffff;stroke-width:0.98148149;stroke-miterlimit:4;stroke-opacity:1;stroke-dasharray:none">
        <g
           id="icon-22-eye"
           style="fill:#ffffff;fill-opacity:1;stroke:#ffffff;stroke-width:0.98148149;stroke-miterlimit:4;stroke-opacity:1;stroke-dasharray:none">
          <path
             id="eye"
             d="M 16,9 C 7,9 3,16 3,16 c 0,0 4,7.000001 13,7 9,-1e-6 13,-7 13,-7 0,0 -4,-7 -13,-7 l 0,0 0,0 z m 0,1 C 8,10 4.1999512,16 4.1999512,16 4.1999512,16 8,22.000001 16,22 c 8,-1e-6 11.800049,-6 11.800049,-6 C 27.800049,16 24,10 16,10 l 0,0 0,0 z m 0,10 c 2.209139,0 4,-1.790861 4,-4 0,-2.209139 -1.790861,-4 -4,-4 -2.209139,0 -4,1.790861 -4,4 0,2.209139 1.790861,4 4,4 l 0,0 0,0 z m 0,-1 c 1.656854,0 3,-1.343146 3,-3 0,-1.656854 -1.343146,-3 -3,-3 -1.656854,0 -3,1.343146 -3,3 0,1.656854 1.343146,3 3,3 l 0,0 0,0 z m 0,-2 c 0.552285,0 1,-0.447715 1,-1 0,-0.552285 -0.447715,-1 -1,-1 -0.552285,0 -1,0.447715 -1,1 0,0.552285 0.447715,1 1,1 l 0,0 0,0 z"
             inkscape:connector-curvature="0"
             style="fill:#ffffff;fill-opacity:1;stroke:#ffffff;stroke-width:0.98148149;stroke-miterlimit:4;stroke-opacity:1;stroke-dasharray:none" />
        </g>
      </g>
    </g>
  </g>
</svg>
