<?xml version="1.0" encoding="UTF-8"?>
<svg width="15px" height="15px" viewBox="0 0 15 15" version="1.1" xmlns="http://www.w3.org/2000/svg" xmlns:xlink="http://www.w3.org/1999/xlink">
    <!-- Generator: Sketch 40.3 (33839) - http://www.bohemiancoding.com/sketch -->
    <title>Icon - Close</title>
    <desc>Created with Sketch.</desc>
    <defs></defs>
    <g id="Proposition" stroke="none" stroke-width="1" fill="none" fill-rule="evenodd">
        <g id="Widget---Updated-Today" transform="translate(-1711.000000, -189.000000)" fill="#239DE8">
            <g id="Icon---Close" transform="translate(1711.000000, 189.000000)">
                <path d="M8.91421356,7.5 L14.7071068,13.2928932 C15.0976311,13.6834175 15.0976311,14.3165825 14.7071068,14.7071068 C14.3165825,15.0976311 13.6834175,15.0976311 13.2928932,14.7071068 L7.5,8.91421356 L1.70710678,14.7071068 C1.31658249,15.0976311 0.683417511,15.0976311 0.292893219,14.7071068 C-0.0976310729,14.3165825 -0.0976310729,13.6834175 0.292893219,13.2928932 L6.08578644,7.5 L0.292893219,1.70710678 C-0.0976310729,1.31658249 -0.0976310729,0.683417511 0.292893219,0.292893219 C0.683417511,-0.0976310729 1.31658249,-0.0976310729 1.70710678,0.292893219 L7.5,6.08578644 L13.2928932,0.292893219 C13.6834175,-0.0976310729 14.3165825,-0.0976310729 14.7071068,0.292893219 C15.0976311,0.683417511 15.0976311,1.31658249 14.7071068,1.70710678 L8.91421356,7.5 Z" id="Combined-Shape"></path>
            </g>
        </g>
    </g>
</svg>